<?xml version="1.0" encoding="utf-8" standalone="no"?>
<!DOCTYPE svg PUBLIC "-//W3C//DTD SVG 1.1//EN"
  "http://www.w3.org/Graphics/SVG/1.1/DTD/svg11.dtd">
<svg xmlns:xlink="http://www.w3.org/1999/xlink" width="460.8pt" height="345.6pt" viewBox="0 0 460.8 345.6" xmlns="http://www.w3.org/2000/svg" version="1.1">
 <metadata>
  <rdf:RDF xmlns:dc="http://purl.org/dc/elements/1.1/" xmlns:cc="http://creativecommons.org/ns#" xmlns:rdf="http://www.w3.org/1999/02/22-rdf-syntax-ns#">
   <cc:Work>
    <dc:type rdf:resource="http://purl.org/dc/dcmitype/StillImage"/>
    <dc:date>2023-07-24T16:01:18.945953</dc:date>
    <dc:format>image/svg+xml</dc:format>
    <dc:creator>
     <cc:Agent>
      <dc:title>Matplotlib v3.6.3, https://matplotlib.org/</dc:title>
     </cc:Agent>
    </dc:creator>
   </cc:Work>
  </rdf:RDF>
 </metadata>
 <defs>
  <style type="text/css">*{stroke-linejoin: round; stroke-linecap: butt}</style>
 </defs>
 <g id="figure_1">
  <g id="patch_1">
   <path d="M 0 345.6 
L 460.8 345.6 
L 460.8 0 
L 0 0 
z
" style="fill: #ffffff"/>
  </g>
  <g id="axes_1">
   <g id="patch_2">
    <path d="M 57.6 307.584 
L 414.72 307.584 
L 414.72 41.472 
L 57.6 41.472 
z
" style="fill: #ffffff"/>
   </g>
   <g id="patch_3">
    <path d="M 73.832727 307.584 
L 81.949091 307.584 
L 81.949091 307.112045 
L 73.832727 307.112045 
z
" clip-path="url(#p7d0934e48d)" style="fill: #9467bd; fill-opacity: 0.75; stroke: #000000; stroke-width: 0.811636; stroke-linejoin: miter"/>
   </g>
   <g id="patch_4">
    <path d="M 81.949091 307.584 
L 90.065455 307.584 
L 90.065455 307.348022 
L 81.949091 307.348022 
z
" clip-path="url(#p7d0934e48d)" style="fill: #9467bd; fill-opacity: 0.75; stroke: #000000; stroke-width: 0.811636; stroke-linejoin: miter"/>
   </g>
   <g id="patch_5">
    <path d="M 90.065455 307.584 
L 98.181818 307.584 
L 98.181818 307.112045 
L 90.065455 307.112045 
z
" clip-path="url(#p7d0934e48d)" style="fill: #9467bd; fill-opacity: 0.75; stroke: #000000; stroke-width: 0.811636; stroke-linejoin: miter"/>
   </g>
   <g id="patch_6">
    <path d="M 98.181818 307.584 
L 106.298182 307.584 
L 106.298182 307.348022 
L 98.181818 307.348022 
z
" clip-path="url(#p7d0934e48d)" style="fill: #9467bd; fill-opacity: 0.75; stroke: #000000; stroke-width: 0.811636; stroke-linejoin: miter"/>
   </g>
   <g id="patch_7">
    <path d="M 106.298182 307.584 
L 114.414545 307.584 
L 114.414545 307.584 
L 106.298182 307.584 
z
" clip-path="url(#p7d0934e48d)" style="fill: #9467bd; fill-opacity: 0.75; stroke: #000000; stroke-width: 0.811636; stroke-linejoin: miter"/>
   </g>
   <g id="patch_8">
    <path d="M 114.414545 307.584 
L 122.530909 307.584 
L 122.530909 307.584 
L 114.414545 307.584 
z
" clip-path="url(#p7d0934e48d)" style="fill: #9467bd; fill-opacity: 0.75; stroke: #000000; stroke-width: 0.811636; stroke-linejoin: miter"/>
   </g>
   <g id="patch_9">
    <path d="M 122.530909 307.584 
L 130.647273 307.584 
L 130.647273 307.348022 
L 122.530909 307.348022 
z
" clip-path="url(#p7d0934e48d)" style="fill: #9467bd; fill-opacity: 0.75; stroke: #000000; stroke-width: 0.811636; stroke-linejoin: miter"/>
   </g>
   <g id="patch_10">
    <path d="M 130.647273 307.584 
L 138.763636 307.584 
L 138.763636 307.584 
L 130.647273 307.584 
z
" clip-path="url(#p7d0934e48d)" style="fill: #9467bd; fill-opacity: 0.75; stroke: #000000; stroke-width: 0.811636; stroke-linejoin: miter"/>
   </g>
   <g id="patch_11">
    <path d="M 138.763636 307.584 
L 146.88 307.584 
L 146.88 307.348022 
L 138.763636 307.348022 
z
" clip-path="url(#p7d0934e48d)" style="fill: #9467bd; fill-opacity: 0.75; stroke: #000000; stroke-width: 0.811636; stroke-linejoin: miter"/>
   </g>
   <g id="patch_12">
    <path d="M 146.88 307.584 
L 154.996364 307.584 
L 154.996364 307.584 
L 146.88 307.584 
z
" clip-path="url(#p7d0934e48d)" style="fill: #9467bd; fill-opacity: 0.75; stroke: #000000; stroke-width: 0.811636; stroke-linejoin: miter"/>
   </g>
   <g id="patch_13">
    <path d="M 154.996364 307.584 
L 163.112727 307.584 
L 163.112727 307.584 
L 154.996364 307.584 
z
" clip-path="url(#p7d0934e48d)" style="fill: #9467bd; fill-opacity: 0.75; stroke: #000000; stroke-width: 0.811636; stroke-linejoin: miter"/>
   </g>
   <g id="patch_14">
    <path d="M 163.112727 307.584 
L 171.229091 307.584 
L 171.229091 306.640089 
L 163.112727 306.640089 
z
" clip-path="url(#p7d0934e48d)" style="fill: #9467bd; fill-opacity: 0.75; stroke: #000000; stroke-width: 0.811636; stroke-linejoin: miter"/>
   </g>
   <g id="patch_15">
    <path d="M 171.229091 307.584 
L 179.345455 307.584 
L 179.345455 307.584 
L 171.229091 307.584 
z
" clip-path="url(#p7d0934e48d)" style="fill: #9467bd; fill-opacity: 0.75; stroke: #000000; stroke-width: 0.811636; stroke-linejoin: miter"/>
   </g>
   <g id="patch_16">
    <path d="M 179.345455 307.584 
L 187.461818 307.584 
L 187.461818 307.584 
L 179.345455 307.584 
z
" clip-path="url(#p7d0934e48d)" style="fill: #9467bd; fill-opacity: 0.75; stroke: #000000; stroke-width: 0.811636; stroke-linejoin: miter"/>
   </g>
   <g id="patch_17">
    <path d="M 187.461818 307.584 
L 195.578182 307.584 
L 195.578182 307.584 
L 187.461818 307.584 
z
" clip-path="url(#p7d0934e48d)" style="fill: #9467bd; fill-opacity: 0.75; stroke: #000000; stroke-width: 0.811636; stroke-linejoin: miter"/>
   </g>
   <g id="patch_18">
    <path d="M 195.578182 307.584 
L 203.694545 307.584 
L 203.694545 307.348022 
L 195.578182 307.348022 
z
" clip-path="url(#p7d0934e48d)" style="fill: #9467bd; fill-opacity: 0.75; stroke: #000000; stroke-width: 0.811636; stroke-linejoin: miter"/>
   </g>
   <g id="patch_19">
    <path d="M 203.694545 307.584 
L 211.810909 307.584 
L 211.810909 307.584 
L 203.694545 307.584 
z
" clip-path="url(#p7d0934e48d)" style="fill: #9467bd; fill-opacity: 0.75; stroke: #000000; stroke-width: 0.811636; stroke-linejoin: miter"/>
   </g>
   <g id="patch_20">
    <path d="M 211.810909 307.584 
L 219.927273 307.584 
L 219.927273 307.584 
L 211.810909 307.584 
z
" clip-path="url(#p7d0934e48d)" style="fill: #9467bd; fill-opacity: 0.75; stroke: #000000; stroke-width: 0.811636; stroke-linejoin: miter"/>
   </g>
   <g id="patch_21">
    <path d="M 219.927273 307.584 
L 228.043636 307.584 
L 228.043636 307.584 
L 219.927273 307.584 
z
" clip-path="url(#p7d0934e48d)" style="fill: #9467bd; fill-opacity: 0.75; stroke: #000000; stroke-width: 0.811636; stroke-linejoin: miter"/>
   </g>
   <g id="patch_22">
    <path d="M 228.043636 307.584 
L 236.16 307.584 
L 236.16 307.348022 
L 228.043636 307.348022 
z
" clip-path="url(#p7d0934e48d)" style="fill: #9467bd; fill-opacity: 0.75; stroke: #000000; stroke-width: 0.811636; stroke-linejoin: miter"/>
   </g>
   <g id="patch_23">
    <path d="M 236.16 307.584 
L 244.276364 307.584 
L 244.276364 307.584 
L 236.16 307.584 
z
" clip-path="url(#p7d0934e48d)" style="fill: #9467bd; fill-opacity: 0.75; stroke: #000000; stroke-width: 0.811636; stroke-linejoin: miter"/>
   </g>
   <g id="patch_24">
    <path d="M 244.276364 307.584 
L 252.392727 307.584 
L 252.392727 307.584 
L 244.276364 307.584 
z
" clip-path="url(#p7d0934e48d)" style="fill: #9467bd; fill-opacity: 0.75; stroke: #000000; stroke-width: 0.811636; stroke-linejoin: miter"/>
   </g>
   <g id="patch_25">
    <path d="M 252.392727 307.584 
L 260.509091 307.584 
L 260.509091 307.584 
L 252.392727 307.584 
z
" clip-path="url(#p7d0934e48d)" style="fill: #9467bd; fill-opacity: 0.75; stroke: #000000; stroke-width: 0.811636; stroke-linejoin: miter"/>
   </g>
   <g id="patch_26">
    <path d="M 260.509091 307.584 
L 268.625455 307.584 
L 268.625455 307.584 
L 260.509091 307.584 
z
" clip-path="url(#p7d0934e48d)" style="fill: #9467bd; fill-opacity: 0.75; stroke: #000000; stroke-width: 0.811636; stroke-linejoin: miter"/>
   </g>
   <g id="patch_27">
    <path d="M 268.625455 307.584 
L 276.741818 307.584 
L 276.741818 307.584 
L 268.625455 307.584 
z
" clip-path="url(#p7d0934e48d)" style="fill: #9467bd; fill-opacity: 0.75; stroke: #000000; stroke-width: 0.811636; stroke-linejoin: miter"/>
   </g>
   <g id="patch_28">
    <path d="M 276.741818 307.584 
L 284.858182 307.584 
L 284.858182 307.348022 
L 276.741818 307.348022 
z
" clip-path="url(#p7d0934e48d)" style="fill: #9467bd; fill-opacity: 0.75; stroke: #000000; stroke-width: 0.811636; stroke-linejoin: miter"/>
   </g>
   <g id="patch_29">
    <path d="M 284.858182 307.584 
L 292.974545 307.584 
L 292.974545 307.584 
L 284.858182 307.584 
z
" clip-path="url(#p7d0934e48d)" style="fill: #9467bd; fill-opacity: 0.75; stroke: #000000; stroke-width: 0.811636; stroke-linejoin: miter"/>
   </g>
   <g id="patch_30">
    <path d="M 292.974545 307.584 
L 301.090909 307.584 
L 301.090909 307.584 
L 292.974545 307.584 
z
" clip-path="url(#p7d0934e48d)" style="fill: #9467bd; fill-opacity: 0.75; stroke: #000000; stroke-width: 0.811636; stroke-linejoin: miter"/>
   </g>
   <g id="patch_31">
    <path d="M 301.090909 307.584 
L 309.207273 307.584 
L 309.207273 307.584 
L 301.090909 307.584 
z
" clip-path="url(#p7d0934e48d)" style="fill: #9467bd; fill-opacity: 0.75; stroke: #000000; stroke-width: 0.811636; stroke-linejoin: miter"/>
   </g>
   <g id="patch_32">
    <path d="M 309.207273 307.584 
L 317.323636 307.584 
L 317.323636 307.584 
L 309.207273 307.584 
z
" clip-path="url(#p7d0934e48d)" style="fill: #9467bd; fill-opacity: 0.75; stroke: #000000; stroke-width: 0.811636; stroke-linejoin: miter"/>
   </g>
   <g id="patch_33">
    <path d="M 317.323636 307.584 
L 325.44 307.584 
L 325.44 307.584 
L 317.323636 307.584 
z
" clip-path="url(#p7d0934e48d)" style="fill: #9467bd; fill-opacity: 0.75; stroke: #000000; stroke-width: 0.811636; stroke-linejoin: miter"/>
   </g>
   <g id="patch_34">
    <path d="M 325.44 307.584 
L 333.556364 307.584 
L 333.556364 307.584 
L 325.44 307.584 
z
" clip-path="url(#p7d0934e48d)" style="fill: #9467bd; fill-opacity: 0.75; stroke: #000000; stroke-width: 0.811636; stroke-linejoin: miter"/>
   </g>
   <g id="patch_35">
    <path d="M 333.556364 307.584 
L 341.672727 307.584 
L 341.672727 307.584 
L 333.556364 307.584 
z
" clip-path="url(#p7d0934e48d)" style="fill: #9467bd; fill-opacity: 0.75; stroke: #000000; stroke-width: 0.811636; stroke-linejoin: miter"/>
   </g>
   <g id="patch_36">
    <path d="M 341.672727 307.584 
L 349.789091 307.584 
L 349.789091 307.584 
L 341.672727 307.584 
z
" clip-path="url(#p7d0934e48d)" style="fill: #9467bd; fill-opacity: 0.75; stroke: #000000; stroke-width: 0.811636; stroke-linejoin: miter"/>
   </g>
   <g id="patch_37">
    <path d="M 349.789091 307.584 
L 357.905455 307.584 
L 357.905455 307.584 
L 349.789091 307.584 
z
" clip-path="url(#p7d0934e48d)" style="fill: #9467bd; fill-opacity: 0.75; stroke: #000000; stroke-width: 0.811636; stroke-linejoin: miter"/>
   </g>
   <g id="patch_38">
    <path d="M 357.905455 307.584 
L 366.021818 307.584 
L 366.021818 307.584 
L 357.905455 307.584 
z
" clip-path="url(#p7d0934e48d)" style="fill: #9467bd; fill-opacity: 0.75; stroke: #000000; stroke-width: 0.811636; stroke-linejoin: miter"/>
   </g>
   <g id="patch_39">
    <path d="M 366.021818 307.584 
L 374.138182 307.584 
L 374.138182 307.584 
L 366.021818 307.584 
z
" clip-path="url(#p7d0934e48d)" style="fill: #9467bd; fill-opacity: 0.75; stroke: #000000; stroke-width: 0.811636; stroke-linejoin: miter"/>
   </g>
   <g id="patch_40">
    <path d="M 374.138182 307.584 
L 382.254545 307.584 
L 382.254545 307.584 
L 374.138182 307.584 
z
" clip-path="url(#p7d0934e48d)" style="fill: #9467bd; fill-opacity: 0.75; stroke: #000000; stroke-width: 0.811636; stroke-linejoin: miter"/>
   </g>
   <g id="patch_41">
    <path d="M 382.254545 307.584 
L 390.370909 307.584 
L 390.370909 307.584 
L 382.254545 307.584 
z
" clip-path="url(#p7d0934e48d)" style="fill: #9467bd; fill-opacity: 0.75; stroke: #000000; stroke-width: 0.811636; stroke-linejoin: miter"/>
   </g>
   <g id="patch_42">
    <path d="M 390.370909 307.584 
L 398.487273 307.584 
L 398.487273 307.584 
L 390.370909 307.584 
z
" clip-path="url(#p7d0934e48d)" style="fill: #9467bd; fill-opacity: 0.75; stroke: #000000; stroke-width: 0.811636; stroke-linejoin: miter"/>
   </g>
   <g id="patch_43">
    <path d="M 73.832727 307.112045 
L 81.949091 307.112045 
L 81.949091 302.864447 
L 73.832727 302.864447 
z
" clip-path="url(#p7d0934e48d)" style="fill: #d62728; fill-opacity: 0.75; stroke: #000000; stroke-width: 0.811636; stroke-linejoin: miter"/>
   </g>
   <g id="patch_44">
    <path d="M 81.949091 307.348022 
L 90.065455 307.348022 
L 90.065455 305.460201 
L 81.949091 305.460201 
z
" clip-path="url(#p7d0934e48d)" style="fill: #d62728; fill-opacity: 0.75; stroke: #000000; stroke-width: 0.811636; stroke-linejoin: miter"/>
   </g>
   <g id="patch_45">
    <path d="M 90.065455 307.112045 
L 98.181818 307.112045 
L 98.181818 303.57238 
L 90.065455 303.57238 
z
" clip-path="url(#p7d0934e48d)" style="fill: #d62728; fill-opacity: 0.75; stroke: #000000; stroke-width: 0.811636; stroke-linejoin: miter"/>
   </g>
   <g id="patch_46">
    <path d="M 98.181818 307.348022 
L 106.298182 307.348022 
L 106.298182 305.696179 
L 98.181818 305.696179 
z
" clip-path="url(#p7d0934e48d)" style="fill: #d62728; fill-opacity: 0.75; stroke: #000000; stroke-width: 0.811636; stroke-linejoin: miter"/>
   </g>
   <g id="patch_47">
    <path d="M 106.298182 307.584 
L 114.414545 307.584 
L 114.414545 305.460201 
L 106.298182 305.460201 
z
" clip-path="url(#p7d0934e48d)" style="fill: #d62728; fill-opacity: 0.75; stroke: #000000; stroke-width: 0.811636; stroke-linejoin: miter"/>
   </g>
   <g id="patch_48">
    <path d="M 114.414545 307.584 
L 122.530909 307.584 
L 122.530909 307.112045 
L 114.414545 307.112045 
z
" clip-path="url(#p7d0934e48d)" style="fill: #d62728; fill-opacity: 0.75; stroke: #000000; stroke-width: 0.811636; stroke-linejoin: miter"/>
   </g>
   <g id="patch_49">
    <path d="M 122.530909 307.348022 
L 130.647273 307.348022 
L 130.647273 305.932156 
L 122.530909 305.932156 
z
" clip-path="url(#p7d0934e48d)" style="fill: #d62728; fill-opacity: 0.75; stroke: #000000; stroke-width: 0.811636; stroke-linejoin: miter"/>
   </g>
   <g id="patch_50">
    <path d="M 130.647273 307.584 
L 138.763636 307.584 
L 138.763636 306.876067 
L 130.647273 306.876067 
z
" clip-path="url(#p7d0934e48d)" style="fill: #d62728; fill-opacity: 0.75; stroke: #000000; stroke-width: 0.811636; stroke-linejoin: miter"/>
   </g>
   <g id="patch_51">
    <path d="M 138.763636 307.348022 
L 146.88 307.348022 
L 146.88 306.404112 
L 138.763636 306.404112 
z
" clip-path="url(#p7d0934e48d)" style="fill: #d62728; fill-opacity: 0.75; stroke: #000000; stroke-width: 0.811636; stroke-linejoin: miter"/>
   </g>
   <g id="patch_52">
    <path d="M 146.88 307.584 
L 154.996364 307.584 
L 154.996364 305.460201 
L 146.88 305.460201 
z
" clip-path="url(#p7d0934e48d)" style="fill: #d62728; fill-opacity: 0.75; stroke: #000000; stroke-width: 0.811636; stroke-linejoin: miter"/>
   </g>
   <g id="patch_53">
    <path d="M 154.996364 307.584 
L 163.112727 307.584 
L 163.112727 307.112045 
L 154.996364 307.112045 
z
" clip-path="url(#p7d0934e48d)" style="fill: #d62728; fill-opacity: 0.75; stroke: #000000; stroke-width: 0.811636; stroke-linejoin: miter"/>
   </g>
   <g id="patch_54">
    <path d="M 163.112727 306.640089 
L 171.229091 306.640089 
L 171.229091 305.696179 
L 163.112727 305.696179 
z
" clip-path="url(#p7d0934e48d)" style="fill: #d62728; fill-opacity: 0.75; stroke: #000000; stroke-width: 0.811636; stroke-linejoin: miter"/>
   </g>
   <g id="patch_55">
    <path d="M 171.229091 307.584 
L 179.345455 307.584 
L 179.345455 306.640089 
L 171.229091 306.640089 
z
" clip-path="url(#p7d0934e48d)" style="fill: #d62728; fill-opacity: 0.75; stroke: #000000; stroke-width: 0.811636; stroke-linejoin: miter"/>
   </g>
   <g id="patch_56">
    <path d="M 179.345455 307.584 
L 187.461818 307.584 
L 187.461818 304.752268 
L 179.345455 304.752268 
z
" clip-path="url(#p7d0934e48d)" style="fill: #d62728; fill-opacity: 0.75; stroke: #000000; stroke-width: 0.811636; stroke-linejoin: miter"/>
   </g>
   <g id="patch_57">
    <path d="M 187.461818 307.584 
L 195.578182 307.584 
L 195.578182 307.112045 
L 187.461818 307.112045 
z
" clip-path="url(#p7d0934e48d)" style="fill: #d62728; fill-opacity: 0.75; stroke: #000000; stroke-width: 0.811636; stroke-linejoin: miter"/>
   </g>
   <g id="patch_58">
    <path d="M 195.578182 307.348022 
L 203.694545 307.348022 
L 203.694545 307.348022 
L 195.578182 307.348022 
z
" clip-path="url(#p7d0934e48d)" style="fill: #d62728; fill-opacity: 0.75; stroke: #000000; stroke-width: 0.811636; stroke-linejoin: miter"/>
   </g>
   <g id="patch_59">
    <path d="M 203.694545 307.584 
L 211.810909 307.584 
L 211.810909 307.584 
L 203.694545 307.584 
z
" clip-path="url(#p7d0934e48d)" style="fill: #d62728; fill-opacity: 0.75; stroke: #000000; stroke-width: 0.811636; stroke-linejoin: miter"/>
   </g>
   <g id="patch_60">
    <path d="M 211.810909 307.584 
L 219.927273 307.584 
L 219.927273 307.112045 
L 211.810909 307.112045 
z
" clip-path="url(#p7d0934e48d)" style="fill: #d62728; fill-opacity: 0.75; stroke: #000000; stroke-width: 0.811636; stroke-linejoin: miter"/>
   </g>
   <g id="patch_61">
    <path d="M 219.927273 307.584 
L 228.043636 307.584 
L 228.043636 305.932156 
L 219.927273 305.932156 
z
" clip-path="url(#p7d0934e48d)" style="fill: #d62728; fill-opacity: 0.75; stroke: #000000; stroke-width: 0.811636; stroke-linejoin: miter"/>
   </g>
   <g id="patch_62">
    <path d="M 228.043636 307.348022 
L 236.16 307.348022 
L 236.16 307.112045 
L 228.043636 307.112045 
z
" clip-path="url(#p7d0934e48d)" style="fill: #d62728; fill-opacity: 0.75; stroke: #000000; stroke-width: 0.811636; stroke-linejoin: miter"/>
   </g>
   <g id="patch_63">
    <path d="M 236.16 307.584 
L 244.276364 307.584 
L 244.276364 307.348022 
L 236.16 307.348022 
z
" clip-path="url(#p7d0934e48d)" style="fill: #d62728; fill-opacity: 0.75; stroke: #000000; stroke-width: 0.811636; stroke-linejoin: miter"/>
   </g>
   <g id="patch_64">
    <path d="M 244.276364 307.584 
L 252.392727 307.584 
L 252.392727 307.112045 
L 244.276364 307.112045 
z
" clip-path="url(#p7d0934e48d)" style="fill: #d62728; fill-opacity: 0.75; stroke: #000000; stroke-width: 0.811636; stroke-linejoin: miter"/>
   </g>
   <g id="patch_65">
    <path d="M 252.392727 307.584 
L 260.509091 307.584 
L 260.509091 307.348022 
L 252.392727 307.348022 
z
" clip-path="url(#p7d0934e48d)" style="fill: #d62728; fill-opacity: 0.75; stroke: #000000; stroke-width: 0.811636; stroke-linejoin: miter"/>
   </g>
   <g id="patch_66">
    <path d="M 260.509091 307.584 
L 268.625455 307.584 
L 268.625455 307.112045 
L 260.509091 307.112045 
z
" clip-path="url(#p7d0934e48d)" style="fill: #d62728; fill-opacity: 0.75; stroke: #000000; stroke-width: 0.811636; stroke-linejoin: miter"/>
   </g>
   <g id="patch_67">
    <path d="M 268.625455 307.584 
L 276.741818 307.584 
L 276.741818 307.348022 
L 268.625455 307.348022 
z
" clip-path="url(#p7d0934e48d)" style="fill: #d62728; fill-opacity: 0.75; stroke: #000000; stroke-width: 0.811636; stroke-linejoin: miter"/>
   </g>
   <g id="patch_68">
    <path d="M 276.741818 307.348022 
L 284.858182 307.348022 
L 284.858182 307.348022 
L 276.741818 307.348022 
z
" clip-path="url(#p7d0934e48d)" style="fill: #d62728; fill-opacity: 0.75; stroke: #000000; stroke-width: 0.811636; stroke-linejoin: miter"/>
   </g>
   <g id="patch_69">
    <path d="M 284.858182 307.584 
L 292.974545 307.584 
L 292.974545 307.348022 
L 284.858182 307.348022 
z
" clip-path="url(#p7d0934e48d)" style="fill: #d62728; fill-opacity: 0.75; stroke: #000000; stroke-width: 0.811636; stroke-linejoin: miter"/>
   </g>
   <g id="patch_70">
    <path d="M 292.974545 307.584 
L 301.090909 307.584 
L 301.090909 307.112045 
L 292.974545 307.112045 
z
" clip-path="url(#p7d0934e48d)" style="fill: #d62728; fill-opacity: 0.75; stroke: #000000; stroke-width: 0.811636; stroke-linejoin: miter"/>
   </g>
   <g id="patch_71">
    <path d="M 301.090909 307.584 
L 309.207273 307.584 
L 309.207273 307.584 
L 301.090909 307.584 
z
" clip-path="url(#p7d0934e48d)" style="fill: #d62728; fill-opacity: 0.75; stroke: #000000; stroke-width: 0.811636; stroke-linejoin: miter"/>
   </g>
   <g id="patch_72">
    <path d="M 309.207273 307.584 
L 317.323636 307.584 
L 317.323636 307.584 
L 309.207273 307.584 
z
" clip-path="url(#p7d0934e48d)" style="fill: #d62728; fill-opacity: 0.75; stroke: #000000; stroke-width: 0.811636; stroke-linejoin: miter"/>
   </g>
   <g id="patch_73">
    <path d="M 317.323636 307.584 
L 325.44 307.584 
L 325.44 307.584 
L 317.323636 307.584 
z
" clip-path="url(#p7d0934e48d)" style="fill: #d62728; fill-opacity: 0.75; stroke: #000000; stroke-width: 0.811636; stroke-linejoin: miter"/>
   </g>
   <g id="patch_74">
    <path d="M 325.44 307.584 
L 333.556364 307.584 
L 333.556364 307.584 
L 325.44 307.584 
z
" clip-path="url(#p7d0934e48d)" style="fill: #d62728; fill-opacity: 0.75; stroke: #000000; stroke-width: 0.811636; stroke-linejoin: miter"/>
   </g>
   <g id="patch_75">
    <path d="M 333.556364 307.584 
L 341.672727 307.584 
L 341.672727 307.584 
L 333.556364 307.584 
z
" clip-path="url(#p7d0934e48d)" style="fill: #d62728; fill-opacity: 0.75; stroke: #000000; stroke-width: 0.811636; stroke-linejoin: miter"/>
   </g>
   <g id="patch_76">
    <path d="M 341.672727 307.584 
L 349.789091 307.584 
L 349.789091 307.584 
L 341.672727 307.584 
z
" clip-path="url(#p7d0934e48d)" style="fill: #d62728; fill-opacity: 0.75; stroke: #000000; stroke-width: 0.811636; stroke-linejoin: miter"/>
   </g>
   <g id="patch_77">
    <path d="M 349.789091 307.584 
L 357.905455 307.584 
L 357.905455 307.584 
L 349.789091 307.584 
z
" clip-path="url(#p7d0934e48d)" style="fill: #d62728; fill-opacity: 0.75; stroke: #000000; stroke-width: 0.811636; stroke-linejoin: miter"/>
   </g>
   <g id="patch_78">
    <path d="M 357.905455 307.584 
L 366.021818 307.584 
L 366.021818 307.584 
L 357.905455 307.584 
z
" clip-path="url(#p7d0934e48d)" style="fill: #d62728; fill-opacity: 0.75; stroke: #000000; stroke-width: 0.811636; stroke-linejoin: miter"/>
   </g>
   <g id="patch_79">
    <path d="M 366.021818 307.584 
L 374.138182 307.584 
L 374.138182 307.348022 
L 366.021818 307.348022 
z
" clip-path="url(#p7d0934e48d)" style="fill: #d62728; fill-opacity: 0.75; stroke: #000000; stroke-width: 0.811636; stroke-linejoin: miter"/>
   </g>
   <g id="patch_80">
    <path d="M 374.138182 307.584 
L 382.254545 307.584 
L 382.254545 307.584 
L 374.138182 307.584 
z
" clip-path="url(#p7d0934e48d)" style="fill: #d62728; fill-opacity: 0.75; stroke: #000000; stroke-width: 0.811636; stroke-linejoin: miter"/>
   </g>
   <g id="patch_81">
    <path d="M 382.254545 307.584 
L 390.370909 307.584 
L 390.370909 307.348022 
L 382.254545 307.348022 
z
" clip-path="url(#p7d0934e48d)" style="fill: #d62728; fill-opacity: 0.75; stroke: #000000; stroke-width: 0.811636; stroke-linejoin: miter"/>
   </g>
   <g id="patch_82">
    <path d="M 390.370909 307.584 
L 398.487273 307.584 
L 398.487273 307.584 
L 390.370909 307.584 
z
" clip-path="url(#p7d0934e48d)" style="fill: #d62728; fill-opacity: 0.75; stroke: #000000; stroke-width: 0.811636; stroke-linejoin: miter"/>
   </g>
   <g id="patch_83">
    <path d="M 73.832727 302.864447 
L 81.949091 302.864447 
L 81.949091 242.690145 
L 73.832727 242.690145 
z
" clip-path="url(#p7d0934e48d)" style="fill: #2ca02c; fill-opacity: 0.75; stroke: #000000; stroke-width: 0.811636; stroke-linejoin: miter"/>
   </g>
   <g id="patch_84">
    <path d="M 81.949091 305.460201 
L 90.065455 305.460201 
L 90.065455 298.852827 
L 81.949091 298.852827 
z
" clip-path="url(#p7d0934e48d)" style="fill: #2ca02c; fill-opacity: 0.75; stroke: #000000; stroke-width: 0.811636; stroke-linejoin: miter"/>
   </g>
   <g id="patch_85">
    <path d="M 90.065455 303.57238 
L 98.181818 303.57238 
L 98.181818 298.380872 
L 90.065455 298.380872 
z
" clip-path="url(#p7d0934e48d)" style="fill: #2ca02c; fill-opacity: 0.75; stroke: #000000; stroke-width: 0.811636; stroke-linejoin: miter"/>
   </g>
   <g id="patch_86">
    <path d="M 98.181818 305.696179 
L 106.298182 305.696179 
L 106.298182 303.100425 
L 98.181818 303.100425 
z
" clip-path="url(#p7d0934e48d)" style="fill: #2ca02c; fill-opacity: 0.75; stroke: #000000; stroke-width: 0.811636; stroke-linejoin: miter"/>
   </g>
   <g id="patch_87">
    <path d="M 106.298182 305.460201 
L 114.414545 305.460201 
L 114.414545 302.628469 
L 106.298182 302.628469 
z
" clip-path="url(#p7d0934e48d)" style="fill: #2ca02c; fill-opacity: 0.75; stroke: #000000; stroke-width: 0.811636; stroke-linejoin: miter"/>
   </g>
   <g id="patch_88">
    <path d="M 114.414545 307.112045 
L 122.530909 307.112045 
L 122.530909 304.516291 
L 114.414545 304.516291 
z
" clip-path="url(#p7d0934e48d)" style="fill: #2ca02c; fill-opacity: 0.75; stroke: #000000; stroke-width: 0.811636; stroke-linejoin: miter"/>
   </g>
   <g id="patch_89">
    <path d="M 122.530909 305.932156 
L 130.647273 305.932156 
L 130.647273 301.684559 
L 122.530909 301.684559 
z
" clip-path="url(#p7d0934e48d)" style="fill: #2ca02c; fill-opacity: 0.75; stroke: #000000; stroke-width: 0.811636; stroke-linejoin: miter"/>
   </g>
   <g id="patch_90">
    <path d="M 130.647273 306.876067 
L 138.763636 306.876067 
L 138.763636 303.808358 
L 130.647273 303.808358 
z
" clip-path="url(#p7d0934e48d)" style="fill: #2ca02c; fill-opacity: 0.75; stroke: #000000; stroke-width: 0.811636; stroke-linejoin: miter"/>
   </g>
   <g id="patch_91">
    <path d="M 138.763636 306.404112 
L 146.88 306.404112 
L 146.88 303.808358 
L 138.763636 303.808358 
z
" clip-path="url(#p7d0934e48d)" style="fill: #2ca02c; fill-opacity: 0.75; stroke: #000000; stroke-width: 0.811636; stroke-linejoin: miter"/>
   </g>
   <g id="patch_92">
    <path d="M 146.88 305.460201 
L 154.996364 305.460201 
L 154.996364 303.57238 
L 146.88 303.57238 
z
" clip-path="url(#p7d0934e48d)" style="fill: #2ca02c; fill-opacity: 0.75; stroke: #000000; stroke-width: 0.811636; stroke-linejoin: miter"/>
   </g>
   <g id="patch_93">
    <path d="M 154.996364 307.112045 
L 163.112727 307.112045 
L 163.112727 304.280313 
L 154.996364 304.280313 
z
" clip-path="url(#p7d0934e48d)" style="fill: #2ca02c; fill-opacity: 0.75; stroke: #000000; stroke-width: 0.811636; stroke-linejoin: miter"/>
   </g>
   <g id="patch_94">
    <path d="M 163.112727 305.696179 
L 171.229091 305.696179 
L 171.229091 304.044335 
L 163.112727 304.044335 
z
" clip-path="url(#p7d0934e48d)" style="fill: #2ca02c; fill-opacity: 0.75; stroke: #000000; stroke-width: 0.811636; stroke-linejoin: miter"/>
   </g>
   <g id="patch_95">
    <path d="M 171.229091 306.640089 
L 179.345455 306.640089 
L 179.345455 305.932156 
L 171.229091 305.932156 
z
" clip-path="url(#p7d0934e48d)" style="fill: #2ca02c; fill-opacity: 0.75; stroke: #000000; stroke-width: 0.811636; stroke-linejoin: miter"/>
   </g>
   <g id="patch_96">
    <path d="M 179.345455 304.752268 
L 187.461818 304.752268 
L 187.461818 302.864447 
L 179.345455 302.864447 
z
" clip-path="url(#p7d0934e48d)" style="fill: #2ca02c; fill-opacity: 0.75; stroke: #000000; stroke-width: 0.811636; stroke-linejoin: miter"/>
   </g>
   <g id="patch_97">
    <path d="M 187.461818 307.112045 
L 195.578182 307.112045 
L 195.578182 304.044335 
L 187.461818 304.044335 
z
" clip-path="url(#p7d0934e48d)" style="fill: #2ca02c; fill-opacity: 0.75; stroke: #000000; stroke-width: 0.811636; stroke-linejoin: miter"/>
   </g>
   <g id="patch_98">
    <path d="M 195.578182 307.348022 
L 203.694545 307.348022 
L 203.694545 306.640089 
L 195.578182 306.640089 
z
" clip-path="url(#p7d0934e48d)" style="fill: #2ca02c; fill-opacity: 0.75; stroke: #000000; stroke-width: 0.811636; stroke-linejoin: miter"/>
   </g>
   <g id="patch_99">
    <path d="M 203.694545 307.584 
L 211.810909 307.584 
L 211.810909 307.348022 
L 203.694545 307.348022 
z
" clip-path="url(#p7d0934e48d)" style="fill: #2ca02c; fill-opacity: 0.75; stroke: #000000; stroke-width: 0.811636; stroke-linejoin: miter"/>
   </g>
   <g id="patch_100">
    <path d="M 211.810909 307.112045 
L 219.927273 307.112045 
L 219.927273 306.404112 
L 211.810909 306.404112 
z
" clip-path="url(#p7d0934e48d)" style="fill: #2ca02c; fill-opacity: 0.75; stroke: #000000; stroke-width: 0.811636; stroke-linejoin: miter"/>
   </g>
   <g id="patch_101">
    <path d="M 219.927273 305.932156 
L 228.043636 305.932156 
L 228.043636 304.752268 
L 219.927273 304.752268 
z
" clip-path="url(#p7d0934e48d)" style="fill: #2ca02c; fill-opacity: 0.75; stroke: #000000; stroke-width: 0.811636; stroke-linejoin: miter"/>
   </g>
   <g id="patch_102">
    <path d="M 228.043636 307.112045 
L 236.16 307.112045 
L 236.16 306.640089 
L 228.043636 306.640089 
z
" clip-path="url(#p7d0934e48d)" style="fill: #2ca02c; fill-opacity: 0.75; stroke: #000000; stroke-width: 0.811636; stroke-linejoin: miter"/>
   </g>
   <g id="patch_103">
    <path d="M 236.16 307.348022 
L 244.276364 307.348022 
L 244.276364 305.932156 
L 236.16 305.932156 
z
" clip-path="url(#p7d0934e48d)" style="fill: #2ca02c; fill-opacity: 0.75; stroke: #000000; stroke-width: 0.811636; stroke-linejoin: miter"/>
   </g>
   <g id="patch_104">
    <path d="M 244.276364 307.112045 
L 252.392727 307.112045 
L 252.392727 306.876067 
L 244.276364 306.876067 
z
" clip-path="url(#p7d0934e48d)" style="fill: #2ca02c; fill-opacity: 0.75; stroke: #000000; stroke-width: 0.811636; stroke-linejoin: miter"/>
   </g>
   <g id="patch_105">
    <path d="M 252.392727 307.348022 
L 260.509091 307.348022 
L 260.509091 306.876067 
L 252.392727 306.876067 
z
" clip-path="url(#p7d0934e48d)" style="fill: #2ca02c; fill-opacity: 0.75; stroke: #000000; stroke-width: 0.811636; stroke-linejoin: miter"/>
   </g>
   <g id="patch_106">
    <path d="M 260.509091 307.112045 
L 268.625455 307.112045 
L 268.625455 306.404112 
L 260.509091 306.404112 
z
" clip-path="url(#p7d0934e48d)" style="fill: #2ca02c; fill-opacity: 0.75; stroke: #000000; stroke-width: 0.811636; stroke-linejoin: miter"/>
   </g>
   <g id="patch_107">
    <path d="M 268.625455 307.348022 
L 276.741818 307.348022 
L 276.741818 306.404112 
L 268.625455 306.404112 
z
" clip-path="url(#p7d0934e48d)" style="fill: #2ca02c; fill-opacity: 0.75; stroke: #000000; stroke-width: 0.811636; stroke-linejoin: miter"/>
   </g>
   <g id="patch_108">
    <path d="M 276.741818 307.348022 
L 284.858182 307.348022 
L 284.858182 306.876067 
L 276.741818 306.876067 
z
" clip-path="url(#p7d0934e48d)" style="fill: #2ca02c; fill-opacity: 0.75; stroke: #000000; stroke-width: 0.811636; stroke-linejoin: miter"/>
   </g>
   <g id="patch_109">
    <path d="M 284.858182 307.348022 
L 292.974545 307.348022 
L 292.974545 306.876067 
L 284.858182 306.876067 
z
" clip-path="url(#p7d0934e48d)" style="fill: #2ca02c; fill-opacity: 0.75; stroke: #000000; stroke-width: 0.811636; stroke-linejoin: miter"/>
   </g>
   <g id="patch_110">
    <path d="M 292.974545 307.112045 
L 301.090909 307.112045 
L 301.090909 306.876067 
L 292.974545 306.876067 
z
" clip-path="url(#p7d0934e48d)" style="fill: #2ca02c; fill-opacity: 0.75; stroke: #000000; stroke-width: 0.811636; stroke-linejoin: miter"/>
   </g>
   <g id="patch_111">
    <path d="M 301.090909 307.584 
L 309.207273 307.584 
L 309.207273 307.348022 
L 301.090909 307.348022 
z
" clip-path="url(#p7d0934e48d)" style="fill: #2ca02c; fill-opacity: 0.75; stroke: #000000; stroke-width: 0.811636; stroke-linejoin: miter"/>
   </g>
   <g id="patch_112">
    <path d="M 309.207273 307.584 
L 317.323636 307.584 
L 317.323636 307.584 
L 309.207273 307.584 
z
" clip-path="url(#p7d0934e48d)" style="fill: #2ca02c; fill-opacity: 0.75; stroke: #000000; stroke-width: 0.811636; stroke-linejoin: miter"/>
   </g>
   <g id="patch_113">
    <path d="M 317.323636 307.584 
L 325.44 307.584 
L 325.44 307.348022 
L 317.323636 307.348022 
z
" clip-path="url(#p7d0934e48d)" style="fill: #2ca02c; fill-opacity: 0.75; stroke: #000000; stroke-width: 0.811636; stroke-linejoin: miter"/>
   </g>
   <g id="patch_114">
    <path d="M 325.44 307.584 
L 333.556364 307.584 
L 333.556364 307.112045 
L 325.44 307.112045 
z
" clip-path="url(#p7d0934e48d)" style="fill: #2ca02c; fill-opacity: 0.75; stroke: #000000; stroke-width: 0.811636; stroke-linejoin: miter"/>
   </g>
   <g id="patch_115">
    <path d="M 333.556364 307.584 
L 341.672727 307.584 
L 341.672727 307.348022 
L 333.556364 307.348022 
z
" clip-path="url(#p7d0934e48d)" style="fill: #2ca02c; fill-opacity: 0.75; stroke: #000000; stroke-width: 0.811636; stroke-linejoin: miter"/>
   </g>
   <g id="patch_116">
    <path d="M 341.672727 307.584 
L 349.789091 307.584 
L 349.789091 307.348022 
L 341.672727 307.348022 
z
" clip-path="url(#p7d0934e48d)" style="fill: #2ca02c; fill-opacity: 0.75; stroke: #000000; stroke-width: 0.811636; stroke-linejoin: miter"/>
   </g>
   <g id="patch_117">
    <path d="M 349.789091 307.584 
L 357.905455 307.584 
L 357.905455 307.584 
L 349.789091 307.584 
z
" clip-path="url(#p7d0934e48d)" style="fill: #2ca02c; fill-opacity: 0.75; stroke: #000000; stroke-width: 0.811636; stroke-linejoin: miter"/>
   </g>
   <g id="patch_118">
    <path d="M 357.905455 307.584 
L 366.021818 307.584 
L 366.021818 307.584 
L 357.905455 307.584 
z
" clip-path="url(#p7d0934e48d)" style="fill: #2ca02c; fill-opacity: 0.75; stroke: #000000; stroke-width: 0.811636; stroke-linejoin: miter"/>
   </g>
   <g id="patch_119">
    <path d="M 366.021818 307.348022 
L 374.138182 307.348022 
L 374.138182 307.348022 
L 366.021818 307.348022 
z
" clip-path="url(#p7d0934e48d)" style="fill: #2ca02c; fill-opacity: 0.75; stroke: #000000; stroke-width: 0.811636; stroke-linejoin: miter"/>
   </g>
   <g id="patch_120">
    <path d="M 374.138182 307.584 
L 382.254545 307.584 
L 382.254545 307.584 
L 374.138182 307.584 
z
" clip-path="url(#p7d0934e48d)" style="fill: #2ca02c; fill-opacity: 0.75; stroke: #000000; stroke-width: 0.811636; stroke-linejoin: miter"/>
   </g>
   <g id="patch_121">
    <path d="M 382.254545 307.348022 
L 390.370909 307.348022 
L 390.370909 307.112045 
L 382.254545 307.112045 
z
" clip-path="url(#p7d0934e48d)" style="fill: #2ca02c; fill-opacity: 0.75; stroke: #000000; stroke-width: 0.811636; stroke-linejoin: miter"/>
   </g>
   <g id="patch_122">
    <path d="M 390.370909 307.584 
L 398.487273 307.584 
L 398.487273 307.584 
L 390.370909 307.584 
z
" clip-path="url(#p7d0934e48d)" style="fill: #2ca02c; fill-opacity: 0.75; stroke: #000000; stroke-width: 0.811636; stroke-linejoin: miter"/>
   </g>
   <g id="patch_123">
    <path d="M 73.832727 242.690145 
L 81.949091 242.690145 
L 81.949091 104.879196 
L 73.832727 104.879196 
z
" clip-path="url(#p7d0934e48d)" style="fill: #ff7f0e; fill-opacity: 0.75; stroke: #000000; stroke-width: 0.811636; stroke-linejoin: miter"/>
   </g>
   <g id="patch_124">
    <path d="M 81.949091 298.852827 
L 90.065455 298.852827 
L 90.065455 207.293497 
L 81.949091 207.293497 
z
" clip-path="url(#p7d0934e48d)" style="fill: #ff7f0e; fill-opacity: 0.75; stroke: #000000; stroke-width: 0.811636; stroke-linejoin: miter"/>
   </g>
   <g id="patch_125">
    <path d="M 90.065455 298.380872 
L 98.181818 298.380872 
L 98.181818 251.421318 
L 90.065455 251.421318 
z
" clip-path="url(#p7d0934e48d)" style="fill: #ff7f0e; fill-opacity: 0.75; stroke: #000000; stroke-width: 0.811636; stroke-linejoin: miter"/>
   </g>
   <g id="patch_126">
    <path d="M 98.181818 303.100425 
L 106.298182 303.100425 
L 106.298182 273.36724 
L 98.181818 273.36724 
z
" clip-path="url(#p7d0934e48d)" style="fill: #ff7f0e; fill-opacity: 0.75; stroke: #000000; stroke-width: 0.811636; stroke-linejoin: miter"/>
   </g>
   <g id="patch_127">
    <path d="M 106.298182 302.628469 
L 114.414545 302.628469 
L 114.414545 274.311151 
L 106.298182 274.311151 
z
" clip-path="url(#p7d0934e48d)" style="fill: #ff7f0e; fill-opacity: 0.75; stroke: #000000; stroke-width: 0.811636; stroke-linejoin: miter"/>
   </g>
   <g id="patch_128">
    <path d="M 114.414545 304.516291 
L 122.530909 304.516291 
L 122.530909 272.42333 
L 114.414545 272.42333 
z
" clip-path="url(#p7d0934e48d)" style="fill: #ff7f0e; fill-opacity: 0.75; stroke: #000000; stroke-width: 0.811636; stroke-linejoin: miter"/>
   </g>
   <g id="patch_129">
    <path d="M 122.530909 301.684559 
L 130.647273 301.684559 
L 130.647273 275.727017 
L 122.530909 275.727017 
z
" clip-path="url(#p7d0934e48d)" style="fill: #ff7f0e; fill-opacity: 0.75; stroke: #000000; stroke-width: 0.811636; stroke-linejoin: miter"/>
   </g>
   <g id="patch_130">
    <path d="M 130.647273 303.808358 
L 138.763636 303.808358 
L 138.763636 282.098413 
L 130.647273 282.098413 
z
" clip-path="url(#p7d0934e48d)" style="fill: #ff7f0e; fill-opacity: 0.75; stroke: #000000; stroke-width: 0.811636; stroke-linejoin: miter"/>
   </g>
   <g id="patch_131">
    <path d="M 138.763636 303.808358 
L 146.88 303.808358 
L 146.88 291.53752 
L 138.763636 291.53752 
z
" clip-path="url(#p7d0934e48d)" style="fill: #ff7f0e; fill-opacity: 0.75; stroke: #000000; stroke-width: 0.811636; stroke-linejoin: miter"/>
   </g>
   <g id="patch_132">
    <path d="M 146.88 303.57238 
L 154.996364 303.57238 
L 154.996364 289.413721 
L 146.88 289.413721 
z
" clip-path="url(#p7d0934e48d)" style="fill: #ff7f0e; fill-opacity: 0.75; stroke: #000000; stroke-width: 0.811636; stroke-linejoin: miter"/>
   </g>
   <g id="patch_133">
    <path d="M 154.996364 304.280313 
L 163.112727 304.280313 
L 163.112727 292.953385 
L 154.996364 292.953385 
z
" clip-path="url(#p7d0934e48d)" style="fill: #ff7f0e; fill-opacity: 0.75; stroke: #000000; stroke-width: 0.811636; stroke-linejoin: miter"/>
   </g>
   <g id="patch_134">
    <path d="M 163.112727 304.044335 
L 171.229091 304.044335 
L 171.229091 291.773497 
L 163.112727 291.773497 
z
" clip-path="url(#p7d0934e48d)" style="fill: #ff7f0e; fill-opacity: 0.75; stroke: #000000; stroke-width: 0.811636; stroke-linejoin: miter"/>
   </g>
   <g id="patch_135">
    <path d="M 171.229091 305.932156 
L 179.345455 305.932156 
L 179.345455 294.605229 
L 171.229091 294.605229 
z
" clip-path="url(#p7d0934e48d)" style="fill: #ff7f0e; fill-opacity: 0.75; stroke: #000000; stroke-width: 0.811636; stroke-linejoin: miter"/>
   </g>
   <g id="patch_136">
    <path d="M 179.345455 302.864447 
L 187.461818 302.864447 
L 187.461818 291.301542 
L 179.345455 291.301542 
z
" clip-path="url(#p7d0934e48d)" style="fill: #ff7f0e; fill-opacity: 0.75; stroke: #000000; stroke-width: 0.811636; stroke-linejoin: miter"/>
   </g>
   <g id="patch_137">
    <path d="M 187.461818 304.044335 
L 195.578182 304.044335 
L 195.578182 297.436961 
L 187.461818 297.436961 
z
" clip-path="url(#p7d0934e48d)" style="fill: #ff7f0e; fill-opacity: 0.75; stroke: #000000; stroke-width: 0.811636; stroke-linejoin: miter"/>
   </g>
   <g id="patch_138">
    <path d="M 195.578182 306.640089 
L 203.694545 306.640089 
L 203.694545 299.324782 
L 195.578182 299.324782 
z
" clip-path="url(#p7d0934e48d)" style="fill: #ff7f0e; fill-opacity: 0.75; stroke: #000000; stroke-width: 0.811636; stroke-linejoin: miter"/>
   </g>
   <g id="patch_139">
    <path d="M 203.694545 307.348022 
L 211.810909 307.348022 
L 211.810909 297.908916 
L 203.694545 297.908916 
z
" clip-path="url(#p7d0934e48d)" style="fill: #ff7f0e; fill-opacity: 0.75; stroke: #000000; stroke-width: 0.811636; stroke-linejoin: miter"/>
   </g>
   <g id="patch_140">
    <path d="M 211.810909 306.404112 
L 219.927273 306.404112 
L 219.927273 301.920536 
L 211.810909 301.920536 
z
" clip-path="url(#p7d0934e48d)" style="fill: #ff7f0e; fill-opacity: 0.75; stroke: #000000; stroke-width: 0.811636; stroke-linejoin: miter"/>
   </g>
   <g id="patch_141">
    <path d="M 219.927273 304.752268 
L 228.043636 304.752268 
L 228.043636 299.796737 
L 219.927273 299.796737 
z
" clip-path="url(#p7d0934e48d)" style="fill: #ff7f0e; fill-opacity: 0.75; stroke: #000000; stroke-width: 0.811636; stroke-linejoin: miter"/>
   </g>
   <g id="patch_142">
    <path d="M 228.043636 306.640089 
L 236.16 306.640089 
L 236.16 301.684559 
L 228.043636 301.684559 
z
" clip-path="url(#p7d0934e48d)" style="fill: #ff7f0e; fill-opacity: 0.75; stroke: #000000; stroke-width: 0.811636; stroke-linejoin: miter"/>
   </g>
   <g id="patch_143">
    <path d="M 236.16 305.932156 
L 244.276364 305.932156 
L 244.276364 304.044335 
L 236.16 304.044335 
z
" clip-path="url(#p7d0934e48d)" style="fill: #ff7f0e; fill-opacity: 0.75; stroke: #000000; stroke-width: 0.811636; stroke-linejoin: miter"/>
   </g>
   <g id="patch_144">
    <path d="M 244.276364 306.876067 
L 252.392727 306.876067 
L 252.392727 304.280313 
L 244.276364 304.280313 
z
" clip-path="url(#p7d0934e48d)" style="fill: #ff7f0e; fill-opacity: 0.75; stroke: #000000; stroke-width: 0.811636; stroke-linejoin: miter"/>
   </g>
   <g id="patch_145">
    <path d="M 252.392727 306.876067 
L 260.509091 306.876067 
L 260.509091 304.752268 
L 252.392727 304.752268 
z
" clip-path="url(#p7d0934e48d)" style="fill: #ff7f0e; fill-opacity: 0.75; stroke: #000000; stroke-width: 0.811636; stroke-linejoin: miter"/>
   </g>
   <g id="patch_146">
    <path d="M 260.509091 306.404112 
L 268.625455 306.404112 
L 268.625455 304.516291 
L 260.509091 304.516291 
z
" clip-path="url(#p7d0934e48d)" style="fill: #ff7f0e; fill-opacity: 0.75; stroke: #000000; stroke-width: 0.811636; stroke-linejoin: miter"/>
   </g>
   <g id="patch_147">
    <path d="M 268.625455 306.404112 
L 276.741818 306.404112 
L 276.741818 303.808358 
L 268.625455 303.808358 
z
" clip-path="url(#p7d0934e48d)" style="fill: #ff7f0e; fill-opacity: 0.75; stroke: #000000; stroke-width: 0.811636; stroke-linejoin: miter"/>
   </g>
   <g id="patch_148">
    <path d="M 276.741818 306.876067 
L 284.858182 306.876067 
L 284.858182 306.404112 
L 276.741818 306.404112 
z
" clip-path="url(#p7d0934e48d)" style="fill: #ff7f0e; fill-opacity: 0.75; stroke: #000000; stroke-width: 0.811636; stroke-linejoin: miter"/>
   </g>
   <g id="patch_149">
    <path d="M 284.858182 306.876067 
L 292.974545 306.876067 
L 292.974545 305.696179 
L 284.858182 305.696179 
z
" clip-path="url(#p7d0934e48d)" style="fill: #ff7f0e; fill-opacity: 0.75; stroke: #000000; stroke-width: 0.811636; stroke-linejoin: miter"/>
   </g>
   <g id="patch_150">
    <path d="M 292.974545 306.876067 
L 301.090909 306.876067 
L 301.090909 306.168134 
L 292.974545 306.168134 
z
" clip-path="url(#p7d0934e48d)" style="fill: #ff7f0e; fill-opacity: 0.75; stroke: #000000; stroke-width: 0.811636; stroke-linejoin: miter"/>
   </g>
   <g id="patch_151">
    <path d="M 301.090909 307.348022 
L 309.207273 307.348022 
L 309.207273 305.932156 
L 301.090909 305.932156 
z
" clip-path="url(#p7d0934e48d)" style="fill: #ff7f0e; fill-opacity: 0.75; stroke: #000000; stroke-width: 0.811636; stroke-linejoin: miter"/>
   </g>
   <g id="patch_152">
    <path d="M 309.207273 307.584 
L 317.323636 307.584 
L 317.323636 306.404112 
L 309.207273 306.404112 
z
" clip-path="url(#p7d0934e48d)" style="fill: #ff7f0e; fill-opacity: 0.75; stroke: #000000; stroke-width: 0.811636; stroke-linejoin: miter"/>
   </g>
   <g id="patch_153">
    <path d="M 317.323636 307.348022 
L 325.44 307.348022 
L 325.44 305.696179 
L 317.323636 305.696179 
z
" clip-path="url(#p7d0934e48d)" style="fill: #ff7f0e; fill-opacity: 0.75; stroke: #000000; stroke-width: 0.811636; stroke-linejoin: miter"/>
   </g>
   <g id="patch_154">
    <path d="M 325.44 307.112045 
L 333.556364 307.112045 
L 333.556364 306.640089 
L 325.44 306.640089 
z
" clip-path="url(#p7d0934e48d)" style="fill: #ff7f0e; fill-opacity: 0.75; stroke: #000000; stroke-width: 0.811636; stroke-linejoin: miter"/>
   </g>
   <g id="patch_155">
    <path d="M 333.556364 307.348022 
L 341.672727 307.348022 
L 341.672727 306.640089 
L 333.556364 306.640089 
z
" clip-path="url(#p7d0934e48d)" style="fill: #ff7f0e; fill-opacity: 0.75; stroke: #000000; stroke-width: 0.811636; stroke-linejoin: miter"/>
   </g>
   <g id="patch_156">
    <path d="M 341.672727 307.348022 
L 349.789091 307.348022 
L 349.789091 307.112045 
L 341.672727 307.112045 
z
" clip-path="url(#p7d0934e48d)" style="fill: #ff7f0e; fill-opacity: 0.75; stroke: #000000; stroke-width: 0.811636; stroke-linejoin: miter"/>
   </g>
   <g id="patch_157">
    <path d="M 349.789091 307.584 
L 357.905455 307.584 
L 357.905455 307.584 
L 349.789091 307.584 
z
" clip-path="url(#p7d0934e48d)" style="fill: #ff7f0e; fill-opacity: 0.75; stroke: #000000; stroke-width: 0.811636; stroke-linejoin: miter"/>
   </g>
   <g id="patch_158">
    <path d="M 357.905455 307.584 
L 366.021818 307.584 
L 366.021818 307.584 
L 357.905455 307.584 
z
" clip-path="url(#p7d0934e48d)" style="fill: #ff7f0e; fill-opacity: 0.75; stroke: #000000; stroke-width: 0.811636; stroke-linejoin: miter"/>
   </g>
   <g id="patch_159">
    <path d="M 366.021818 307.348022 
L 374.138182 307.348022 
L 374.138182 307.348022 
L 366.021818 307.348022 
z
" clip-path="url(#p7d0934e48d)" style="fill: #ff7f0e; fill-opacity: 0.75; stroke: #000000; stroke-width: 0.811636; stroke-linejoin: miter"/>
   </g>
   <g id="patch_160">
    <path d="M 374.138182 307.584 
L 382.254545 307.584 
L 382.254545 307.348022 
L 374.138182 307.348022 
z
" clip-path="url(#p7d0934e48d)" style="fill: #ff7f0e; fill-opacity: 0.75; stroke: #000000; stroke-width: 0.811636; stroke-linejoin: miter"/>
   </g>
   <g id="patch_161">
    <path d="M 382.254545 307.112045 
L 390.370909 307.112045 
L 390.370909 307.112045 
L 382.254545 307.112045 
z
" clip-path="url(#p7d0934e48d)" style="fill: #ff7f0e; fill-opacity: 0.75; stroke: #000000; stroke-width: 0.811636; stroke-linejoin: miter"/>
   </g>
   <g id="patch_162">
    <path d="M 390.370909 307.584 
L 398.487273 307.584 
L 398.487273 307.584 
L 390.370909 307.584 
z
" clip-path="url(#p7d0934e48d)" style="fill: #ff7f0e; fill-opacity: 0.75; stroke: #000000; stroke-width: 0.811636; stroke-linejoin: miter"/>
   </g>
   <g id="patch_163">
    <path d="M 73.832727 104.879196 
L 81.949091 104.879196 
L 81.949091 54.144 
L 73.832727 54.144 
z
" clip-path="url(#p7d0934e48d)" style="fill: #1f77b4; fill-opacity: 0.75; stroke: #000000; stroke-width: 0.811636; stroke-linejoin: miter"/>
   </g>
   <g id="patch_164">
    <path d="M 81.949091 207.293497 
L 90.065455 207.293497 
L 90.065455 101.103553 
L 81.949091 101.103553 
z
" clip-path="url(#p7d0934e48d)" style="fill: #1f77b4; fill-opacity: 0.75; stroke: #000000; stroke-width: 0.811636; stroke-linejoin: miter"/>
   </g>
   <g id="patch_165">
    <path d="M 90.065455 251.421318 
L 98.181818 251.421318 
L 98.181818 139.331933 
L 90.065455 139.331933 
z
" clip-path="url(#p7d0934e48d)" style="fill: #1f77b4; fill-opacity: 0.75; stroke: #000000; stroke-width: 0.811636; stroke-linejoin: miter"/>
   </g>
   <g id="patch_166">
    <path d="M 98.181818 273.36724 
L 106.298182 273.36724 
L 106.298182 173.312715 
L 98.181818 173.312715 
z
" clip-path="url(#p7d0934e48d)" style="fill: #1f77b4; fill-opacity: 0.75; stroke: #000000; stroke-width: 0.811636; stroke-linejoin: miter"/>
   </g>
   <g id="patch_167">
    <path d="M 106.298182 274.311151 
L 114.414545 274.311151 
L 114.414545 200.922101 
L 106.298182 200.922101 
z
" clip-path="url(#p7d0934e48d)" style="fill: #1f77b4; fill-opacity: 0.75; stroke: #000000; stroke-width: 0.811636; stroke-linejoin: miter"/>
   </g>
   <g id="patch_168">
    <path d="M 114.414545 272.42333 
L 122.530909 272.42333 
L 122.530909 212.485006 
L 114.414545 212.485006 
z
" clip-path="url(#p7d0934e48d)" style="fill: #1f77b4; fill-opacity: 0.75; stroke: #000000; stroke-width: 0.811636; stroke-linejoin: miter"/>
   </g>
   <g id="patch_169">
    <path d="M 122.530909 275.727017 
L 130.647273 275.727017 
L 130.647273 240.802324 
L 122.530909 240.802324 
z
" clip-path="url(#p7d0934e48d)" style="fill: #1f77b4; fill-opacity: 0.75; stroke: #000000; stroke-width: 0.811636; stroke-linejoin: miter"/>
   </g>
   <g id="patch_170">
    <path d="M 130.647273 282.098413 
L 138.763636 282.098413 
L 138.763636 259.916514 
L 130.647273 259.916514 
z
" clip-path="url(#p7d0934e48d)" style="fill: #1f77b4; fill-opacity: 0.75; stroke: #000000; stroke-width: 0.811636; stroke-linejoin: miter"/>
   </g>
   <g id="patch_171">
    <path d="M 138.763636 291.53752 
L 146.88 291.53752 
L 146.88 277.142883 
L 138.763636 277.142883 
z
" clip-path="url(#p7d0934e48d)" style="fill: #1f77b4; fill-opacity: 0.75; stroke: #000000; stroke-width: 0.811636; stroke-linejoin: miter"/>
   </g>
   <g id="patch_172">
    <path d="M 146.88 289.413721 
L 154.996364 289.413721 
L 154.996364 280.682547 
L 146.88 280.682547 
z
" clip-path="url(#p7d0934e48d)" style="fill: #1f77b4; fill-opacity: 0.75; stroke: #000000; stroke-width: 0.811636; stroke-linejoin: miter"/>
   </g>
   <g id="patch_173">
    <path d="M 154.996364 292.953385 
L 163.112727 292.953385 
L 163.112727 285.638078 
L 154.996364 285.638078 
z
" clip-path="url(#p7d0934e48d)" style="fill: #1f77b4; fill-opacity: 0.75; stroke: #000000; stroke-width: 0.811636; stroke-linejoin: miter"/>
   </g>
   <g id="patch_174">
    <path d="M 163.112727 291.773497 
L 171.229091 291.773497 
L 171.229091 285.874056 
L 163.112727 285.874056 
z
" clip-path="url(#p7d0934e48d)" style="fill: #1f77b4; fill-opacity: 0.75; stroke: #000000; stroke-width: 0.811636; stroke-linejoin: miter"/>
   </g>
   <g id="patch_175">
    <path d="M 171.229091 294.605229 
L 179.345455 294.605229 
L 179.345455 290.357631 
L 171.229091 290.357631 
z
" clip-path="url(#p7d0934e48d)" style="fill: #1f77b4; fill-opacity: 0.75; stroke: #000000; stroke-width: 0.811636; stroke-linejoin: miter"/>
   </g>
   <g id="patch_176">
    <path d="M 179.345455 291.301542 
L 187.461818 291.301542 
L 187.461818 288.46981 
L 179.345455 288.46981 
z
" clip-path="url(#p7d0934e48d)" style="fill: #1f77b4; fill-opacity: 0.75; stroke: #000000; stroke-width: 0.811636; stroke-linejoin: miter"/>
   </g>
   <g id="patch_177">
    <path d="M 187.461818 297.436961 
L 195.578182 297.436961 
L 195.578182 295.785117 
L 187.461818 295.785117 
z
" clip-path="url(#p7d0934e48d)" style="fill: #1f77b4; fill-opacity: 0.75; stroke: #000000; stroke-width: 0.811636; stroke-linejoin: miter"/>
   </g>
   <g id="patch_178">
    <path d="M 195.578182 299.324782 
L 203.694545 299.324782 
L 203.694545 294.605229 
L 195.578182 294.605229 
z
" clip-path="url(#p7d0934e48d)" style="fill: #1f77b4; fill-opacity: 0.75; stroke: #000000; stroke-width: 0.811636; stroke-linejoin: miter"/>
   </g>
   <g id="patch_179">
    <path d="M 203.694545 297.908916 
L 211.810909 297.908916 
L 211.810909 294.841207 
L 203.694545 294.841207 
z
" clip-path="url(#p7d0934e48d)" style="fill: #1f77b4; fill-opacity: 0.75; stroke: #000000; stroke-width: 0.811636; stroke-linejoin: miter"/>
   </g>
   <g id="patch_180">
    <path d="M 211.810909 301.920536 
L 219.927273 301.920536 
L 219.927273 300.268693 
L 211.810909 300.268693 
z
" clip-path="url(#p7d0934e48d)" style="fill: #1f77b4; fill-opacity: 0.75; stroke: #000000; stroke-width: 0.811636; stroke-linejoin: miter"/>
   </g>
   <g id="patch_181">
    <path d="M 219.927273 299.796737 
L 228.043636 299.796737 
L 228.043636 298.852827 
L 219.927273 298.852827 
z
" clip-path="url(#p7d0934e48d)" style="fill: #1f77b4; fill-opacity: 0.75; stroke: #000000; stroke-width: 0.811636; stroke-linejoin: miter"/>
   </g>
   <g id="patch_182">
    <path d="M 228.043636 301.684559 
L 236.16 301.684559 
L 236.16 301.212603 
L 228.043636 301.212603 
z
" clip-path="url(#p7d0934e48d)" style="fill: #1f77b4; fill-opacity: 0.75; stroke: #000000; stroke-width: 0.811636; stroke-linejoin: miter"/>
   </g>
   <g id="patch_183">
    <path d="M 236.16 304.044335 
L 244.276364 304.044335 
L 244.276364 303.57238 
L 236.16 303.57238 
z
" clip-path="url(#p7d0934e48d)" style="fill: #1f77b4; fill-opacity: 0.75; stroke: #000000; stroke-width: 0.811636; stroke-linejoin: miter"/>
   </g>
   <g id="patch_184">
    <path d="M 244.276364 304.280313 
L 252.392727 304.280313 
L 252.392727 304.044335 
L 244.276364 304.044335 
z
" clip-path="url(#p7d0934e48d)" style="fill: #1f77b4; fill-opacity: 0.75; stroke: #000000; stroke-width: 0.811636; stroke-linejoin: miter"/>
   </g>
   <g id="patch_185">
    <path d="M 252.392727 304.752268 
L 260.509091 304.752268 
L 260.509091 304.516291 
L 252.392727 304.516291 
z
" clip-path="url(#p7d0934e48d)" style="fill: #1f77b4; fill-opacity: 0.75; stroke: #000000; stroke-width: 0.811636; stroke-linejoin: miter"/>
   </g>
   <g id="patch_186">
    <path d="M 260.509091 304.516291 
L 268.625455 304.516291 
L 268.625455 304.280313 
L 260.509091 304.280313 
z
" clip-path="url(#p7d0934e48d)" style="fill: #1f77b4; fill-opacity: 0.75; stroke: #000000; stroke-width: 0.811636; stroke-linejoin: miter"/>
   </g>
   <g id="patch_187">
    <path d="M 268.625455 303.808358 
L 276.741818 303.808358 
L 276.741818 303.57238 
L 268.625455 303.57238 
z
" clip-path="url(#p7d0934e48d)" style="fill: #1f77b4; fill-opacity: 0.75; stroke: #000000; stroke-width: 0.811636; stroke-linejoin: miter"/>
   </g>
   <g id="patch_188">
    <path d="M 276.741818 306.404112 
L 284.858182 306.404112 
L 284.858182 305.932156 
L 276.741818 305.932156 
z
" clip-path="url(#p7d0934e48d)" style="fill: #1f77b4; fill-opacity: 0.75; stroke: #000000; stroke-width: 0.811636; stroke-linejoin: miter"/>
   </g>
   <g id="patch_189">
    <path d="M 284.858182 305.696179 
L 292.974545 305.696179 
L 292.974545 305.460201 
L 284.858182 305.460201 
z
" clip-path="url(#p7d0934e48d)" style="fill: #1f77b4; fill-opacity: 0.75; stroke: #000000; stroke-width: 0.811636; stroke-linejoin: miter"/>
   </g>
   <g id="patch_190">
    <path d="M 292.974545 306.168134 
L 301.090909 306.168134 
L 301.090909 305.932156 
L 292.974545 305.932156 
z
" clip-path="url(#p7d0934e48d)" style="fill: #1f77b4; fill-opacity: 0.75; stroke: #000000; stroke-width: 0.811636; stroke-linejoin: miter"/>
   </g>
   <g id="patch_191">
    <path d="M 301.090909 305.932156 
L 309.207273 305.932156 
L 309.207273 305.696179 
L 301.090909 305.696179 
z
" clip-path="url(#p7d0934e48d)" style="fill: #1f77b4; fill-opacity: 0.75; stroke: #000000; stroke-width: 0.811636; stroke-linejoin: miter"/>
   </g>
   <g id="patch_192">
    <path d="M 309.207273 306.404112 
L 317.323636 306.404112 
L 317.323636 306.168134 
L 309.207273 306.168134 
z
" clip-path="url(#p7d0934e48d)" style="fill: #1f77b4; fill-opacity: 0.75; stroke: #000000; stroke-width: 0.811636; stroke-linejoin: miter"/>
   </g>
   <g id="patch_193">
    <path d="M 317.323636 305.696179 
L 325.44 305.696179 
L 325.44 305.696179 
L 317.323636 305.696179 
z
" clip-path="url(#p7d0934e48d)" style="fill: #1f77b4; fill-opacity: 0.75; stroke: #000000; stroke-width: 0.811636; stroke-linejoin: miter"/>
   </g>
   <g id="patch_194">
    <path d="M 325.44 306.640089 
L 333.556364 306.640089 
L 333.556364 306.640089 
L 325.44 306.640089 
z
" clip-path="url(#p7d0934e48d)" style="fill: #1f77b4; fill-opacity: 0.75; stroke: #000000; stroke-width: 0.811636; stroke-linejoin: miter"/>
   </g>
   <g id="patch_195">
    <path d="M 333.556364 306.640089 
L 341.672727 306.640089 
L 341.672727 306.640089 
L 333.556364 306.640089 
z
" clip-path="url(#p7d0934e48d)" style="fill: #1f77b4; fill-opacity: 0.75; stroke: #000000; stroke-width: 0.811636; stroke-linejoin: miter"/>
   </g>
   <g id="patch_196">
    <path d="M 341.672727 307.112045 
L 349.789091 307.112045 
L 349.789091 307.112045 
L 341.672727 307.112045 
z
" clip-path="url(#p7d0934e48d)" style="fill: #1f77b4; fill-opacity: 0.75; stroke: #000000; stroke-width: 0.811636; stroke-linejoin: miter"/>
   </g>
   <g id="patch_197">
    <path d="M 349.789091 307.584 
L 357.905455 307.584 
L 357.905455 307.584 
L 349.789091 307.584 
z
" clip-path="url(#p7d0934e48d)" style="fill: #1f77b4; fill-opacity: 0.75; stroke: #000000; stroke-width: 0.811636; stroke-linejoin: miter"/>
   </g>
   <g id="patch_198">
    <path d="M 357.905455 307.584 
L 366.021818 307.584 
L 366.021818 307.348022 
L 357.905455 307.348022 
z
" clip-path="url(#p7d0934e48d)" style="fill: #1f77b4; fill-opacity: 0.75; stroke: #000000; stroke-width: 0.811636; stroke-linejoin: miter"/>
   </g>
   <g id="patch_199">
    <path d="M 366.021818 307.348022 
L 374.138182 307.348022 
L 374.138182 307.348022 
L 366.021818 307.348022 
z
" clip-path="url(#p7d0934e48d)" style="fill: #1f77b4; fill-opacity: 0.75; stroke: #000000; stroke-width: 0.811636; stroke-linejoin: miter"/>
   </g>
   <g id="patch_200">
    <path d="M 374.138182 307.348022 
L 382.254545 307.348022 
L 382.254545 307.348022 
L 374.138182 307.348022 
z
" clip-path="url(#p7d0934e48d)" style="fill: #1f77b4; fill-opacity: 0.75; stroke: #000000; stroke-width: 0.811636; stroke-linejoin: miter"/>
   </g>
   <g id="patch_201">
    <path d="M 382.254545 307.112045 
L 390.370909 307.112045 
L 390.370909 307.112045 
L 382.254545 307.112045 
z
" clip-path="url(#p7d0934e48d)" style="fill: #1f77b4; fill-opacity: 0.75; stroke: #000000; stroke-width: 0.811636; stroke-linejoin: miter"/>
   </g>
   <g id="patch_202">
    <path d="M 390.370909 307.584 
L 398.487273 307.584 
L 398.487273 307.348022 
L 390.370909 307.348022 
z
" clip-path="url(#p7d0934e48d)" style="fill: #1f77b4; fill-opacity: 0.75; stroke: #000000; stroke-width: 0.811636; stroke-linejoin: miter"/>
   </g>
   <g id="matplotlib.axis_1">
    <g id="xtick_1">
     <g id="line2d_1">
      <defs>
       <path id="mbdca29f5de" d="M 0 0 
L 0 3.5 
" style="stroke: #000000; stroke-width: 0.8"/>
      </defs>
      <g>
       <use xlink:href="#mbdca29f5de" x="73.832727" y="307.584" style="stroke: #000000; stroke-width: 0.8"/>
      </g>
     </g>
     <g id="text_1">
      <!-- 0.0 -->
      <g transform="translate(65.881165 322.182437) scale(0.1 -0.1)">
       <defs>
        <path id="DejaVuSans-30" d="M 2034 4250 
Q 1547 4250 1301 3770 
Q 1056 3291 1056 2328 
Q 1056 1369 1301 889 
Q 1547 409 2034 409 
Q 2525 409 2770 889 
Q 3016 1369 3016 2328 
Q 3016 3291 2770 3770 
Q 2525 4250 2034 4250 
z
M 2034 4750 
Q 2819 4750 3233 4129 
Q 3647 3509 3647 2328 
Q 3647 1150 3233 529 
Q 2819 -91 2034 -91 
Q 1250 -91 836 529 
Q 422 1150 422 2328 
Q 422 3509 836 4129 
Q 1250 4750 2034 4750 
z
" transform="scale(0.015625)"/>
        <path id="DejaVuSans-2e" d="M 684 794 
L 1344 794 
L 1344 0 
L 684 0 
L 684 794 
z
" transform="scale(0.015625)"/>
       </defs>
       <use xlink:href="#DejaVuSans-30"/>
       <use xlink:href="#DejaVuSans-2e" x="63.623047"/>
       <use xlink:href="#DejaVuSans-30" x="95.410156"/>
      </g>
     </g>
    </g>
    <g id="xtick_2">
     <g id="line2d_2">
      <g>
       <use xlink:href="#mbdca29f5de" x="149.475857" y="307.584" style="stroke: #000000; stroke-width: 0.8"/>
      </g>
     </g>
     <g id="text_2">
      <!-- 0.1 -->
      <g transform="translate(141.524294 322.182437) scale(0.1 -0.1)">
       <defs>
        <path id="DejaVuSans-31" d="M 794 531 
L 1825 531 
L 1825 4091 
L 703 3866 
L 703 4441 
L 1819 4666 
L 2450 4666 
L 2450 531 
L 3481 531 
L 3481 0 
L 794 0 
L 794 531 
z
" transform="scale(0.015625)"/>
       </defs>
       <use xlink:href="#DejaVuSans-30"/>
       <use xlink:href="#DejaVuSans-2e" x="63.623047"/>
       <use xlink:href="#DejaVuSans-31" x="95.410156"/>
      </g>
     </g>
    </g>
    <g id="xtick_3">
     <g id="line2d_3">
      <g>
       <use xlink:href="#mbdca29f5de" x="225.118986" y="307.584" style="stroke: #000000; stroke-width: 0.8"/>
      </g>
     </g>
     <g id="text_3">
      <!-- 0.2 -->
      <g transform="translate(217.167423 322.182437) scale(0.1 -0.1)">
       <defs>
        <path id="DejaVuSans-32" d="M 1228 531 
L 3431 531 
L 3431 0 
L 469 0 
L 469 531 
Q 828 903 1448 1529 
Q 2069 2156 2228 2338 
Q 2531 2678 2651 2914 
Q 2772 3150 2772 3378 
Q 2772 3750 2511 3984 
Q 2250 4219 1831 4219 
Q 1534 4219 1204 4116 
Q 875 4013 500 3803 
L 500 4441 
Q 881 4594 1212 4672 
Q 1544 4750 1819 4750 
Q 2544 4750 2975 4387 
Q 3406 4025 3406 3419 
Q 3406 3131 3298 2873 
Q 3191 2616 2906 2266 
Q 2828 2175 2409 1742 
Q 1991 1309 1228 531 
z
" transform="scale(0.015625)"/>
       </defs>
       <use xlink:href="#DejaVuSans-30"/>
       <use xlink:href="#DejaVuSans-2e" x="63.623047"/>
       <use xlink:href="#DejaVuSans-32" x="95.410156"/>
      </g>
     </g>
    </g>
    <g id="xtick_4">
     <g id="line2d_4">
      <g>
       <use xlink:href="#mbdca29f5de" x="300.762115" y="307.584" style="stroke: #000000; stroke-width: 0.8"/>
      </g>
     </g>
     <g id="text_4">
      <!-- 0.3 -->
      <g transform="translate(292.810553 322.182437) scale(0.1 -0.1)">
       <defs>
        <path id="DejaVuSans-33" d="M 2597 2516 
Q 3050 2419 3304 2112 
Q 3559 1806 3559 1356 
Q 3559 666 3084 287 
Q 2609 -91 1734 -91 
Q 1441 -91 1130 -33 
Q 819 25 488 141 
L 488 750 
Q 750 597 1062 519 
Q 1375 441 1716 441 
Q 2309 441 2620 675 
Q 2931 909 2931 1356 
Q 2931 1769 2642 2001 
Q 2353 2234 1838 2234 
L 1294 2234 
L 1294 2753 
L 1863 2753 
Q 2328 2753 2575 2939 
Q 2822 3125 2822 3475 
Q 2822 3834 2567 4026 
Q 2313 4219 1838 4219 
Q 1578 4219 1281 4162 
Q 984 4106 628 3988 
L 628 4550 
Q 988 4650 1302 4700 
Q 1616 4750 1894 4750 
Q 2613 4750 3031 4423 
Q 3450 4097 3450 3541 
Q 3450 3153 3228 2886 
Q 3006 2619 2597 2516 
z
" transform="scale(0.015625)"/>
       </defs>
       <use xlink:href="#DejaVuSans-30"/>
       <use xlink:href="#DejaVuSans-2e" x="63.623047"/>
       <use xlink:href="#DejaVuSans-33" x="95.410156"/>
      </g>
     </g>
    </g>
    <g id="xtick_5">
     <g id="line2d_5">
      <g>
       <use xlink:href="#mbdca29f5de" x="376.405244" y="307.584" style="stroke: #000000; stroke-width: 0.8"/>
      </g>
     </g>
     <g id="text_5">
      <!-- 0.4 -->
      <g transform="translate(368.453682 322.182437) scale(0.1 -0.1)">
       <defs>
        <path id="DejaVuSans-34" d="M 2419 4116 
L 825 1625 
L 2419 1625 
L 2419 4116 
z
M 2253 4666 
L 3047 4666 
L 3047 1625 
L 3713 1625 
L 3713 1100 
L 3047 1100 
L 3047 0 
L 2419 0 
L 2419 1100 
L 313 1100 
L 313 1709 
L 2253 4666 
z
" transform="scale(0.015625)"/>
       </defs>
       <use xlink:href="#DejaVuSans-30"/>
       <use xlink:href="#DejaVuSans-2e" x="63.623047"/>
       <use xlink:href="#DejaVuSans-34" x="95.410156"/>
      </g>
     </g>
    </g>
    <g id="text_6">
     <!-- Minimum cosine distance ($\it{d}$) of BGCs -->
     <g transform="translate(142.51 335.860562) scale(0.1 -0.1)">
      <defs>
       <path id="DejaVuSans-4d" d="M 628 4666 
L 1569 4666 
L 2759 1491 
L 3956 4666 
L 4897 4666 
L 4897 0 
L 4281 0 
L 4281 4097 
L 3078 897 
L 2444 897 
L 1241 4097 
L 1241 0 
L 628 0 
L 628 4666 
z
" transform="scale(0.015625)"/>
       <path id="DejaVuSans-69" d="M 603 3500 
L 1178 3500 
L 1178 0 
L 603 0 
L 603 3500 
z
M 603 4863 
L 1178 4863 
L 1178 4134 
L 603 4134 
L 603 4863 
z
" transform="scale(0.015625)"/>
       <path id="DejaVuSans-6e" d="M 3513 2113 
L 3513 0 
L 2938 0 
L 2938 2094 
Q 2938 2591 2744 2837 
Q 2550 3084 2163 3084 
Q 1697 3084 1428 2787 
Q 1159 2491 1159 1978 
L 1159 0 
L 581 0 
L 581 3500 
L 1159 3500 
L 1159 2956 
Q 1366 3272 1645 3428 
Q 1925 3584 2291 3584 
Q 2894 3584 3203 3211 
Q 3513 2838 3513 2113 
z
" transform="scale(0.015625)"/>
       <path id="DejaVuSans-6d" d="M 3328 2828 
Q 3544 3216 3844 3400 
Q 4144 3584 4550 3584 
Q 5097 3584 5394 3201 
Q 5691 2819 5691 2113 
L 5691 0 
L 5113 0 
L 5113 2094 
Q 5113 2597 4934 2840 
Q 4756 3084 4391 3084 
Q 3944 3084 3684 2787 
Q 3425 2491 3425 1978 
L 3425 0 
L 2847 0 
L 2847 2094 
Q 2847 2600 2669 2842 
Q 2491 3084 2119 3084 
Q 1678 3084 1418 2786 
Q 1159 2488 1159 1978 
L 1159 0 
L 581 0 
L 581 3500 
L 1159 3500 
L 1159 2956 
Q 1356 3278 1631 3431 
Q 1906 3584 2284 3584 
Q 2666 3584 2933 3390 
Q 3200 3197 3328 2828 
z
" transform="scale(0.015625)"/>
       <path id="DejaVuSans-75" d="M 544 1381 
L 544 3500 
L 1119 3500 
L 1119 1403 
Q 1119 906 1312 657 
Q 1506 409 1894 409 
Q 2359 409 2629 706 
Q 2900 1003 2900 1516 
L 2900 3500 
L 3475 3500 
L 3475 0 
L 2900 0 
L 2900 538 
Q 2691 219 2414 64 
Q 2138 -91 1772 -91 
Q 1169 -91 856 284 
Q 544 659 544 1381 
z
M 1991 3584 
L 1991 3584 
z
" transform="scale(0.015625)"/>
       <path id="DejaVuSans-20" transform="scale(0.015625)"/>
       <path id="DejaVuSans-63" d="M 3122 3366 
L 3122 2828 
Q 2878 2963 2633 3030 
Q 2388 3097 2138 3097 
Q 1578 3097 1268 2742 
Q 959 2388 959 1747 
Q 959 1106 1268 751 
Q 1578 397 2138 397 
Q 2388 397 2633 464 
Q 2878 531 3122 666 
L 3122 134 
Q 2881 22 2623 -34 
Q 2366 -91 2075 -91 
Q 1284 -91 818 406 
Q 353 903 353 1747 
Q 353 2603 823 3093 
Q 1294 3584 2113 3584 
Q 2378 3584 2631 3529 
Q 2884 3475 3122 3366 
z
" transform="scale(0.015625)"/>
       <path id="DejaVuSans-6f" d="M 1959 3097 
Q 1497 3097 1228 2736 
Q 959 2375 959 1747 
Q 959 1119 1226 758 
Q 1494 397 1959 397 
Q 2419 397 2687 759 
Q 2956 1122 2956 1747 
Q 2956 2369 2687 2733 
Q 2419 3097 1959 3097 
z
M 1959 3584 
Q 2709 3584 3137 3096 
Q 3566 2609 3566 1747 
Q 3566 888 3137 398 
Q 2709 -91 1959 -91 
Q 1206 -91 779 398 
Q 353 888 353 1747 
Q 353 2609 779 3096 
Q 1206 3584 1959 3584 
z
" transform="scale(0.015625)"/>
       <path id="DejaVuSans-73" d="M 2834 3397 
L 2834 2853 
Q 2591 2978 2328 3040 
Q 2066 3103 1784 3103 
Q 1356 3103 1142 2972 
Q 928 2841 928 2578 
Q 928 2378 1081 2264 
Q 1234 2150 1697 2047 
L 1894 2003 
Q 2506 1872 2764 1633 
Q 3022 1394 3022 966 
Q 3022 478 2636 193 
Q 2250 -91 1575 -91 
Q 1294 -91 989 -36 
Q 684 19 347 128 
L 347 722 
Q 666 556 975 473 
Q 1284 391 1588 391 
Q 1994 391 2212 530 
Q 2431 669 2431 922 
Q 2431 1156 2273 1281 
Q 2116 1406 1581 1522 
L 1381 1569 
Q 847 1681 609 1914 
Q 372 2147 372 2553 
Q 372 3047 722 3315 
Q 1072 3584 1716 3584 
Q 2034 3584 2315 3537 
Q 2597 3491 2834 3397 
z
" transform="scale(0.015625)"/>
       <path id="DejaVuSans-65" d="M 3597 1894 
L 3597 1613 
L 953 1613 
Q 991 1019 1311 708 
Q 1631 397 2203 397 
Q 2534 397 2845 478 
Q 3156 559 3463 722 
L 3463 178 
Q 3153 47 2828 -22 
Q 2503 -91 2169 -91 
Q 1331 -91 842 396 
Q 353 884 353 1716 
Q 353 2575 817 3079 
Q 1281 3584 2069 3584 
Q 2775 3584 3186 3129 
Q 3597 2675 3597 1894 
z
M 3022 2063 
Q 3016 2534 2758 2815 
Q 2500 3097 2075 3097 
Q 1594 3097 1305 2825 
Q 1016 2553 972 2059 
L 3022 2063 
z
" transform="scale(0.015625)"/>
       <path id="DejaVuSans-64" d="M 2906 2969 
L 2906 4863 
L 3481 4863 
L 3481 0 
L 2906 0 
L 2906 525 
Q 2725 213 2448 61 
Q 2172 -91 1784 -91 
Q 1150 -91 751 415 
Q 353 922 353 1747 
Q 353 2572 751 3078 
Q 1150 3584 1784 3584 
Q 2172 3584 2448 3432 
Q 2725 3281 2906 2969 
z
M 947 1747 
Q 947 1113 1208 752 
Q 1469 391 1925 391 
Q 2381 391 2643 752 
Q 2906 1113 2906 1747 
Q 2906 2381 2643 2742 
Q 2381 3103 1925 3103 
Q 1469 3103 1208 2742 
Q 947 2381 947 1747 
z
" transform="scale(0.015625)"/>
       <path id="DejaVuSans-74" d="M 1172 4494 
L 1172 3500 
L 2356 3500 
L 2356 3053 
L 1172 3053 
L 1172 1153 
Q 1172 725 1289 603 
Q 1406 481 1766 481 
L 2356 481 
L 2356 0 
L 1766 0 
Q 1100 0 847 248 
Q 594 497 594 1153 
L 594 3053 
L 172 3053 
L 172 3500 
L 594 3500 
L 594 4494 
L 1172 4494 
z
" transform="scale(0.015625)"/>
       <path id="DejaVuSans-61" d="M 2194 1759 
Q 1497 1759 1228 1600 
Q 959 1441 959 1056 
Q 959 750 1161 570 
Q 1363 391 1709 391 
Q 2188 391 2477 730 
Q 2766 1069 2766 1631 
L 2766 1759 
L 2194 1759 
z
M 3341 1997 
L 3341 0 
L 2766 0 
L 2766 531 
Q 2569 213 2275 61 
Q 1981 -91 1556 -91 
Q 1019 -91 701 211 
Q 384 513 384 1019 
Q 384 1609 779 1909 
Q 1175 2209 1959 2209 
L 2766 2209 
L 2766 2266 
Q 2766 2663 2505 2880 
Q 2244 3097 1772 3097 
Q 1472 3097 1187 3025 
Q 903 2953 641 2809 
L 641 3341 
Q 956 3463 1253 3523 
Q 1550 3584 1831 3584 
Q 2591 3584 2966 3190 
Q 3341 2797 3341 1997 
z
" transform="scale(0.015625)"/>
       <path id="DejaVuSans-28" d="M 1984 4856 
Q 1566 4138 1362 3434 
Q 1159 2731 1159 2009 
Q 1159 1288 1364 580 
Q 1569 -128 1984 -844 
L 1484 -844 
Q 1016 -109 783 600 
Q 550 1309 550 2009 
Q 550 2706 781 3412 
Q 1013 4119 1484 4856 
L 1984 4856 
z
" transform="scale(0.015625)"/>
       <path id="DejaVuSans-Oblique-64" d="M 2675 525 
Q 2444 222 2128 65 
Q 1813 -91 1428 -91 
Q 903 -91 598 267 
Q 294 625 294 1247 
Q 294 1766 478 2236 
Q 663 2706 1013 3078 
Q 1244 3325 1534 3454 
Q 1825 3584 2144 3584 
Q 2481 3584 2739 3421 
Q 2997 3259 3138 2956 
L 3513 4863 
L 4091 4863 
L 3144 0 
L 2566 0 
L 2675 525 
z
M 891 1350 
Q 891 897 1095 644 
Q 1300 391 1663 391 
Q 1931 391 2161 520 
Q 2391 650 2566 903 
Q 2750 1166 2856 1509 
Q 2963 1853 2963 2188 
Q 2963 2622 2758 2865 
Q 2553 3109 2194 3109 
Q 1922 3109 1687 2981 
Q 1453 2853 1288 2613 
Q 1106 2353 998 2009 
Q 891 1666 891 1350 
z
" transform="scale(0.015625)"/>
       <path id="DejaVuSans-29" d="M 513 4856 
L 1013 4856 
Q 1481 4119 1714 3412 
Q 1947 2706 1947 2009 
Q 1947 1309 1714 600 
Q 1481 -109 1013 -844 
L 513 -844 
Q 928 -128 1133 580 
Q 1338 1288 1338 2009 
Q 1338 2731 1133 3434 
Q 928 4138 513 4856 
z
" transform="scale(0.015625)"/>
       <path id="DejaVuSans-66" d="M 2375 4863 
L 2375 4384 
L 1825 4384 
Q 1516 4384 1395 4259 
Q 1275 4134 1275 3809 
L 1275 3500 
L 2222 3500 
L 2222 3053 
L 1275 3053 
L 1275 0 
L 697 0 
L 697 3053 
L 147 3053 
L 147 3500 
L 697 3500 
L 697 3744 
Q 697 4328 969 4595 
Q 1241 4863 1831 4863 
L 2375 4863 
z
" transform="scale(0.015625)"/>
       <path id="DejaVuSans-42" d="M 1259 2228 
L 1259 519 
L 2272 519 
Q 2781 519 3026 730 
Q 3272 941 3272 1375 
Q 3272 1813 3026 2020 
Q 2781 2228 2272 2228 
L 1259 2228 
z
M 1259 4147 
L 1259 2741 
L 2194 2741 
Q 2656 2741 2882 2914 
Q 3109 3088 3109 3444 
Q 3109 3797 2882 3972 
Q 2656 4147 2194 4147 
L 1259 4147 
z
M 628 4666 
L 2241 4666 
Q 2963 4666 3353 4366 
Q 3744 4066 3744 3513 
Q 3744 3084 3544 2831 
Q 3344 2578 2956 2516 
Q 3422 2416 3680 2098 
Q 3938 1781 3938 1306 
Q 3938 681 3513 340 
Q 3088 0 2303 0 
L 628 0 
L 628 4666 
z
" transform="scale(0.015625)"/>
       <path id="DejaVuSans-47" d="M 3809 666 
L 3809 1919 
L 2778 1919 
L 2778 2438 
L 4434 2438 
L 4434 434 
Q 4069 175 3628 42 
Q 3188 -91 2688 -91 
Q 1594 -91 976 548 
Q 359 1188 359 2328 
Q 359 3472 976 4111 
Q 1594 4750 2688 4750 
Q 3144 4750 3555 4637 
Q 3966 4525 4313 4306 
L 4313 3634 
Q 3963 3931 3569 4081 
Q 3175 4231 2741 4231 
Q 1884 4231 1454 3753 
Q 1025 3275 1025 2328 
Q 1025 1384 1454 906 
Q 1884 428 2741 428 
Q 3075 428 3337 486 
Q 3600 544 3809 666 
z
" transform="scale(0.015625)"/>
       <path id="DejaVuSans-43" d="M 4122 4306 
L 4122 3641 
Q 3803 3938 3442 4084 
Q 3081 4231 2675 4231 
Q 1875 4231 1450 3742 
Q 1025 3253 1025 2328 
Q 1025 1406 1450 917 
Q 1875 428 2675 428 
Q 3081 428 3442 575 
Q 3803 722 4122 1019 
L 4122 359 
Q 3791 134 3420 21 
Q 3050 -91 2638 -91 
Q 1578 -91 968 557 
Q 359 1206 359 2328 
Q 359 3453 968 4101 
Q 1578 4750 2638 4750 
Q 3056 4750 3426 4639 
Q 3797 4528 4122 4306 
z
" transform="scale(0.015625)"/>
      </defs>
      <use xlink:href="#DejaVuSans-4d" transform="translate(0 0.015625)"/>
      <use xlink:href="#DejaVuSans-69" transform="translate(86.279297 0.015625)"/>
      <use xlink:href="#DejaVuSans-6e" transform="translate(114.0625 0.015625)"/>
      <use xlink:href="#DejaVuSans-69" transform="translate(177.441406 0.015625)"/>
      <use xlink:href="#DejaVuSans-6d" transform="translate(205.224609 0.015625)"/>
      <use xlink:href="#DejaVuSans-75" transform="translate(302.636719 0.015625)"/>
      <use xlink:href="#DejaVuSans-6d" transform="translate(366.015625 0.015625)"/>
      <use xlink:href="#DejaVuSans-20" transform="translate(463.427734 0.015625)"/>
      <use xlink:href="#DejaVuSans-63" transform="translate(495.214844 0.015625)"/>
      <use xlink:href="#DejaVuSans-6f" transform="translate(550.195312 0.015625)"/>
      <use xlink:href="#DejaVuSans-73" transform="translate(611.376953 0.015625)"/>
      <use xlink:href="#DejaVuSans-69" transform="translate(663.476562 0.015625)"/>
      <use xlink:href="#DejaVuSans-6e" transform="translate(691.259766 0.015625)"/>
      <use xlink:href="#DejaVuSans-65" transform="translate(754.638672 0.015625)"/>
      <use xlink:href="#DejaVuSans-20" transform="translate(816.162109 0.015625)"/>
      <use xlink:href="#DejaVuSans-64" transform="translate(847.949219 0.015625)"/>
      <use xlink:href="#DejaVuSans-69" transform="translate(911.425781 0.015625)"/>
      <use xlink:href="#DejaVuSans-73" transform="translate(939.208984 0.015625)"/>
      <use xlink:href="#DejaVuSans-74" transform="translate(991.308594 0.015625)"/>
      <use xlink:href="#DejaVuSans-61" transform="translate(1030.517578 0.015625)"/>
      <use xlink:href="#DejaVuSans-6e" transform="translate(1091.796875 0.015625)"/>
      <use xlink:href="#DejaVuSans-63" transform="translate(1155.175781 0.015625)"/>
      <use xlink:href="#DejaVuSans-65" transform="translate(1210.15625 0.015625)"/>
      <use xlink:href="#DejaVuSans-20" transform="translate(1271.679688 0.015625)"/>
      <use xlink:href="#DejaVuSans-28" transform="translate(1303.466797 0.015625)"/>
      <use xlink:href="#DejaVuSans-Oblique-64" transform="translate(1342.480469 0.015625)"/>
      <use xlink:href="#DejaVuSans-29" transform="translate(1405.957031 0.015625)"/>
      <use xlink:href="#DejaVuSans-20" transform="translate(1444.970703 0.015625)"/>
      <use xlink:href="#DejaVuSans-6f" transform="translate(1476.757812 0.015625)"/>
      <use xlink:href="#DejaVuSans-66" transform="translate(1537.939453 0.015625)"/>
      <use xlink:href="#DejaVuSans-20" transform="translate(1573.144531 0.015625)"/>
      <use xlink:href="#DejaVuSans-42" transform="translate(1604.931641 0.015625)"/>
      <use xlink:href="#DejaVuSans-47" transform="translate(1673.535156 0.015625)"/>
      <use xlink:href="#DejaVuSans-43" transform="translate(1751.025391 0.015625)"/>
      <use xlink:href="#DejaVuSans-73" transform="translate(1820.849609 0.015625)"/>
     </g>
    </g>
   </g>
   <g id="matplotlib.axis_2">
    <g id="ytick_1">
     <g id="line2d_6">
      <defs>
       <path id="m94c0f351ec" d="M 0 0 
L -3.5 0 
" style="stroke: #000000; stroke-width: 0.8"/>
      </defs>
      <g>
       <use xlink:href="#m94c0f351ec" x="57.6" y="307.584" style="stroke: #000000; stroke-width: 0.8"/>
      </g>
     </g>
     <g id="text_7">
      <!-- 0 -->
      <g transform="translate(44.2375 311.383219) scale(0.1 -0.1)">
       <use xlink:href="#DejaVuSans-30"/>
      </g>
     </g>
    </g>
    <g id="ytick_2">
     <g id="line2d_7">
      <g>
       <use xlink:href="#m94c0f351ec" x="57.6" y="260.388469" style="stroke: #000000; stroke-width: 0.8"/>
      </g>
     </g>
     <g id="text_8">
      <!-- 200 -->
      <g transform="translate(31.5125 264.187688) scale(0.1 -0.1)">
       <use xlink:href="#DejaVuSans-32"/>
       <use xlink:href="#DejaVuSans-30" x="63.623047"/>
       <use xlink:href="#DejaVuSans-30" x="127.246094"/>
      </g>
     </g>
    </g>
    <g id="ytick_3">
     <g id="line2d_8">
      <g>
       <use xlink:href="#m94c0f351ec" x="57.6" y="213.192939" style="stroke: #000000; stroke-width: 0.8"/>
      </g>
     </g>
     <g id="text_9">
      <!-- 400 -->
      <g transform="translate(31.5125 216.992157) scale(0.1 -0.1)">
       <use xlink:href="#DejaVuSans-34"/>
       <use xlink:href="#DejaVuSans-30" x="63.623047"/>
       <use xlink:href="#DejaVuSans-30" x="127.246094"/>
      </g>
     </g>
    </g>
    <g id="ytick_4">
     <g id="line2d_9">
      <g>
       <use xlink:href="#m94c0f351ec" x="57.6" y="165.997408" style="stroke: #000000; stroke-width: 0.8"/>
      </g>
     </g>
     <g id="text_10">
      <!-- 600 -->
      <g transform="translate(31.5125 169.796627) scale(0.1 -0.1)">
       <defs>
        <path id="DejaVuSans-36" d="M 2113 2584 
Q 1688 2584 1439 2293 
Q 1191 2003 1191 1497 
Q 1191 994 1439 701 
Q 1688 409 2113 409 
Q 2538 409 2786 701 
Q 3034 994 3034 1497 
Q 3034 2003 2786 2293 
Q 2538 2584 2113 2584 
z
M 3366 4563 
L 3366 3988 
Q 3128 4100 2886 4159 
Q 2644 4219 2406 4219 
Q 1781 4219 1451 3797 
Q 1122 3375 1075 2522 
Q 1259 2794 1537 2939 
Q 1816 3084 2150 3084 
Q 2853 3084 3261 2657 
Q 3669 2231 3669 1497 
Q 3669 778 3244 343 
Q 2819 -91 2113 -91 
Q 1303 -91 875 529 
Q 447 1150 447 2328 
Q 447 3434 972 4092 
Q 1497 4750 2381 4750 
Q 2619 4750 2861 4703 
Q 3103 4656 3366 4563 
z
" transform="scale(0.015625)"/>
       </defs>
       <use xlink:href="#DejaVuSans-36"/>
       <use xlink:href="#DejaVuSans-30" x="63.623047"/>
       <use xlink:href="#DejaVuSans-30" x="127.246094"/>
      </g>
     </g>
    </g>
    <g id="ytick_5">
     <g id="line2d_10">
      <g>
       <use xlink:href="#m94c0f351ec" x="57.6" y="118.801877" style="stroke: #000000; stroke-width: 0.8"/>
      </g>
     </g>
     <g id="text_11">
      <!-- 800 -->
      <g transform="translate(31.5125 122.601096) scale(0.1 -0.1)">
       <defs>
        <path id="DejaVuSans-38" d="M 2034 2216 
Q 1584 2216 1326 1975 
Q 1069 1734 1069 1313 
Q 1069 891 1326 650 
Q 1584 409 2034 409 
Q 2484 409 2743 651 
Q 3003 894 3003 1313 
Q 3003 1734 2745 1975 
Q 2488 2216 2034 2216 
z
M 1403 2484 
Q 997 2584 770 2862 
Q 544 3141 544 3541 
Q 544 4100 942 4425 
Q 1341 4750 2034 4750 
Q 2731 4750 3128 4425 
Q 3525 4100 3525 3541 
Q 3525 3141 3298 2862 
Q 3072 2584 2669 2484 
Q 3125 2378 3379 2068 
Q 3634 1759 3634 1313 
Q 3634 634 3220 271 
Q 2806 -91 2034 -91 
Q 1263 -91 848 271 
Q 434 634 434 1313 
Q 434 1759 690 2068 
Q 947 2378 1403 2484 
z
M 1172 3481 
Q 1172 3119 1398 2916 
Q 1625 2713 2034 2713 
Q 2441 2713 2670 2916 
Q 2900 3119 2900 3481 
Q 2900 3844 2670 4047 
Q 2441 4250 2034 4250 
Q 1625 4250 1398 4047 
Q 1172 3844 1172 3481 
z
" transform="scale(0.015625)"/>
       </defs>
       <use xlink:href="#DejaVuSans-38"/>
       <use xlink:href="#DejaVuSans-30" x="63.623047"/>
       <use xlink:href="#DejaVuSans-30" x="127.246094"/>
      </g>
     </g>
    </g>
    <g id="ytick_6">
     <g id="line2d_11">
      <g>
       <use xlink:href="#m94c0f351ec" x="57.6" y="71.606346" style="stroke: #000000; stroke-width: 0.8"/>
      </g>
     </g>
     <g id="text_12">
      <!-- 1000 -->
      <g transform="translate(25.15 75.405565) scale(0.1 -0.1)">
       <use xlink:href="#DejaVuSans-31"/>
       <use xlink:href="#DejaVuSans-30" x="63.623047"/>
       <use xlink:href="#DejaVuSans-30" x="127.246094"/>
       <use xlink:href="#DejaVuSans-30" x="190.869141"/>
      </g>
     </g>
    </g>
    <g id="text_13">
     <!-- BGC count -->
     <g transform="translate(19.070312 200.931906) rotate(-90) scale(0.1 -0.1)">
      <use xlink:href="#DejaVuSans-42"/>
      <use xlink:href="#DejaVuSans-47" x="66.853516"/>
      <use xlink:href="#DejaVuSans-43" x="144.34375"/>
      <use xlink:href="#DejaVuSans-20" x="214.167969"/>
      <use xlink:href="#DejaVuSans-63" x="245.955078"/>
      <use xlink:href="#DejaVuSans-6f" x="300.935547"/>
      <use xlink:href="#DejaVuSans-75" x="362.117188"/>
      <use xlink:href="#DejaVuSans-6e" x="425.496094"/>
      <use xlink:href="#DejaVuSans-74" x="488.875"/>
     </g>
    </g>
   </g>
   <g id="line2d_12">
    <path d="M 225.118986 307.584 
L 225.118986 41.472 
" clip-path="url(#p7d0934e48d)" style="fill: none; stroke: #ff0000; stroke-width: 1.5; stroke-linecap: square"/>
   </g>
   <g id="patch_203">
    <path d="M 57.6 307.584 
L 57.6 41.472 
" style="fill: none; stroke: #000000; stroke-width: 0.8; stroke-linejoin: miter; stroke-linecap: square"/>
   </g>
   <g id="patch_204">
    <path d="M 414.72 307.584 
L 414.72 41.472 
" style="fill: none; stroke: #000000; stroke-width: 0.8; stroke-linejoin: miter; stroke-linecap: square"/>
   </g>
   <g id="patch_205">
    <path d="M 57.6 307.584 
L 414.72 307.584 
" style="fill: none; stroke: #000000; stroke-width: 0.8; stroke-linejoin: miter; stroke-linecap: square"/>
   </g>
   <g id="patch_206">
    <path d="M 57.6 41.472 
L 414.72 41.472 
" style="fill: none; stroke: #000000; stroke-width: 0.8; stroke-linejoin: miter; stroke-linecap: square"/>
   </g>
   <g id="patch_207">
    <path d="M 395.371647 118.801877 
Q 309.914152 118.801877 224.456656 118.801877 
" style="fill: none; stroke: #ff0000; stroke-linecap: round"/>
    <path d="M 391.371647 116.801877 
L 395.371647 118.801877 
L 391.371647 120.801877 
" style="fill: none; stroke: #ff0000; stroke-linecap: round"/>
    <path d="M 228.456656 120.801877 
L 224.456656 118.801877 
L 228.456656 116.801877 
" style="fill: none; stroke: #ff0000; stroke-linecap: round"/>
   </g>
   <g id="text_14">
    <!-- Novel ($\it{d}$ &gt;0.2) -->
    <g transform="translate(340.055244 107.002994) scale(0.1 -0.1)">
     <defs>
      <path id="DejaVuSans-4e" d="M 628 4666 
L 1478 4666 
L 3547 763 
L 3547 4666 
L 4159 4666 
L 4159 0 
L 3309 0 
L 1241 3903 
L 1241 0 
L 628 0 
L 628 4666 
z
" transform="scale(0.015625)"/>
      <path id="DejaVuSans-76" d="M 191 3500 
L 800 3500 
L 1894 563 
L 2988 3500 
L 3597 3500 
L 2284 0 
L 1503 0 
L 191 3500 
z
" transform="scale(0.015625)"/>
      <path id="DejaVuSans-6c" d="M 603 4863 
L 1178 4863 
L 1178 0 
L 603 0 
L 603 4863 
z
" transform="scale(0.015625)"/>
      <path id="DejaVuSans-3e" d="M 678 3150 
L 678 3719 
L 4684 2266 
L 4684 1747 
L 678 294 
L 678 863 
L 3897 2003 
L 678 3150 
z
" transform="scale(0.015625)"/>
     </defs>
     <use xlink:href="#DejaVuSans-4e" transform="translate(0 0.015625)"/>
     <use xlink:href="#DejaVuSans-6f" transform="translate(74.804688 0.015625)"/>
     <use xlink:href="#DejaVuSans-76" transform="translate(135.986328 0.015625)"/>
     <use xlink:href="#DejaVuSans-65" transform="translate(195.166016 0.015625)"/>
     <use xlink:href="#DejaVuSans-6c" transform="translate(256.689453 0.015625)"/>
     <use xlink:href="#DejaVuSans-20" transform="translate(284.472656 0.015625)"/>
     <use xlink:href="#DejaVuSans-28" transform="translate(316.259766 0.015625)"/>
     <use xlink:href="#DejaVuSans-Oblique-64" transform="translate(355.273438 0.015625)"/>
     <use xlink:href="#DejaVuSans-20" transform="translate(418.75 0.015625)"/>
     <use xlink:href="#DejaVuSans-3e" transform="translate(450.537109 0.015625)"/>
     <use xlink:href="#DejaVuSans-30" transform="translate(534.326172 0.015625)"/>
     <use xlink:href="#DejaVuSans-2e" transform="translate(597.949219 0.015625)"/>
     <use xlink:href="#DejaVuSans-32" transform="translate(624.236328 0.015625)"/>
     <use xlink:href="#DejaVuSans-29" transform="translate(687.859375 0.015625)"/>
    </g>
   </g>
   <g id="legend_1">
    <g id="text_15">
     <!-- BiG-SLiCE class -->
     <g transform="translate(313.373906 140.592062) scale(0.1 -0.1)">
      <defs>
       <path id="DejaVuSans-2d" d="M 313 2009 
L 1997 2009 
L 1997 1497 
L 313 1497 
L 313 2009 
z
" transform="scale(0.015625)"/>
       <path id="DejaVuSans-53" d="M 3425 4513 
L 3425 3897 
Q 3066 4069 2747 4153 
Q 2428 4238 2131 4238 
Q 1616 4238 1336 4038 
Q 1056 3838 1056 3469 
Q 1056 3159 1242 3001 
Q 1428 2844 1947 2747 
L 2328 2669 
Q 3034 2534 3370 2195 
Q 3706 1856 3706 1288 
Q 3706 609 3251 259 
Q 2797 -91 1919 -91 
Q 1588 -91 1214 -16 
Q 841 59 441 206 
L 441 856 
Q 825 641 1194 531 
Q 1563 422 1919 422 
Q 2459 422 2753 634 
Q 3047 847 3047 1241 
Q 3047 1584 2836 1778 
Q 2625 1972 2144 2069 
L 1759 2144 
Q 1053 2284 737 2584 
Q 422 2884 422 3419 
Q 422 4038 858 4394 
Q 1294 4750 2059 4750 
Q 2388 4750 2728 4690 
Q 3069 4631 3425 4513 
z
" transform="scale(0.015625)"/>
       <path id="DejaVuSans-4c" d="M 628 4666 
L 1259 4666 
L 1259 531 
L 3531 531 
L 3531 0 
L 628 0 
L 628 4666 
z
" transform="scale(0.015625)"/>
       <path id="DejaVuSans-45" d="M 628 4666 
L 3578 4666 
L 3578 4134 
L 1259 4134 
L 1259 2753 
L 3481 2753 
L 3481 2222 
L 1259 2222 
L 1259 531 
L 3634 531 
L 3634 0 
L 628 0 
L 628 4666 
z
" transform="scale(0.015625)"/>
      </defs>
      <use xlink:href="#DejaVuSans-42"/>
      <use xlink:href="#DejaVuSans-69" x="68.603516"/>
      <use xlink:href="#DejaVuSans-47" x="96.386719"/>
      <use xlink:href="#DejaVuSans-2d" x="173.876953"/>
      <use xlink:href="#DejaVuSans-53" x="209.960938"/>
      <use xlink:href="#DejaVuSans-4c" x="273.4375"/>
      <use xlink:href="#DejaVuSans-69" x="329.150391"/>
      <use xlink:href="#DejaVuSans-43" x="356.933594"/>
      <use xlink:href="#DejaVuSans-45" x="426.757812"/>
      <use xlink:href="#DejaVuSans-20" x="489.941406"/>
      <use xlink:href="#DejaVuSans-63" x="521.728516"/>
      <use xlink:href="#DejaVuSans-6c" x="576.708984"/>
      <use xlink:href="#DejaVuSans-61" x="604.492188"/>
      <use xlink:href="#DejaVuSans-73" x="665.771484"/>
      <use xlink:href="#DejaVuSans-73" x="717.871094"/>
     </g>
    </g>
    <g id="patch_208">
     <path d="M 298.024688 155.270187 
L 318.024688 155.270187 
L 318.024688 148.270187 
L 298.024688 148.270187 
z
" style="fill: #1f77b4; fill-opacity: 0.75; stroke: #000000; stroke-linejoin: miter"/>
    </g>
    <g id="text_16">
     <!-- class-Polyketide -->
     <g transform="translate(326.024688 155.270187) scale(0.1 -0.1)">
      <defs>
       <path id="DejaVuSans-50" d="M 1259 4147 
L 1259 2394 
L 2053 2394 
Q 2494 2394 2734 2622 
Q 2975 2850 2975 3272 
Q 2975 3691 2734 3919 
Q 2494 4147 2053 4147 
L 1259 4147 
z
M 628 4666 
L 2053 4666 
Q 2838 4666 3239 4311 
Q 3641 3956 3641 3272 
Q 3641 2581 3239 2228 
Q 2838 1875 2053 1875 
L 1259 1875 
L 1259 0 
L 628 0 
L 628 4666 
z
" transform="scale(0.015625)"/>
       <path id="DejaVuSans-79" d="M 2059 -325 
Q 1816 -950 1584 -1140 
Q 1353 -1331 966 -1331 
L 506 -1331 
L 506 -850 
L 844 -850 
Q 1081 -850 1212 -737 
Q 1344 -625 1503 -206 
L 1606 56 
L 191 3500 
L 800 3500 
L 1894 763 
L 2988 3500 
L 3597 3500 
L 2059 -325 
z
" transform="scale(0.015625)"/>
       <path id="DejaVuSans-6b" d="M 581 4863 
L 1159 4863 
L 1159 1991 
L 2875 3500 
L 3609 3500 
L 1753 1863 
L 3688 0 
L 2938 0 
L 1159 1709 
L 1159 0 
L 581 0 
L 581 4863 
z
" transform="scale(0.015625)"/>
      </defs>
      <use xlink:href="#DejaVuSans-63"/>
      <use xlink:href="#DejaVuSans-6c" x="54.980469"/>
      <use xlink:href="#DejaVuSans-61" x="82.763672"/>
      <use xlink:href="#DejaVuSans-73" x="144.042969"/>
      <use xlink:href="#DejaVuSans-73" x="196.142578"/>
      <use xlink:href="#DejaVuSans-2d" x="248.242188"/>
      <use xlink:href="#DejaVuSans-50" x="284.326172"/>
      <use xlink:href="#DejaVuSans-6f" x="341.003906"/>
      <use xlink:href="#DejaVuSans-6c" x="402.185547"/>
      <use xlink:href="#DejaVuSans-79" x="429.96875"/>
      <use xlink:href="#DejaVuSans-6b" x="489.148438"/>
      <use xlink:href="#DejaVuSans-65" x="543.433594"/>
      <use xlink:href="#DejaVuSans-74" x="604.957031"/>
      <use xlink:href="#DejaVuSans-69" x="644.166016"/>
      <use xlink:href="#DejaVuSans-64" x="671.949219"/>
      <use xlink:href="#DejaVuSans-65" x="735.425781"/>
     </g>
    </g>
    <g id="patch_209">
     <path d="M 298.024688 169.948312 
L 318.024688 169.948312 
L 318.024688 162.948312 
L 298.024688 162.948312 
z
" style="fill: #ff7f0e; fill-opacity: 0.75; stroke: #000000; stroke-linejoin: miter"/>
    </g>
    <g id="text_17">
     <!-- class-NRP -->
     <g transform="translate(326.024688 169.948312) scale(0.1 -0.1)">
      <defs>
       <path id="DejaVuSans-52" d="M 2841 2188 
Q 3044 2119 3236 1894 
Q 3428 1669 3622 1275 
L 4263 0 
L 3584 0 
L 2988 1197 
Q 2756 1666 2539 1819 
Q 2322 1972 1947 1972 
L 1259 1972 
L 1259 0 
L 628 0 
L 628 4666 
L 2053 4666 
Q 2853 4666 3247 4331 
Q 3641 3997 3641 3322 
Q 3641 2881 3436 2590 
Q 3231 2300 2841 2188 
z
M 1259 4147 
L 1259 2491 
L 2053 2491 
Q 2509 2491 2742 2702 
Q 2975 2913 2975 3322 
Q 2975 3731 2742 3939 
Q 2509 4147 2053 4147 
L 1259 4147 
z
" transform="scale(0.015625)"/>
      </defs>
      <use xlink:href="#DejaVuSans-63"/>
      <use xlink:href="#DejaVuSans-6c" x="54.980469"/>
      <use xlink:href="#DejaVuSans-61" x="82.763672"/>
      <use xlink:href="#DejaVuSans-73" x="144.042969"/>
      <use xlink:href="#DejaVuSans-73" x="196.142578"/>
      <use xlink:href="#DejaVuSans-2d" x="248.242188"/>
      <use xlink:href="#DejaVuSans-4e" x="284.326172"/>
      <use xlink:href="#DejaVuSans-52" x="359.130859"/>
      <use xlink:href="#DejaVuSans-50" x="428.613281"/>
     </g>
    </g>
    <g id="patch_210">
     <path d="M 298.024688 184.626438 
L 318.024688 184.626438 
L 318.024688 177.626438 
L 298.024688 177.626438 
z
" style="fill: #2ca02c; fill-opacity: 0.75; stroke: #000000; stroke-linejoin: miter"/>
    </g>
    <g id="text_18">
     <!-- class-Terpene -->
     <g transform="translate(326.024688 184.626438) scale(0.1 -0.1)">
      <defs>
       <path id="DejaVuSans-54" d="M -19 4666 
L 3928 4666 
L 3928 4134 
L 2272 4134 
L 2272 0 
L 1638 0 
L 1638 4134 
L -19 4134 
L -19 4666 
z
" transform="scale(0.015625)"/>
       <path id="DejaVuSans-72" d="M 2631 2963 
Q 2534 3019 2420 3045 
Q 2306 3072 2169 3072 
Q 1681 3072 1420 2755 
Q 1159 2438 1159 1844 
L 1159 0 
L 581 0 
L 581 3500 
L 1159 3500 
L 1159 2956 
Q 1341 3275 1631 3429 
Q 1922 3584 2338 3584 
Q 2397 3584 2469 3576 
Q 2541 3569 2628 3553 
L 2631 2963 
z
" transform="scale(0.015625)"/>
       <path id="DejaVuSans-70" d="M 1159 525 
L 1159 -1331 
L 581 -1331 
L 581 3500 
L 1159 3500 
L 1159 2969 
Q 1341 3281 1617 3432 
Q 1894 3584 2278 3584 
Q 2916 3584 3314 3078 
Q 3713 2572 3713 1747 
Q 3713 922 3314 415 
Q 2916 -91 2278 -91 
Q 1894 -91 1617 61 
Q 1341 213 1159 525 
z
M 3116 1747 
Q 3116 2381 2855 2742 
Q 2594 3103 2138 3103 
Q 1681 3103 1420 2742 
Q 1159 2381 1159 1747 
Q 1159 1113 1420 752 
Q 1681 391 2138 391 
Q 2594 391 2855 752 
Q 3116 1113 3116 1747 
z
" transform="scale(0.015625)"/>
      </defs>
      <use xlink:href="#DejaVuSans-63"/>
      <use xlink:href="#DejaVuSans-6c" x="54.980469"/>
      <use xlink:href="#DejaVuSans-61" x="82.763672"/>
      <use xlink:href="#DejaVuSans-73" x="144.042969"/>
      <use xlink:href="#DejaVuSans-73" x="196.142578"/>
      <use xlink:href="#DejaVuSans-2d" x="248.242188"/>
      <use xlink:href="#DejaVuSans-54" x="275.201172"/>
      <use xlink:href="#DejaVuSans-65" x="319.285156"/>
      <use xlink:href="#DejaVuSans-72" x="380.808594"/>
      <use xlink:href="#DejaVuSans-70" x="421.921875"/>
      <use xlink:href="#DejaVuSans-65" x="485.398438"/>
      <use xlink:href="#DejaVuSans-6e" x="546.921875"/>
      <use xlink:href="#DejaVuSans-65" x="610.300781"/>
     </g>
    </g>
    <g id="patch_211">
     <path d="M 298.024688 199.304563 
L 318.024688 199.304563 
L 318.024688 192.304563 
L 298.024688 192.304563 
z
" style="fill: #d62728; fill-opacity: 0.75; stroke: #000000; stroke-linejoin: miter"/>
    </g>
    <g id="text_19">
     <!-- class-Other -->
     <g transform="translate(326.024688 199.304563) scale(0.1 -0.1)">
      <defs>
       <path id="DejaVuSans-4f" d="M 2522 4238 
Q 1834 4238 1429 3725 
Q 1025 3213 1025 2328 
Q 1025 1447 1429 934 
Q 1834 422 2522 422 
Q 3209 422 3611 934 
Q 4013 1447 4013 2328 
Q 4013 3213 3611 3725 
Q 3209 4238 2522 4238 
z
M 2522 4750 
Q 3503 4750 4090 4092 
Q 4678 3434 4678 2328 
Q 4678 1225 4090 567 
Q 3503 -91 2522 -91 
Q 1538 -91 948 565 
Q 359 1222 359 2328 
Q 359 3434 948 4092 
Q 1538 4750 2522 4750 
z
" transform="scale(0.015625)"/>
       <path id="DejaVuSans-68" d="M 3513 2113 
L 3513 0 
L 2938 0 
L 2938 2094 
Q 2938 2591 2744 2837 
Q 2550 3084 2163 3084 
Q 1697 3084 1428 2787 
Q 1159 2491 1159 1978 
L 1159 0 
L 581 0 
L 581 4863 
L 1159 4863 
L 1159 2956 
Q 1366 3272 1645 3428 
Q 1925 3584 2291 3584 
Q 2894 3584 3203 3211 
Q 3513 2838 3513 2113 
z
" transform="scale(0.015625)"/>
      </defs>
      <use xlink:href="#DejaVuSans-63"/>
      <use xlink:href="#DejaVuSans-6c" x="54.980469"/>
      <use xlink:href="#DejaVuSans-61" x="82.763672"/>
      <use xlink:href="#DejaVuSans-73" x="144.042969"/>
      <use xlink:href="#DejaVuSans-73" x="196.142578"/>
      <use xlink:href="#DejaVuSans-2d" x="248.242188"/>
      <use xlink:href="#DejaVuSans-4f" x="287.076172"/>
      <use xlink:href="#DejaVuSans-74" x="365.787109"/>
      <use xlink:href="#DejaVuSans-68" x="404.996094"/>
      <use xlink:href="#DejaVuSans-65" x="468.375"/>
      <use xlink:href="#DejaVuSans-72" x="529.898438"/>
     </g>
    </g>
    <g id="patch_212">
     <path d="M 298.024688 213.982687 
L 318.024688 213.982687 
L 318.024688 206.982687 
L 298.024688 206.982687 
z
" style="fill: #9467bd; fill-opacity: 0.75; stroke: #000000; stroke-linejoin: miter"/>
    </g>
    <g id="text_20">
     <!-- class-RiPP -->
     <g transform="translate(326.024688 213.982687) scale(0.1 -0.1)">
      <use xlink:href="#DejaVuSans-63"/>
      <use xlink:href="#DejaVuSans-6c" x="54.980469"/>
      <use xlink:href="#DejaVuSans-61" x="82.763672"/>
      <use xlink:href="#DejaVuSans-73" x="144.042969"/>
      <use xlink:href="#DejaVuSans-73" x="196.142578"/>
      <use xlink:href="#DejaVuSans-2d" x="248.242188"/>
      <use xlink:href="#DejaVuSans-52" x="284.326172"/>
      <use xlink:href="#DejaVuSans-69" x="353.808594"/>
      <use xlink:href="#DejaVuSans-50" x="381.591797"/>
      <use xlink:href="#DejaVuSans-50" x="441.894531"/>
     </g>
    </g>
   </g>
  </g>
 </g>
 <defs>
  <clipPath id="p7d0934e48d">
   <rect x="57.6" y="41.472" width="357.12" height="266.112"/>
  </clipPath>
 </defs>
</svg>
