<?xml version="1.0" encoding="utf-8" standalone="no"?>
<!DOCTYPE svg PUBLIC "-//W3C//DTD SVG 1.1//EN"
  "http://www.w3.org/Graphics/SVG/1.1/DTD/svg11.dtd">
<svg xmlns:xlink="http://www.w3.org/1999/xlink" width="460.8pt" height="345.6pt" viewBox="0 0 460.8 345.6" xmlns="http://www.w3.org/2000/svg" version="1.1">
 <metadata>
  <rdf:RDF xmlns:dc="http://purl.org/dc/elements/1.1/" xmlns:cc="http://creativecommons.org/ns#" xmlns:rdf="http://www.w3.org/1999/02/22-rdf-syntax-ns#">
   <cc:Work>
    <dc:type rdf:resource="http://purl.org/dc/dcmitype/StillImage"/>
    <dc:date>2023-04-09T14:50:17.244254</dc:date>
    <dc:format>image/svg+xml</dc:format>
    <dc:creator>
     <cc:Agent>
      <dc:title>Matplotlib v3.7.1, https://matplotlib.org/</dc:title>
     </cc:Agent>
    </dc:creator>
   </cc:Work>
  </rdf:RDF>
 </metadata>
 <defs>
  <style type="text/css">*{stroke-linejoin: round; stroke-linecap: butt}</style>
 </defs>
 <g id="figure_1">
  <g id="patch_1">
   <path d="M 0 345.6 
L 460.8 345.6 
L 460.8 0 
L 0 0 
z
" style="fill: #ffffff"/>
  </g>
  <g id="axes_1">
   <g id="patch_2">
    <path d="M 57.6 307.584 
L 414.72 307.584 
L 414.72 41.472 
L 57.6 41.472 
z
" style="fill: #ffffff"/>
   </g>
   <g id="matplotlib.axis_1">
    <g id="xtick_1">
     <g id="text_1">
      <!-- 0.0 -->
      <g style="fill: #262626" transform="translate(67.716727 322.182875) scale(0.088 -0.088)">
       <defs>
        <path id="ArialMT-30" d="M 266 2259 
Q 266 3072 433 3567 
Q 600 4063 929 4331 
Q 1259 4600 1759 4600 
Q 2128 4600 2406 4451 
Q 2684 4303 2865 4023 
Q 3047 3744 3150 3342 
Q 3253 2941 3253 2259 
Q 3253 1453 3087 958 
Q 2922 463 2592 192 
Q 2263 -78 1759 -78 
Q 1097 -78 719 397 
Q 266 969 266 2259 
z
M 844 2259 
Q 844 1131 1108 757 
Q 1372 384 1759 384 
Q 2147 384 2411 759 
Q 2675 1134 2675 2259 
Q 2675 3391 2411 3762 
Q 2147 4134 1753 4134 
Q 1366 4134 1134 3806 
Q 844 3388 844 2259 
z
" transform="scale(0.015625)"/>
        <path id="ArialMT-2e" d="M 581 0 
L 581 641 
L 1222 641 
L 1222 0 
L 581 0 
z
" transform="scale(0.015625)"/>
       </defs>
       <use xlink:href="#ArialMT-30"/>
       <use xlink:href="#ArialMT-2e" x="55.615234"/>
       <use xlink:href="#ArialMT-30" x="83.398438"/>
      </g>
     </g>
    </g>
    <g id="xtick_2">
     <g id="text_2">
      <!-- 0.1 -->
      <g style="fill: #262626" transform="translate(143.359857 322.182875) scale(0.088 -0.088)">
       <defs>
        <path id="ArialMT-31" d="M 2384 0 
L 1822 0 
L 1822 3584 
Q 1619 3391 1289 3197 
Q 959 3003 697 2906 
L 697 3450 
Q 1169 3672 1522 3987 
Q 1875 4303 2022 4600 
L 2384 4600 
L 2384 0 
z
" transform="scale(0.015625)"/>
       </defs>
       <use xlink:href="#ArialMT-30"/>
       <use xlink:href="#ArialMT-2e" x="55.615234"/>
       <use xlink:href="#ArialMT-31" x="83.398438"/>
      </g>
     </g>
    </g>
    <g id="xtick_3">
     <g id="text_3">
      <!-- 0.2 -->
      <g style="fill: #262626" transform="translate(219.002986 322.182875) scale(0.088 -0.088)">
       <defs>
        <path id="ArialMT-32" d="M 3222 541 
L 3222 0 
L 194 0 
Q 188 203 259 391 
Q 375 700 629 1000 
Q 884 1300 1366 1694 
Q 2113 2306 2375 2664 
Q 2638 3022 2638 3341 
Q 2638 3675 2398 3904 
Q 2159 4134 1775 4134 
Q 1369 4134 1125 3890 
Q 881 3647 878 3216 
L 300 3275 
Q 359 3922 746 4261 
Q 1134 4600 1788 4600 
Q 2447 4600 2831 4234 
Q 3216 3869 3216 3328 
Q 3216 3053 3103 2787 
Q 2991 2522 2730 2228 
Q 2469 1934 1863 1422 
Q 1356 997 1212 845 
Q 1069 694 975 541 
L 3222 541 
z
" transform="scale(0.015625)"/>
       </defs>
       <use xlink:href="#ArialMT-30"/>
       <use xlink:href="#ArialMT-2e" x="55.615234"/>
       <use xlink:href="#ArialMT-32" x="83.398438"/>
      </g>
     </g>
    </g>
    <g id="xtick_4">
     <g id="text_4">
      <!-- 0.3 -->
      <g style="fill: #262626" transform="translate(294.646115 322.182875) scale(0.088 -0.088)">
       <defs>
        <path id="ArialMT-33" d="M 269 1209 
L 831 1284 
Q 928 806 1161 595 
Q 1394 384 1728 384 
Q 2125 384 2398 659 
Q 2672 934 2672 1341 
Q 2672 1728 2419 1979 
Q 2166 2231 1775 2231 
Q 1616 2231 1378 2169 
L 1441 2663 
Q 1497 2656 1531 2656 
Q 1891 2656 2178 2843 
Q 2466 3031 2466 3422 
Q 2466 3731 2256 3934 
Q 2047 4138 1716 4138 
Q 1388 4138 1169 3931 
Q 950 3725 888 3313 
L 325 3413 
Q 428 3978 793 4289 
Q 1159 4600 1703 4600 
Q 2078 4600 2393 4439 
Q 2709 4278 2876 4000 
Q 3044 3722 3044 3409 
Q 3044 3113 2884 2869 
Q 2725 2625 2413 2481 
Q 2819 2388 3044 2092 
Q 3269 1797 3269 1353 
Q 3269 753 2831 336 
Q 2394 -81 1725 -81 
Q 1122 -81 723 278 
Q 325 638 269 1209 
z
" transform="scale(0.015625)"/>
       </defs>
       <use xlink:href="#ArialMT-30"/>
       <use xlink:href="#ArialMT-2e" x="55.615234"/>
       <use xlink:href="#ArialMT-33" x="83.398438"/>
      </g>
     </g>
    </g>
    <g id="xtick_5">
     <g id="text_5">
      <!-- 0.4 -->
      <g style="fill: #262626" transform="translate(370.289244 322.182875) scale(0.088 -0.088)">
       <defs>
        <path id="ArialMT-34" d="M 2069 0 
L 2069 1097 
L 81 1097 
L 81 1613 
L 2172 4581 
L 2631 4581 
L 2631 1613 
L 3250 1613 
L 3250 1097 
L 2631 1097 
L 2631 0 
L 2069 0 
z
M 2069 1613 
L 2069 3678 
L 634 1613 
L 2069 1613 
z
" transform="scale(0.015625)"/>
       </defs>
       <use xlink:href="#ArialMT-30"/>
       <use xlink:href="#ArialMT-2e" x="55.615234"/>
       <use xlink:href="#ArialMT-34" x="83.398438"/>
      </g>
     </g>
    </g>
    <g id="text_6">
     <!-- minimum cosine distance ($\it{d}$) of BGCs -->
     <g style="fill: #262626" transform="translate(155.184 335.227875) scale(0.096 -0.096)">
      <defs>
       <path id="ArialMT-6d" d="M 422 0 
L 422 3319 
L 925 3319 
L 925 2853 
Q 1081 3097 1340 3245 
Q 1600 3394 1931 3394 
Q 2300 3394 2536 3241 
Q 2772 3088 2869 2813 
Q 3263 3394 3894 3394 
Q 4388 3394 4653 3120 
Q 4919 2847 4919 2278 
L 4919 0 
L 4359 0 
L 4359 2091 
Q 4359 2428 4304 2576 
Q 4250 2725 4106 2815 
Q 3963 2906 3769 2906 
Q 3419 2906 3187 2673 
Q 2956 2441 2956 1928 
L 2956 0 
L 2394 0 
L 2394 2156 
Q 2394 2531 2256 2718 
Q 2119 2906 1806 2906 
Q 1569 2906 1367 2781 
Q 1166 2656 1075 2415 
Q 984 2175 984 1722 
L 984 0 
L 422 0 
z
" transform="scale(0.015625)"/>
       <path id="ArialMT-69" d="M 425 3934 
L 425 4581 
L 988 4581 
L 988 3934 
L 425 3934 
z
M 425 0 
L 425 3319 
L 988 3319 
L 988 0 
L 425 0 
z
" transform="scale(0.015625)"/>
       <path id="ArialMT-6e" d="M 422 0 
L 422 3319 
L 928 3319 
L 928 2847 
Q 1294 3394 1984 3394 
Q 2284 3394 2536 3286 
Q 2788 3178 2913 3003 
Q 3038 2828 3088 2588 
Q 3119 2431 3119 2041 
L 3119 0 
L 2556 0 
L 2556 2019 
Q 2556 2363 2490 2533 
Q 2425 2703 2258 2804 
Q 2091 2906 1866 2906 
Q 1506 2906 1245 2678 
Q 984 2450 984 1813 
L 984 0 
L 422 0 
z
" transform="scale(0.015625)"/>
       <path id="ArialMT-75" d="M 2597 0 
L 2597 488 
Q 2209 -75 1544 -75 
Q 1250 -75 995 37 
Q 741 150 617 320 
Q 494 491 444 738 
Q 409 903 409 1263 
L 409 3319 
L 972 3319 
L 972 1478 
Q 972 1038 1006 884 
Q 1059 663 1231 536 
Q 1403 409 1656 409 
Q 1909 409 2131 539 
Q 2353 669 2445 892 
Q 2538 1116 2538 1541 
L 2538 3319 
L 3100 3319 
L 3100 0 
L 2597 0 
z
" transform="scale(0.015625)"/>
       <path id="ArialMT-20" transform="scale(0.015625)"/>
       <path id="ArialMT-63" d="M 2588 1216 
L 3141 1144 
Q 3050 572 2676 248 
Q 2303 -75 1759 -75 
Q 1078 -75 664 370 
Q 250 816 250 1647 
Q 250 2184 428 2587 
Q 606 2991 970 3192 
Q 1334 3394 1763 3394 
Q 2303 3394 2647 3120 
Q 2991 2847 3088 2344 
L 2541 2259 
Q 2463 2594 2264 2762 
Q 2066 2931 1784 2931 
Q 1359 2931 1093 2626 
Q 828 2322 828 1663 
Q 828 994 1084 691 
Q 1341 388 1753 388 
Q 2084 388 2306 591 
Q 2528 794 2588 1216 
z
" transform="scale(0.015625)"/>
       <path id="ArialMT-6f" d="M 213 1659 
Q 213 2581 725 3025 
Q 1153 3394 1769 3394 
Q 2453 3394 2887 2945 
Q 3322 2497 3322 1706 
Q 3322 1066 3130 698 
Q 2938 331 2570 128 
Q 2203 -75 1769 -75 
Q 1072 -75 642 372 
Q 213 819 213 1659 
z
M 791 1659 
Q 791 1022 1069 705 
Q 1347 388 1769 388 
Q 2188 388 2466 706 
Q 2744 1025 2744 1678 
Q 2744 2294 2464 2611 
Q 2184 2928 1769 2928 
Q 1347 2928 1069 2612 
Q 791 2297 791 1659 
z
" transform="scale(0.015625)"/>
       <path id="ArialMT-73" d="M 197 991 
L 753 1078 
Q 800 744 1014 566 
Q 1228 388 1613 388 
Q 2000 388 2187 545 
Q 2375 703 2375 916 
Q 2375 1106 2209 1216 
Q 2094 1291 1634 1406 
Q 1016 1563 777 1677 
Q 538 1791 414 1992 
Q 291 2194 291 2438 
Q 291 2659 392 2848 
Q 494 3038 669 3163 
Q 800 3259 1026 3326 
Q 1253 3394 1513 3394 
Q 1903 3394 2198 3281 
Q 2494 3169 2634 2976 
Q 2775 2784 2828 2463 
L 2278 2388 
Q 2241 2644 2061 2787 
Q 1881 2931 1553 2931 
Q 1166 2931 1000 2803 
Q 834 2675 834 2503 
Q 834 2394 903 2306 
Q 972 2216 1119 2156 
Q 1203 2125 1616 2013 
Q 2213 1853 2448 1751 
Q 2684 1650 2818 1456 
Q 2953 1263 2953 975 
Q 2953 694 2789 445 
Q 2625 197 2315 61 
Q 2006 -75 1616 -75 
Q 969 -75 630 194 
Q 291 463 197 991 
z
" transform="scale(0.015625)"/>
       <path id="ArialMT-65" d="M 2694 1069 
L 3275 997 
Q 3138 488 2766 206 
Q 2394 -75 1816 -75 
Q 1088 -75 661 373 
Q 234 822 234 1631 
Q 234 2469 665 2931 
Q 1097 3394 1784 3394 
Q 2450 3394 2872 2941 
Q 3294 2488 3294 1666 
Q 3294 1616 3291 1516 
L 816 1516 
Q 847 969 1125 678 
Q 1403 388 1819 388 
Q 2128 388 2347 550 
Q 2566 713 2694 1069 
z
M 847 1978 
L 2700 1978 
Q 2663 2397 2488 2606 
Q 2219 2931 1791 2931 
Q 1403 2931 1139 2672 
Q 875 2413 847 1978 
z
" transform="scale(0.015625)"/>
       <path id="ArialMT-64" d="M 2575 0 
L 2575 419 
Q 2259 -75 1647 -75 
Q 1250 -75 917 144 
Q 584 363 401 755 
Q 219 1147 219 1656 
Q 219 2153 384 2558 
Q 550 2963 881 3178 
Q 1213 3394 1622 3394 
Q 1922 3394 2156 3267 
Q 2391 3141 2538 2938 
L 2538 4581 
L 3097 4581 
L 3097 0 
L 2575 0 
z
M 797 1656 
Q 797 1019 1065 703 
Q 1334 388 1700 388 
Q 2069 388 2326 689 
Q 2584 991 2584 1609 
Q 2584 2291 2321 2609 
Q 2059 2928 1675 2928 
Q 1300 2928 1048 2622 
Q 797 2316 797 1656 
z
" transform="scale(0.015625)"/>
       <path id="ArialMT-74" d="M 1650 503 
L 1731 6 
Q 1494 -44 1306 -44 
Q 1000 -44 831 53 
Q 663 150 594 308 
Q 525 466 525 972 
L 525 2881 
L 113 2881 
L 113 3319 
L 525 3319 
L 525 4141 
L 1084 4478 
L 1084 3319 
L 1650 3319 
L 1650 2881 
L 1084 2881 
L 1084 941 
Q 1084 700 1114 631 
Q 1144 563 1211 522 
Q 1278 481 1403 481 
Q 1497 481 1650 503 
z
" transform="scale(0.015625)"/>
       <path id="ArialMT-61" d="M 2588 409 
Q 2275 144 1986 34 
Q 1697 -75 1366 -75 
Q 819 -75 525 192 
Q 231 459 231 875 
Q 231 1119 342 1320 
Q 453 1522 633 1644 
Q 813 1766 1038 1828 
Q 1203 1872 1538 1913 
Q 2219 1994 2541 2106 
Q 2544 2222 2544 2253 
Q 2544 2597 2384 2738 
Q 2169 2928 1744 2928 
Q 1347 2928 1158 2789 
Q 969 2650 878 2297 
L 328 2372 
Q 403 2725 575 2942 
Q 747 3159 1072 3276 
Q 1397 3394 1825 3394 
Q 2250 3394 2515 3294 
Q 2781 3194 2906 3042 
Q 3031 2891 3081 2659 
Q 3109 2516 3109 2141 
L 3109 1391 
Q 3109 606 3145 398 
Q 3181 191 3288 0 
L 2700 0 
Q 2613 175 2588 409 
z
M 2541 1666 
Q 2234 1541 1622 1453 
Q 1275 1403 1131 1340 
Q 988 1278 909 1158 
Q 831 1038 831 891 
Q 831 666 1001 516 
Q 1172 366 1500 366 
Q 1825 366 2078 508 
Q 2331 650 2450 897 
Q 2541 1088 2541 1459 
L 2541 1666 
z
" transform="scale(0.015625)"/>
       <path id="ArialMT-28" d="M 1497 -1347 
Q 1031 -759 709 28 
Q 388 816 388 1659 
Q 388 2403 628 3084 
Q 909 3875 1497 4659 
L 1900 4659 
Q 1522 4009 1400 3731 
Q 1209 3300 1100 2831 
Q 966 2247 966 1656 
Q 966 153 1900 -1347 
L 1497 -1347 
z
" transform="scale(0.015625)"/>
       <path id="DejaVuSans-Oblique-64" d="M 2675 525 
Q 2444 222 2128 65 
Q 1813 -91 1428 -91 
Q 903 -91 598 267 
Q 294 625 294 1247 
Q 294 1766 478 2236 
Q 663 2706 1013 3078 
Q 1244 3325 1534 3454 
Q 1825 3584 2144 3584 
Q 2481 3584 2739 3421 
Q 2997 3259 3138 2956 
L 3513 4863 
L 4091 4863 
L 3144 0 
L 2566 0 
L 2675 525 
z
M 891 1350 
Q 891 897 1095 644 
Q 1300 391 1663 391 
Q 1931 391 2161 520 
Q 2391 650 2566 903 
Q 2750 1166 2856 1509 
Q 2963 1853 2963 2188 
Q 2963 2622 2758 2865 
Q 2553 3109 2194 3109 
Q 1922 3109 1687 2981 
Q 1453 2853 1288 2613 
Q 1106 2353 998 2009 
Q 891 1666 891 1350 
z
" transform="scale(0.015625)"/>
       <path id="ArialMT-29" d="M 791 -1347 
L 388 -1347 
Q 1322 153 1322 1656 
Q 1322 2244 1188 2822 
Q 1081 3291 891 3722 
Q 769 4003 388 4659 
L 791 4659 
Q 1378 3875 1659 3084 
Q 1900 2403 1900 1659 
Q 1900 816 1576 28 
Q 1253 -759 791 -1347 
z
" transform="scale(0.015625)"/>
       <path id="ArialMT-66" d="M 556 0 
L 556 2881 
L 59 2881 
L 59 3319 
L 556 3319 
L 556 3672 
Q 556 4006 616 4169 
Q 697 4388 901 4523 
Q 1106 4659 1475 4659 
Q 1713 4659 2000 4603 
L 1916 4113 
Q 1741 4144 1584 4144 
Q 1328 4144 1222 4034 
Q 1116 3925 1116 3625 
L 1116 3319 
L 1763 3319 
L 1763 2881 
L 1116 2881 
L 1116 0 
L 556 0 
z
" transform="scale(0.015625)"/>
       <path id="ArialMT-42" d="M 469 0 
L 469 4581 
L 2188 4581 
Q 2713 4581 3030 4442 
Q 3347 4303 3526 4014 
Q 3706 3725 3706 3409 
Q 3706 3116 3547 2856 
Q 3388 2597 3066 2438 
Q 3481 2316 3704 2022 
Q 3928 1728 3928 1328 
Q 3928 1006 3792 729 
Q 3656 453 3456 303 
Q 3256 153 2954 76 
Q 2653 0 2216 0 
L 469 0 
z
M 1075 2656 
L 2066 2656 
Q 2469 2656 2644 2709 
Q 2875 2778 2992 2937 
Q 3109 3097 3109 3338 
Q 3109 3566 3000 3739 
Q 2891 3913 2687 3977 
Q 2484 4041 1991 4041 
L 1075 4041 
L 1075 2656 
z
M 1075 541 
L 2216 541 
Q 2509 541 2628 563 
Q 2838 600 2978 687 
Q 3119 775 3209 942 
Q 3300 1109 3300 1328 
Q 3300 1584 3169 1773 
Q 3038 1963 2805 2039 
Q 2572 2116 2134 2116 
L 1075 2116 
L 1075 541 
z
" transform="scale(0.015625)"/>
       <path id="ArialMT-47" d="M 2638 1797 
L 2638 2334 
L 4578 2338 
L 4578 638 
Q 4131 281 3656 101 
Q 3181 -78 2681 -78 
Q 2006 -78 1454 211 
Q 903 500 622 1047 
Q 341 1594 341 2269 
Q 341 2938 620 3517 
Q 900 4097 1425 4378 
Q 1950 4659 2634 4659 
Q 3131 4659 3532 4498 
Q 3934 4338 4162 4050 
Q 4391 3763 4509 3300 
L 3963 3150 
Q 3859 3500 3706 3700 
Q 3553 3900 3268 4020 
Q 2984 4141 2638 4141 
Q 2222 4141 1919 4014 
Q 1616 3888 1430 3681 
Q 1244 3475 1141 3228 
Q 966 2803 966 2306 
Q 966 1694 1177 1281 
Q 1388 869 1791 669 
Q 2194 469 2647 469 
Q 3041 469 3416 620 
Q 3791 772 3984 944 
L 3984 1797 
L 2638 1797 
z
" transform="scale(0.015625)"/>
       <path id="ArialMT-43" d="M 3763 1606 
L 4369 1453 
Q 4178 706 3683 314 
Q 3188 -78 2472 -78 
Q 1731 -78 1267 223 
Q 803 525 561 1097 
Q 319 1669 319 2325 
Q 319 3041 592 3573 
Q 866 4106 1370 4382 
Q 1875 4659 2481 4659 
Q 3169 4659 3637 4309 
Q 4106 3959 4291 3325 
L 3694 3184 
Q 3534 3684 3231 3912 
Q 2928 4141 2469 4141 
Q 1941 4141 1586 3887 
Q 1231 3634 1087 3207 
Q 944 2781 944 2328 
Q 944 1744 1114 1308 
Q 1284 872 1643 656 
Q 2003 441 2422 441 
Q 2931 441 3284 734 
Q 3638 1028 3763 1606 
z
" transform="scale(0.015625)"/>
      </defs>
      <use xlink:href="#ArialMT-6d" transform="translate(0 0.015625)"/>
      <use xlink:href="#ArialMT-69" transform="translate(83.300781 0.015625)"/>
      <use xlink:href="#ArialMT-6e" transform="translate(105.517578 0.015625)"/>
      <use xlink:href="#ArialMT-69" transform="translate(161.132812 0.015625)"/>
      <use xlink:href="#ArialMT-6d" transform="translate(183.349609 0.015625)"/>
      <use xlink:href="#ArialMT-75" transform="translate(266.650391 0.015625)"/>
      <use xlink:href="#ArialMT-6d" transform="translate(322.265625 0.015625)"/>
      <use xlink:href="#ArialMT-20" transform="translate(405.566406 0.015625)"/>
      <use xlink:href="#ArialMT-63" transform="translate(433.349609 0.015625)"/>
      <use xlink:href="#ArialMT-6f" transform="translate(483.349609 0.015625)"/>
      <use xlink:href="#ArialMT-73" transform="translate(538.964844 0.015625)"/>
      <use xlink:href="#ArialMT-69" transform="translate(588.964844 0.015625)"/>
      <use xlink:href="#ArialMT-6e" transform="translate(611.181641 0.015625)"/>
      <use xlink:href="#ArialMT-65" transform="translate(666.796875 0.015625)"/>
      <use xlink:href="#ArialMT-20" transform="translate(722.412109 0.015625)"/>
      <use xlink:href="#ArialMT-64" transform="translate(750.195312 0.015625)"/>
      <use xlink:href="#ArialMT-69" transform="translate(805.810547 0.015625)"/>
      <use xlink:href="#ArialMT-73" transform="translate(828.027344 0.015625)"/>
      <use xlink:href="#ArialMT-74" transform="translate(878.027344 0.015625)"/>
      <use xlink:href="#ArialMT-61" transform="translate(905.810547 0.015625)"/>
      <use xlink:href="#ArialMT-6e" transform="translate(961.425781 0.015625)"/>
      <use xlink:href="#ArialMT-63" transform="translate(1017.041016 0.015625)"/>
      <use xlink:href="#ArialMT-65" transform="translate(1067.041016 0.015625)"/>
      <use xlink:href="#ArialMT-20" transform="translate(1122.65625 0.015625)"/>
      <use xlink:href="#ArialMT-28" transform="translate(1150.439453 0.015625)"/>
      <use xlink:href="#DejaVuSans-Oblique-64" transform="translate(1183.740234 0.015625)"/>
      <use xlink:href="#ArialMT-29" transform="translate(1247.216797 0.015625)"/>
      <use xlink:href="#ArialMT-20" transform="translate(1280.517578 0.015625)"/>
      <use xlink:href="#ArialMT-6f" transform="translate(1308.300781 0.015625)"/>
      <use xlink:href="#ArialMT-66" transform="translate(1363.916016 0.015625)"/>
      <use xlink:href="#ArialMT-20" transform="translate(1391.699219 0.015625)"/>
      <use xlink:href="#ArialMT-42" transform="translate(1419.482422 0.015625)"/>
      <use xlink:href="#ArialMT-47" transform="translate(1486.181641 0.015625)"/>
      <use xlink:href="#ArialMT-43" transform="translate(1563.964844 0.015625)"/>
      <use xlink:href="#ArialMT-73" transform="translate(1636.181641 0.015625)"/>
     </g>
    </g>
   </g>
   <g id="matplotlib.axis_2">
    <g id="ytick_1">
     <g id="text_7">
      <!-- 0 -->
      <g style="fill: #262626" transform="translate(44.406375 310.733437) scale(0.088 -0.088)">
       <use xlink:href="#ArialMT-30"/>
      </g>
     </g>
    </g>
    <g id="ytick_2">
     <g id="text_8">
      <!-- 200 -->
      <g style="fill: #262626" transform="translate(34.619125 263.537907) scale(0.088 -0.088)">
       <use xlink:href="#ArialMT-32"/>
       <use xlink:href="#ArialMT-30" x="55.615234"/>
       <use xlink:href="#ArialMT-30" x="111.230469"/>
      </g>
     </g>
    </g>
    <g id="ytick_3">
     <g id="text_9">
      <!-- 400 -->
      <g style="fill: #262626" transform="translate(34.619125 216.342376) scale(0.088 -0.088)">
       <use xlink:href="#ArialMT-34"/>
       <use xlink:href="#ArialMT-30" x="55.615234"/>
       <use xlink:href="#ArialMT-30" x="111.230469"/>
      </g>
     </g>
    </g>
    <g id="ytick_4">
     <g id="text_10">
      <!-- 600 -->
      <g style="fill: #262626" transform="translate(34.619125 169.146845) scale(0.088 -0.088)">
       <defs>
        <path id="ArialMT-36" d="M 3184 3459 
L 2625 3416 
Q 2550 3747 2413 3897 
Q 2184 4138 1850 4138 
Q 1581 4138 1378 3988 
Q 1113 3794 959 3422 
Q 806 3050 800 2363 
Q 1003 2672 1297 2822 
Q 1591 2972 1913 2972 
Q 2475 2972 2870 2558 
Q 3266 2144 3266 1488 
Q 3266 1056 3080 686 
Q 2894 316 2569 119 
Q 2244 -78 1831 -78 
Q 1128 -78 684 439 
Q 241 956 241 2144 
Q 241 3472 731 4075 
Q 1159 4600 1884 4600 
Q 2425 4600 2770 4297 
Q 3116 3994 3184 3459 
z
M 888 1484 
Q 888 1194 1011 928 
Q 1134 663 1356 523 
Q 1578 384 1822 384 
Q 2178 384 2434 671 
Q 2691 959 2691 1453 
Q 2691 1928 2437 2201 
Q 2184 2475 1800 2475 
Q 1419 2475 1153 2201 
Q 888 1928 888 1484 
z
" transform="scale(0.015625)"/>
       </defs>
       <use xlink:href="#ArialMT-36"/>
       <use xlink:href="#ArialMT-30" x="55.615234"/>
       <use xlink:href="#ArialMT-30" x="111.230469"/>
      </g>
     </g>
    </g>
    <g id="ytick_5">
     <g id="text_11">
      <!-- 800 -->
      <g style="fill: #262626" transform="translate(34.619125 121.951315) scale(0.088 -0.088)">
       <defs>
        <path id="ArialMT-38" d="M 1131 2484 
Q 781 2613 612 2850 
Q 444 3088 444 3419 
Q 444 3919 803 4259 
Q 1163 4600 1759 4600 
Q 2359 4600 2725 4251 
Q 3091 3903 3091 3403 
Q 3091 3084 2923 2848 
Q 2756 2613 2416 2484 
Q 2838 2347 3058 2040 
Q 3278 1734 3278 1309 
Q 3278 722 2862 322 
Q 2447 -78 1769 -78 
Q 1091 -78 675 323 
Q 259 725 259 1325 
Q 259 1772 486 2073 
Q 713 2375 1131 2484 
z
M 1019 3438 
Q 1019 3113 1228 2906 
Q 1438 2700 1772 2700 
Q 2097 2700 2305 2904 
Q 2513 3109 2513 3406 
Q 2513 3716 2298 3927 
Q 2084 4138 1766 4138 
Q 1444 4138 1231 3931 
Q 1019 3725 1019 3438 
z
M 838 1322 
Q 838 1081 952 856 
Q 1066 631 1291 507 
Q 1516 384 1775 384 
Q 2178 384 2440 643 
Q 2703 903 2703 1303 
Q 2703 1709 2433 1975 
Q 2163 2241 1756 2241 
Q 1359 2241 1098 1978 
Q 838 1716 838 1322 
z
" transform="scale(0.015625)"/>
       </defs>
       <use xlink:href="#ArialMT-38"/>
       <use xlink:href="#ArialMT-30" x="55.615234"/>
       <use xlink:href="#ArialMT-30" x="111.230469"/>
      </g>
     </g>
    </g>
    <g id="ytick_6">
     <g id="text_12">
      <!-- 1000 -->
      <g style="fill: #262626" transform="translate(29.7255 74.755784) scale(0.088 -0.088)">
       <use xlink:href="#ArialMT-31"/>
       <use xlink:href="#ArialMT-30" x="55.615234"/>
       <use xlink:href="#ArialMT-30" x="111.230469"/>
       <use xlink:href="#ArialMT-30" x="166.845703"/>
      </g>
     </g>
    </g>
    <g id="text_13">
     <!-- BGC count -->
     <g style="fill: #262626" transform="translate(23.8175 198.0045) rotate(-90) scale(0.096 -0.096)">
      <use xlink:href="#ArialMT-42"/>
      <use xlink:href="#ArialMT-47" x="66.699219"/>
      <use xlink:href="#ArialMT-43" x="144.482422"/>
      <use xlink:href="#ArialMT-20" x="216.699219"/>
      <use xlink:href="#ArialMT-63" x="244.482422"/>
      <use xlink:href="#ArialMT-6f" x="294.482422"/>
      <use xlink:href="#ArialMT-75" x="350.097656"/>
      <use xlink:href="#ArialMT-6e" x="405.712891"/>
      <use xlink:href="#ArialMT-74" x="461.328125"/>
     </g>
    </g>
   </g>
   <g id="patch_3">
    <path d="M 73.832727 307.584 
L 81.949091 307.584 
L 81.949091 307.112045 
L 73.832727 307.112045 
z
" clip-path="url(#p6f4417cbf8)" style="fill: #9467bd; fill-opacity: 0.75; stroke: #ffffff; stroke-width: 0.8; stroke-linejoin: miter"/>
   </g>
   <g id="patch_4">
    <path d="M 81.949091 307.584 
L 90.065455 307.584 
L 90.065455 307.348022 
L 81.949091 307.348022 
z
" clip-path="url(#p6f4417cbf8)" style="fill: #9467bd; fill-opacity: 0.75; stroke: #ffffff; stroke-width: 0.8; stroke-linejoin: miter"/>
   </g>
   <g id="patch_5">
    <path d="M 90.065455 307.584 
L 98.181818 307.584 
L 98.181818 307.112045 
L 90.065455 307.112045 
z
" clip-path="url(#p6f4417cbf8)" style="fill: #9467bd; fill-opacity: 0.75; stroke: #ffffff; stroke-width: 0.8; stroke-linejoin: miter"/>
   </g>
   <g id="patch_6">
    <path d="M 98.181818 307.584 
L 106.298182 307.584 
L 106.298182 307.348022 
L 98.181818 307.348022 
z
" clip-path="url(#p6f4417cbf8)" style="fill: #9467bd; fill-opacity: 0.75; stroke: #ffffff; stroke-width: 0.8; stroke-linejoin: miter"/>
   </g>
   <g id="patch_7">
    <path d="M 106.298182 307.584 
L 114.414545 307.584 
L 114.414545 307.584 
L 106.298182 307.584 
z
" clip-path="url(#p6f4417cbf8)" style="fill: #9467bd; fill-opacity: 0.75; stroke: #ffffff; stroke-width: 0.8; stroke-linejoin: miter"/>
   </g>
   <g id="patch_8">
    <path d="M 114.414545 307.584 
L 122.530909 307.584 
L 122.530909 307.584 
L 114.414545 307.584 
z
" clip-path="url(#p6f4417cbf8)" style="fill: #9467bd; fill-opacity: 0.75; stroke: #ffffff; stroke-width: 0.8; stroke-linejoin: miter"/>
   </g>
   <g id="patch_9">
    <path d="M 122.530909 307.584 
L 130.647273 307.584 
L 130.647273 307.348022 
L 122.530909 307.348022 
z
" clip-path="url(#p6f4417cbf8)" style="fill: #9467bd; fill-opacity: 0.75; stroke: #ffffff; stroke-width: 0.8; stroke-linejoin: miter"/>
   </g>
   <g id="patch_10">
    <path d="M 130.647273 307.584 
L 138.763636 307.584 
L 138.763636 307.584 
L 130.647273 307.584 
z
" clip-path="url(#p6f4417cbf8)" style="fill: #9467bd; fill-opacity: 0.75; stroke: #ffffff; stroke-width: 0.8; stroke-linejoin: miter"/>
   </g>
   <g id="patch_11">
    <path d="M 138.763636 307.584 
L 146.88 307.584 
L 146.88 307.348022 
L 138.763636 307.348022 
z
" clip-path="url(#p6f4417cbf8)" style="fill: #9467bd; fill-opacity: 0.75; stroke: #ffffff; stroke-width: 0.8; stroke-linejoin: miter"/>
   </g>
   <g id="patch_12">
    <path d="M 146.88 307.584 
L 154.996364 307.584 
L 154.996364 307.584 
L 146.88 307.584 
z
" clip-path="url(#p6f4417cbf8)" style="fill: #9467bd; fill-opacity: 0.75; stroke: #ffffff; stroke-width: 0.8; stroke-linejoin: miter"/>
   </g>
   <g id="patch_13">
    <path d="M 154.996364 307.584 
L 163.112727 307.584 
L 163.112727 307.584 
L 154.996364 307.584 
z
" clip-path="url(#p6f4417cbf8)" style="fill: #9467bd; fill-opacity: 0.75; stroke: #ffffff; stroke-width: 0.8; stroke-linejoin: miter"/>
   </g>
   <g id="patch_14">
    <path d="M 163.112727 307.584 
L 171.229091 307.584 
L 171.229091 306.640089 
L 163.112727 306.640089 
z
" clip-path="url(#p6f4417cbf8)" style="fill: #9467bd; fill-opacity: 0.75; stroke: #ffffff; stroke-width: 0.8; stroke-linejoin: miter"/>
   </g>
   <g id="patch_15">
    <path d="M 171.229091 307.584 
L 179.345455 307.584 
L 179.345455 307.584 
L 171.229091 307.584 
z
" clip-path="url(#p6f4417cbf8)" style="fill: #9467bd; fill-opacity: 0.75; stroke: #ffffff; stroke-width: 0.8; stroke-linejoin: miter"/>
   </g>
   <g id="patch_16">
    <path d="M 179.345455 307.584 
L 187.461818 307.584 
L 187.461818 307.584 
L 179.345455 307.584 
z
" clip-path="url(#p6f4417cbf8)" style="fill: #9467bd; fill-opacity: 0.75; stroke: #ffffff; stroke-width: 0.8; stroke-linejoin: miter"/>
   </g>
   <g id="patch_17">
    <path d="M 187.461818 307.584 
L 195.578182 307.584 
L 195.578182 307.584 
L 187.461818 307.584 
z
" clip-path="url(#p6f4417cbf8)" style="fill: #9467bd; fill-opacity: 0.75; stroke: #ffffff; stroke-width: 0.8; stroke-linejoin: miter"/>
   </g>
   <g id="patch_18">
    <path d="M 195.578182 307.584 
L 203.694545 307.584 
L 203.694545 307.348022 
L 195.578182 307.348022 
z
" clip-path="url(#p6f4417cbf8)" style="fill: #9467bd; fill-opacity: 0.75; stroke: #ffffff; stroke-width: 0.8; stroke-linejoin: miter"/>
   </g>
   <g id="patch_19">
    <path d="M 203.694545 307.584 
L 211.810909 307.584 
L 211.810909 307.584 
L 203.694545 307.584 
z
" clip-path="url(#p6f4417cbf8)" style="fill: #9467bd; fill-opacity: 0.75; stroke: #ffffff; stroke-width: 0.8; stroke-linejoin: miter"/>
   </g>
   <g id="patch_20">
    <path d="M 211.810909 307.584 
L 219.927273 307.584 
L 219.927273 307.584 
L 211.810909 307.584 
z
" clip-path="url(#p6f4417cbf8)" style="fill: #9467bd; fill-opacity: 0.75; stroke: #ffffff; stroke-width: 0.8; stroke-linejoin: miter"/>
   </g>
   <g id="patch_21">
    <path d="M 219.927273 307.584 
L 228.043636 307.584 
L 228.043636 307.584 
L 219.927273 307.584 
z
" clip-path="url(#p6f4417cbf8)" style="fill: #9467bd; fill-opacity: 0.75; stroke: #ffffff; stroke-width: 0.8; stroke-linejoin: miter"/>
   </g>
   <g id="patch_22">
    <path d="M 228.043636 307.584 
L 236.16 307.584 
L 236.16 307.348022 
L 228.043636 307.348022 
z
" clip-path="url(#p6f4417cbf8)" style="fill: #9467bd; fill-opacity: 0.75; stroke: #ffffff; stroke-width: 0.8; stroke-linejoin: miter"/>
   </g>
   <g id="patch_23">
    <path d="M 236.16 307.584 
L 244.276364 307.584 
L 244.276364 307.584 
L 236.16 307.584 
z
" clip-path="url(#p6f4417cbf8)" style="fill: #9467bd; fill-opacity: 0.75; stroke: #ffffff; stroke-width: 0.8; stroke-linejoin: miter"/>
   </g>
   <g id="patch_24">
    <path d="M 244.276364 307.584 
L 252.392727 307.584 
L 252.392727 307.584 
L 244.276364 307.584 
z
" clip-path="url(#p6f4417cbf8)" style="fill: #9467bd; fill-opacity: 0.75; stroke: #ffffff; stroke-width: 0.8; stroke-linejoin: miter"/>
   </g>
   <g id="patch_25">
    <path d="M 252.392727 307.584 
L 260.509091 307.584 
L 260.509091 307.584 
L 252.392727 307.584 
z
" clip-path="url(#p6f4417cbf8)" style="fill: #9467bd; fill-opacity: 0.75; stroke: #ffffff; stroke-width: 0.8; stroke-linejoin: miter"/>
   </g>
   <g id="patch_26">
    <path d="M 260.509091 307.584 
L 268.625455 307.584 
L 268.625455 307.584 
L 260.509091 307.584 
z
" clip-path="url(#p6f4417cbf8)" style="fill: #9467bd; fill-opacity: 0.75; stroke: #ffffff; stroke-width: 0.8; stroke-linejoin: miter"/>
   </g>
   <g id="patch_27">
    <path d="M 268.625455 307.584 
L 276.741818 307.584 
L 276.741818 307.584 
L 268.625455 307.584 
z
" clip-path="url(#p6f4417cbf8)" style="fill: #9467bd; fill-opacity: 0.75; stroke: #ffffff; stroke-width: 0.8; stroke-linejoin: miter"/>
   </g>
   <g id="patch_28">
    <path d="M 276.741818 307.584 
L 284.858182 307.584 
L 284.858182 307.348022 
L 276.741818 307.348022 
z
" clip-path="url(#p6f4417cbf8)" style="fill: #9467bd; fill-opacity: 0.75; stroke: #ffffff; stroke-width: 0.8; stroke-linejoin: miter"/>
   </g>
   <g id="patch_29">
    <path d="M 284.858182 307.584 
L 292.974545 307.584 
L 292.974545 307.584 
L 284.858182 307.584 
z
" clip-path="url(#p6f4417cbf8)" style="fill: #9467bd; fill-opacity: 0.75; stroke: #ffffff; stroke-width: 0.8; stroke-linejoin: miter"/>
   </g>
   <g id="patch_30">
    <path d="M 292.974545 307.584 
L 301.090909 307.584 
L 301.090909 307.584 
L 292.974545 307.584 
z
" clip-path="url(#p6f4417cbf8)" style="fill: #9467bd; fill-opacity: 0.75; stroke: #ffffff; stroke-width: 0.8; stroke-linejoin: miter"/>
   </g>
   <g id="patch_31">
    <path d="M 301.090909 307.584 
L 309.207273 307.584 
L 309.207273 307.584 
L 301.090909 307.584 
z
" clip-path="url(#p6f4417cbf8)" style="fill: #9467bd; fill-opacity: 0.75; stroke: #ffffff; stroke-width: 0.8; stroke-linejoin: miter"/>
   </g>
   <g id="patch_32">
    <path d="M 309.207273 307.584 
L 317.323636 307.584 
L 317.323636 307.584 
L 309.207273 307.584 
z
" clip-path="url(#p6f4417cbf8)" style="fill: #9467bd; fill-opacity: 0.75; stroke: #ffffff; stroke-width: 0.8; stroke-linejoin: miter"/>
   </g>
   <g id="patch_33">
    <path d="M 317.323636 307.584 
L 325.44 307.584 
L 325.44 307.584 
L 317.323636 307.584 
z
" clip-path="url(#p6f4417cbf8)" style="fill: #9467bd; fill-opacity: 0.75; stroke: #ffffff; stroke-width: 0.8; stroke-linejoin: miter"/>
   </g>
   <g id="patch_34">
    <path d="M 325.44 307.584 
L 333.556364 307.584 
L 333.556364 307.584 
L 325.44 307.584 
z
" clip-path="url(#p6f4417cbf8)" style="fill: #9467bd; fill-opacity: 0.75; stroke: #ffffff; stroke-width: 0.8; stroke-linejoin: miter"/>
   </g>
   <g id="patch_35">
    <path d="M 333.556364 307.584 
L 341.672727 307.584 
L 341.672727 307.584 
L 333.556364 307.584 
z
" clip-path="url(#p6f4417cbf8)" style="fill: #9467bd; fill-opacity: 0.75; stroke: #ffffff; stroke-width: 0.8; stroke-linejoin: miter"/>
   </g>
   <g id="patch_36">
    <path d="M 341.672727 307.584 
L 349.789091 307.584 
L 349.789091 307.584 
L 341.672727 307.584 
z
" clip-path="url(#p6f4417cbf8)" style="fill: #9467bd; fill-opacity: 0.75; stroke: #ffffff; stroke-width: 0.8; stroke-linejoin: miter"/>
   </g>
   <g id="patch_37">
    <path d="M 349.789091 307.584 
L 357.905455 307.584 
L 357.905455 307.584 
L 349.789091 307.584 
z
" clip-path="url(#p6f4417cbf8)" style="fill: #9467bd; fill-opacity: 0.75; stroke: #ffffff; stroke-width: 0.8; stroke-linejoin: miter"/>
   </g>
   <g id="patch_38">
    <path d="M 357.905455 307.584 
L 366.021818 307.584 
L 366.021818 307.584 
L 357.905455 307.584 
z
" clip-path="url(#p6f4417cbf8)" style="fill: #9467bd; fill-opacity: 0.75; stroke: #ffffff; stroke-width: 0.8; stroke-linejoin: miter"/>
   </g>
   <g id="patch_39">
    <path d="M 366.021818 307.584 
L 374.138182 307.584 
L 374.138182 307.584 
L 366.021818 307.584 
z
" clip-path="url(#p6f4417cbf8)" style="fill: #9467bd; fill-opacity: 0.75; stroke: #ffffff; stroke-width: 0.8; stroke-linejoin: miter"/>
   </g>
   <g id="patch_40">
    <path d="M 374.138182 307.584 
L 382.254545 307.584 
L 382.254545 307.584 
L 374.138182 307.584 
z
" clip-path="url(#p6f4417cbf8)" style="fill: #9467bd; fill-opacity: 0.75; stroke: #ffffff; stroke-width: 0.8; stroke-linejoin: miter"/>
   </g>
   <g id="patch_41">
    <path d="M 382.254545 307.584 
L 390.370909 307.584 
L 390.370909 307.584 
L 382.254545 307.584 
z
" clip-path="url(#p6f4417cbf8)" style="fill: #9467bd; fill-opacity: 0.75; stroke: #ffffff; stroke-width: 0.8; stroke-linejoin: miter"/>
   </g>
   <g id="patch_42">
    <path d="M 390.370909 307.584 
L 398.487273 307.584 
L 398.487273 307.584 
L 390.370909 307.584 
z
" clip-path="url(#p6f4417cbf8)" style="fill: #9467bd; fill-opacity: 0.75; stroke: #ffffff; stroke-width: 0.8; stroke-linejoin: miter"/>
   </g>
   <g id="patch_43">
    <path d="M 73.832727 307.112045 
L 81.949091 307.112045 
L 81.949091 302.864447 
L 73.832727 302.864447 
z
" clip-path="url(#p6f4417cbf8)" style="fill: #d62728; fill-opacity: 0.75; stroke: #ffffff; stroke-width: 0.8; stroke-linejoin: miter"/>
   </g>
   <g id="patch_44">
    <path d="M 81.949091 307.348022 
L 90.065455 307.348022 
L 90.065455 305.460201 
L 81.949091 305.460201 
z
" clip-path="url(#p6f4417cbf8)" style="fill: #d62728; fill-opacity: 0.75; stroke: #ffffff; stroke-width: 0.8; stroke-linejoin: miter"/>
   </g>
   <g id="patch_45">
    <path d="M 90.065455 307.112045 
L 98.181818 307.112045 
L 98.181818 303.57238 
L 90.065455 303.57238 
z
" clip-path="url(#p6f4417cbf8)" style="fill: #d62728; fill-opacity: 0.75; stroke: #ffffff; stroke-width: 0.8; stroke-linejoin: miter"/>
   </g>
   <g id="patch_46">
    <path d="M 98.181818 307.348022 
L 106.298182 307.348022 
L 106.298182 305.696179 
L 98.181818 305.696179 
z
" clip-path="url(#p6f4417cbf8)" style="fill: #d62728; fill-opacity: 0.75; stroke: #ffffff; stroke-width: 0.8; stroke-linejoin: miter"/>
   </g>
   <g id="patch_47">
    <path d="M 106.298182 307.584 
L 114.414545 307.584 
L 114.414545 305.460201 
L 106.298182 305.460201 
z
" clip-path="url(#p6f4417cbf8)" style="fill: #d62728; fill-opacity: 0.75; stroke: #ffffff; stroke-width: 0.8; stroke-linejoin: miter"/>
   </g>
   <g id="patch_48">
    <path d="M 114.414545 307.584 
L 122.530909 307.584 
L 122.530909 307.112045 
L 114.414545 307.112045 
z
" clip-path="url(#p6f4417cbf8)" style="fill: #d62728; fill-opacity: 0.75; stroke: #ffffff; stroke-width: 0.8; stroke-linejoin: miter"/>
   </g>
   <g id="patch_49">
    <path d="M 122.530909 307.348022 
L 130.647273 307.348022 
L 130.647273 305.932156 
L 122.530909 305.932156 
z
" clip-path="url(#p6f4417cbf8)" style="fill: #d62728; fill-opacity: 0.75; stroke: #ffffff; stroke-width: 0.8; stroke-linejoin: miter"/>
   </g>
   <g id="patch_50">
    <path d="M 130.647273 307.584 
L 138.763636 307.584 
L 138.763636 306.876067 
L 130.647273 306.876067 
z
" clip-path="url(#p6f4417cbf8)" style="fill: #d62728; fill-opacity: 0.75; stroke: #ffffff; stroke-width: 0.8; stroke-linejoin: miter"/>
   </g>
   <g id="patch_51">
    <path d="M 138.763636 307.348022 
L 146.88 307.348022 
L 146.88 306.404112 
L 138.763636 306.404112 
z
" clip-path="url(#p6f4417cbf8)" style="fill: #d62728; fill-opacity: 0.75; stroke: #ffffff; stroke-width: 0.8; stroke-linejoin: miter"/>
   </g>
   <g id="patch_52">
    <path d="M 146.88 307.584 
L 154.996364 307.584 
L 154.996364 305.460201 
L 146.88 305.460201 
z
" clip-path="url(#p6f4417cbf8)" style="fill: #d62728; fill-opacity: 0.75; stroke: #ffffff; stroke-width: 0.8; stroke-linejoin: miter"/>
   </g>
   <g id="patch_53">
    <path d="M 154.996364 307.584 
L 163.112727 307.584 
L 163.112727 307.112045 
L 154.996364 307.112045 
z
" clip-path="url(#p6f4417cbf8)" style="fill: #d62728; fill-opacity: 0.75; stroke: #ffffff; stroke-width: 0.8; stroke-linejoin: miter"/>
   </g>
   <g id="patch_54">
    <path d="M 163.112727 306.640089 
L 171.229091 306.640089 
L 171.229091 305.696179 
L 163.112727 305.696179 
z
" clip-path="url(#p6f4417cbf8)" style="fill: #d62728; fill-opacity: 0.75; stroke: #ffffff; stroke-width: 0.8; stroke-linejoin: miter"/>
   </g>
   <g id="patch_55">
    <path d="M 171.229091 307.584 
L 179.345455 307.584 
L 179.345455 306.640089 
L 171.229091 306.640089 
z
" clip-path="url(#p6f4417cbf8)" style="fill: #d62728; fill-opacity: 0.75; stroke: #ffffff; stroke-width: 0.8; stroke-linejoin: miter"/>
   </g>
   <g id="patch_56">
    <path d="M 179.345455 307.584 
L 187.461818 307.584 
L 187.461818 304.752268 
L 179.345455 304.752268 
z
" clip-path="url(#p6f4417cbf8)" style="fill: #d62728; fill-opacity: 0.75; stroke: #ffffff; stroke-width: 0.8; stroke-linejoin: miter"/>
   </g>
   <g id="patch_57">
    <path d="M 187.461818 307.584 
L 195.578182 307.584 
L 195.578182 307.112045 
L 187.461818 307.112045 
z
" clip-path="url(#p6f4417cbf8)" style="fill: #d62728; fill-opacity: 0.75; stroke: #ffffff; stroke-width: 0.8; stroke-linejoin: miter"/>
   </g>
   <g id="patch_58">
    <path d="M 195.578182 307.348022 
L 203.694545 307.348022 
L 203.694545 307.348022 
L 195.578182 307.348022 
z
" clip-path="url(#p6f4417cbf8)" style="fill: #d62728; fill-opacity: 0.75; stroke: #ffffff; stroke-width: 0.8; stroke-linejoin: miter"/>
   </g>
   <g id="patch_59">
    <path d="M 203.694545 307.584 
L 211.810909 307.584 
L 211.810909 307.584 
L 203.694545 307.584 
z
" clip-path="url(#p6f4417cbf8)" style="fill: #d62728; fill-opacity: 0.75; stroke: #ffffff; stroke-width: 0.8; stroke-linejoin: miter"/>
   </g>
   <g id="patch_60">
    <path d="M 211.810909 307.584 
L 219.927273 307.584 
L 219.927273 307.112045 
L 211.810909 307.112045 
z
" clip-path="url(#p6f4417cbf8)" style="fill: #d62728; fill-opacity: 0.75; stroke: #ffffff; stroke-width: 0.8; stroke-linejoin: miter"/>
   </g>
   <g id="patch_61">
    <path d="M 219.927273 307.584 
L 228.043636 307.584 
L 228.043636 305.932156 
L 219.927273 305.932156 
z
" clip-path="url(#p6f4417cbf8)" style="fill: #d62728; fill-opacity: 0.75; stroke: #ffffff; stroke-width: 0.8; stroke-linejoin: miter"/>
   </g>
   <g id="patch_62">
    <path d="M 228.043636 307.348022 
L 236.16 307.348022 
L 236.16 307.112045 
L 228.043636 307.112045 
z
" clip-path="url(#p6f4417cbf8)" style="fill: #d62728; fill-opacity: 0.75; stroke: #ffffff; stroke-width: 0.8; stroke-linejoin: miter"/>
   </g>
   <g id="patch_63">
    <path d="M 236.16 307.584 
L 244.276364 307.584 
L 244.276364 307.348022 
L 236.16 307.348022 
z
" clip-path="url(#p6f4417cbf8)" style="fill: #d62728; fill-opacity: 0.75; stroke: #ffffff; stroke-width: 0.8; stroke-linejoin: miter"/>
   </g>
   <g id="patch_64">
    <path d="M 244.276364 307.584 
L 252.392727 307.584 
L 252.392727 307.112045 
L 244.276364 307.112045 
z
" clip-path="url(#p6f4417cbf8)" style="fill: #d62728; fill-opacity: 0.75; stroke: #ffffff; stroke-width: 0.8; stroke-linejoin: miter"/>
   </g>
   <g id="patch_65">
    <path d="M 252.392727 307.584 
L 260.509091 307.584 
L 260.509091 307.348022 
L 252.392727 307.348022 
z
" clip-path="url(#p6f4417cbf8)" style="fill: #d62728; fill-opacity: 0.75; stroke: #ffffff; stroke-width: 0.8; stroke-linejoin: miter"/>
   </g>
   <g id="patch_66">
    <path d="M 260.509091 307.584 
L 268.625455 307.584 
L 268.625455 307.112045 
L 260.509091 307.112045 
z
" clip-path="url(#p6f4417cbf8)" style="fill: #d62728; fill-opacity: 0.75; stroke: #ffffff; stroke-width: 0.8; stroke-linejoin: miter"/>
   </g>
   <g id="patch_67">
    <path d="M 268.625455 307.584 
L 276.741818 307.584 
L 276.741818 307.348022 
L 268.625455 307.348022 
z
" clip-path="url(#p6f4417cbf8)" style="fill: #d62728; fill-opacity: 0.75; stroke: #ffffff; stroke-width: 0.8; stroke-linejoin: miter"/>
   </g>
   <g id="patch_68">
    <path d="M 276.741818 307.348022 
L 284.858182 307.348022 
L 284.858182 307.348022 
L 276.741818 307.348022 
z
" clip-path="url(#p6f4417cbf8)" style="fill: #d62728; fill-opacity: 0.75; stroke: #ffffff; stroke-width: 0.8; stroke-linejoin: miter"/>
   </g>
   <g id="patch_69">
    <path d="M 284.858182 307.584 
L 292.974545 307.584 
L 292.974545 307.348022 
L 284.858182 307.348022 
z
" clip-path="url(#p6f4417cbf8)" style="fill: #d62728; fill-opacity: 0.75; stroke: #ffffff; stroke-width: 0.8; stroke-linejoin: miter"/>
   </g>
   <g id="patch_70">
    <path d="M 292.974545 307.584 
L 301.090909 307.584 
L 301.090909 307.112045 
L 292.974545 307.112045 
z
" clip-path="url(#p6f4417cbf8)" style="fill: #d62728; fill-opacity: 0.75; stroke: #ffffff; stroke-width: 0.8; stroke-linejoin: miter"/>
   </g>
   <g id="patch_71">
    <path d="M 301.090909 307.584 
L 309.207273 307.584 
L 309.207273 307.584 
L 301.090909 307.584 
z
" clip-path="url(#p6f4417cbf8)" style="fill: #d62728; fill-opacity: 0.75; stroke: #ffffff; stroke-width: 0.8; stroke-linejoin: miter"/>
   </g>
   <g id="patch_72">
    <path d="M 309.207273 307.584 
L 317.323636 307.584 
L 317.323636 307.584 
L 309.207273 307.584 
z
" clip-path="url(#p6f4417cbf8)" style="fill: #d62728; fill-opacity: 0.75; stroke: #ffffff; stroke-width: 0.8; stroke-linejoin: miter"/>
   </g>
   <g id="patch_73">
    <path d="M 317.323636 307.584 
L 325.44 307.584 
L 325.44 307.584 
L 317.323636 307.584 
z
" clip-path="url(#p6f4417cbf8)" style="fill: #d62728; fill-opacity: 0.75; stroke: #ffffff; stroke-width: 0.8; stroke-linejoin: miter"/>
   </g>
   <g id="patch_74">
    <path d="M 325.44 307.584 
L 333.556364 307.584 
L 333.556364 307.584 
L 325.44 307.584 
z
" clip-path="url(#p6f4417cbf8)" style="fill: #d62728; fill-opacity: 0.75; stroke: #ffffff; stroke-width: 0.8; stroke-linejoin: miter"/>
   </g>
   <g id="patch_75">
    <path d="M 333.556364 307.584 
L 341.672727 307.584 
L 341.672727 307.584 
L 333.556364 307.584 
z
" clip-path="url(#p6f4417cbf8)" style="fill: #d62728; fill-opacity: 0.75; stroke: #ffffff; stroke-width: 0.8; stroke-linejoin: miter"/>
   </g>
   <g id="patch_76">
    <path d="M 341.672727 307.584 
L 349.789091 307.584 
L 349.789091 307.584 
L 341.672727 307.584 
z
" clip-path="url(#p6f4417cbf8)" style="fill: #d62728; fill-opacity: 0.75; stroke: #ffffff; stroke-width: 0.8; stroke-linejoin: miter"/>
   </g>
   <g id="patch_77">
    <path d="M 349.789091 307.584 
L 357.905455 307.584 
L 357.905455 307.584 
L 349.789091 307.584 
z
" clip-path="url(#p6f4417cbf8)" style="fill: #d62728; fill-opacity: 0.75; stroke: #ffffff; stroke-width: 0.8; stroke-linejoin: miter"/>
   </g>
   <g id="patch_78">
    <path d="M 357.905455 307.584 
L 366.021818 307.584 
L 366.021818 307.584 
L 357.905455 307.584 
z
" clip-path="url(#p6f4417cbf8)" style="fill: #d62728; fill-opacity: 0.75; stroke: #ffffff; stroke-width: 0.8; stroke-linejoin: miter"/>
   </g>
   <g id="patch_79">
    <path d="M 366.021818 307.584 
L 374.138182 307.584 
L 374.138182 307.348022 
L 366.021818 307.348022 
z
" clip-path="url(#p6f4417cbf8)" style="fill: #d62728; fill-opacity: 0.75; stroke: #ffffff; stroke-width: 0.8; stroke-linejoin: miter"/>
   </g>
   <g id="patch_80">
    <path d="M 374.138182 307.584 
L 382.254545 307.584 
L 382.254545 307.584 
L 374.138182 307.584 
z
" clip-path="url(#p6f4417cbf8)" style="fill: #d62728; fill-opacity: 0.75; stroke: #ffffff; stroke-width: 0.8; stroke-linejoin: miter"/>
   </g>
   <g id="patch_81">
    <path d="M 382.254545 307.584 
L 390.370909 307.584 
L 390.370909 307.348022 
L 382.254545 307.348022 
z
" clip-path="url(#p6f4417cbf8)" style="fill: #d62728; fill-opacity: 0.75; stroke: #ffffff; stroke-width: 0.8; stroke-linejoin: miter"/>
   </g>
   <g id="patch_82">
    <path d="M 390.370909 307.584 
L 398.487273 307.584 
L 398.487273 307.584 
L 390.370909 307.584 
z
" clip-path="url(#p6f4417cbf8)" style="fill: #d62728; fill-opacity: 0.75; stroke: #ffffff; stroke-width: 0.8; stroke-linejoin: miter"/>
   </g>
   <g id="patch_83">
    <path d="M 73.832727 302.864447 
L 81.949091 302.864447 
L 81.949091 242.690145 
L 73.832727 242.690145 
z
" clip-path="url(#p6f4417cbf8)" style="fill: #2ca02c; fill-opacity: 0.75; stroke: #ffffff; stroke-width: 0.8; stroke-linejoin: miter"/>
   </g>
   <g id="patch_84">
    <path d="M 81.949091 305.460201 
L 90.065455 305.460201 
L 90.065455 298.852827 
L 81.949091 298.852827 
z
" clip-path="url(#p6f4417cbf8)" style="fill: #2ca02c; fill-opacity: 0.75; stroke: #ffffff; stroke-width: 0.8; stroke-linejoin: miter"/>
   </g>
   <g id="patch_85">
    <path d="M 90.065455 303.57238 
L 98.181818 303.57238 
L 98.181818 298.380872 
L 90.065455 298.380872 
z
" clip-path="url(#p6f4417cbf8)" style="fill: #2ca02c; fill-opacity: 0.75; stroke: #ffffff; stroke-width: 0.8; stroke-linejoin: miter"/>
   </g>
   <g id="patch_86">
    <path d="M 98.181818 305.696179 
L 106.298182 305.696179 
L 106.298182 303.100425 
L 98.181818 303.100425 
z
" clip-path="url(#p6f4417cbf8)" style="fill: #2ca02c; fill-opacity: 0.75; stroke: #ffffff; stroke-width: 0.8; stroke-linejoin: miter"/>
   </g>
   <g id="patch_87">
    <path d="M 106.298182 305.460201 
L 114.414545 305.460201 
L 114.414545 302.628469 
L 106.298182 302.628469 
z
" clip-path="url(#p6f4417cbf8)" style="fill: #2ca02c; fill-opacity: 0.75; stroke: #ffffff; stroke-width: 0.8; stroke-linejoin: miter"/>
   </g>
   <g id="patch_88">
    <path d="M 114.414545 307.112045 
L 122.530909 307.112045 
L 122.530909 304.516291 
L 114.414545 304.516291 
z
" clip-path="url(#p6f4417cbf8)" style="fill: #2ca02c; fill-opacity: 0.75; stroke: #ffffff; stroke-width: 0.8; stroke-linejoin: miter"/>
   </g>
   <g id="patch_89">
    <path d="M 122.530909 305.932156 
L 130.647273 305.932156 
L 130.647273 301.684559 
L 122.530909 301.684559 
z
" clip-path="url(#p6f4417cbf8)" style="fill: #2ca02c; fill-opacity: 0.75; stroke: #ffffff; stroke-width: 0.8; stroke-linejoin: miter"/>
   </g>
   <g id="patch_90">
    <path d="M 130.647273 306.876067 
L 138.763636 306.876067 
L 138.763636 303.808358 
L 130.647273 303.808358 
z
" clip-path="url(#p6f4417cbf8)" style="fill: #2ca02c; fill-opacity: 0.75; stroke: #ffffff; stroke-width: 0.8; stroke-linejoin: miter"/>
   </g>
   <g id="patch_91">
    <path d="M 138.763636 306.404112 
L 146.88 306.404112 
L 146.88 303.808358 
L 138.763636 303.808358 
z
" clip-path="url(#p6f4417cbf8)" style="fill: #2ca02c; fill-opacity: 0.75; stroke: #ffffff; stroke-width: 0.8; stroke-linejoin: miter"/>
   </g>
   <g id="patch_92">
    <path d="M 146.88 305.460201 
L 154.996364 305.460201 
L 154.996364 303.57238 
L 146.88 303.57238 
z
" clip-path="url(#p6f4417cbf8)" style="fill: #2ca02c; fill-opacity: 0.75; stroke: #ffffff; stroke-width: 0.8; stroke-linejoin: miter"/>
   </g>
   <g id="patch_93">
    <path d="M 154.996364 307.112045 
L 163.112727 307.112045 
L 163.112727 304.280313 
L 154.996364 304.280313 
z
" clip-path="url(#p6f4417cbf8)" style="fill: #2ca02c; fill-opacity: 0.75; stroke: #ffffff; stroke-width: 0.8; stroke-linejoin: miter"/>
   </g>
   <g id="patch_94">
    <path d="M 163.112727 305.696179 
L 171.229091 305.696179 
L 171.229091 304.044335 
L 163.112727 304.044335 
z
" clip-path="url(#p6f4417cbf8)" style="fill: #2ca02c; fill-opacity: 0.75; stroke: #ffffff; stroke-width: 0.8; stroke-linejoin: miter"/>
   </g>
   <g id="patch_95">
    <path d="M 171.229091 306.640089 
L 179.345455 306.640089 
L 179.345455 305.932156 
L 171.229091 305.932156 
z
" clip-path="url(#p6f4417cbf8)" style="fill: #2ca02c; fill-opacity: 0.75; stroke: #ffffff; stroke-width: 0.8; stroke-linejoin: miter"/>
   </g>
   <g id="patch_96">
    <path d="M 179.345455 304.752268 
L 187.461818 304.752268 
L 187.461818 302.864447 
L 179.345455 302.864447 
z
" clip-path="url(#p6f4417cbf8)" style="fill: #2ca02c; fill-opacity: 0.75; stroke: #ffffff; stroke-width: 0.8; stroke-linejoin: miter"/>
   </g>
   <g id="patch_97">
    <path d="M 187.461818 307.112045 
L 195.578182 307.112045 
L 195.578182 304.044335 
L 187.461818 304.044335 
z
" clip-path="url(#p6f4417cbf8)" style="fill: #2ca02c; fill-opacity: 0.75; stroke: #ffffff; stroke-width: 0.8; stroke-linejoin: miter"/>
   </g>
   <g id="patch_98">
    <path d="M 195.578182 307.348022 
L 203.694545 307.348022 
L 203.694545 306.640089 
L 195.578182 306.640089 
z
" clip-path="url(#p6f4417cbf8)" style="fill: #2ca02c; fill-opacity: 0.75; stroke: #ffffff; stroke-width: 0.8; stroke-linejoin: miter"/>
   </g>
   <g id="patch_99">
    <path d="M 203.694545 307.584 
L 211.810909 307.584 
L 211.810909 307.348022 
L 203.694545 307.348022 
z
" clip-path="url(#p6f4417cbf8)" style="fill: #2ca02c; fill-opacity: 0.75; stroke: #ffffff; stroke-width: 0.8; stroke-linejoin: miter"/>
   </g>
   <g id="patch_100">
    <path d="M 211.810909 307.112045 
L 219.927273 307.112045 
L 219.927273 306.404112 
L 211.810909 306.404112 
z
" clip-path="url(#p6f4417cbf8)" style="fill: #2ca02c; fill-opacity: 0.75; stroke: #ffffff; stroke-width: 0.8; stroke-linejoin: miter"/>
   </g>
   <g id="patch_101">
    <path d="M 219.927273 305.932156 
L 228.043636 305.932156 
L 228.043636 304.752268 
L 219.927273 304.752268 
z
" clip-path="url(#p6f4417cbf8)" style="fill: #2ca02c; fill-opacity: 0.75; stroke: #ffffff; stroke-width: 0.8; stroke-linejoin: miter"/>
   </g>
   <g id="patch_102">
    <path d="M 228.043636 307.112045 
L 236.16 307.112045 
L 236.16 306.640089 
L 228.043636 306.640089 
z
" clip-path="url(#p6f4417cbf8)" style="fill: #2ca02c; fill-opacity: 0.75; stroke: #ffffff; stroke-width: 0.8; stroke-linejoin: miter"/>
   </g>
   <g id="patch_103">
    <path d="M 236.16 307.348022 
L 244.276364 307.348022 
L 244.276364 305.932156 
L 236.16 305.932156 
z
" clip-path="url(#p6f4417cbf8)" style="fill: #2ca02c; fill-opacity: 0.75; stroke: #ffffff; stroke-width: 0.8; stroke-linejoin: miter"/>
   </g>
   <g id="patch_104">
    <path d="M 244.276364 307.112045 
L 252.392727 307.112045 
L 252.392727 306.876067 
L 244.276364 306.876067 
z
" clip-path="url(#p6f4417cbf8)" style="fill: #2ca02c; fill-opacity: 0.75; stroke: #ffffff; stroke-width: 0.8; stroke-linejoin: miter"/>
   </g>
   <g id="patch_105">
    <path d="M 252.392727 307.348022 
L 260.509091 307.348022 
L 260.509091 306.876067 
L 252.392727 306.876067 
z
" clip-path="url(#p6f4417cbf8)" style="fill: #2ca02c; fill-opacity: 0.75; stroke: #ffffff; stroke-width: 0.8; stroke-linejoin: miter"/>
   </g>
   <g id="patch_106">
    <path d="M 260.509091 307.112045 
L 268.625455 307.112045 
L 268.625455 306.404112 
L 260.509091 306.404112 
z
" clip-path="url(#p6f4417cbf8)" style="fill: #2ca02c; fill-opacity: 0.75; stroke: #ffffff; stroke-width: 0.8; stroke-linejoin: miter"/>
   </g>
   <g id="patch_107">
    <path d="M 268.625455 307.348022 
L 276.741818 307.348022 
L 276.741818 306.404112 
L 268.625455 306.404112 
z
" clip-path="url(#p6f4417cbf8)" style="fill: #2ca02c; fill-opacity: 0.75; stroke: #ffffff; stroke-width: 0.8; stroke-linejoin: miter"/>
   </g>
   <g id="patch_108">
    <path d="M 276.741818 307.348022 
L 284.858182 307.348022 
L 284.858182 306.876067 
L 276.741818 306.876067 
z
" clip-path="url(#p6f4417cbf8)" style="fill: #2ca02c; fill-opacity: 0.75; stroke: #ffffff; stroke-width: 0.8; stroke-linejoin: miter"/>
   </g>
   <g id="patch_109">
    <path d="M 284.858182 307.348022 
L 292.974545 307.348022 
L 292.974545 306.876067 
L 284.858182 306.876067 
z
" clip-path="url(#p6f4417cbf8)" style="fill: #2ca02c; fill-opacity: 0.75; stroke: #ffffff; stroke-width: 0.8; stroke-linejoin: miter"/>
   </g>
   <g id="patch_110">
    <path d="M 292.974545 307.112045 
L 301.090909 307.112045 
L 301.090909 306.876067 
L 292.974545 306.876067 
z
" clip-path="url(#p6f4417cbf8)" style="fill: #2ca02c; fill-opacity: 0.75; stroke: #ffffff; stroke-width: 0.8; stroke-linejoin: miter"/>
   </g>
   <g id="patch_111">
    <path d="M 301.090909 307.584 
L 309.207273 307.584 
L 309.207273 307.348022 
L 301.090909 307.348022 
z
" clip-path="url(#p6f4417cbf8)" style="fill: #2ca02c; fill-opacity: 0.75; stroke: #ffffff; stroke-width: 0.8; stroke-linejoin: miter"/>
   </g>
   <g id="patch_112">
    <path d="M 309.207273 307.584 
L 317.323636 307.584 
L 317.323636 307.584 
L 309.207273 307.584 
z
" clip-path="url(#p6f4417cbf8)" style="fill: #2ca02c; fill-opacity: 0.75; stroke: #ffffff; stroke-width: 0.8; stroke-linejoin: miter"/>
   </g>
   <g id="patch_113">
    <path d="M 317.323636 307.584 
L 325.44 307.584 
L 325.44 307.348022 
L 317.323636 307.348022 
z
" clip-path="url(#p6f4417cbf8)" style="fill: #2ca02c; fill-opacity: 0.75; stroke: #ffffff; stroke-width: 0.8; stroke-linejoin: miter"/>
   </g>
   <g id="patch_114">
    <path d="M 325.44 307.584 
L 333.556364 307.584 
L 333.556364 307.112045 
L 325.44 307.112045 
z
" clip-path="url(#p6f4417cbf8)" style="fill: #2ca02c; fill-opacity: 0.75; stroke: #ffffff; stroke-width: 0.8; stroke-linejoin: miter"/>
   </g>
   <g id="patch_115">
    <path d="M 333.556364 307.584 
L 341.672727 307.584 
L 341.672727 307.348022 
L 333.556364 307.348022 
z
" clip-path="url(#p6f4417cbf8)" style="fill: #2ca02c; fill-opacity: 0.75; stroke: #ffffff; stroke-width: 0.8; stroke-linejoin: miter"/>
   </g>
   <g id="patch_116">
    <path d="M 341.672727 307.584 
L 349.789091 307.584 
L 349.789091 307.348022 
L 341.672727 307.348022 
z
" clip-path="url(#p6f4417cbf8)" style="fill: #2ca02c; fill-opacity: 0.75; stroke: #ffffff; stroke-width: 0.8; stroke-linejoin: miter"/>
   </g>
   <g id="patch_117">
    <path d="M 349.789091 307.584 
L 357.905455 307.584 
L 357.905455 307.584 
L 349.789091 307.584 
z
" clip-path="url(#p6f4417cbf8)" style="fill: #2ca02c; fill-opacity: 0.75; stroke: #ffffff; stroke-width: 0.8; stroke-linejoin: miter"/>
   </g>
   <g id="patch_118">
    <path d="M 357.905455 307.584 
L 366.021818 307.584 
L 366.021818 307.584 
L 357.905455 307.584 
z
" clip-path="url(#p6f4417cbf8)" style="fill: #2ca02c; fill-opacity: 0.75; stroke: #ffffff; stroke-width: 0.8; stroke-linejoin: miter"/>
   </g>
   <g id="patch_119">
    <path d="M 366.021818 307.348022 
L 374.138182 307.348022 
L 374.138182 307.348022 
L 366.021818 307.348022 
z
" clip-path="url(#p6f4417cbf8)" style="fill: #2ca02c; fill-opacity: 0.75; stroke: #ffffff; stroke-width: 0.8; stroke-linejoin: miter"/>
   </g>
   <g id="patch_120">
    <path d="M 374.138182 307.584 
L 382.254545 307.584 
L 382.254545 307.584 
L 374.138182 307.584 
z
" clip-path="url(#p6f4417cbf8)" style="fill: #2ca02c; fill-opacity: 0.75; stroke: #ffffff; stroke-width: 0.8; stroke-linejoin: miter"/>
   </g>
   <g id="patch_121">
    <path d="M 382.254545 307.348022 
L 390.370909 307.348022 
L 390.370909 307.112045 
L 382.254545 307.112045 
z
" clip-path="url(#p6f4417cbf8)" style="fill: #2ca02c; fill-opacity: 0.75; stroke: #ffffff; stroke-width: 0.8; stroke-linejoin: miter"/>
   </g>
   <g id="patch_122">
    <path d="M 390.370909 307.584 
L 398.487273 307.584 
L 398.487273 307.584 
L 390.370909 307.584 
z
" clip-path="url(#p6f4417cbf8)" style="fill: #2ca02c; fill-opacity: 0.75; stroke: #ffffff; stroke-width: 0.8; stroke-linejoin: miter"/>
   </g>
   <g id="patch_123">
    <path d="M 73.832727 242.690145 
L 81.949091 242.690145 
L 81.949091 104.879196 
L 73.832727 104.879196 
z
" clip-path="url(#p6f4417cbf8)" style="fill: #ff7f0e; fill-opacity: 0.75; stroke: #ffffff; stroke-width: 0.8; stroke-linejoin: miter"/>
   </g>
   <g id="patch_124">
    <path d="M 81.949091 298.852827 
L 90.065455 298.852827 
L 90.065455 207.293497 
L 81.949091 207.293497 
z
" clip-path="url(#p6f4417cbf8)" style="fill: #ff7f0e; fill-opacity: 0.75; stroke: #ffffff; stroke-width: 0.8; stroke-linejoin: miter"/>
   </g>
   <g id="patch_125">
    <path d="M 90.065455 298.380872 
L 98.181818 298.380872 
L 98.181818 251.421318 
L 90.065455 251.421318 
z
" clip-path="url(#p6f4417cbf8)" style="fill: #ff7f0e; fill-opacity: 0.75; stroke: #ffffff; stroke-width: 0.8; stroke-linejoin: miter"/>
   </g>
   <g id="patch_126">
    <path d="M 98.181818 303.100425 
L 106.298182 303.100425 
L 106.298182 273.36724 
L 98.181818 273.36724 
z
" clip-path="url(#p6f4417cbf8)" style="fill: #ff7f0e; fill-opacity: 0.75; stroke: #ffffff; stroke-width: 0.8; stroke-linejoin: miter"/>
   </g>
   <g id="patch_127">
    <path d="M 106.298182 302.628469 
L 114.414545 302.628469 
L 114.414545 274.311151 
L 106.298182 274.311151 
z
" clip-path="url(#p6f4417cbf8)" style="fill: #ff7f0e; fill-opacity: 0.75; stroke: #ffffff; stroke-width: 0.8; stroke-linejoin: miter"/>
   </g>
   <g id="patch_128">
    <path d="M 114.414545 304.516291 
L 122.530909 304.516291 
L 122.530909 272.42333 
L 114.414545 272.42333 
z
" clip-path="url(#p6f4417cbf8)" style="fill: #ff7f0e; fill-opacity: 0.75; stroke: #ffffff; stroke-width: 0.8; stroke-linejoin: miter"/>
   </g>
   <g id="patch_129">
    <path d="M 122.530909 301.684559 
L 130.647273 301.684559 
L 130.647273 275.727017 
L 122.530909 275.727017 
z
" clip-path="url(#p6f4417cbf8)" style="fill: #ff7f0e; fill-opacity: 0.75; stroke: #ffffff; stroke-width: 0.8; stroke-linejoin: miter"/>
   </g>
   <g id="patch_130">
    <path d="M 130.647273 303.808358 
L 138.763636 303.808358 
L 138.763636 282.098413 
L 130.647273 282.098413 
z
" clip-path="url(#p6f4417cbf8)" style="fill: #ff7f0e; fill-opacity: 0.75; stroke: #ffffff; stroke-width: 0.8; stroke-linejoin: miter"/>
   </g>
   <g id="patch_131">
    <path d="M 138.763636 303.808358 
L 146.88 303.808358 
L 146.88 291.53752 
L 138.763636 291.53752 
z
" clip-path="url(#p6f4417cbf8)" style="fill: #ff7f0e; fill-opacity: 0.75; stroke: #ffffff; stroke-width: 0.8; stroke-linejoin: miter"/>
   </g>
   <g id="patch_132">
    <path d="M 146.88 303.57238 
L 154.996364 303.57238 
L 154.996364 289.413721 
L 146.88 289.413721 
z
" clip-path="url(#p6f4417cbf8)" style="fill: #ff7f0e; fill-opacity: 0.75; stroke: #ffffff; stroke-width: 0.8; stroke-linejoin: miter"/>
   </g>
   <g id="patch_133">
    <path d="M 154.996364 304.280313 
L 163.112727 304.280313 
L 163.112727 292.953385 
L 154.996364 292.953385 
z
" clip-path="url(#p6f4417cbf8)" style="fill: #ff7f0e; fill-opacity: 0.75; stroke: #ffffff; stroke-width: 0.8; stroke-linejoin: miter"/>
   </g>
   <g id="patch_134">
    <path d="M 163.112727 304.044335 
L 171.229091 304.044335 
L 171.229091 291.773497 
L 163.112727 291.773497 
z
" clip-path="url(#p6f4417cbf8)" style="fill: #ff7f0e; fill-opacity: 0.75; stroke: #ffffff; stroke-width: 0.8; stroke-linejoin: miter"/>
   </g>
   <g id="patch_135">
    <path d="M 171.229091 305.932156 
L 179.345455 305.932156 
L 179.345455 294.605229 
L 171.229091 294.605229 
z
" clip-path="url(#p6f4417cbf8)" style="fill: #ff7f0e; fill-opacity: 0.75; stroke: #ffffff; stroke-width: 0.8; stroke-linejoin: miter"/>
   </g>
   <g id="patch_136">
    <path d="M 179.345455 302.864447 
L 187.461818 302.864447 
L 187.461818 291.301542 
L 179.345455 291.301542 
z
" clip-path="url(#p6f4417cbf8)" style="fill: #ff7f0e; fill-opacity: 0.75; stroke: #ffffff; stroke-width: 0.8; stroke-linejoin: miter"/>
   </g>
   <g id="patch_137">
    <path d="M 187.461818 304.044335 
L 195.578182 304.044335 
L 195.578182 297.436961 
L 187.461818 297.436961 
z
" clip-path="url(#p6f4417cbf8)" style="fill: #ff7f0e; fill-opacity: 0.75; stroke: #ffffff; stroke-width: 0.8; stroke-linejoin: miter"/>
   </g>
   <g id="patch_138">
    <path d="M 195.578182 306.640089 
L 203.694545 306.640089 
L 203.694545 299.324782 
L 195.578182 299.324782 
z
" clip-path="url(#p6f4417cbf8)" style="fill: #ff7f0e; fill-opacity: 0.75; stroke: #ffffff; stroke-width: 0.8; stroke-linejoin: miter"/>
   </g>
   <g id="patch_139">
    <path d="M 203.694545 307.348022 
L 211.810909 307.348022 
L 211.810909 297.908916 
L 203.694545 297.908916 
z
" clip-path="url(#p6f4417cbf8)" style="fill: #ff7f0e; fill-opacity: 0.75; stroke: #ffffff; stroke-width: 0.8; stroke-linejoin: miter"/>
   </g>
   <g id="patch_140">
    <path d="M 211.810909 306.404112 
L 219.927273 306.404112 
L 219.927273 301.920536 
L 211.810909 301.920536 
z
" clip-path="url(#p6f4417cbf8)" style="fill: #ff7f0e; fill-opacity: 0.75; stroke: #ffffff; stroke-width: 0.8; stroke-linejoin: miter"/>
   </g>
   <g id="patch_141">
    <path d="M 219.927273 304.752268 
L 228.043636 304.752268 
L 228.043636 299.796737 
L 219.927273 299.796737 
z
" clip-path="url(#p6f4417cbf8)" style="fill: #ff7f0e; fill-opacity: 0.75; stroke: #ffffff; stroke-width: 0.8; stroke-linejoin: miter"/>
   </g>
   <g id="patch_142">
    <path d="M 228.043636 306.640089 
L 236.16 306.640089 
L 236.16 301.684559 
L 228.043636 301.684559 
z
" clip-path="url(#p6f4417cbf8)" style="fill: #ff7f0e; fill-opacity: 0.75; stroke: #ffffff; stroke-width: 0.8; stroke-linejoin: miter"/>
   </g>
   <g id="patch_143">
    <path d="M 236.16 305.932156 
L 244.276364 305.932156 
L 244.276364 304.044335 
L 236.16 304.044335 
z
" clip-path="url(#p6f4417cbf8)" style="fill: #ff7f0e; fill-opacity: 0.75; stroke: #ffffff; stroke-width: 0.8; stroke-linejoin: miter"/>
   </g>
   <g id="patch_144">
    <path d="M 244.276364 306.876067 
L 252.392727 306.876067 
L 252.392727 304.280313 
L 244.276364 304.280313 
z
" clip-path="url(#p6f4417cbf8)" style="fill: #ff7f0e; fill-opacity: 0.75; stroke: #ffffff; stroke-width: 0.8; stroke-linejoin: miter"/>
   </g>
   <g id="patch_145">
    <path d="M 252.392727 306.876067 
L 260.509091 306.876067 
L 260.509091 304.752268 
L 252.392727 304.752268 
z
" clip-path="url(#p6f4417cbf8)" style="fill: #ff7f0e; fill-opacity: 0.75; stroke: #ffffff; stroke-width: 0.8; stroke-linejoin: miter"/>
   </g>
   <g id="patch_146">
    <path d="M 260.509091 306.404112 
L 268.625455 306.404112 
L 268.625455 304.516291 
L 260.509091 304.516291 
z
" clip-path="url(#p6f4417cbf8)" style="fill: #ff7f0e; fill-opacity: 0.75; stroke: #ffffff; stroke-width: 0.8; stroke-linejoin: miter"/>
   </g>
   <g id="patch_147">
    <path d="M 268.625455 306.404112 
L 276.741818 306.404112 
L 276.741818 303.808358 
L 268.625455 303.808358 
z
" clip-path="url(#p6f4417cbf8)" style="fill: #ff7f0e; fill-opacity: 0.75; stroke: #ffffff; stroke-width: 0.8; stroke-linejoin: miter"/>
   </g>
   <g id="patch_148">
    <path d="M 276.741818 306.876067 
L 284.858182 306.876067 
L 284.858182 306.404112 
L 276.741818 306.404112 
z
" clip-path="url(#p6f4417cbf8)" style="fill: #ff7f0e; fill-opacity: 0.75; stroke: #ffffff; stroke-width: 0.8; stroke-linejoin: miter"/>
   </g>
   <g id="patch_149">
    <path d="M 284.858182 306.876067 
L 292.974545 306.876067 
L 292.974545 305.696179 
L 284.858182 305.696179 
z
" clip-path="url(#p6f4417cbf8)" style="fill: #ff7f0e; fill-opacity: 0.75; stroke: #ffffff; stroke-width: 0.8; stroke-linejoin: miter"/>
   </g>
   <g id="patch_150">
    <path d="M 292.974545 306.876067 
L 301.090909 306.876067 
L 301.090909 306.168134 
L 292.974545 306.168134 
z
" clip-path="url(#p6f4417cbf8)" style="fill: #ff7f0e; fill-opacity: 0.75; stroke: #ffffff; stroke-width: 0.8; stroke-linejoin: miter"/>
   </g>
   <g id="patch_151">
    <path d="M 301.090909 307.348022 
L 309.207273 307.348022 
L 309.207273 305.932156 
L 301.090909 305.932156 
z
" clip-path="url(#p6f4417cbf8)" style="fill: #ff7f0e; fill-opacity: 0.75; stroke: #ffffff; stroke-width: 0.8; stroke-linejoin: miter"/>
   </g>
   <g id="patch_152">
    <path d="M 309.207273 307.584 
L 317.323636 307.584 
L 317.323636 306.404112 
L 309.207273 306.404112 
z
" clip-path="url(#p6f4417cbf8)" style="fill: #ff7f0e; fill-opacity: 0.75; stroke: #ffffff; stroke-width: 0.8; stroke-linejoin: miter"/>
   </g>
   <g id="patch_153">
    <path d="M 317.323636 307.348022 
L 325.44 307.348022 
L 325.44 305.696179 
L 317.323636 305.696179 
z
" clip-path="url(#p6f4417cbf8)" style="fill: #ff7f0e; fill-opacity: 0.75; stroke: #ffffff; stroke-width: 0.8; stroke-linejoin: miter"/>
   </g>
   <g id="patch_154">
    <path d="M 325.44 307.112045 
L 333.556364 307.112045 
L 333.556364 306.640089 
L 325.44 306.640089 
z
" clip-path="url(#p6f4417cbf8)" style="fill: #ff7f0e; fill-opacity: 0.75; stroke: #ffffff; stroke-width: 0.8; stroke-linejoin: miter"/>
   </g>
   <g id="patch_155">
    <path d="M 333.556364 307.348022 
L 341.672727 307.348022 
L 341.672727 306.640089 
L 333.556364 306.640089 
z
" clip-path="url(#p6f4417cbf8)" style="fill: #ff7f0e; fill-opacity: 0.75; stroke: #ffffff; stroke-width: 0.8; stroke-linejoin: miter"/>
   </g>
   <g id="patch_156">
    <path d="M 341.672727 307.348022 
L 349.789091 307.348022 
L 349.789091 307.112045 
L 341.672727 307.112045 
z
" clip-path="url(#p6f4417cbf8)" style="fill: #ff7f0e; fill-opacity: 0.75; stroke: #ffffff; stroke-width: 0.8; stroke-linejoin: miter"/>
   </g>
   <g id="patch_157">
    <path d="M 349.789091 307.584 
L 357.905455 307.584 
L 357.905455 307.584 
L 349.789091 307.584 
z
" clip-path="url(#p6f4417cbf8)" style="fill: #ff7f0e; fill-opacity: 0.75; stroke: #ffffff; stroke-width: 0.8; stroke-linejoin: miter"/>
   </g>
   <g id="patch_158">
    <path d="M 357.905455 307.584 
L 366.021818 307.584 
L 366.021818 307.584 
L 357.905455 307.584 
z
" clip-path="url(#p6f4417cbf8)" style="fill: #ff7f0e; fill-opacity: 0.75; stroke: #ffffff; stroke-width: 0.8; stroke-linejoin: miter"/>
   </g>
   <g id="patch_159">
    <path d="M 366.021818 307.348022 
L 374.138182 307.348022 
L 374.138182 307.348022 
L 366.021818 307.348022 
z
" clip-path="url(#p6f4417cbf8)" style="fill: #ff7f0e; fill-opacity: 0.75; stroke: #ffffff; stroke-width: 0.8; stroke-linejoin: miter"/>
   </g>
   <g id="patch_160">
    <path d="M 374.138182 307.584 
L 382.254545 307.584 
L 382.254545 307.348022 
L 374.138182 307.348022 
z
" clip-path="url(#p6f4417cbf8)" style="fill: #ff7f0e; fill-opacity: 0.75; stroke: #ffffff; stroke-width: 0.8; stroke-linejoin: miter"/>
   </g>
   <g id="patch_161">
    <path d="M 382.254545 307.112045 
L 390.370909 307.112045 
L 390.370909 307.112045 
L 382.254545 307.112045 
z
" clip-path="url(#p6f4417cbf8)" style="fill: #ff7f0e; fill-opacity: 0.75; stroke: #ffffff; stroke-width: 0.8; stroke-linejoin: miter"/>
   </g>
   <g id="patch_162">
    <path d="M 390.370909 307.584 
L 398.487273 307.584 
L 398.487273 307.584 
L 390.370909 307.584 
z
" clip-path="url(#p6f4417cbf8)" style="fill: #ff7f0e; fill-opacity: 0.75; stroke: #ffffff; stroke-width: 0.8; stroke-linejoin: miter"/>
   </g>
   <g id="patch_163">
    <path d="M 73.832727 104.879196 
L 81.949091 104.879196 
L 81.949091 54.144 
L 73.832727 54.144 
z
" clip-path="url(#p6f4417cbf8)" style="fill: #1f77b4; fill-opacity: 0.75; stroke: #ffffff; stroke-width: 0.8; stroke-linejoin: miter"/>
   </g>
   <g id="patch_164">
    <path d="M 81.949091 207.293497 
L 90.065455 207.293497 
L 90.065455 101.103553 
L 81.949091 101.103553 
z
" clip-path="url(#p6f4417cbf8)" style="fill: #1f77b4; fill-opacity: 0.75; stroke: #ffffff; stroke-width: 0.8; stroke-linejoin: miter"/>
   </g>
   <g id="patch_165">
    <path d="M 90.065455 251.421318 
L 98.181818 251.421318 
L 98.181818 139.331933 
L 90.065455 139.331933 
z
" clip-path="url(#p6f4417cbf8)" style="fill: #1f77b4; fill-opacity: 0.75; stroke: #ffffff; stroke-width: 0.8; stroke-linejoin: miter"/>
   </g>
   <g id="patch_166">
    <path d="M 98.181818 273.36724 
L 106.298182 273.36724 
L 106.298182 173.312715 
L 98.181818 173.312715 
z
" clip-path="url(#p6f4417cbf8)" style="fill: #1f77b4; fill-opacity: 0.75; stroke: #ffffff; stroke-width: 0.8; stroke-linejoin: miter"/>
   </g>
   <g id="patch_167">
    <path d="M 106.298182 274.311151 
L 114.414545 274.311151 
L 114.414545 200.922101 
L 106.298182 200.922101 
z
" clip-path="url(#p6f4417cbf8)" style="fill: #1f77b4; fill-opacity: 0.75; stroke: #ffffff; stroke-width: 0.8; stroke-linejoin: miter"/>
   </g>
   <g id="patch_168">
    <path d="M 114.414545 272.42333 
L 122.530909 272.42333 
L 122.530909 212.485006 
L 114.414545 212.485006 
z
" clip-path="url(#p6f4417cbf8)" style="fill: #1f77b4; fill-opacity: 0.75; stroke: #ffffff; stroke-width: 0.8; stroke-linejoin: miter"/>
   </g>
   <g id="patch_169">
    <path d="M 122.530909 275.727017 
L 130.647273 275.727017 
L 130.647273 240.802324 
L 122.530909 240.802324 
z
" clip-path="url(#p6f4417cbf8)" style="fill: #1f77b4; fill-opacity: 0.75; stroke: #ffffff; stroke-width: 0.8; stroke-linejoin: miter"/>
   </g>
   <g id="patch_170">
    <path d="M 130.647273 282.098413 
L 138.763636 282.098413 
L 138.763636 259.916514 
L 130.647273 259.916514 
z
" clip-path="url(#p6f4417cbf8)" style="fill: #1f77b4; fill-opacity: 0.75; stroke: #ffffff; stroke-width: 0.8; stroke-linejoin: miter"/>
   </g>
   <g id="patch_171">
    <path d="M 138.763636 291.53752 
L 146.88 291.53752 
L 146.88 277.142883 
L 138.763636 277.142883 
z
" clip-path="url(#p6f4417cbf8)" style="fill: #1f77b4; fill-opacity: 0.75; stroke: #ffffff; stroke-width: 0.8; stroke-linejoin: miter"/>
   </g>
   <g id="patch_172">
    <path d="M 146.88 289.413721 
L 154.996364 289.413721 
L 154.996364 280.682547 
L 146.88 280.682547 
z
" clip-path="url(#p6f4417cbf8)" style="fill: #1f77b4; fill-opacity: 0.75; stroke: #ffffff; stroke-width: 0.8; stroke-linejoin: miter"/>
   </g>
   <g id="patch_173">
    <path d="M 154.996364 292.953385 
L 163.112727 292.953385 
L 163.112727 285.638078 
L 154.996364 285.638078 
z
" clip-path="url(#p6f4417cbf8)" style="fill: #1f77b4; fill-opacity: 0.75; stroke: #ffffff; stroke-width: 0.8; stroke-linejoin: miter"/>
   </g>
   <g id="patch_174">
    <path d="M 163.112727 291.773497 
L 171.229091 291.773497 
L 171.229091 285.874056 
L 163.112727 285.874056 
z
" clip-path="url(#p6f4417cbf8)" style="fill: #1f77b4; fill-opacity: 0.75; stroke: #ffffff; stroke-width: 0.8; stroke-linejoin: miter"/>
   </g>
   <g id="patch_175">
    <path d="M 171.229091 294.605229 
L 179.345455 294.605229 
L 179.345455 290.357631 
L 171.229091 290.357631 
z
" clip-path="url(#p6f4417cbf8)" style="fill: #1f77b4; fill-opacity: 0.75; stroke: #ffffff; stroke-width: 0.8; stroke-linejoin: miter"/>
   </g>
   <g id="patch_176">
    <path d="M 179.345455 291.301542 
L 187.461818 291.301542 
L 187.461818 288.46981 
L 179.345455 288.46981 
z
" clip-path="url(#p6f4417cbf8)" style="fill: #1f77b4; fill-opacity: 0.75; stroke: #ffffff; stroke-width: 0.8; stroke-linejoin: miter"/>
   </g>
   <g id="patch_177">
    <path d="M 187.461818 297.436961 
L 195.578182 297.436961 
L 195.578182 295.785117 
L 187.461818 295.785117 
z
" clip-path="url(#p6f4417cbf8)" style="fill: #1f77b4; fill-opacity: 0.75; stroke: #ffffff; stroke-width: 0.8; stroke-linejoin: miter"/>
   </g>
   <g id="patch_178">
    <path d="M 195.578182 299.324782 
L 203.694545 299.324782 
L 203.694545 294.605229 
L 195.578182 294.605229 
z
" clip-path="url(#p6f4417cbf8)" style="fill: #1f77b4; fill-opacity: 0.75; stroke: #ffffff; stroke-width: 0.8; stroke-linejoin: miter"/>
   </g>
   <g id="patch_179">
    <path d="M 203.694545 297.908916 
L 211.810909 297.908916 
L 211.810909 294.841207 
L 203.694545 294.841207 
z
" clip-path="url(#p6f4417cbf8)" style="fill: #1f77b4; fill-opacity: 0.75; stroke: #ffffff; stroke-width: 0.8; stroke-linejoin: miter"/>
   </g>
   <g id="patch_180">
    <path d="M 211.810909 301.920536 
L 219.927273 301.920536 
L 219.927273 300.268693 
L 211.810909 300.268693 
z
" clip-path="url(#p6f4417cbf8)" style="fill: #1f77b4; fill-opacity: 0.75; stroke: #ffffff; stroke-width: 0.8; stroke-linejoin: miter"/>
   </g>
   <g id="patch_181">
    <path d="M 219.927273 299.796737 
L 228.043636 299.796737 
L 228.043636 298.852827 
L 219.927273 298.852827 
z
" clip-path="url(#p6f4417cbf8)" style="fill: #1f77b4; fill-opacity: 0.75; stroke: #ffffff; stroke-width: 0.8; stroke-linejoin: miter"/>
   </g>
   <g id="patch_182">
    <path d="M 228.043636 301.684559 
L 236.16 301.684559 
L 236.16 301.212603 
L 228.043636 301.212603 
z
" clip-path="url(#p6f4417cbf8)" style="fill: #1f77b4; fill-opacity: 0.75; stroke: #ffffff; stroke-width: 0.8; stroke-linejoin: miter"/>
   </g>
   <g id="patch_183">
    <path d="M 236.16 304.044335 
L 244.276364 304.044335 
L 244.276364 303.57238 
L 236.16 303.57238 
z
" clip-path="url(#p6f4417cbf8)" style="fill: #1f77b4; fill-opacity: 0.75; stroke: #ffffff; stroke-width: 0.8; stroke-linejoin: miter"/>
   </g>
   <g id="patch_184">
    <path d="M 244.276364 304.280313 
L 252.392727 304.280313 
L 252.392727 304.044335 
L 244.276364 304.044335 
z
" clip-path="url(#p6f4417cbf8)" style="fill: #1f77b4; fill-opacity: 0.75; stroke: #ffffff; stroke-width: 0.8; stroke-linejoin: miter"/>
   </g>
   <g id="patch_185">
    <path d="M 252.392727 304.752268 
L 260.509091 304.752268 
L 260.509091 304.516291 
L 252.392727 304.516291 
z
" clip-path="url(#p6f4417cbf8)" style="fill: #1f77b4; fill-opacity: 0.75; stroke: #ffffff; stroke-width: 0.8; stroke-linejoin: miter"/>
   </g>
   <g id="patch_186">
    <path d="M 260.509091 304.516291 
L 268.625455 304.516291 
L 268.625455 304.280313 
L 260.509091 304.280313 
z
" clip-path="url(#p6f4417cbf8)" style="fill: #1f77b4; fill-opacity: 0.75; stroke: #ffffff; stroke-width: 0.8; stroke-linejoin: miter"/>
   </g>
   <g id="patch_187">
    <path d="M 268.625455 303.808358 
L 276.741818 303.808358 
L 276.741818 303.57238 
L 268.625455 303.57238 
z
" clip-path="url(#p6f4417cbf8)" style="fill: #1f77b4; fill-opacity: 0.75; stroke: #ffffff; stroke-width: 0.8; stroke-linejoin: miter"/>
   </g>
   <g id="patch_188">
    <path d="M 276.741818 306.404112 
L 284.858182 306.404112 
L 284.858182 305.932156 
L 276.741818 305.932156 
z
" clip-path="url(#p6f4417cbf8)" style="fill: #1f77b4; fill-opacity: 0.75; stroke: #ffffff; stroke-width: 0.8; stroke-linejoin: miter"/>
   </g>
   <g id="patch_189">
    <path d="M 284.858182 305.696179 
L 292.974545 305.696179 
L 292.974545 305.460201 
L 284.858182 305.460201 
z
" clip-path="url(#p6f4417cbf8)" style="fill: #1f77b4; fill-opacity: 0.75; stroke: #ffffff; stroke-width: 0.8; stroke-linejoin: miter"/>
   </g>
   <g id="patch_190">
    <path d="M 292.974545 306.168134 
L 301.090909 306.168134 
L 301.090909 305.932156 
L 292.974545 305.932156 
z
" clip-path="url(#p6f4417cbf8)" style="fill: #1f77b4; fill-opacity: 0.75; stroke: #ffffff; stroke-width: 0.8; stroke-linejoin: miter"/>
   </g>
   <g id="patch_191">
    <path d="M 301.090909 305.932156 
L 309.207273 305.932156 
L 309.207273 305.696179 
L 301.090909 305.696179 
z
" clip-path="url(#p6f4417cbf8)" style="fill: #1f77b4; fill-opacity: 0.75; stroke: #ffffff; stroke-width: 0.8; stroke-linejoin: miter"/>
   </g>
   <g id="patch_192">
    <path d="M 309.207273 306.404112 
L 317.323636 306.404112 
L 317.323636 306.168134 
L 309.207273 306.168134 
z
" clip-path="url(#p6f4417cbf8)" style="fill: #1f77b4; fill-opacity: 0.75; stroke: #ffffff; stroke-width: 0.8; stroke-linejoin: miter"/>
   </g>
   <g id="patch_193">
    <path d="M 317.323636 305.696179 
L 325.44 305.696179 
L 325.44 305.696179 
L 317.323636 305.696179 
z
" clip-path="url(#p6f4417cbf8)" style="fill: #1f77b4; fill-opacity: 0.75; stroke: #ffffff; stroke-width: 0.8; stroke-linejoin: miter"/>
   </g>
   <g id="patch_194">
    <path d="M 325.44 306.640089 
L 333.556364 306.640089 
L 333.556364 306.640089 
L 325.44 306.640089 
z
" clip-path="url(#p6f4417cbf8)" style="fill: #1f77b4; fill-opacity: 0.75; stroke: #ffffff; stroke-width: 0.8; stroke-linejoin: miter"/>
   </g>
   <g id="patch_195">
    <path d="M 333.556364 306.640089 
L 341.672727 306.640089 
L 341.672727 306.640089 
L 333.556364 306.640089 
z
" clip-path="url(#p6f4417cbf8)" style="fill: #1f77b4; fill-opacity: 0.75; stroke: #ffffff; stroke-width: 0.8; stroke-linejoin: miter"/>
   </g>
   <g id="patch_196">
    <path d="M 341.672727 307.112045 
L 349.789091 307.112045 
L 349.789091 307.112045 
L 341.672727 307.112045 
z
" clip-path="url(#p6f4417cbf8)" style="fill: #1f77b4; fill-opacity: 0.75; stroke: #ffffff; stroke-width: 0.8; stroke-linejoin: miter"/>
   </g>
   <g id="patch_197">
    <path d="M 349.789091 307.584 
L 357.905455 307.584 
L 357.905455 307.584 
L 349.789091 307.584 
z
" clip-path="url(#p6f4417cbf8)" style="fill: #1f77b4; fill-opacity: 0.75; stroke: #ffffff; stroke-width: 0.8; stroke-linejoin: miter"/>
   </g>
   <g id="patch_198">
    <path d="M 357.905455 307.584 
L 366.021818 307.584 
L 366.021818 307.348022 
L 357.905455 307.348022 
z
" clip-path="url(#p6f4417cbf8)" style="fill: #1f77b4; fill-opacity: 0.75; stroke: #ffffff; stroke-width: 0.8; stroke-linejoin: miter"/>
   </g>
   <g id="patch_199">
    <path d="M 366.021818 307.348022 
L 374.138182 307.348022 
L 374.138182 307.348022 
L 366.021818 307.348022 
z
" clip-path="url(#p6f4417cbf8)" style="fill: #1f77b4; fill-opacity: 0.75; stroke: #ffffff; stroke-width: 0.8; stroke-linejoin: miter"/>
   </g>
   <g id="patch_200">
    <path d="M 374.138182 307.348022 
L 382.254545 307.348022 
L 382.254545 307.348022 
L 374.138182 307.348022 
z
" clip-path="url(#p6f4417cbf8)" style="fill: #1f77b4; fill-opacity: 0.75; stroke: #ffffff; stroke-width: 0.8; stroke-linejoin: miter"/>
   </g>
   <g id="patch_201">
    <path d="M 382.254545 307.112045 
L 390.370909 307.112045 
L 390.370909 307.112045 
L 382.254545 307.112045 
z
" clip-path="url(#p6f4417cbf8)" style="fill: #1f77b4; fill-opacity: 0.75; stroke: #ffffff; stroke-width: 0.8; stroke-linejoin: miter"/>
   </g>
   <g id="patch_202">
    <path d="M 390.370909 307.584 
L 398.487273 307.584 
L 398.487273 307.348022 
L 390.370909 307.348022 
z
" clip-path="url(#p6f4417cbf8)" style="fill: #1f77b4; fill-opacity: 0.75; stroke: #ffffff; stroke-width: 0.8; stroke-linejoin: miter"/>
   </g>
   <g id="line2d_1">
    <path d="M 225.118986 307.584 
L 225.118986 41.472 
" clip-path="url(#p6f4417cbf8)" style="fill: none; stroke: #ff0000; stroke-width: 1.2; stroke-linecap: round"/>
   </g>
   <g id="patch_203">
    <path d="M 57.6 307.584 
L 57.6 41.472 
" style="fill: none; stroke: #262626; stroke-linejoin: miter; stroke-linecap: square"/>
   </g>
   <g id="patch_204">
    <path d="M 414.72 307.584 
L 414.72 41.472 
" style="fill: none; stroke: #262626; stroke-linejoin: miter; stroke-linecap: square"/>
   </g>
   <g id="patch_205">
    <path d="M 57.6 307.584 
L 414.72 307.584 
" style="fill: none; stroke: #262626; stroke-linejoin: miter; stroke-linecap: square"/>
   </g>
   <g id="patch_206">
    <path d="M 57.6 41.472 
L 414.72 41.472 
" style="fill: none; stroke: #262626; stroke-linejoin: miter; stroke-linecap: square"/>
   </g>
   <g id="patch_207">
    <path d="M 395.595254 118.801877 
Q 309.914152 118.801877 224.233049 118.801877 
" style="fill: none; stroke: #c44e52; stroke-width: 0.8; stroke-linecap: round"/>
    <path d="M 391.755254 116.881877 
L 395.595254 118.801877 
L 391.755254 120.721877 
" style="fill: none; stroke: #c44e52; stroke-width: 0.8; stroke-linecap: round"/>
    <path d="M 228.073049 120.721877 
L 224.233049 118.801877 
L 228.073049 116.881877 
" style="fill: none; stroke: #c44e52; stroke-width: 0.8; stroke-linecap: round"/>
   </g>
   <g id="text_14">
    <!-- Novel ($\it{d}$ &gt;0.2) -->
    <g style="fill: #262626" transform="translate(345.733244 107.002994) scale(0.096 -0.096)">
     <defs>
      <path id="ArialMT-4e" d="M 488 0 
L 488 4581 
L 1109 4581 
L 3516 984 
L 3516 4581 
L 4097 4581 
L 4097 0 
L 3475 0 
L 1069 3600 
L 1069 0 
L 488 0 
z
" transform="scale(0.015625)"/>
      <path id="ArialMT-76" d="M 1344 0 
L 81 3319 
L 675 3319 
L 1388 1331 
Q 1503 1009 1600 663 
Q 1675 925 1809 1294 
L 2547 3319 
L 3125 3319 
L 1869 0 
L 1344 0 
z
" transform="scale(0.015625)"/>
      <path id="ArialMT-6c" d="M 409 0 
L 409 4581 
L 972 4581 
L 972 0 
L 409 0 
z
" transform="scale(0.015625)"/>
      <path id="ArialMT-3e" d="M 3384 2003 
L 350 706 
L 350 1266 
L 2753 2263 
L 350 3250 
L 350 3809 
L 3384 2528 
L 3384 2003 
z
" transform="scale(0.015625)"/>
     </defs>
     <use xlink:href="#ArialMT-4e" transform="translate(0 0.015625)"/>
     <use xlink:href="#ArialMT-6f" transform="translate(72.216797 0.015625)"/>
     <use xlink:href="#ArialMT-76" transform="translate(127.832031 0.015625)"/>
     <use xlink:href="#ArialMT-65" transform="translate(177.832031 0.015625)"/>
     <use xlink:href="#ArialMT-6c" transform="translate(233.447266 0.015625)"/>
     <use xlink:href="#ArialMT-20" transform="translate(255.664062 0.015625)"/>
     <use xlink:href="#ArialMT-28" transform="translate(283.447266 0.015625)"/>
     <use xlink:href="#DejaVuSans-Oblique-64" transform="translate(316.748047 0.015625)"/>
     <use xlink:href="#ArialMT-20" transform="translate(380.224609 0.015625)"/>
     <use xlink:href="#ArialMT-3e" transform="translate(408.007812 0.015625)"/>
     <use xlink:href="#ArialMT-30" transform="translate(466.40625 0.015625)"/>
     <use xlink:href="#ArialMT-2e" transform="translate(522.021484 0.015625)"/>
     <use xlink:href="#ArialMT-32" transform="translate(549.804688 0.015625)"/>
     <use xlink:href="#ArialMT-29" transform="translate(605.419922 0.015625)"/>
    </g>
   </g>
   <g id="legend_1">
    <g id="text_15">
     <!-- BiG-SLiCE class -->
     <g style="fill: #262626" transform="translate(327.215688 145.8385) scale(0.096 -0.096)">
      <defs>
       <path id="ArialMT-2d" d="M 203 1375 
L 203 1941 
L 1931 1941 
L 1931 1375 
L 203 1375 
z
" transform="scale(0.015625)"/>
       <path id="ArialMT-53" d="M 288 1472 
L 859 1522 
Q 900 1178 1048 958 
Q 1197 738 1509 602 
Q 1822 466 2213 466 
Q 2559 466 2825 569 
Q 3091 672 3220 851 
Q 3350 1031 3350 1244 
Q 3350 1459 3225 1620 
Q 3100 1781 2813 1891 
Q 2628 1963 1997 2114 
Q 1366 2266 1113 2400 
Q 784 2572 623 2826 
Q 463 3081 463 3397 
Q 463 3744 659 4045 
Q 856 4347 1234 4503 
Q 1613 4659 2075 4659 
Q 2584 4659 2973 4495 
Q 3363 4331 3572 4012 
Q 3781 3694 3797 3291 
L 3216 3247 
Q 3169 3681 2898 3903 
Q 2628 4125 2100 4125 
Q 1550 4125 1298 3923 
Q 1047 3722 1047 3438 
Q 1047 3191 1225 3031 
Q 1400 2872 2139 2705 
Q 2878 2538 3153 2413 
Q 3553 2228 3743 1945 
Q 3934 1663 3934 1294 
Q 3934 928 3725 604 
Q 3516 281 3123 101 
Q 2731 -78 2241 -78 
Q 1619 -78 1198 103 
Q 778 284 539 648 
Q 300 1013 288 1472 
z
" transform="scale(0.015625)"/>
       <path id="ArialMT-4c" d="M 469 0 
L 469 4581 
L 1075 4581 
L 1075 541 
L 3331 541 
L 3331 0 
L 469 0 
z
" transform="scale(0.015625)"/>
       <path id="ArialMT-45" d="M 506 0 
L 506 4581 
L 3819 4581 
L 3819 4041 
L 1113 4041 
L 1113 2638 
L 3647 2638 
L 3647 2100 
L 1113 2100 
L 1113 541 
L 3925 541 
L 3925 0 
L 506 0 
z
" transform="scale(0.015625)"/>
      </defs>
      <use xlink:href="#ArialMT-42"/>
      <use xlink:href="#ArialMT-69" x="66.699219"/>
      <use xlink:href="#ArialMT-47" x="88.916016"/>
      <use xlink:href="#ArialMT-2d" x="166.699219"/>
      <use xlink:href="#ArialMT-53" x="200"/>
      <use xlink:href="#ArialMT-4c" x="266.699219"/>
      <use xlink:href="#ArialMT-69" x="322.314453"/>
      <use xlink:href="#ArialMT-43" x="344.53125"/>
      <use xlink:href="#ArialMT-45" x="416.748047"/>
      <use xlink:href="#ArialMT-20" x="483.447266"/>
      <use xlink:href="#ArialMT-63" x="511.230469"/>
      <use xlink:href="#ArialMT-6c" x="561.230469"/>
      <use xlink:href="#ArialMT-61" x="583.447266"/>
      <use xlink:href="#ArialMT-73" x="639.0625"/>
      <use xlink:href="#ArialMT-73" x="689.0625"/>
     </g>
    </g>
    <g id="patch_208">
     <path d="M 318.581375 158.445375 
L 336.181375 158.445375 
L 336.181375 152.285375 
L 318.581375 152.285375 
z
" style="fill: #1f77b4; fill-opacity: 0.75; stroke: #ffffff; stroke-width: 0.8; stroke-linejoin: miter"/>
    </g>
    <g id="text_16">
     <!-- class-Polyketide -->
     <g style="fill: #262626" transform="translate(343.221375 158.445375) scale(0.088 -0.088)">
      <defs>
       <path id="ArialMT-50" d="M 494 0 
L 494 4581 
L 2222 4581 
Q 2678 4581 2919 4538 
Q 3256 4481 3484 4323 
Q 3713 4166 3852 3881 
Q 3991 3597 3991 3256 
Q 3991 2672 3619 2267 
Q 3247 1863 2275 1863 
L 1100 1863 
L 1100 0 
L 494 0 
z
M 1100 2403 
L 2284 2403 
Q 2872 2403 3119 2622 
Q 3366 2841 3366 3238 
Q 3366 3525 3220 3729 
Q 3075 3934 2838 4000 
Q 2684 4041 2272 4041 
L 1100 4041 
L 1100 2403 
z
" transform="scale(0.015625)"/>
       <path id="ArialMT-79" d="M 397 -1278 
L 334 -750 
Q 519 -800 656 -800 
Q 844 -800 956 -737 
Q 1069 -675 1141 -563 
Q 1194 -478 1313 -144 
Q 1328 -97 1363 -6 
L 103 3319 
L 709 3319 
L 1400 1397 
Q 1534 1031 1641 628 
Q 1738 1016 1872 1384 
L 2581 3319 
L 3144 3319 
L 1881 -56 
Q 1678 -603 1566 -809 
Q 1416 -1088 1222 -1217 
Q 1028 -1347 759 -1347 
Q 597 -1347 397 -1278 
z
" transform="scale(0.015625)"/>
       <path id="ArialMT-6b" d="M 425 0 
L 425 4581 
L 988 4581 
L 988 1969 
L 2319 3319 
L 3047 3319 
L 1778 2088 
L 3175 0 
L 2481 0 
L 1384 1697 
L 988 1316 
L 988 0 
L 425 0 
z
" transform="scale(0.015625)"/>
      </defs>
      <use xlink:href="#ArialMT-63"/>
      <use xlink:href="#ArialMT-6c" x="50"/>
      <use xlink:href="#ArialMT-61" x="72.216797"/>
      <use xlink:href="#ArialMT-73" x="127.832031"/>
      <use xlink:href="#ArialMT-73" x="177.832031"/>
      <use xlink:href="#ArialMT-2d" x="227.832031"/>
      <use xlink:href="#ArialMT-50" x="261.132812"/>
      <use xlink:href="#ArialMT-6f" x="327.832031"/>
      <use xlink:href="#ArialMT-6c" x="383.447266"/>
      <use xlink:href="#ArialMT-79" x="405.664062"/>
      <use xlink:href="#ArialMT-6b" x="455.664062"/>
      <use xlink:href="#ArialMT-65" x="505.664062"/>
      <use xlink:href="#ArialMT-74" x="561.279297"/>
      <use xlink:href="#ArialMT-69" x="589.0625"/>
      <use xlink:href="#ArialMT-64" x="611.279297"/>
      <use xlink:href="#ArialMT-65" x="666.894531"/>
     </g>
    </g>
    <g id="patch_209">
     <path d="M 318.581375 170.996375 
L 336.181375 170.996375 
L 336.181375 164.836375 
L 318.581375 164.836375 
z
" style="fill: #ff7f0e; fill-opacity: 0.75; stroke: #ffffff; stroke-width: 0.8; stroke-linejoin: miter"/>
    </g>
    <g id="text_17">
     <!-- class-NRP -->
     <g style="fill: #262626" transform="translate(343.221375 170.996375) scale(0.088 -0.088)">
      <defs>
       <path id="ArialMT-52" d="M 503 0 
L 503 4581 
L 2534 4581 
Q 3147 4581 3465 4457 
Q 3784 4334 3975 4021 
Q 4166 3709 4166 3331 
Q 4166 2844 3850 2509 
Q 3534 2175 2875 2084 
Q 3116 1969 3241 1856 
Q 3506 1613 3744 1247 
L 4541 0 
L 3778 0 
L 3172 953 
Q 2906 1366 2734 1584 
Q 2563 1803 2427 1890 
Q 2291 1978 2150 2013 
Q 2047 2034 1813 2034 
L 1109 2034 
L 1109 0 
L 503 0 
z
M 1109 2559 
L 2413 2559 
Q 2828 2559 3062 2645 
Q 3297 2731 3419 2920 
Q 3541 3109 3541 3331 
Q 3541 3656 3305 3865 
Q 3069 4075 2559 4075 
L 1109 4075 
L 1109 2559 
z
" transform="scale(0.015625)"/>
      </defs>
      <use xlink:href="#ArialMT-63"/>
      <use xlink:href="#ArialMT-6c" x="50"/>
      <use xlink:href="#ArialMT-61" x="72.216797"/>
      <use xlink:href="#ArialMT-73" x="127.832031"/>
      <use xlink:href="#ArialMT-73" x="177.832031"/>
      <use xlink:href="#ArialMT-2d" x="227.832031"/>
      <use xlink:href="#ArialMT-4e" x="261.132812"/>
      <use xlink:href="#ArialMT-52" x="333.349609"/>
      <use xlink:href="#ArialMT-50" x="405.566406"/>
     </g>
    </g>
    <g id="patch_210">
     <path d="M 318.581375 183.44425 
L 336.181375 183.44425 
L 336.181375 177.28425 
L 318.581375 177.28425 
z
" style="fill: #2ca02c; fill-opacity: 0.75; stroke: #ffffff; stroke-width: 0.8; stroke-linejoin: miter"/>
    </g>
    <g id="text_18">
     <!-- class-Terpene -->
     <g style="fill: #262626" transform="translate(343.221375 183.44425) scale(0.088 -0.088)">
      <defs>
       <path id="ArialMT-54" d="M 1659 0 
L 1659 4041 
L 150 4041 
L 150 4581 
L 3781 4581 
L 3781 4041 
L 2266 4041 
L 2266 0 
L 1659 0 
z
" transform="scale(0.015625)"/>
       <path id="ArialMT-72" d="M 416 0 
L 416 3319 
L 922 3319 
L 922 2816 
Q 1116 3169 1280 3281 
Q 1444 3394 1641 3394 
Q 1925 3394 2219 3213 
L 2025 2691 
Q 1819 2813 1613 2813 
Q 1428 2813 1281 2702 
Q 1134 2591 1072 2394 
Q 978 2094 978 1738 
L 978 0 
L 416 0 
z
" transform="scale(0.015625)"/>
       <path id="ArialMT-70" d="M 422 -1272 
L 422 3319 
L 934 3319 
L 934 2888 
Q 1116 3141 1344 3267 
Q 1572 3394 1897 3394 
Q 2322 3394 2647 3175 
Q 2972 2956 3137 2557 
Q 3303 2159 3303 1684 
Q 3303 1175 3120 767 
Q 2938 359 2589 142 
Q 2241 -75 1856 -75 
Q 1575 -75 1351 44 
Q 1128 163 984 344 
L 984 -1272 
L 422 -1272 
z
M 931 1641 
Q 931 1000 1190 694 
Q 1450 388 1819 388 
Q 2194 388 2461 705 
Q 2728 1022 2728 1688 
Q 2728 2322 2467 2637 
Q 2206 2953 1844 2953 
Q 1484 2953 1207 2617 
Q 931 2281 931 1641 
z
" transform="scale(0.015625)"/>
      </defs>
      <use xlink:href="#ArialMT-63"/>
      <use xlink:href="#ArialMT-6c" x="50"/>
      <use xlink:href="#ArialMT-61" x="72.216797"/>
      <use xlink:href="#ArialMT-73" x="127.832031"/>
      <use xlink:href="#ArialMT-73" x="177.832031"/>
      <use xlink:href="#ArialMT-2d" x="227.832031"/>
      <use xlink:href="#ArialMT-54" x="261.132812"/>
      <use xlink:href="#ArialMT-65" x="311.091797"/>
      <use xlink:href="#ArialMT-72" x="366.707031"/>
      <use xlink:href="#ArialMT-70" x="400.007812"/>
      <use xlink:href="#ArialMT-65" x="455.623047"/>
      <use xlink:href="#ArialMT-6e" x="511.238281"/>
      <use xlink:href="#ArialMT-65" x="566.853516"/>
     </g>
    </g>
    <g id="patch_211">
     <path d="M 318.581375 195.892125 
L 336.181375 195.892125 
L 336.181375 189.732125 
L 318.581375 189.732125 
z
" style="fill: #d62728; fill-opacity: 0.75; stroke: #ffffff; stroke-width: 0.8; stroke-linejoin: miter"/>
    </g>
    <g id="text_19">
     <!-- class-Other -->
     <g style="fill: #262626" transform="translate(343.221375 195.892125) scale(0.088 -0.088)">
      <defs>
       <path id="ArialMT-4f" d="M 309 2231 
Q 309 3372 921 4017 
Q 1534 4663 2503 4663 
Q 3138 4663 3647 4359 
Q 4156 4056 4423 3514 
Q 4691 2972 4691 2284 
Q 4691 1588 4409 1038 
Q 4128 488 3612 205 
Q 3097 -78 2500 -78 
Q 1853 -78 1343 234 
Q 834 547 571 1087 
Q 309 1628 309 2231 
z
M 934 2222 
Q 934 1394 1379 917 
Q 1825 441 2497 441 
Q 3181 441 3623 922 
Q 4066 1403 4066 2288 
Q 4066 2847 3877 3264 
Q 3688 3681 3323 3911 
Q 2959 4141 2506 4141 
Q 1863 4141 1398 3698 
Q 934 3256 934 2222 
z
" transform="scale(0.015625)"/>
       <path id="ArialMT-68" d="M 422 0 
L 422 4581 
L 984 4581 
L 984 2938 
Q 1378 3394 1978 3394 
Q 2347 3394 2619 3248 
Q 2891 3103 3008 2847 
Q 3125 2591 3125 2103 
L 3125 0 
L 2563 0 
L 2563 2103 
Q 2563 2525 2380 2717 
Q 2197 2909 1863 2909 
Q 1613 2909 1392 2779 
Q 1172 2650 1078 2428 
Q 984 2206 984 1816 
L 984 0 
L 422 0 
z
" transform="scale(0.015625)"/>
      </defs>
      <use xlink:href="#ArialMT-63"/>
      <use xlink:href="#ArialMT-6c" x="50"/>
      <use xlink:href="#ArialMT-61" x="72.216797"/>
      <use xlink:href="#ArialMT-73" x="127.832031"/>
      <use xlink:href="#ArialMT-73" x="177.832031"/>
      <use xlink:href="#ArialMT-2d" x="227.832031"/>
      <use xlink:href="#ArialMT-4f" x="261.132812"/>
      <use xlink:href="#ArialMT-74" x="338.916016"/>
      <use xlink:href="#ArialMT-68" x="366.699219"/>
      <use xlink:href="#ArialMT-65" x="422.314453"/>
      <use xlink:href="#ArialMT-72" x="477.929688"/>
     </g>
    </g>
    <g id="patch_212">
     <path d="M 318.581375 208.34 
L 336.181375 208.34 
L 336.181375 202.18 
L 318.581375 202.18 
z
" style="fill: #9467bd; fill-opacity: 0.75; stroke: #ffffff; stroke-width: 0.8; stroke-linejoin: miter"/>
    </g>
    <g id="text_20">
     <!-- class-RiPP -->
     <g style="fill: #262626" transform="translate(343.221375 208.34) scale(0.088 -0.088)">
      <use xlink:href="#ArialMT-63"/>
      <use xlink:href="#ArialMT-6c" x="50"/>
      <use xlink:href="#ArialMT-61" x="72.216797"/>
      <use xlink:href="#ArialMT-73" x="127.832031"/>
      <use xlink:href="#ArialMT-73" x="177.832031"/>
      <use xlink:href="#ArialMT-2d" x="227.832031"/>
      <use xlink:href="#ArialMT-52" x="261.132812"/>
      <use xlink:href="#ArialMT-69" x="333.349609"/>
      <use xlink:href="#ArialMT-50" x="355.566406"/>
      <use xlink:href="#ArialMT-50" x="422.265625"/>
     </g>
    </g>
   </g>
  </g>
 </g>
 <defs>
  <clipPath id="p6f4417cbf8">
   <rect x="57.6" y="41.472" width="357.12" height="266.112"/>
  </clipPath>
 </defs>
</svg>
