<?xml version="1.0" encoding="utf-8" standalone="no"?>
<!DOCTYPE svg PUBLIC "-//W3C//DTD SVG 1.1//EN"
  "http://www.w3.org/Graphics/SVG/1.1/DTD/svg11.dtd">
<svg xmlns:xlink="http://www.w3.org/1999/xlink" width="782.090814pt" height="826.739625pt" viewBox="0 0 782.090814 826.739625" xmlns="http://www.w3.org/2000/svg" version="1.1">
 <metadata>
  <rdf:RDF xmlns:dc="http://purl.org/dc/elements/1.1/" xmlns:cc="http://creativecommons.org/ns#" xmlns:rdf="http://www.w3.org/1999/02/22-rdf-syntax-ns#">
   <cc:Work>
    <dc:type rdf:resource="http://purl.org/dc/dcmitype/StillImage"/>
    <dc:date>2023-04-06T14:35:53.111742</dc:date>
    <dc:format>image/svg+xml</dc:format>
    <dc:creator>
     <cc:Agent>
      <dc:title>Matplotlib v3.6.3, https://matplotlib.org/</dc:title>
     </cc:Agent>
    </dc:creator>
   </cc:Work>
  </rdf:RDF>
 </metadata>
 <defs>
  <style type="text/css">*{stroke-linejoin: round; stroke-linecap: butt}</style>
 </defs>
 <g id="figure_1">
  <g id="patch_1">
   <path d="M 0 826.739625 
L 782.090814 826.739625 
L 782.090814 0 
L 0 0 
z
" style="fill: #ffffff"/>
  </g>
  <g id="axes_1">
   <g id="patch_2">
    <path d="M 88.630775 783.36 
L 758.230775 783.36 
L 758.230775 7.2 
L 88.630775 7.2 
z
" style="fill: #ffffff"/>
   </g>
   <g id="matplotlib.axis_1">
    <g id="xtick_1">
     <g id="text_1">
      <!-- 0 -->
      <g style="fill: #262626" transform="translate(118.475119 800.478425) scale(0.1232 -0.1232)">
       <defs>
        <path id="ArialMT-30" d="M 266 2259 
Q 266 3072 433 3567 
Q 600 4063 929 4331 
Q 1259 4600 1759 4600 
Q 2128 4600 2406 4451 
Q 2684 4303 2865 4023 
Q 3047 3744 3150 3342 
Q 3253 2941 3253 2259 
Q 3253 1453 3087 958 
Q 2922 463 2592 192 
Q 2263 -78 1759 -78 
Q 1097 -78 719 397 
Q 266 969 266 2259 
z
M 844 2259 
Q 844 1131 1108 757 
Q 1372 384 1759 384 
Q 2147 384 2411 759 
Q 2675 1134 2675 2259 
Q 2675 3391 2411 3762 
Q 2147 4134 1753 4134 
Q 1366 4134 1134 3806 
Q 844 3388 844 2259 
z
" transform="scale(0.015625)"/>
       </defs>
       <use xlink:href="#ArialMT-30"/>
      </g>
     </g>
    </g>
    <g id="xtick_2">
     <g id="text_2">
      <!-- 20000 -->
      <g style="fill: #262626" transform="translate(183.827585 800.478425) scale(0.1232 -0.1232)">
       <defs>
        <path id="ArialMT-32" d="M 3222 541 
L 3222 0 
L 194 0 
Q 188 203 259 391 
Q 375 700 629 1000 
Q 884 1300 1366 1694 
Q 2113 2306 2375 2664 
Q 2638 3022 2638 3341 
Q 2638 3675 2398 3904 
Q 2159 4134 1775 4134 
Q 1369 4134 1125 3890 
Q 881 3647 878 3216 
L 300 3275 
Q 359 3922 746 4261 
Q 1134 4600 1788 4600 
Q 2447 4600 2831 4234 
Q 3216 3869 3216 3328 
Q 3216 3053 3103 2787 
Q 2991 2522 2730 2228 
Q 2469 1934 1863 1422 
Q 1356 997 1212 845 
Q 1069 694 975 541 
L 3222 541 
z
" transform="scale(0.015625)"/>
       </defs>
       <use xlink:href="#ArialMT-32"/>
       <use xlink:href="#ArialMT-30" x="55.615234"/>
       <use xlink:href="#ArialMT-30" x="111.230469"/>
       <use xlink:href="#ArialMT-30" x="166.845703"/>
       <use xlink:href="#ArialMT-30" x="222.460938"/>
      </g>
     </g>
    </g>
    <g id="xtick_3">
     <g id="text_3">
      <!-- 40000 -->
      <g style="fill: #262626" transform="translate(262.882202 800.478425) scale(0.1232 -0.1232)">
       <defs>
        <path id="ArialMT-34" d="M 2069 0 
L 2069 1097 
L 81 1097 
L 81 1613 
L 2172 4581 
L 2631 4581 
L 2631 1613 
L 3250 1613 
L 3250 1097 
L 2631 1097 
L 2631 0 
L 2069 0 
z
M 2069 1613 
L 2069 3678 
L 634 1613 
L 2069 1613 
z
" transform="scale(0.015625)"/>
       </defs>
       <use xlink:href="#ArialMT-34"/>
       <use xlink:href="#ArialMT-30" x="55.615234"/>
       <use xlink:href="#ArialMT-30" x="111.230469"/>
       <use xlink:href="#ArialMT-30" x="166.845703"/>
       <use xlink:href="#ArialMT-30" x="222.460938"/>
      </g>
     </g>
    </g>
    <g id="xtick_4">
     <g id="text_4">
      <!-- 60000 -->
      <g style="fill: #262626" transform="translate(341.936819 800.478425) scale(0.1232 -0.1232)">
       <defs>
        <path id="ArialMT-36" d="M 3184 3459 
L 2625 3416 
Q 2550 3747 2413 3897 
Q 2184 4138 1850 4138 
Q 1581 4138 1378 3988 
Q 1113 3794 959 3422 
Q 806 3050 800 2363 
Q 1003 2672 1297 2822 
Q 1591 2972 1913 2972 
Q 2475 2972 2870 2558 
Q 3266 2144 3266 1488 
Q 3266 1056 3080 686 
Q 2894 316 2569 119 
Q 2244 -78 1831 -78 
Q 1128 -78 684 439 
Q 241 956 241 2144 
Q 241 3472 731 4075 
Q 1159 4600 1884 4600 
Q 2425 4600 2770 4297 
Q 3116 3994 3184 3459 
z
M 888 1484 
Q 888 1194 1011 928 
Q 1134 663 1356 523 
Q 1578 384 1822 384 
Q 2178 384 2434 671 
Q 2691 959 2691 1453 
Q 2691 1928 2437 2201 
Q 2184 2475 1800 2475 
Q 1419 2475 1153 2201 
Q 888 1928 888 1484 
z
" transform="scale(0.015625)"/>
       </defs>
       <use xlink:href="#ArialMT-36"/>
       <use xlink:href="#ArialMT-30" x="55.615234"/>
       <use xlink:href="#ArialMT-30" x="111.230469"/>
       <use xlink:href="#ArialMT-30" x="166.845703"/>
       <use xlink:href="#ArialMT-30" x="222.460938"/>
      </g>
     </g>
    </g>
    <g id="xtick_5">
     <g id="text_5">
      <!-- 80000 -->
      <g style="fill: #262626" transform="translate(420.991435 800.478425) scale(0.1232 -0.1232)">
       <defs>
        <path id="ArialMT-38" d="M 1131 2484 
Q 781 2613 612 2850 
Q 444 3088 444 3419 
Q 444 3919 803 4259 
Q 1163 4600 1759 4600 
Q 2359 4600 2725 4251 
Q 3091 3903 3091 3403 
Q 3091 3084 2923 2848 
Q 2756 2613 2416 2484 
Q 2838 2347 3058 2040 
Q 3278 1734 3278 1309 
Q 3278 722 2862 322 
Q 2447 -78 1769 -78 
Q 1091 -78 675 323 
Q 259 725 259 1325 
Q 259 1772 486 2073 
Q 713 2375 1131 2484 
z
M 1019 3438 
Q 1019 3113 1228 2906 
Q 1438 2700 1772 2700 
Q 2097 2700 2305 2904 
Q 2513 3109 2513 3406 
Q 2513 3716 2298 3927 
Q 2084 4138 1766 4138 
Q 1444 4138 1231 3931 
Q 1019 3725 1019 3438 
z
M 838 1322 
Q 838 1081 952 856 
Q 1066 631 1291 507 
Q 1516 384 1775 384 
Q 2178 384 2440 643 
Q 2703 903 2703 1303 
Q 2703 1709 2433 1975 
Q 2163 2241 1756 2241 
Q 1359 2241 1098 1978 
Q 838 1716 838 1322 
z
" transform="scale(0.015625)"/>
       </defs>
       <use xlink:href="#ArialMT-38"/>
       <use xlink:href="#ArialMT-30" x="55.615234"/>
       <use xlink:href="#ArialMT-30" x="111.230469"/>
       <use xlink:href="#ArialMT-30" x="166.845703"/>
       <use xlink:href="#ArialMT-30" x="222.460938"/>
      </g>
     </g>
    </g>
    <g id="xtick_6">
     <g id="text_6">
      <!-- 100000 -->
      <g style="fill: #262626" transform="translate(496.620514 800.478425) scale(0.1232 -0.1232)">
       <defs>
        <path id="ArialMT-31" d="M 2384 0 
L 1822 0 
L 1822 3584 
Q 1619 3391 1289 3197 
Q 959 3003 697 2906 
L 697 3450 
Q 1169 3672 1522 3987 
Q 1875 4303 2022 4600 
L 2384 4600 
L 2384 0 
z
" transform="scale(0.015625)"/>
       </defs>
       <use xlink:href="#ArialMT-31"/>
       <use xlink:href="#ArialMT-30" x="55.615234"/>
       <use xlink:href="#ArialMT-30" x="111.230469"/>
       <use xlink:href="#ArialMT-30" x="166.845703"/>
       <use xlink:href="#ArialMT-30" x="222.460938"/>
       <use xlink:href="#ArialMT-30" x="278.076172"/>
      </g>
     </g>
    </g>
    <g id="xtick_7">
     <g id="text_7">
      <!-- 120000 -->
      <g style="fill: #262626" transform="translate(575.675131 800.478425) scale(0.1232 -0.1232)">
       <use xlink:href="#ArialMT-31"/>
       <use xlink:href="#ArialMT-32" x="55.615234"/>
       <use xlink:href="#ArialMT-30" x="111.230469"/>
       <use xlink:href="#ArialMT-30" x="166.845703"/>
       <use xlink:href="#ArialMT-30" x="222.460938"/>
       <use xlink:href="#ArialMT-30" x="278.076172"/>
      </g>
     </g>
    </g>
    <g id="xtick_8">
     <g id="text_8">
      <!-- 140000 -->
      <g style="fill: #262626" transform="translate(654.729748 800.478425) scale(0.1232 -0.1232)">
       <use xlink:href="#ArialMT-31"/>
       <use xlink:href="#ArialMT-34" x="55.615234"/>
       <use xlink:href="#ArialMT-30" x="111.230469"/>
       <use xlink:href="#ArialMT-30" x="166.845703"/>
       <use xlink:href="#ArialMT-30" x="222.460938"/>
       <use xlink:href="#ArialMT-30" x="278.076172"/>
      </g>
     </g>
    </g>
    <g id="xtick_9">
     <g id="text_9">
      <!-- 160000 -->
      <g style="fill: #262626" transform="translate(733.784364 800.478425) scale(0.1232 -0.1232)">
       <use xlink:href="#ArialMT-31"/>
       <use xlink:href="#ArialMT-36" x="55.615234"/>
       <use xlink:href="#ArialMT-30" x="111.230469"/>
       <use xlink:href="#ArialMT-30" x="166.845703"/>
       <use xlink:href="#ArialMT-30" x="222.460938"/>
       <use xlink:href="#ArialMT-30" x="278.076172"/>
      </g>
     </g>
    </g>
    <g id="text_10">
     <!-- BGC_length -->
     <g style="fill: #262626" transform="translate(386.823575 816.710925) scale(0.1344 -0.1344)">
      <defs>
       <path id="ArialMT-42" d="M 469 0 
L 469 4581 
L 2188 4581 
Q 2713 4581 3030 4442 
Q 3347 4303 3526 4014 
Q 3706 3725 3706 3409 
Q 3706 3116 3547 2856 
Q 3388 2597 3066 2438 
Q 3481 2316 3704 2022 
Q 3928 1728 3928 1328 
Q 3928 1006 3792 729 
Q 3656 453 3456 303 
Q 3256 153 2954 76 
Q 2653 0 2216 0 
L 469 0 
z
M 1075 2656 
L 2066 2656 
Q 2469 2656 2644 2709 
Q 2875 2778 2992 2937 
Q 3109 3097 3109 3338 
Q 3109 3566 3000 3739 
Q 2891 3913 2687 3977 
Q 2484 4041 1991 4041 
L 1075 4041 
L 1075 2656 
z
M 1075 541 
L 2216 541 
Q 2509 541 2628 563 
Q 2838 600 2978 687 
Q 3119 775 3209 942 
Q 3300 1109 3300 1328 
Q 3300 1584 3169 1773 
Q 3038 1963 2805 2039 
Q 2572 2116 2134 2116 
L 1075 2116 
L 1075 541 
z
" transform="scale(0.015625)"/>
       <path id="ArialMT-47" d="M 2638 1797 
L 2638 2334 
L 4578 2338 
L 4578 638 
Q 4131 281 3656 101 
Q 3181 -78 2681 -78 
Q 2006 -78 1454 211 
Q 903 500 622 1047 
Q 341 1594 341 2269 
Q 341 2938 620 3517 
Q 900 4097 1425 4378 
Q 1950 4659 2634 4659 
Q 3131 4659 3532 4498 
Q 3934 4338 4162 4050 
Q 4391 3763 4509 3300 
L 3963 3150 
Q 3859 3500 3706 3700 
Q 3553 3900 3268 4020 
Q 2984 4141 2638 4141 
Q 2222 4141 1919 4014 
Q 1616 3888 1430 3681 
Q 1244 3475 1141 3228 
Q 966 2803 966 2306 
Q 966 1694 1177 1281 
Q 1388 869 1791 669 
Q 2194 469 2647 469 
Q 3041 469 3416 620 
Q 3791 772 3984 944 
L 3984 1797 
L 2638 1797 
z
" transform="scale(0.015625)"/>
       <path id="ArialMT-43" d="M 3763 1606 
L 4369 1453 
Q 4178 706 3683 314 
Q 3188 -78 2472 -78 
Q 1731 -78 1267 223 
Q 803 525 561 1097 
Q 319 1669 319 2325 
Q 319 3041 592 3573 
Q 866 4106 1370 4382 
Q 1875 4659 2481 4659 
Q 3169 4659 3637 4309 
Q 4106 3959 4291 3325 
L 3694 3184 
Q 3534 3684 3231 3912 
Q 2928 4141 2469 4141 
Q 1941 4141 1586 3887 
Q 1231 3634 1087 3207 
Q 944 2781 944 2328 
Q 944 1744 1114 1308 
Q 1284 872 1643 656 
Q 2003 441 2422 441 
Q 2931 441 3284 734 
Q 3638 1028 3763 1606 
z
" transform="scale(0.015625)"/>
       <path id="ArialMT-5f" d="M -97 -1272 
L -97 -866 
L 3631 -866 
L 3631 -1272 
L -97 -1272 
z
" transform="scale(0.015625)"/>
       <path id="ArialMT-6c" d="M 409 0 
L 409 4581 
L 972 4581 
L 972 0 
L 409 0 
z
" transform="scale(0.015625)"/>
       <path id="ArialMT-65" d="M 2694 1069 
L 3275 997 
Q 3138 488 2766 206 
Q 2394 -75 1816 -75 
Q 1088 -75 661 373 
Q 234 822 234 1631 
Q 234 2469 665 2931 
Q 1097 3394 1784 3394 
Q 2450 3394 2872 2941 
Q 3294 2488 3294 1666 
Q 3294 1616 3291 1516 
L 816 1516 
Q 847 969 1125 678 
Q 1403 388 1819 388 
Q 2128 388 2347 550 
Q 2566 713 2694 1069 
z
M 847 1978 
L 2700 1978 
Q 2663 2397 2488 2606 
Q 2219 2931 1791 2931 
Q 1403 2931 1139 2672 
Q 875 2413 847 1978 
z
" transform="scale(0.015625)"/>
       <path id="ArialMT-6e" d="M 422 0 
L 422 3319 
L 928 3319 
L 928 2847 
Q 1294 3394 1984 3394 
Q 2284 3394 2536 3286 
Q 2788 3178 2913 3003 
Q 3038 2828 3088 2588 
Q 3119 2431 3119 2041 
L 3119 0 
L 2556 0 
L 2556 2019 
Q 2556 2363 2490 2533 
Q 2425 2703 2258 2804 
Q 2091 2906 1866 2906 
Q 1506 2906 1245 2678 
Q 984 2450 984 1813 
L 984 0 
L 422 0 
z
" transform="scale(0.015625)"/>
       <path id="ArialMT-67" d="M 319 -275 
L 866 -356 
Q 900 -609 1056 -725 
Q 1266 -881 1628 -881 
Q 2019 -881 2231 -725 
Q 2444 -569 2519 -288 
Q 2563 -116 2559 434 
Q 2191 0 1641 0 
Q 956 0 581 494 
Q 206 988 206 1678 
Q 206 2153 378 2554 
Q 550 2956 876 3175 
Q 1203 3394 1644 3394 
Q 2231 3394 2613 2919 
L 2613 3319 
L 3131 3319 
L 3131 450 
Q 3131 -325 2973 -648 
Q 2816 -972 2473 -1159 
Q 2131 -1347 1631 -1347 
Q 1038 -1347 672 -1080 
Q 306 -813 319 -275 
z
M 784 1719 
Q 784 1066 1043 766 
Q 1303 466 1694 466 
Q 2081 466 2343 764 
Q 2606 1063 2606 1700 
Q 2606 2309 2336 2618 
Q 2066 2928 1684 2928 
Q 1309 2928 1046 2623 
Q 784 2319 784 1719 
z
" transform="scale(0.015625)"/>
       <path id="ArialMT-74" d="M 1650 503 
L 1731 6 
Q 1494 -44 1306 -44 
Q 1000 -44 831 53 
Q 663 150 594 308 
Q 525 466 525 972 
L 525 2881 
L 113 2881 
L 113 3319 
L 525 3319 
L 525 4141 
L 1084 4478 
L 1084 3319 
L 1650 3319 
L 1650 2881 
L 1084 2881 
L 1084 941 
Q 1084 700 1114 631 
Q 1144 563 1211 522 
Q 1278 481 1403 481 
Q 1497 481 1650 503 
z
" transform="scale(0.015625)"/>
       <path id="ArialMT-68" d="M 422 0 
L 422 4581 
L 984 4581 
L 984 2938 
Q 1378 3394 1978 3394 
Q 2347 3394 2619 3248 
Q 2891 3103 3008 2847 
Q 3125 2591 3125 2103 
L 3125 0 
L 2563 0 
L 2563 2103 
Q 2563 2525 2380 2717 
Q 2197 2909 1863 2909 
Q 1613 2909 1392 2779 
Q 1172 2650 1078 2428 
Q 984 2206 984 1816 
L 984 0 
L 422 0 
z
" transform="scale(0.015625)"/>
      </defs>
      <use xlink:href="#ArialMT-42"/>
      <use xlink:href="#ArialMT-47" x="66.699219"/>
      <use xlink:href="#ArialMT-43" x="144.482422"/>
      <use xlink:href="#ArialMT-5f" x="216.699219"/>
      <use xlink:href="#ArialMT-6c" x="272.314453"/>
      <use xlink:href="#ArialMT-65" x="294.53125"/>
      <use xlink:href="#ArialMT-6e" x="350.146484"/>
      <use xlink:href="#ArialMT-67" x="405.761719"/>
      <use xlink:href="#ArialMT-74" x="461.376953"/>
      <use xlink:href="#ArialMT-68" x="489.160156"/>
     </g>
    </g>
   </g>
   <g id="matplotlib.axis_2">
    <g id="ytick_1">
     <g id="text_11">
      <!-- NRP -->
      <g style="fill: #262626" transform="translate(54.31825 76.289212) scale(0.1232 -0.1232)">
       <defs>
        <path id="ArialMT-4e" d="M 488 0 
L 488 4581 
L 1109 4581 
L 3516 984 
L 3516 4581 
L 4097 4581 
L 4097 0 
L 3475 0 
L 1069 3600 
L 1069 0 
L 488 0 
z
" transform="scale(0.015625)"/>
        <path id="ArialMT-52" d="M 503 0 
L 503 4581 
L 2534 4581 
Q 3147 4581 3465 4457 
Q 3784 4334 3975 4021 
Q 4166 3709 4166 3331 
Q 4166 2844 3850 2509 
Q 3534 2175 2875 2084 
Q 3116 1969 3241 1856 
Q 3506 1613 3744 1247 
L 4541 0 
L 3778 0 
L 3172 953 
Q 2906 1366 2734 1584 
Q 2563 1803 2427 1890 
Q 2291 1978 2150 2013 
Q 2047 2034 1813 2034 
L 1109 2034 
L 1109 0 
L 503 0 
z
M 1109 2559 
L 2413 2559 
Q 2828 2559 3062 2645 
Q 3297 2731 3419 2920 
Q 3541 3109 3541 3331 
Q 3541 3656 3305 3865 
Q 3069 4075 2559 4075 
L 1109 4075 
L 1109 2559 
z
" transform="scale(0.015625)"/>
        <path id="ArialMT-50" d="M 494 0 
L 494 4581 
L 2222 4581 
Q 2678 4581 2919 4538 
Q 3256 4481 3484 4323 
Q 3713 4166 3852 3881 
Q 3991 3597 3991 3256 
Q 3991 2672 3619 2267 
Q 3247 1863 2275 1863 
L 1100 1863 
L 1100 0 
L 494 0 
z
M 1100 2403 
L 2284 2403 
Q 2872 2403 3119 2622 
Q 3366 2841 3366 3238 
Q 3366 3525 3220 3729 
Q 3075 3934 2838 4000 
Q 2684 4041 2272 4041 
L 1100 4041 
L 1100 2403 
z
" transform="scale(0.015625)"/>
       </defs>
       <use xlink:href="#ArialMT-4e"/>
       <use xlink:href="#ArialMT-52" x="72.216797"/>
       <use xlink:href="#ArialMT-50" x="144.433594"/>
      </g>
     </g>
    </g>
    <g id="ytick_2">
     <g id="text_12">
      <!-- Polyketide -->
      <g style="fill: #262626" transform="translate(23.4913 205.649212) scale(0.1232 -0.1232)">
       <defs>
        <path id="ArialMT-6f" d="M 213 1659 
Q 213 2581 725 3025 
Q 1153 3394 1769 3394 
Q 2453 3394 2887 2945 
Q 3322 2497 3322 1706 
Q 3322 1066 3130 698 
Q 2938 331 2570 128 
Q 2203 -75 1769 -75 
Q 1072 -75 642 372 
Q 213 819 213 1659 
z
M 791 1659 
Q 791 1022 1069 705 
Q 1347 388 1769 388 
Q 2188 388 2466 706 
Q 2744 1025 2744 1678 
Q 2744 2294 2464 2611 
Q 2184 2928 1769 2928 
Q 1347 2928 1069 2612 
Q 791 2297 791 1659 
z
" transform="scale(0.015625)"/>
        <path id="ArialMT-79" d="M 397 -1278 
L 334 -750 
Q 519 -800 656 -800 
Q 844 -800 956 -737 
Q 1069 -675 1141 -563 
Q 1194 -478 1313 -144 
Q 1328 -97 1363 -6 
L 103 3319 
L 709 3319 
L 1400 1397 
Q 1534 1031 1641 628 
Q 1738 1016 1872 1384 
L 2581 3319 
L 3144 3319 
L 1881 -56 
Q 1678 -603 1566 -809 
Q 1416 -1088 1222 -1217 
Q 1028 -1347 759 -1347 
Q 597 -1347 397 -1278 
z
" transform="scale(0.015625)"/>
        <path id="ArialMT-6b" d="M 425 0 
L 425 4581 
L 988 4581 
L 988 1969 
L 2319 3319 
L 3047 3319 
L 1778 2088 
L 3175 0 
L 2481 0 
L 1384 1697 
L 988 1316 
L 988 0 
L 425 0 
z
" transform="scale(0.015625)"/>
        <path id="ArialMT-69" d="M 425 3934 
L 425 4581 
L 988 4581 
L 988 3934 
L 425 3934 
z
M 425 0 
L 425 3319 
L 988 3319 
L 988 0 
L 425 0 
z
" transform="scale(0.015625)"/>
        <path id="ArialMT-64" d="M 2575 0 
L 2575 419 
Q 2259 -75 1647 -75 
Q 1250 -75 917 144 
Q 584 363 401 755 
Q 219 1147 219 1656 
Q 219 2153 384 2558 
Q 550 2963 881 3178 
Q 1213 3394 1622 3394 
Q 1922 3394 2156 3267 
Q 2391 3141 2538 2938 
L 2538 4581 
L 3097 4581 
L 3097 0 
L 2575 0 
z
M 797 1656 
Q 797 1019 1065 703 
Q 1334 388 1700 388 
Q 2069 388 2326 689 
Q 2584 991 2584 1609 
Q 2584 2291 2321 2609 
Q 2059 2928 1675 2928 
Q 1300 2928 1048 2622 
Q 797 2316 797 1656 
z
" transform="scale(0.015625)"/>
       </defs>
       <use xlink:href="#ArialMT-50"/>
       <use xlink:href="#ArialMT-6f" x="66.699219"/>
       <use xlink:href="#ArialMT-6c" x="122.314453"/>
       <use xlink:href="#ArialMT-79" x="144.53125"/>
       <use xlink:href="#ArialMT-6b" x="194.53125"/>
       <use xlink:href="#ArialMT-65" x="244.53125"/>
       <use xlink:href="#ArialMT-74" x="300.146484"/>
       <use xlink:href="#ArialMT-69" x="327.929688"/>
       <use xlink:href="#ArialMT-64" x="350.146484"/>
       <use xlink:href="#ArialMT-65" x="405.761719"/>
      </g>
     </g>
    </g>
    <g id="ytick_3">
     <g id="text_13">
      <!-- Hybrid -->
      <g style="fill: #262626" transform="translate(44.73175 335.009212) scale(0.1232 -0.1232)">
       <defs>
        <path id="ArialMT-48" d="M 513 0 
L 513 4581 
L 1119 4581 
L 1119 2700 
L 3500 2700 
L 3500 4581 
L 4106 4581 
L 4106 0 
L 3500 0 
L 3500 2159 
L 1119 2159 
L 1119 0 
L 513 0 
z
" transform="scale(0.015625)"/>
        <path id="ArialMT-62" d="M 941 0 
L 419 0 
L 419 4581 
L 981 4581 
L 981 2947 
Q 1338 3394 1891 3394 
Q 2197 3394 2470 3270 
Q 2744 3147 2920 2923 
Q 3097 2700 3197 2384 
Q 3297 2069 3297 1709 
Q 3297 856 2875 390 
Q 2453 -75 1863 -75 
Q 1275 -75 941 416 
L 941 0 
z
M 934 1684 
Q 934 1088 1097 822 
Q 1363 388 1816 388 
Q 2184 388 2453 708 
Q 2722 1028 2722 1663 
Q 2722 2313 2464 2622 
Q 2206 2931 1841 2931 
Q 1472 2931 1203 2611 
Q 934 2291 934 1684 
z
" transform="scale(0.015625)"/>
        <path id="ArialMT-72" d="M 416 0 
L 416 3319 
L 922 3319 
L 922 2816 
Q 1116 3169 1280 3281 
Q 1444 3394 1641 3394 
Q 1925 3394 2219 3213 
L 2025 2691 
Q 1819 2813 1613 2813 
Q 1428 2813 1281 2702 
Q 1134 2591 1072 2394 
Q 978 2094 978 1738 
L 978 0 
L 416 0 
z
" transform="scale(0.015625)"/>
       </defs>
       <use xlink:href="#ArialMT-48"/>
       <use xlink:href="#ArialMT-79" x="72.216797"/>
       <use xlink:href="#ArialMT-62" x="122.216797"/>
       <use xlink:href="#ArialMT-72" x="177.832031"/>
       <use xlink:href="#ArialMT-69" x="211.132812"/>
       <use xlink:href="#ArialMT-64" x="233.349609"/>
      </g>
     </g>
    </g>
    <g id="ytick_4">
     <g id="text_14">
      <!-- Terpene -->
      <g style="fill: #262626" transform="translate(35.819 464.369212) scale(0.1232 -0.1232)">
       <defs>
        <path id="ArialMT-54" d="M 1659 0 
L 1659 4041 
L 150 4041 
L 150 4581 
L 3781 4581 
L 3781 4041 
L 2266 4041 
L 2266 0 
L 1659 0 
z
" transform="scale(0.015625)"/>
        <path id="ArialMT-70" d="M 422 -1272 
L 422 3319 
L 934 3319 
L 934 2888 
Q 1116 3141 1344 3267 
Q 1572 3394 1897 3394 
Q 2322 3394 2647 3175 
Q 2972 2956 3137 2557 
Q 3303 2159 3303 1684 
Q 3303 1175 3120 767 
Q 2938 359 2589 142 
Q 2241 -75 1856 -75 
Q 1575 -75 1351 44 
Q 1128 163 984 344 
L 984 -1272 
L 422 -1272 
z
M 931 1641 
Q 931 1000 1190 694 
Q 1450 388 1819 388 
Q 2194 388 2461 705 
Q 2728 1022 2728 1688 
Q 2728 2322 2467 2637 
Q 2206 2953 1844 2953 
Q 1484 2953 1207 2617 
Q 931 2281 931 1641 
z
" transform="scale(0.015625)"/>
       </defs>
       <use xlink:href="#ArialMT-54"/>
       <use xlink:href="#ArialMT-65" x="49.958984"/>
       <use xlink:href="#ArialMT-72" x="105.574219"/>
       <use xlink:href="#ArialMT-70" x="138.875"/>
       <use xlink:href="#ArialMT-65" x="194.490234"/>
       <use xlink:href="#ArialMT-6e" x="250.105469"/>
       <use xlink:href="#ArialMT-65" x="305.720703"/>
      </g>
     </g>
    </g>
    <g id="ytick_5">
     <g id="text_15">
      <!-- Other -->
      <g style="fill: #262626" transform="translate(49.52115 593.729212) scale(0.1232 -0.1232)">
       <defs>
        <path id="ArialMT-4f" d="M 309 2231 
Q 309 3372 921 4017 
Q 1534 4663 2503 4663 
Q 3138 4663 3647 4359 
Q 4156 4056 4423 3514 
Q 4691 2972 4691 2284 
Q 4691 1588 4409 1038 
Q 4128 488 3612 205 
Q 3097 -78 2500 -78 
Q 1853 -78 1343 234 
Q 834 547 571 1087 
Q 309 1628 309 2231 
z
M 934 2222 
Q 934 1394 1379 917 
Q 1825 441 2497 441 
Q 3181 441 3623 922 
Q 4066 1403 4066 2288 
Q 4066 2847 3877 3264 
Q 3688 3681 3323 3911 
Q 2959 4141 2506 4141 
Q 1863 4141 1398 3698 
Q 934 3256 934 2222 
z
" transform="scale(0.015625)"/>
       </defs>
       <use xlink:href="#ArialMT-4f"/>
       <use xlink:href="#ArialMT-74" x="77.783203"/>
       <use xlink:href="#ArialMT-68" x="105.566406"/>
       <use xlink:href="#ArialMT-65" x="161.181641"/>
       <use xlink:href="#ArialMT-72" x="216.796875"/>
      </g>
     </g>
    </g>
    <g id="ytick_6">
     <g id="text_16">
      <!-- RiPP -->
      <g style="fill: #262626" transform="translate(52.260425 723.089212) scale(0.1232 -0.1232)">
       <use xlink:href="#ArialMT-52"/>
       <use xlink:href="#ArialMT-69" x="72.216797"/>
       <use xlink:href="#ArialMT-50" x="94.433594"/>
       <use xlink:href="#ArialMT-50" x="161.132812"/>
      </g>
     </g>
    </g>
    <g id="text_17">
     <!-- chem_class -->
     <g style="fill: #262626" transform="translate(16.8201 430.75845) rotate(-90) scale(0.1344 -0.1344)">
      <defs>
       <path id="ArialMT-63" d="M 2588 1216 
L 3141 1144 
Q 3050 572 2676 248 
Q 2303 -75 1759 -75 
Q 1078 -75 664 370 
Q 250 816 250 1647 
Q 250 2184 428 2587 
Q 606 2991 970 3192 
Q 1334 3394 1763 3394 
Q 2303 3394 2647 3120 
Q 2991 2847 3088 2344 
L 2541 2259 
Q 2463 2594 2264 2762 
Q 2066 2931 1784 2931 
Q 1359 2931 1093 2626 
Q 828 2322 828 1663 
Q 828 994 1084 691 
Q 1341 388 1753 388 
Q 2084 388 2306 591 
Q 2528 794 2588 1216 
z
" transform="scale(0.015625)"/>
       <path id="ArialMT-6d" d="M 422 0 
L 422 3319 
L 925 3319 
L 925 2853 
Q 1081 3097 1340 3245 
Q 1600 3394 1931 3394 
Q 2300 3394 2536 3241 
Q 2772 3088 2869 2813 
Q 3263 3394 3894 3394 
Q 4388 3394 4653 3120 
Q 4919 2847 4919 2278 
L 4919 0 
L 4359 0 
L 4359 2091 
Q 4359 2428 4304 2576 
Q 4250 2725 4106 2815 
Q 3963 2906 3769 2906 
Q 3419 2906 3187 2673 
Q 2956 2441 2956 1928 
L 2956 0 
L 2394 0 
L 2394 2156 
Q 2394 2531 2256 2718 
Q 2119 2906 1806 2906 
Q 1569 2906 1367 2781 
Q 1166 2656 1075 2415 
Q 984 2175 984 1722 
L 984 0 
L 422 0 
z
" transform="scale(0.015625)"/>
       <path id="ArialMT-61" d="M 2588 409 
Q 2275 144 1986 34 
Q 1697 -75 1366 -75 
Q 819 -75 525 192 
Q 231 459 231 875 
Q 231 1119 342 1320 
Q 453 1522 633 1644 
Q 813 1766 1038 1828 
Q 1203 1872 1538 1913 
Q 2219 1994 2541 2106 
Q 2544 2222 2544 2253 
Q 2544 2597 2384 2738 
Q 2169 2928 1744 2928 
Q 1347 2928 1158 2789 
Q 969 2650 878 2297 
L 328 2372 
Q 403 2725 575 2942 
Q 747 3159 1072 3276 
Q 1397 3394 1825 3394 
Q 2250 3394 2515 3294 
Q 2781 3194 2906 3042 
Q 3031 2891 3081 2659 
Q 3109 2516 3109 2141 
L 3109 1391 
Q 3109 606 3145 398 
Q 3181 191 3288 0 
L 2700 0 
Q 2613 175 2588 409 
z
M 2541 1666 
Q 2234 1541 1622 1453 
Q 1275 1403 1131 1340 
Q 988 1278 909 1158 
Q 831 1038 831 891 
Q 831 666 1001 516 
Q 1172 366 1500 366 
Q 1825 366 2078 508 
Q 2331 650 2450 897 
Q 2541 1088 2541 1459 
L 2541 1666 
z
" transform="scale(0.015625)"/>
       <path id="ArialMT-73" d="M 197 991 
L 753 1078 
Q 800 744 1014 566 
Q 1228 388 1613 388 
Q 2000 388 2187 545 
Q 2375 703 2375 916 
Q 2375 1106 2209 1216 
Q 2094 1291 1634 1406 
Q 1016 1563 777 1677 
Q 538 1791 414 1992 
Q 291 2194 291 2438 
Q 291 2659 392 2848 
Q 494 3038 669 3163 
Q 800 3259 1026 3326 
Q 1253 3394 1513 3394 
Q 1903 3394 2198 3281 
Q 2494 3169 2634 2976 
Q 2775 2784 2828 2463 
L 2278 2388 
Q 2241 2644 2061 2787 
Q 1881 2931 1553 2931 
Q 1166 2931 1000 2803 
Q 834 2675 834 2503 
Q 834 2394 903 2306 
Q 972 2216 1119 2156 
Q 1203 2125 1616 2013 
Q 2213 1853 2448 1751 
Q 2684 1650 2818 1456 
Q 2953 1263 2953 975 
Q 2953 694 2789 445 
Q 2625 197 2315 61 
Q 2006 -75 1616 -75 
Q 969 -75 630 194 
Q 291 463 197 991 
z
" transform="scale(0.015625)"/>
      </defs>
      <use xlink:href="#ArialMT-63"/>
      <use xlink:href="#ArialMT-68" x="50"/>
      <use xlink:href="#ArialMT-65" x="105.615234"/>
      <use xlink:href="#ArialMT-6d" x="161.230469"/>
      <use xlink:href="#ArialMT-5f" x="244.53125"/>
      <use xlink:href="#ArialMT-63" x="300.146484"/>
      <use xlink:href="#ArialMT-6c" x="350.146484"/>
      <use xlink:href="#ArialMT-61" x="372.363281"/>
      <use xlink:href="#ArialMT-73" x="427.978516"/>
      <use xlink:href="#ArialMT-73" x="477.978516"/>
     </g>
    </g>
   </g>
   <g id="PolyCollection_1">
    <defs>
     <path id="m1851aeea84" d="M 124.670464 -753.322732 
L 124.670464 -756.396518 
L 127.525116 -758.021957 
L 130.379767 -760.741014 
L 133.234419 -764.77066 
L 136.089071 -770.039695 
L 138.943722 -776.075852 
L 141.798374 -782.055276 
L 144.653025 -787.036071 
L 147.507677 -790.275744 
L 150.362329 -791.465368 
L 153.21698 -790.764075 
L 156.071632 -788.647097 
L 158.926283 -785.683991 
L 161.780935 -782.370001 
L 164.635587 -779.061784 
L 167.490238 -775.991332 
L 170.34489 -773.301819 
L 173.199541 -771.067559 
L 176.054193 -769.295358 
L 178.908845 -767.925995 
L 181.763496 -766.852202 
L 184.618148 -765.952601 
L 187.472799 -765.126735 
L 190.327451 -764.315564 
L 193.182103 -763.502634 
L 196.036754 -762.702349 
L 198.891406 -761.944805 
L 201.746058 -761.262526 
L 204.600709 -760.680175 
L 207.455361 -760.207712 
L 210.310012 -759.83847 
L 213.164664 -759.552642 
L 216.019316 -759.324377 
L 218.873967 -759.129407 
L 221.728619 -758.950476 
L 224.58327 -758.778723 
L 227.437922 -758.610629 
L 230.292574 -758.442753 
L 233.147225 -758.268582 
L 236.001877 -758.080583 
L 238.856528 -757.876074 
L 241.71118 -757.662047 
L 244.565832 -757.454803 
L 247.420483 -757.274316 
L 250.275135 -757.136546 
L 253.129786 -757.047257 
L 255.984438 -756.999291 
L 258.83909 -756.973944 
L 261.693741 -756.946563 
L 264.548393 -756.895569 
L 267.403044 -756.812212 
L 270.257696 -756.706807 
L 273.112348 -756.607853 
L 275.966999 -756.553269 
L 278.821651 -756.576032 
L 281.676303 -756.688768 
L 284.530954 -756.873167 
L 287.385606 -757.080281 
L 290.240257 -757.244639 
L 293.094909 -757.308203 
L 295.949561 -757.243048 
L 298.804212 -757.060712 
L 301.658864 -756.80358 
L 304.513515 -756.524445 
L 307.368167 -756.266265 
L 310.222819 -756.051601 
L 313.07747 -755.883695 
L 315.932122 -755.75468 
L 318.786773 -755.654477 
L 321.641425 -755.57593 
L 324.496077 -755.515373 
L 327.350728 -755.470508 
L 330.20538 -755.438163 
L 333.060031 -755.41342 
L 335.914683 -755.390178 
L 338.769335 -755.362533 
L 341.623986 -755.326293 
L 344.478638 -755.280059 
L 347.333289 -755.225431 
L 350.187941 -755.166251 
L 353.042593 -755.10732 
L 355.897244 -755.053185 
L 358.751896 -755.007238 
L 361.606548 -754.971126 
L 364.461199 -754.944545 
L 367.315851 -754.925655 
L 370.170502 -754.912131 
L 373.025154 -754.902292 
L 375.879806 -754.895597 
L 378.734457 -754.892214 
L 381.589109 -754.892063 
L 384.44376 -754.894093 
L 387.298412 -754.896351 
L 390.153064 -754.896774 
L 393.007715 -754.894158 
L 395.862367 -754.888662 
L 398.717018 -754.881552 
L 401.57167 -754.87445 
L 404.426322 -754.868587 
L 407.280973 -754.864466 
L 407.280973 -754.854784 
L 407.280973 -754.854784 
L 404.426322 -754.850663 
L 401.57167 -754.8448 
L 398.717018 -754.837698 
L 395.862367 -754.830588 
L 393.007715 -754.825092 
L 390.153064 -754.822476 
L 387.298412 -754.822899 
L 384.44376 -754.825157 
L 381.589109 -754.827187 
L 378.734457 -754.827036 
L 375.879806 -754.823653 
L 373.025154 -754.816958 
L 370.170502 -754.807119 
L 367.315851 -754.793595 
L 364.461199 -754.774705 
L 361.606548 -754.748124 
L 358.751896 -754.712012 
L 355.897244 -754.666065 
L 353.042593 -754.61193 
L 350.187941 -754.552999 
L 347.333289 -754.493819 
L 344.478638 -754.439191 
L 341.623986 -754.392957 
L 338.769335 -754.356717 
L 335.914683 -754.329072 
L 333.060031 -754.30583 
L 330.20538 -754.281087 
L 327.350728 -754.248742 
L 324.496077 -754.203877 
L 321.641425 -754.14332 
L 318.786773 -754.064773 
L 315.932122 -753.96457 
L 313.07747 -753.835555 
L 310.222819 -753.667649 
L 307.368167 -753.452985 
L 304.513515 -753.194805 
L 301.658864 -752.91567 
L 298.804212 -752.658538 
L 295.949561 -752.476202 
L 293.094909 -752.411047 
L 290.240257 -752.474611 
L 287.385606 -752.638969 
L 284.530954 -752.846083 
L 281.676303 -753.030482 
L 278.821651 -753.143218 
L 275.966999 -753.165981 
L 273.112348 -753.111397 
L 270.257696 -753.012443 
L 267.403044 -752.907038 
L 264.548393 -752.823681 
L 261.693741 -752.772687 
L 258.83909 -752.745306 
L 255.984438 -752.719959 
L 253.129786 -752.671993 
L 250.275135 -752.582704 
L 247.420483 -752.444934 
L 244.565832 -752.264447 
L 241.71118 -752.057203 
L 238.856528 -751.843176 
L 236.001877 -751.638667 
L 233.147225 -751.450668 
L 230.292574 -751.276497 
L 227.437922 -751.108621 
L 224.58327 -750.940527 
L 221.728619 -750.768774 
L 218.873967 -750.589843 
L 216.019316 -750.394873 
L 213.164664 -750.166608 
L 210.310012 -749.88078 
L 207.455361 -749.511538 
L 204.600709 -749.039075 
L 201.746058 -748.456724 
L 198.891406 -747.774445 
L 196.036754 -747.016901 
L 193.182103 -746.216616 
L 190.327451 -745.403686 
L 187.472799 -744.592515 
L 184.618148 -743.766649 
L 181.763496 -742.867048 
L 178.908845 -741.793255 
L 176.054193 -740.423892 
L 173.199541 -738.651691 
L 170.34489 -736.417431 
L 167.490238 -733.727918 
L 164.635587 -730.657466 
L 161.780935 -727.349249 
L 158.926283 -724.035259 
L 156.071632 -721.072153 
L 153.21698 -718.955175 
L 150.362329 -718.253882 
L 147.507677 -719.443506 
L 144.653025 -722.683179 
L 141.798374 -727.663974 
L 138.943722 -733.643398 
L 136.089071 -739.679555 
L 133.234419 -744.94859 
L 130.379767 -748.978236 
L 127.525116 -751.697293 
L 124.670464 -753.322732 
z
" style="stroke: #353535; stroke-width: 1.2"/>
    </defs>
    <g clip-path="url(#p7339f9dda5)">
     <use xlink:href="#m1851aeea84" x="0" y="826.739625" style="fill: #4b3b75; stroke: #353535; stroke-width: 1.2"/>
    </g>
   </g>
   <g id="PolyCollection_2">
    <defs>
     <path id="m23954ac597" d="M 128.600684 -624.551741 
L 128.600684 -626.447509 
L 130.982141 -627.640514 
L 133.363599 -629.832037 
L 135.745056 -633.395581 
L 138.126514 -638.541177 
L 140.507971 -645.161792 
L 142.889428 -652.769751 
L 145.270886 -660.560933 
L 147.652343 -667.572203 
L 150.033801 -672.872072 
L 152.415258 -675.752148 
L 154.796716 -675.900802 
L 157.178173 -673.506003 
L 159.55963 -669.211301 
L 161.941088 -663.906721 
L 164.322545 -658.443233 
L 166.704003 -653.412092 
L 169.08546 -649.078407 
L 171.466918 -645.455175 
L 173.848375 -642.436159 
L 176.229832 -639.907298 
L 178.61129 -637.798775 
L 180.992747 -636.081352 
L 183.374205 -634.732753 
L 185.755662 -633.70532 
L 188.13712 -632.918412 
L 190.518577 -632.279271 
L 192.900034 -631.714503 
L 195.281492 -631.188231 
L 197.662949 -630.697426 
L 200.044407 -630.254588 
L 202.425864 -629.873571 
L 204.807322 -629.564456 
L 207.188779 -629.332417 
L 209.570236 -629.174959 
L 211.951694 -629.078422 
L 214.333151 -629.018194 
L 216.714609 -628.964216 
L 219.096066 -628.888887 
L 221.477524 -628.773353 
L 223.858981 -628.610587 
L 226.240438 -628.40623 
L 228.621896 -628.177951 
L 231.003353 -627.951862 
L 233.384811 -627.754391 
L 235.766268 -627.60179 
L 238.147726 -627.493256 
L 240.529183 -627.412368 
L 242.91064 -627.336124 
L 245.292098 -627.246424 
L 247.673555 -627.138236 
L 250.055013 -627.020743 
L 252.43647 -626.911345 
L 254.817928 -626.826324 
L 257.199385 -626.773876 
L 259.580842 -626.752831 
L 261.9623 -626.755732 
L 264.343757 -626.772549 
L 266.725215 -626.792698 
L 269.106672 -626.80573 
L 271.48813 -626.802052 
L 273.869587 -626.774398 
L 276.251044 -626.719918 
L 278.632502 -626.642101 
L 281.013959 -626.551097 
L 283.395417 -626.461214 
L 285.776874 -626.386335 
L 288.158332 -626.336323 
L 290.539789 -626.316918 
L 292.921246 -626.331874 
L 295.302704 -626.383241 
L 297.684161 -626.467623 
L 300.065619 -626.571098 
L 302.447076 -626.668067 
L 304.828534 -626.726831 
L 307.209991 -626.720215 
L 309.591448 -626.636379 
L 311.972906 -626.48449 
L 314.354363 -626.291748 
L 316.735821 -626.092549 
L 319.117278 -625.915491 
L 321.498736 -625.775466 
L 323.880193 -625.674016 
L 326.26165 -625.605146 
L 328.643108 -625.561282 
L 331.024565 -625.536292 
L 333.406023 -625.525842 
L 335.78748 -625.526667 
L 338.168938 -625.535741 
L 340.550395 -625.549667 
L 342.931852 -625.564487 
L 345.31331 -625.576118 
L 347.694767 -625.581286 
L 350.076225 -625.578492 
L 352.457682 -625.568455 
L 354.83914 -625.553769 
L 357.220597 -625.537873 
L 359.602054 -625.523785 
L 361.983512 -625.513214 
L 364.364969 -625.506406 
L 364.364969 -625.492844 
L 364.364969 -625.492844 
L 361.983512 -625.486036 
L 359.602054 -625.475465 
L 357.220597 -625.461377 
L 354.83914 -625.445481 
L 352.457682 -625.430795 
L 350.076225 -625.420758 
L 347.694767 -625.417964 
L 345.31331 -625.423132 
L 342.931852 -625.434763 
L 340.550395 -625.449583 
L 338.168938 -625.463509 
L 335.78748 -625.472583 
L 333.406023 -625.473408 
L 331.024565 -625.462958 
L 328.643108 -625.437968 
L 326.26165 -625.394104 
L 323.880193 -625.325234 
L 321.498736 -625.223784 
L 319.117278 -625.083759 
L 316.735821 -624.906701 
L 314.354363 -624.707502 
L 311.972906 -624.51476 
L 309.591448 -624.362871 
L 307.209991 -624.279035 
L 304.828534 -624.272419 
L 302.447076 -624.331183 
L 300.065619 -624.428152 
L 297.684161 -624.531627 
L 295.302704 -624.616009 
L 292.921246 -624.667376 
L 290.539789 -624.682332 
L 288.158332 -624.662927 
L 285.776874 -624.612915 
L 283.395417 -624.538036 
L 281.013959 -624.448153 
L 278.632502 -624.357149 
L 276.251044 -624.279332 
L 273.869587 -624.224852 
L 271.48813 -624.197198 
L 269.106672 -624.19352 
L 266.725215 -624.206552 
L 264.343757 -624.226701 
L 261.9623 -624.243518 
L 259.580842 -624.246419 
L 257.199385 -624.225374 
L 254.817928 -624.172926 
L 252.43647 -624.087905 
L 250.055013 -623.978507 
L 247.673555 -623.861014 
L 245.292098 -623.752826 
L 242.91064 -623.663126 
L 240.529183 -623.586882 
L 238.147726 -623.505994 
L 235.766268 -623.39746 
L 233.384811 -623.244859 
L 231.003353 -623.047388 
L 228.621896 -622.821299 
L 226.240438 -622.59302 
L 223.858981 -622.388663 
L 221.477524 -622.225897 
L 219.096066 -622.110363 
L 216.714609 -622.035034 
L 214.333151 -621.981056 
L 211.951694 -621.920828 
L 209.570236 -621.824291 
L 207.188779 -621.666833 
L 204.807322 -621.434794 
L 202.425864 -621.125679 
L 200.044407 -620.744662 
L 197.662949 -620.301824 
L 195.281492 -619.811019 
L 192.900034 -619.284747 
L 190.518577 -618.719979 
L 188.13712 -618.080838 
L 185.755662 -617.29393 
L 183.374205 -616.266497 
L 180.992747 -614.917898 
L 178.61129 -613.200475 
L 176.229832 -611.091952 
L 173.848375 -608.563091 
L 171.466918 -605.544075 
L 169.08546 -601.920843 
L 166.704003 -597.587158 
L 164.322545 -592.556017 
L 161.941088 -587.092529 
L 159.55963 -581.787949 
L 157.178173 -577.493247 
L 154.796716 -575.098448 
L 152.415258 -575.247102 
L 150.033801 -578.127178 
L 147.652343 -583.427047 
L 145.270886 -590.438317 
L 142.889428 -598.229499 
L 140.507971 -605.837458 
L 138.126514 -612.458073 
L 135.745056 -617.603669 
L 133.363599 -621.167213 
L 130.982141 -623.358736 
L 128.600684 -624.551741 
z
" style="stroke: #353535; stroke-width: 1.2"/>
    </defs>
    <g clip-path="url(#p7339f9dda5)">
     <use xlink:href="#m23954ac597" x="0" y="826.739625" style="fill: #415d82; stroke: #353535; stroke-width: 1.2"/>
    </g>
   </g>
   <g id="PolyCollection_3">
    <defs>
     <path id="m5cb8bb5ea5" d="M 119.067139 -496.064648 
L 119.067139 -496.214602 
L 125.215899 -496.385479 
L 131.364659 -496.828445 
L 137.51342 -497.827619 
L 143.66218 -499.813343 
L 149.81094 -503.255991 
L 155.959701 -508.29503 
L 162.108461 -514.202678 
L 168.257221 -519.273646 
L 174.405982 -521.681004 
L 180.554742 -520.7551 
L 186.703502 -517.396441 
L 192.852263 -513.277528 
L 199.001023 -509.767735 
L 205.149783 -507.412294 
L 211.298544 -506.028209 
L 217.447304 -505.127935 
L 223.596064 -504.318123 
L 229.744825 -503.437157 
L 235.893585 -502.489457 
L 242.042345 -501.553736 
L 248.191106 -500.728562 
L 254.339866 -500.103042 
L 260.488626 -499.729896 
L 266.637387 -499.580451 
L 272.786147 -499.527049 
L 278.934907 -499.42288 
L 285.083668 -499.224337 
L 291.232428 -499.012254 
L 297.381188 -498.890907 
L 303.529949 -498.898219 
L 309.678709 -499.001623 
L 315.827469 -499.109904 
L 321.97623 -499.078826 
L 328.12499 -498.791019 
L 334.27375 -498.269756 
L 340.422511 -497.671421 
L 346.571271 -497.16657 
L 352.720031 -496.859 
L 358.868792 -496.772603 
L 365.017552 -496.844302 
L 371.166312 -496.939464 
L 377.315073 -496.931194 
L 383.463833 -496.79035 
L 389.612593 -496.595557 
L 395.761354 -496.45802 
L 401.910114 -496.437856 
L 408.058874 -496.512618 
L 414.207635 -496.601185 
L 420.356395 -496.620659 
L 426.505155 -496.543116 
L 432.653915 -496.408333 
L 438.802676 -496.280718 
L 444.951436 -496.197737 
L 451.100196 -496.158322 
L 457.248957 -496.144309 
L 463.397717 -496.140536 
L 469.546477 -496.139762 
L 475.695238 -496.139641 
L 481.843998 -496.139626 
L 487.992758 -496.139625 
L 494.141519 -496.139625 
L 500.290279 -496.139625 
L 506.439039 -496.139625 
L 512.5878 -496.139625 
L 518.73656 -496.139625 
L 524.88532 -496.139625 
L 531.034081 -496.139625 
L 537.182841 -496.139625 
L 543.331601 -496.139625 
L 549.480362 -496.139625 
L 555.629122 -496.139625 
L 561.777882 -496.139625 
L 567.926643 -496.139625 
L 574.075403 -496.139625 
L 580.224163 -496.139625 
L 586.372924 -496.139625 
L 592.521684 -496.139625 
L 598.670444 -496.139625 
L 604.819205 -496.139625 
L 610.967965 -496.139625 
L 617.116725 -496.139625 
L 623.265486 -496.139625 
L 629.414246 -496.139625 
L 635.563006 -496.139625 
L 641.711767 -496.139625 
L 647.860527 -496.139629 
L 654.009287 -496.139659 
L 660.158048 -496.139873 
L 666.306808 -496.141007 
L 672.455568 -496.145552 
L 678.604329 -496.159204 
L 684.753089 -496.18946 
L 690.901849 -496.23736 
L 697.05061 -496.287307 
L 703.19937 -496.311561 
L 709.34813 -496.293856 
L 715.496891 -496.246221 
L 721.645651 -496.196389 
L 727.794411 -496.162915 
L 727.794411 -496.116335 
L 727.794411 -496.116335 
L 721.645651 -496.082861 
L 715.496891 -496.033029 
L 709.34813 -495.985394 
L 703.19937 -495.967689 
L 697.05061 -495.991943 
L 690.901849 -496.04189 
L 684.753089 -496.08979 
L 678.604329 -496.120046 
L 672.455568 -496.133698 
L 666.306808 -496.138243 
L 660.158048 -496.139377 
L 654.009287 -496.139591 
L 647.860527 -496.139621 
L 641.711767 -496.139625 
L 635.563006 -496.139625 
L 629.414246 -496.139625 
L 623.265486 -496.139625 
L 617.116725 -496.139625 
L 610.967965 -496.139625 
L 604.819205 -496.139625 
L 598.670444 -496.139625 
L 592.521684 -496.139625 
L 586.372924 -496.139625 
L 580.224163 -496.139625 
L 574.075403 -496.139625 
L 567.926643 -496.139625 
L 561.777882 -496.139625 
L 555.629122 -496.139625 
L 549.480362 -496.139625 
L 543.331601 -496.139625 
L 537.182841 -496.139625 
L 531.034081 -496.139625 
L 524.88532 -496.139625 
L 518.73656 -496.139625 
L 512.5878 -496.139625 
L 506.439039 -496.139625 
L 500.290279 -496.139625 
L 494.141519 -496.139625 
L 487.992758 -496.139625 
L 481.843998 -496.139624 
L 475.695238 -496.139609 
L 469.546477 -496.139488 
L 463.397717 -496.138714 
L 457.248957 -496.134941 
L 451.100196 -496.120928 
L 444.951436 -496.081513 
L 438.802676 -495.998532 
L 432.653915 -495.870917 
L 426.505155 -495.736134 
L 420.356395 -495.658591 
L 414.207635 -495.678065 
L 408.058874 -495.766632 
L 401.910114 -495.841394 
L 395.761354 -495.82123 
L 389.612593 -495.683693 
L 383.463833 -495.4889 
L 377.315073 -495.348056 
L 371.166312 -495.339786 
L 365.017552 -495.434948 
L 358.868792 -495.506647 
L 352.720031 -495.42025 
L 346.571271 -495.11268 
L 340.422511 -494.607829 
L 334.27375 -494.009494 
L 328.12499 -493.488231 
L 321.97623 -493.200424 
L 315.827469 -493.169346 
L 309.678709 -493.277627 
L 303.529949 -493.381031 
L 297.381188 -493.388343 
L 291.232428 -493.266996 
L 285.083668 -493.054913 
L 278.934907 -492.85637 
L 272.786147 -492.752201 
L 266.637387 -492.698799 
L 260.488626 -492.549354 
L 254.339866 -492.176208 
L 248.191106 -491.550688 
L 242.042345 -490.725514 
L 235.893585 -489.789793 
L 229.744825 -488.842093 
L 223.596064 -487.961127 
L 217.447304 -487.151315 
L 211.298544 -486.251041 
L 205.149783 -484.866956 
L 199.001023 -482.511515 
L 192.852263 -479.001722 
L 186.703502 -474.882809 
L 180.554742 -471.52415 
L 174.405982 -470.598246 
L 168.257221 -473.005604 
L 162.108461 -478.076572 
L 155.959701 -483.98422 
L 149.81094 -489.023259 
L 143.66218 -492.465907 
L 137.51342 -494.451631 
L 131.364659 -495.450805 
L 125.215899 -495.893771 
L 119.067139 -496.064648 
z
" style="stroke: #353535; stroke-width: 1.2"/>
    </defs>
    <g clip-path="url(#p7339f9dda5)">
     <use xlink:href="#m5cb8bb5ea5" x="0" y="826.739625" style="fill: #347681; stroke: #353535; stroke-width: 1.2"/>
    </g>
   </g>
   <g id="PolyCollection_4">
    <defs>
     <path id="me32bc5169e" d="M 133.270004 -365.735662 
L 133.270004 -367.823588 
L 134.152155 -368.453966 
L 135.034307 -369.364339 
L 135.916459 -370.622744 
L 136.79861 -372.287563 
L 137.680762 -374.395193 
L 138.562913 -376.947847 
L 139.445065 -379.904365 
L 140.327216 -383.176847 
L 141.209368 -386.634967 
L 142.091519 -390.118268 
L 142.973671 -393.454812 
L 143.855822 -396.483053 
L 144.737974 -399.072944 
L 145.620125 -401.142438 
L 146.502277 -402.666411 
L 147.384428 -403.676431 
L 148.26658 -404.25141 
L 149.148731 -404.500733 
L 150.030883 -404.542921 
L 150.913034 -404.483924 
L 151.795186 -404.39955 
L 152.677337 -404.32587 
L 153.559489 -404.259713 
L 154.44164 -404.168742 
L 155.323792 -404.008006 
L 156.205943 -403.738019 
L 157.088095 -403.339224 
L 157.970246 -402.819093 
L 158.852398 -402.210612 
L 159.734549 -401.56354 
L 160.616701 -400.931609 
L 161.498852 -400.359422 
L 162.381004 -399.872145 
L 163.263155 -399.469904 
L 164.145307 -399.127476 
L 165.027459 -398.798909 
L 165.90961 -398.426075 
L 166.791762 -397.949708 
L 167.673913 -397.321124 
L 168.556065 -396.512492 
L 169.438216 -395.523541 
L 170.320368 -394.382981 
L 171.202519 -393.143959 
L 172.084671 -391.874217 
L 172.966822 -390.642982 
L 173.848974 -389.507619 
L 174.731125 -388.503208 
L 175.613277 -387.637533 
L 176.495428 -386.892516 
L 177.37758 -386.231382 
L 178.259731 -385.609363 
L 179.141883 -384.984886 
L 180.024034 -384.328331 
L 180.906186 -383.626439 
L 181.788337 -382.881911 
L 182.670489 -382.10918 
L 183.55264 -381.328302 
L 184.434792 -380.55905 
L 185.316943 -379.816802 
L 186.199095 -379.110852 
L 187.081246 -378.444926 
L 187.963398 -377.819054 
L 188.845549 -377.231926 
L 189.727701 -376.683071 
L 190.609852 -376.174638 
L 191.492004 -375.712907 
L 192.374155 -375.309748 
L 193.256307 -374.984155 
L 194.138458 -374.763666 
L 195.02061 -374.685167 
L 195.902762 -374.794274 
L 196.784913 -375.142384 
L 197.667065 -375.780645 
L 198.549216 -376.750664 
L 199.431368 -378.072612 
L 200.313519 -379.732572 
L 201.195671 -381.671976 
L 202.077822 -383.78254 
L 202.959974 -385.90969 
L 203.842125 -387.865993 
L 204.724277 -389.453745 
L 205.606428 -390.493202 
L 206.48858 -390.850907 
L 207.370731 -390.461907 
L 208.252883 -389.340719 
L 209.135034 -387.578521 
L 210.017186 -385.327375 
L 210.899337 -382.775339 
L 211.781489 -380.118131 
L 212.66364 -377.533188 
L 213.545792 -375.160639 
L 214.427943 -373.093465 
L 215.310095 -371.376748 
L 216.192246 -370.014078 
L 217.074398 -368.978222 
L 217.956549 -368.223097 
L 218.838701 -367.694704 
L 219.720852 -367.339575 
L 220.603004 -367.110238 
L 220.603004 -366.449012 
L 220.603004 -366.449012 
L 219.720852 -366.219675 
L 218.838701 -365.864546 
L 217.956549 -365.336153 
L 217.074398 -364.581028 
L 216.192246 -363.545172 
L 215.310095 -362.182502 
L 214.427943 -360.465785 
L 213.545792 -358.398611 
L 212.66364 -356.026062 
L 211.781489 -353.441119 
L 210.899337 -350.783911 
L 210.017186 -348.231875 
L 209.135034 -345.980729 
L 208.252883 -344.218531 
L 207.370731 -343.097343 
L 206.48858 -342.708343 
L 205.606428 -343.066048 
L 204.724277 -344.105505 
L 203.842125 -345.693257 
L 202.959974 -347.64956 
L 202.077822 -349.77671 
L 201.195671 -351.887274 
L 200.313519 -353.826678 
L 199.431368 -355.486638 
L 198.549216 -356.808586 
L 197.667065 -357.778605 
L 196.784913 -358.416866 
L 195.902762 -358.764976 
L 195.02061 -358.874083 
L 194.138458 -358.795584 
L 193.256307 -358.575095 
L 192.374155 -358.249502 
L 191.492004 -357.846343 
L 190.609852 -357.384612 
L 189.727701 -356.876179 
L 188.845549 -356.327324 
L 187.963398 -355.740196 
L 187.081246 -355.114324 
L 186.199095 -354.448398 
L 185.316943 -353.742448 
L 184.434792 -353.0002 
L 183.55264 -352.230948 
L 182.670489 -351.45007 
L 181.788337 -350.677339 
L 180.906186 -349.932811 
L 180.024034 -349.230919 
L 179.141883 -348.574364 
L 178.259731 -347.949887 
L 177.37758 -347.327868 
L 176.495428 -346.666734 
L 175.613277 -345.921717 
L 174.731125 -345.056042 
L 173.848974 -344.051631 
L 172.966822 -342.916268 
L 172.084671 -341.685033 
L 171.202519 -340.415291 
L 170.320368 -339.176269 
L 169.438216 -338.035709 
L 168.556065 -337.046758 
L 167.673913 -336.238126 
L 166.791762 -335.609542 
L 165.90961 -335.133175 
L 165.027459 -334.760341 
L 164.145307 -334.431774 
L 163.263155 -334.089346 
L 162.381004 -333.687105 
L 161.498852 -333.199828 
L 160.616701 -332.627641 
L 159.734549 -331.99571 
L 158.852398 -331.348638 
L 157.970246 -330.740157 
L 157.088095 -330.220026 
L 156.205943 -329.821231 
L 155.323792 -329.551244 
L 154.44164 -329.390508 
L 153.559489 -329.299537 
L 152.677337 -329.23338 
L 151.795186 -329.1597 
L 150.913034 -329.075326 
L 150.030883 -329.016329 
L 149.148731 -329.058517 
L 148.26658 -329.30784 
L 147.384428 -329.882819 
L 146.502277 -330.892839 
L 145.620125 -332.416812 
L 144.737974 -334.486306 
L 143.855822 -337.076197 
L 142.973671 -340.104438 
L 142.091519 -343.440982 
L 141.209368 -346.924283 
L 140.327216 -350.382403 
L 139.445065 -353.654885 
L 138.562913 -356.611403 
L 137.680762 -359.164057 
L 136.79861 -361.271687 
L 135.916459 -362.936506 
L 135.034307 -364.194911 
L 134.152155 -365.105284 
L 133.270004 -365.735662 
z
" style="stroke: #353535; stroke-width: 1.2"/>
    </defs>
    <g clip-path="url(#p7339f9dda5)">
     <use xlink:href="#me32bc5169e" x="0" y="826.739625" style="fill: #2f917e; stroke: #353535; stroke-width: 1.2"/>
    </g>
   </g>
   <g id="PolyCollection_5">
    <defs>
     <path id="mc7411fce5c" d="M 133.327382 -236.159502 
L 133.327382 -238.679748 
L 134.929169 -240.343745 
L 136.530956 -243.417074 
L 138.132742 -248.350508 
L 139.734529 -255.240982 
L 141.336316 -263.615076 
L 142.938103 -272.437774 
L 144.53989 -280.379414 
L 146.141676 -286.212492 
L 147.743463 -289.163625 
L 149.34525 -289.105592 
L 150.947037 -286.538736 
L 152.548824 -282.371189 
L 154.15061 -277.60674 
L 155.752397 -273.112926 
L 157.354184 -269.557282 
L 158.955971 -267.435666 
L 160.557758 -267.058427 
L 162.159544 -268.447291 
L 163.761331 -271.208451 
L 165.363118 -274.505961 
L 166.964905 -277.249536 
L 168.566692 -278.487216 
L 170.168478 -277.786996 
L 171.770265 -275.326971 
L 173.372052 -271.649782 
L 174.973839 -267.340584 
L 176.575626 -262.881794 
L 178.177412 -258.656864 
L 179.779199 -254.926078 
L 181.380986 -251.747362 
L 182.982773 -248.981262 
L 184.58456 -246.444074 
L 186.186347 -244.086835 
L 187.788133 -242.045412 
L 189.38992 -240.546704 
L 190.991707 -239.774309 
L 192.593494 -239.779229 
L 194.195281 -240.44199 
L 195.797067 -241.469494 
L 197.398854 -242.447083 
L 199.000641 -242.974235 
L 200.602428 -242.844033 
L 202.204215 -242.152367 
L 203.806001 -241.244778 
L 205.407788 -240.52543 
L 207.009575 -240.2534 
L 208.611362 -240.447649 
L 210.213149 -240.933116 
L 211.814935 -241.467674 
L 213.416722 -241.855472 
L 215.018509 -241.990717 
L 216.620296 -241.847902 
L 218.222083 -241.466953 
L 219.823869 -240.945286 
L 221.425656 -240.40645 
L 223.027443 -239.938059 
L 224.62923 -239.547538 
L 226.231017 -239.182909 
L 227.832803 -238.798933 
L 229.43459 -238.402796 
L 231.036377 -238.043097 
L 232.638164 -237.766556 
L 234.239951 -237.587798 
L 235.841737 -237.490381 
L 237.443524 -237.445416 
L 239.045311 -237.427763 
L 240.647098 -237.421847 
L 242.248885 -237.42015 
L 243.850672 -237.419732 
L 245.452458 -237.419644 
L 247.054245 -237.419628 
L 248.656032 -237.419625 
L 250.257819 -237.419625 
L 251.859606 -237.419625 
L 253.461392 -237.419625 
L 255.063179 -237.419625 
L 256.664966 -237.419625 
L 258.266753 -237.419625 
L 259.86854 -237.419625 
L 261.470326 -237.419627 
L 263.072113 -237.419636 
L 264.6739 -237.419689 
L 266.275687 -237.41995 
L 267.877474 -237.421066 
L 269.47926 -237.425146 
L 271.081047 -237.437914 
L 272.682834 -237.472025 
L 274.284621 -237.549469 
L 275.886408 -237.697895 
L 277.488194 -237.935405 
L 279.089981 -238.246455 
L 280.691768 -238.565988 
L 282.293555 -238.794241 
L 283.895342 -238.845214 
L 285.497128 -238.698302 
L 287.098915 -238.411554 
L 288.700702 -238.085135 
L 290.302489 -237.805798 
L 291.904276 -237.613429 
L 291.904276 -237.225821 
L 291.904276 -237.225821 
L 290.302489 -237.033452 
L 288.700702 -236.754115 
L 287.098915 -236.427696 
L 285.497128 -236.140948 
L 283.895342 -235.994036 
L 282.293555 -236.045009 
L 280.691768 -236.273262 
L 279.089981 -236.592795 
L 277.488194 -236.903845 
L 275.886408 -237.141355 
L 274.284621 -237.289781 
L 272.682834 -237.367225 
L 271.081047 -237.401336 
L 269.47926 -237.414104 
L 267.877474 -237.418184 
L 266.275687 -237.4193 
L 264.6739 -237.419561 
L 263.072113 -237.419614 
L 261.470326 -237.419623 
L 259.86854 -237.419625 
L 258.266753 -237.419625 
L 256.664966 -237.419625 
L 255.063179 -237.419625 
L 253.461392 -237.419625 
L 251.859606 -237.419625 
L 250.257819 -237.419625 
L 248.656032 -237.419625 
L 247.054245 -237.419622 
L 245.452458 -237.419606 
L 243.850672 -237.419518 
L 242.248885 -237.4191 
L 240.647098 -237.417403 
L 239.045311 -237.411487 
L 237.443524 -237.393834 
L 235.841737 -237.348869 
L 234.239951 -237.251452 
L 232.638164 -237.072694 
L 231.036377 -236.796153 
L 229.43459 -236.436454 
L 227.832803 -236.040317 
L 226.231017 -235.656341 
L 224.62923 -235.291712 
L 223.027443 -234.901191 
L 221.425656 -234.4328 
L 219.823869 -233.893964 
L 218.222083 -233.372297 
L 216.620296 -232.991348 
L 215.018509 -232.848533 
L 213.416722 -232.983778 
L 211.814935 -233.371576 
L 210.213149 -233.906134 
L 208.611362 -234.391601 
L 207.009575 -234.58585 
L 205.407788 -234.31382 
L 203.806001 -233.594472 
L 202.204215 -232.686883 
L 200.602428 -231.995217 
L 199.000641 -231.865015 
L 197.398854 -232.392167 
L 195.797067 -233.369756 
L 194.195281 -234.39726 
L 192.593494 -235.060021 
L 190.991707 -235.064941 
L 189.38992 -234.292546 
L 187.788133 -232.793838 
L 186.186347 -230.752415 
L 184.58456 -228.395176 
L 182.982773 -225.857988 
L 181.380986 -223.091888 
L 179.779199 -219.913172 
L 178.177412 -216.182386 
L 176.575626 -211.957456 
L 174.973839 -207.498666 
L 173.372052 -203.189468 
L 171.770265 -199.512279 
L 170.168478 -197.052254 
L 168.566692 -196.352034 
L 166.964905 -197.589714 
L 165.363118 -200.333289 
L 163.761331 -203.630799 
L 162.159544 -206.391959 
L 160.557758 -207.780823 
L 158.955971 -207.403584 
L 157.354184 -205.281968 
L 155.752397 -201.726324 
L 154.15061 -197.23251 
L 152.548824 -192.468061 
L 150.947037 -188.300514 
L 149.34525 -185.733658 
L 147.743463 -185.675625 
L 146.141676 -188.626758 
L 144.53989 -194.459836 
L 142.938103 -202.401476 
L 141.336316 -211.224174 
L 139.734529 -219.598268 
L 138.132742 -226.488742 
L 136.530956 -231.422176 
L 134.929169 -234.495505 
L 133.327382 -236.159502 
z
" style="stroke: #353535; stroke-width: 1.2"/>
    </defs>
    <g clip-path="url(#p7339f9dda5)">
     <use xlink:href="#mc7411fce5c" x="0" y="826.739625" style="fill: #59b273; stroke: #353535; stroke-width: 1.2"/>
    </g>
   </g>
   <g id="PolyCollection_6">
    <defs>
     <path id="md1d09a053c" d="M 125.842263 -106.68467 
L 125.842263 -109.43458 
L 127.748582 -110.177283 
L 129.654901 -111.217236 
L 131.561221 -112.620752 
L 133.46754 -114.446531 
L 135.37386 -116.735674 
L 137.280179 -119.501131 
L 139.186498 -122.718162 
L 141.092818 -126.317559 
L 142.999137 -130.183156 
L 144.905456 -134.154727 
L 146.811776 -138.036759 
L 148.718095 -141.612867 
L 150.624415 -144.664919 
L 152.530734 -146.995145 
L 154.437053 -148.448776 
L 156.343373 -148.934095 
L 158.249692 -148.436501 
L 160.156012 -147.023468 
L 162.062331 -144.8384 
L 163.96865 -142.083243 
L 165.87497 -138.991983 
L 167.781289 -135.799347 
L 169.687608 -132.710323 
L 171.593928 -129.876223 
L 173.500247 -127.38164 
L 175.406567 -125.244242 
L 177.312886 -123.426385 
L 179.219205 -121.855016 
L 181.125525 -120.444774 
L 183.031844 -119.119045 
L 184.938163 -117.824876 
L 186.844483 -116.539699 
L 188.750802 -115.270043 
L 190.657122 -114.044278 
L 192.563441 -112.902397 
L 194.46976 -111.885901 
L 196.37608 -111.030035 
L 198.282399 -110.359423 
L 200.188719 -109.886935 
L 202.095038 -109.614737 
L 204.001357 -109.536106 
L 205.907677 -109.636838 
L 207.813996 -109.895586 
L 209.720315 -110.28329 
L 211.626635 -110.762417 
L 213.532954 -111.287089 
L 215.439274 -111.80505 
L 217.345593 -112.261858 
L 219.251912 -112.60694 
L 221.158232 -112.800397 
L 223.064551 -112.818947 
L 224.97087 -112.659486 
L 226.87719 -112.339223 
L 228.783509 -111.892279 
L 230.689829 -111.363514 
L 232.596148 -110.80105 
L 234.502467 -110.249151 
L 236.408787 -109.742867 
L 238.315106 -109.305187 
L 240.221426 -108.946801 
L 242.127745 -108.667885 
L 244.034064 -108.461087 
L 245.940384 -108.314797 
L 247.846703 -108.216034 
L 249.753022 -108.152578 
L 251.659342 -108.114275 
L 253.565661 -108.093657 
L 255.471981 -108.08614 
L 257.3783 -108.090068 
L 259.284619 -108.106794 
L 261.190939 -108.140927 
L 263.097258 -108.200725 
L 265.003577 -108.298484 
L 266.909897 -108.450671 
L 268.816216 -108.677443 
L 270.722536 -109.001171 
L 272.628855 -109.443699 
L 274.535174 -110.022311 
L 276.441494 -110.74474 
L 278.347813 -111.604033 
L 280.254133 -112.574438 
L 282.160452 -113.609635 
L 284.066771 -114.644446 
L 285.973091 -115.600532 
L 287.87941 -116.395664 
L 289.785729 -116.95518 
L 291.692049 -117.223457 
L 293.598368 -117.172979 
L 295.504688 -116.808965 
L 297.411007 -116.168481 
L 299.317326 -115.314256 
L 301.223646 -114.324606 
L 303.129965 -113.281708 
L 305.036284 -112.260624 
L 306.942604 -111.321041 
L 308.848923 -110.502835 
L 310.755243 -109.825535 
L 312.661562 -109.29097 
L 314.567881 -108.887838 
L 314.567881 -107.231412 
L 314.567881 -107.231412 
L 312.661562 -106.82828 
L 310.755243 -106.293715 
L 308.848923 -105.616415 
L 306.942604 -104.798209 
L 305.036284 -103.858626 
L 303.129965 -102.837542 
L 301.223646 -101.794644 
L 299.317326 -100.804994 
L 297.411007 -99.950769 
L 295.504688 -99.310285 
L 293.598368 -98.946271 
L 291.692049 -98.895793 
L 289.785729 -99.16407 
L 287.87941 -99.723586 
L 285.973091 -100.518718 
L 284.066771 -101.474804 
L 282.160452 -102.509615 
L 280.254133 -103.544812 
L 278.347813 -104.515217 
L 276.441494 -105.37451 
L 274.535174 -106.096939 
L 272.628855 -106.675551 
L 270.722536 -107.118079 
L 268.816216 -107.441807 
L 266.909897 -107.668579 
L 265.003577 -107.820766 
L 263.097258 -107.918525 
L 261.190939 -107.978323 
L 259.284619 -108.012456 
L 257.3783 -108.029182 
L 255.471981 -108.03311 
L 253.565661 -108.025593 
L 251.659342 -108.004975 
L 249.753022 -107.966672 
L 247.846703 -107.903216 
L 245.940384 -107.804453 
L 244.034064 -107.658163 
L 242.127745 -107.451365 
L 240.221426 -107.172449 
L 238.315106 -106.814063 
L 236.408787 -106.376383 
L 234.502467 -105.870099 
L 232.596148 -105.3182 
L 230.689829 -104.755736 
L 228.783509 -104.226971 
L 226.87719 -103.780027 
L 224.97087 -103.459764 
L 223.064551 -103.300303 
L 221.158232 -103.318853 
L 219.251912 -103.51231 
L 217.345593 -103.857392 
L 215.439274 -104.3142 
L 213.532954 -104.832161 
L 211.626635 -105.356833 
L 209.720315 -105.83596 
L 207.813996 -106.223664 
L 205.907677 -106.482412 
L 204.001357 -106.583144 
L 202.095038 -106.504513 
L 200.188719 -106.232315 
L 198.282399 -105.759827 
L 196.37608 -105.089215 
L 194.46976 -104.233349 
L 192.563441 -103.216853 
L 190.657122 -102.074972 
L 188.750802 -100.849207 
L 186.844483 -99.579551 
L 184.938163 -98.294374 
L 183.031844 -97.000205 
L 181.125525 -95.674476 
L 179.219205 -94.264234 
L 177.312886 -92.692865 
L 175.406567 -90.875008 
L 173.500247 -88.73761 
L 171.593928 -86.243027 
L 169.687608 -83.408927 
L 167.781289 -80.319903 
L 165.87497 -77.127267 
L 163.96865 -74.036007 
L 162.062331 -71.28085 
L 160.156012 -69.095782 
L 158.249692 -67.682749 
L 156.343373 -67.185155 
L 154.437053 -67.670474 
L 152.530734 -69.124105 
L 150.624415 -71.454331 
L 148.718095 -74.506383 
L 146.811776 -78.082491 
L 144.905456 -81.964523 
L 142.999137 -85.936094 
L 141.092818 -89.801691 
L 139.186498 -93.401088 
L 137.280179 -96.618119 
L 135.37386 -99.383576 
L 133.46754 -101.672719 
L 131.561221 -103.498498 
L 129.654901 -104.902014 
L 127.748582 -105.941967 
L 125.842263 -106.68467 
z
" style="stroke: #353535; stroke-width: 1.2"/>
    </defs>
    <g clip-path="url(#p7339f9dda5)">
     <use xlink:href="#md1d09a053c" x="0" y="826.739625" style="fill: #9ac64d; stroke: #353535; stroke-width: 1.2"/>
    </g>
   </g>
   <g id="line2d_1">
    <path d="M 141.66431 71.88 
L 247.680504 71.88 
" clip-path="url(#p7339f9dda5)" style="fill: none; stroke: #353535; stroke-width: 1.2; stroke-linecap: round"/>
   </g>
   <g id="line2d_2">
    <path d="M 148.461031 71.88 
L 188.166212 71.88 
" clip-path="url(#p7339f9dda5)" style="fill: none; stroke: #353535; stroke-width: 3.6; stroke-linecap: round"/>
   </g>
   <g id="line2d_3">
    <path d="M 141.691979 201.24 
L 205.255844 201.24 
" clip-path="url(#p7339f9dda5)" style="fill: none; stroke: #353535; stroke-width: 1.2; stroke-linecap: round"/>
   </g>
   <g id="line2d_4">
    <path d="M 151.510563 201.24 
L 173.20315 201.24 
" clip-path="url(#p7339f9dda5)" style="fill: none; stroke: #353535; stroke-width: 3.6; stroke-linecap: round"/>
   </g>
   <g id="line2d_5">
    <path d="M 143.150537 330.6 
L 308.61185 330.6 
" clip-path="url(#p7339f9dda5)" style="fill: none; stroke: #353535; stroke-width: 1.2; stroke-linecap: round"/>
   </g>
   <g id="line2d_6">
    <path d="M 172.301927 330.6 
L 229.920884 330.6 
" clip-path="url(#p7339f9dda5)" style="fill: none; stroke: #353535; stroke-width: 3.6; stroke-linecap: round"/>
   </g>
   <g id="line2d_7">
    <path d="M 141.668263 459.96 
L 212.204745 459.96 
" clip-path="url(#p7339f9dda5)" style="fill: none; stroke: #353535; stroke-width: 1.2; stroke-linecap: round"/>
   </g>
   <g id="line2d_8">
    <path d="M 152.66476 459.96 
L 183.160079 459.96 
" clip-path="url(#p7339f9dda5)" style="fill: none; stroke: #353535; stroke-width: 3.6; stroke-linecap: round"/>
   </g>
   <g id="line2d_9">
    <path d="M 141.73546 589.32 
L 200.812975 589.32 
" clip-path="url(#p7339f9dda5)" style="fill: none; stroke: #353535; stroke-width: 1.2; stroke-linecap: round"/>
   </g>
   <g id="line2d_10">
    <path d="M 148.943264 589.32 
L 171.415527 589.32 
" clip-path="url(#p7339f9dda5)" style="fill: none; stroke: #353535; stroke-width: 3.6; stroke-linecap: round"/>
   </g>
   <g id="line2d_11">
    <path d="M 145.356161 718.68 
L 183.484203 718.68 
" clip-path="url(#p7339f9dda5)" style="fill: none; stroke: #353535; stroke-width: 1.2; stroke-linecap: round"/>
   </g>
   <g id="line2d_12">
    <path d="M 155.143123 718.68 
L 180.687646 718.68 
" clip-path="url(#p7339f9dda5)" style="fill: none; stroke: #353535; stroke-width: 3.6; stroke-linecap: round"/>
   </g>
   <g id="patch_3">
    <path d="M 88.630775 783.36 
L 88.630775 7.2 
" style="fill: none; stroke: #262626; stroke-linejoin: miter; stroke-linecap: square"/>
   </g>
   <g id="patch_4">
    <path d="M 758.230775 783.36 
L 758.230775 7.2 
" style="fill: none; stroke: #262626; stroke-linejoin: miter; stroke-linecap: square"/>
   </g>
   <g id="patch_5">
    <path d="M 88.630775 783.36 
L 758.230775 783.36 
" style="fill: none; stroke: #262626; stroke-linejoin: miter; stroke-linecap: square"/>
   </g>
   <g id="patch_6">
    <path d="M 88.630775 7.2 
L 758.230775 7.2 
" style="fill: none; stroke: #262626; stroke-linejoin: miter; stroke-linecap: square"/>
   </g>
   <g id="PathCollection_1">
    <defs>
     <path id="m42ce56a673" d="M 0 1.2 
C 0.318244 1.2 0.623496 1.07356 0.848528 0.848528 
C 1.07356 0.623496 1.2 0.318244 1.2 0 
C 1.2 -0.318244 1.07356 -0.623496 0.848528 -0.848528 
C 0.623496 -1.07356 0.318244 -1.2 0 -1.2 
C -0.318244 -1.2 -0.623496 -1.07356 -0.848528 -0.848528 
C -1.07356 -0.623496 -1.2 -0.318244 -1.2 0 
C -1.2 0.318244 -1.07356 0.623496 -0.848528 0.848528 
C -0.623496 1.07356 -0.318244 1.2 0 1.2 
z
" style="stroke: #353535; stroke-width: 0.8"/>
    </defs>
    <g clip-path="url(#p7339f9dda5)">
     <use xlink:href="#m42ce56a673" x="160.329105" y="71.88" style="fill: #ffffff; stroke: #353535; stroke-width: 0.8"/>
    </g>
   </g>
   <g id="PathCollection_2">
    <g clip-path="url(#p7339f9dda5)">
     <use xlink:href="#m42ce56a673" x="157.862601" y="201.24" style="fill: #ffffff; stroke: #353535; stroke-width: 0.8"/>
    </g>
   </g>
   <g id="PathCollection_3">
    <g clip-path="url(#p7339f9dda5)">
     <use xlink:href="#m42ce56a673" x="188.136567" y="330.6" style="fill: #ffffff; stroke: #353535; stroke-width: 0.8"/>
    </g>
   </g>
   <g id="PathCollection_4">
    <g clip-path="url(#p7339f9dda5)">
     <use xlink:href="#m42ce56a673" x="164.985422" y="459.96" style="fill: #ffffff; stroke: #353535; stroke-width: 0.8"/>
    </g>
   </g>
   <g id="PathCollection_5">
    <g clip-path="url(#p7339f9dda5)">
     <use xlink:href="#m42ce56a673" x="161.259973" y="589.32" style="fill: #ffffff; stroke: #353535; stroke-width: 0.8"/>
    </g>
   </g>
   <g id="PathCollection_6">
    <g clip-path="url(#p7339f9dda5)">
     <use xlink:href="#m42ce56a673" x="158.94565" y="718.68" style="fill: #ffffff; stroke: #353535; stroke-width: 0.8"/>
    </g>
   </g>
  </g>
 </g>
 <defs>
  <clipPath id="p7339f9dda5">
   <rect x="88.630775" y="7.2" width="669.6" height="776.16"/>
  </clipPath>
 </defs>
</svg>
