<?xml version="1.0" encoding="utf-8" standalone="no"?>
<!DOCTYPE svg PUBLIC "-//W3C//DTD SVG 1.1//EN"
  "http://www.w3.org/Graphics/SVG/1.1/DTD/svg11.dtd">
<svg xmlns:xlink="http://www.w3.org/1999/xlink" width="1440pt" height="720pt" viewBox="0 0 1440 720" xmlns="http://www.w3.org/2000/svg" version="1.1">
 <metadata>
  <rdf:RDF xmlns:dc="http://purl.org/dc/elements/1.1/" xmlns:cc="http://creativecommons.org/ns#" xmlns:rdf="http://www.w3.org/1999/02/22-rdf-syntax-ns#">
   <cc:Work>
    <dc:type rdf:resource="http://purl.org/dc/dcmitype/StillImage"/>
    <dc:date>2023-03-19T23:03:57.586704</dc:date>
    <dc:format>image/svg+xml</dc:format>
    <dc:creator>
     <cc:Agent>
      <dc:title>Matplotlib v3.6.3, https://matplotlib.org/</dc:title>
     </cc:Agent>
    </dc:creator>
   </cc:Work>
  </rdf:RDF>
 </metadata>
 <defs>
  <style type="text/css">*{stroke-linejoin: round; stroke-linecap: butt}</style>
 </defs>
 <g id="figure_1">
  <g id="patch_1">
   <path d="M 0 720 
L 1440 720 
L 1440 0 
L 0 0 
z
" style="fill: #ffffff"/>
  </g>
  <g id="axes_1">
   <g id="patch_2">
    <path d="M 180 640.8 
L 1296 640.8 
L 1296 86.4 
L 180 86.4 
z
" style="fill: #ffffff"/>
   </g>
   <g id="matplotlib.axis_1">
    <g id="xtick_1">
     <g id="text_1">
      <!-- 0 -->
      <g style="fill: #262626" transform="translate(1292.941484 658.173594) scale(0.11 -0.11)">
       <defs>
        <path id="ArialMT-30" d="M 266 2259 
Q 266 3072 433 3567 
Q 600 4063 929 4331 
Q 1259 4600 1759 4600 
Q 2128 4600 2406 4451 
Q 2684 4303 2865 4023 
Q 3047 3744 3150 3342 
Q 3253 2941 3253 2259 
Q 3253 1453 3087 958 
Q 2922 463 2592 192 
Q 2263 -78 1759 -78 
Q 1097 -78 719 397 
Q 266 969 266 2259 
z
M 844 2259 
Q 844 1131 1108 757 
Q 1372 384 1759 384 
Q 2147 384 2411 759 
Q 2675 1134 2675 2259 
Q 2675 3391 2411 3762 
Q 2147 4134 1753 4134 
Q 1366 4134 1134 3806 
Q 844 3388 844 2259 
z
" transform="scale(0.015625)"/>
       </defs>
       <use xlink:href="#ArialMT-30"/>
      </g>
     </g>
    </g>
    <g id="xtick_2">
     <g id="text_2">
      <!-- 10 -->
      <g style="fill: #262626" transform="translate(1115.644093 658.173594) scale(0.11 -0.11)">
       <defs>
        <path id="ArialMT-31" d="M 2384 0 
L 1822 0 
L 1822 3584 
Q 1619 3391 1289 3197 
Q 959 3003 697 2906 
L 697 3450 
Q 1169 3672 1522 3987 
Q 1875 4303 2022 4600 
L 2384 4600 
L 2384 0 
z
" transform="scale(0.015625)"/>
       </defs>
       <use xlink:href="#ArialMT-31"/>
       <use xlink:href="#ArialMT-30" x="55.615234"/>
      </g>
     </g>
    </g>
    <g id="xtick_3">
     <g id="text_3">
      <!-- 20 -->
      <g style="fill: #262626" transform="translate(941.405217 658.173594) scale(0.11 -0.11)">
       <defs>
        <path id="ArialMT-32" d="M 3222 541 
L 3222 0 
L 194 0 
Q 188 203 259 391 
Q 375 700 629 1000 
Q 884 1300 1366 1694 
Q 2113 2306 2375 2664 
Q 2638 3022 2638 3341 
Q 2638 3675 2398 3904 
Q 2159 4134 1775 4134 
Q 1369 4134 1125 3890 
Q 881 3647 878 3216 
L 300 3275 
Q 359 3922 746 4261 
Q 1134 4600 1788 4600 
Q 2447 4600 2831 4234 
Q 3216 3869 3216 3328 
Q 3216 3053 3103 2787 
Q 2991 2522 2730 2228 
Q 2469 1934 1863 1422 
Q 1356 997 1212 845 
Q 1069 694 975 541 
L 3222 541 
z
" transform="scale(0.015625)"/>
       </defs>
       <use xlink:href="#ArialMT-32"/>
       <use xlink:href="#ArialMT-30" x="55.615234"/>
      </g>
     </g>
    </g>
    <g id="xtick_4">
     <g id="text_4">
      <!-- 30 -->
      <g style="fill: #262626" transform="translate(767.166341 658.173594) scale(0.11 -0.11)">
       <defs>
        <path id="ArialMT-33" d="M 269 1209 
L 831 1284 
Q 928 806 1161 595 
Q 1394 384 1728 384 
Q 2125 384 2398 659 
Q 2672 934 2672 1341 
Q 2672 1728 2419 1979 
Q 2166 2231 1775 2231 
Q 1616 2231 1378 2169 
L 1441 2663 
Q 1497 2656 1531 2656 
Q 1891 2656 2178 2843 
Q 2466 3031 2466 3422 
Q 2466 3731 2256 3934 
Q 2047 4138 1716 4138 
Q 1388 4138 1169 3931 
Q 950 3725 888 3313 
L 325 3413 
Q 428 3978 793 4289 
Q 1159 4600 1703 4600 
Q 2078 4600 2393 4439 
Q 2709 4278 2876 4000 
Q 3044 3722 3044 3409 
Q 3044 3113 2884 2869 
Q 2725 2625 2413 2481 
Q 2819 2388 3044 2092 
Q 3269 1797 3269 1353 
Q 3269 753 2831 336 
Q 2394 -81 1725 -81 
Q 1122 -81 723 278 
Q 325 638 269 1209 
z
" transform="scale(0.015625)"/>
       </defs>
       <use xlink:href="#ArialMT-33"/>
       <use xlink:href="#ArialMT-30" x="55.615234"/>
      </g>
     </g>
    </g>
    <g id="xtick_5">
     <g id="text_5">
      <!-- 40 -->
      <g style="fill: #262626" transform="translate(592.927465 658.173594) scale(0.11 -0.11)">
       <defs>
        <path id="ArialMT-34" d="M 2069 0 
L 2069 1097 
L 81 1097 
L 81 1613 
L 2172 4581 
L 2631 4581 
L 2631 1613 
L 3250 1613 
L 3250 1097 
L 2631 1097 
L 2631 0 
L 2069 0 
z
M 2069 1613 
L 2069 3678 
L 634 1613 
L 2069 1613 
z
" transform="scale(0.015625)"/>
       </defs>
       <use xlink:href="#ArialMT-34"/>
       <use xlink:href="#ArialMT-30" x="55.615234"/>
      </g>
     </g>
    </g>
    <g id="xtick_6">
     <g id="text_6">
      <!-- 50 -->
      <g style="fill: #262626" transform="translate(418.688589 658.173594) scale(0.11 -0.11)">
       <defs>
        <path id="ArialMT-35" d="M 266 1200 
L 856 1250 
Q 922 819 1161 601 
Q 1400 384 1738 384 
Q 2144 384 2425 690 
Q 2706 997 2706 1503 
Q 2706 1984 2436 2262 
Q 2166 2541 1728 2541 
Q 1456 2541 1237 2417 
Q 1019 2294 894 2097 
L 366 2166 
L 809 4519 
L 3088 4519 
L 3088 3981 
L 1259 3981 
L 1013 2750 
Q 1425 3038 1878 3038 
Q 2478 3038 2890 2622 
Q 3303 2206 3303 1553 
Q 3303 931 2941 478 
Q 2500 -78 1738 -78 
Q 1113 -78 717 272 
Q 322 622 266 1200 
z
" transform="scale(0.015625)"/>
       </defs>
       <use xlink:href="#ArialMT-35"/>
       <use xlink:href="#ArialMT-30" x="55.615234"/>
      </g>
     </g>
    </g>
    <g id="xtick_7">
     <g id="text_7">
      <!-- 60 -->
      <g style="fill: #262626" transform="translate(244.449713 658.173594) scale(0.11 -0.11)">
       <defs>
        <path id="ArialMT-36" d="M 3184 3459 
L 2625 3416 
Q 2550 3747 2413 3897 
Q 2184 4138 1850 4138 
Q 1581 4138 1378 3988 
Q 1113 3794 959 3422 
Q 806 3050 800 2363 
Q 1003 2672 1297 2822 
Q 1591 2972 1913 2972 
Q 2475 2972 2870 2558 
Q 3266 2144 3266 1488 
Q 3266 1056 3080 686 
Q 2894 316 2569 119 
Q 2244 -78 1831 -78 
Q 1128 -78 684 439 
Q 241 956 241 2144 
Q 241 3472 731 4075 
Q 1159 4600 1884 4600 
Q 2425 4600 2770 4297 
Q 3116 3994 3184 3459 
z
M 888 1484 
Q 888 1194 1011 928 
Q 1134 663 1356 523 
Q 1578 384 1822 384 
Q 2178 384 2434 671 
Q 2691 959 2691 1453 
Q 2691 1928 2437 2201 
Q 2184 2475 1800 2475 
Q 1419 2475 1153 2201 
Q 888 1928 888 1484 
z
" transform="scale(0.015625)"/>
       </defs>
       <use xlink:href="#ArialMT-36"/>
       <use xlink:href="#ArialMT-30" x="55.615234"/>
      </g>
     </g>
    </g>
    <g id="text_8">
     <!-- Number of isolates -->
     <g style="fill: #262626" transform="translate(687.981562 672.949219) scale(0.12 -0.12)">
      <defs>
       <path id="ArialMT-4e" d="M 488 0 
L 488 4581 
L 1109 4581 
L 3516 984 
L 3516 4581 
L 4097 4581 
L 4097 0 
L 3475 0 
L 1069 3600 
L 1069 0 
L 488 0 
z
" transform="scale(0.015625)"/>
       <path id="ArialMT-75" d="M 2597 0 
L 2597 488 
Q 2209 -75 1544 -75 
Q 1250 -75 995 37 
Q 741 150 617 320 
Q 494 491 444 738 
Q 409 903 409 1263 
L 409 3319 
L 972 3319 
L 972 1478 
Q 972 1038 1006 884 
Q 1059 663 1231 536 
Q 1403 409 1656 409 
Q 1909 409 2131 539 
Q 2353 669 2445 892 
Q 2538 1116 2538 1541 
L 2538 3319 
L 3100 3319 
L 3100 0 
L 2597 0 
z
" transform="scale(0.015625)"/>
       <path id="ArialMT-6d" d="M 422 0 
L 422 3319 
L 925 3319 
L 925 2853 
Q 1081 3097 1340 3245 
Q 1600 3394 1931 3394 
Q 2300 3394 2536 3241 
Q 2772 3088 2869 2813 
Q 3263 3394 3894 3394 
Q 4388 3394 4653 3120 
Q 4919 2847 4919 2278 
L 4919 0 
L 4359 0 
L 4359 2091 
Q 4359 2428 4304 2576 
Q 4250 2725 4106 2815 
Q 3963 2906 3769 2906 
Q 3419 2906 3187 2673 
Q 2956 2441 2956 1928 
L 2956 0 
L 2394 0 
L 2394 2156 
Q 2394 2531 2256 2718 
Q 2119 2906 1806 2906 
Q 1569 2906 1367 2781 
Q 1166 2656 1075 2415 
Q 984 2175 984 1722 
L 984 0 
L 422 0 
z
" transform="scale(0.015625)"/>
       <path id="ArialMT-62" d="M 941 0 
L 419 0 
L 419 4581 
L 981 4581 
L 981 2947 
Q 1338 3394 1891 3394 
Q 2197 3394 2470 3270 
Q 2744 3147 2920 2923 
Q 3097 2700 3197 2384 
Q 3297 2069 3297 1709 
Q 3297 856 2875 390 
Q 2453 -75 1863 -75 
Q 1275 -75 941 416 
L 941 0 
z
M 934 1684 
Q 934 1088 1097 822 
Q 1363 388 1816 388 
Q 2184 388 2453 708 
Q 2722 1028 2722 1663 
Q 2722 2313 2464 2622 
Q 2206 2931 1841 2931 
Q 1472 2931 1203 2611 
Q 934 2291 934 1684 
z
" transform="scale(0.015625)"/>
       <path id="ArialMT-65" d="M 2694 1069 
L 3275 997 
Q 3138 488 2766 206 
Q 2394 -75 1816 -75 
Q 1088 -75 661 373 
Q 234 822 234 1631 
Q 234 2469 665 2931 
Q 1097 3394 1784 3394 
Q 2450 3394 2872 2941 
Q 3294 2488 3294 1666 
Q 3294 1616 3291 1516 
L 816 1516 
Q 847 969 1125 678 
Q 1403 388 1819 388 
Q 2128 388 2347 550 
Q 2566 713 2694 1069 
z
M 847 1978 
L 2700 1978 
Q 2663 2397 2488 2606 
Q 2219 2931 1791 2931 
Q 1403 2931 1139 2672 
Q 875 2413 847 1978 
z
" transform="scale(0.015625)"/>
       <path id="ArialMT-72" d="M 416 0 
L 416 3319 
L 922 3319 
L 922 2816 
Q 1116 3169 1280 3281 
Q 1444 3394 1641 3394 
Q 1925 3394 2219 3213 
L 2025 2691 
Q 1819 2813 1613 2813 
Q 1428 2813 1281 2702 
Q 1134 2591 1072 2394 
Q 978 2094 978 1738 
L 978 0 
L 416 0 
z
" transform="scale(0.015625)"/>
       <path id="ArialMT-20" transform="scale(0.015625)"/>
       <path id="ArialMT-6f" d="M 213 1659 
Q 213 2581 725 3025 
Q 1153 3394 1769 3394 
Q 2453 3394 2887 2945 
Q 3322 2497 3322 1706 
Q 3322 1066 3130 698 
Q 2938 331 2570 128 
Q 2203 -75 1769 -75 
Q 1072 -75 642 372 
Q 213 819 213 1659 
z
M 791 1659 
Q 791 1022 1069 705 
Q 1347 388 1769 388 
Q 2188 388 2466 706 
Q 2744 1025 2744 1678 
Q 2744 2294 2464 2611 
Q 2184 2928 1769 2928 
Q 1347 2928 1069 2612 
Q 791 2297 791 1659 
z
" transform="scale(0.015625)"/>
       <path id="ArialMT-66" d="M 556 0 
L 556 2881 
L 59 2881 
L 59 3319 
L 556 3319 
L 556 3672 
Q 556 4006 616 4169 
Q 697 4388 901 4523 
Q 1106 4659 1475 4659 
Q 1713 4659 2000 4603 
L 1916 4113 
Q 1741 4144 1584 4144 
Q 1328 4144 1222 4034 
Q 1116 3925 1116 3625 
L 1116 3319 
L 1763 3319 
L 1763 2881 
L 1116 2881 
L 1116 0 
L 556 0 
z
" transform="scale(0.015625)"/>
       <path id="ArialMT-69" d="M 425 3934 
L 425 4581 
L 988 4581 
L 988 3934 
L 425 3934 
z
M 425 0 
L 425 3319 
L 988 3319 
L 988 0 
L 425 0 
z
" transform="scale(0.015625)"/>
       <path id="ArialMT-73" d="M 197 991 
L 753 1078 
Q 800 744 1014 566 
Q 1228 388 1613 388 
Q 2000 388 2187 545 
Q 2375 703 2375 916 
Q 2375 1106 2209 1216 
Q 2094 1291 1634 1406 
Q 1016 1563 777 1677 
Q 538 1791 414 1992 
Q 291 2194 291 2438 
Q 291 2659 392 2848 
Q 494 3038 669 3163 
Q 800 3259 1026 3326 
Q 1253 3394 1513 3394 
Q 1903 3394 2198 3281 
Q 2494 3169 2634 2976 
Q 2775 2784 2828 2463 
L 2278 2388 
Q 2241 2644 2061 2787 
Q 1881 2931 1553 2931 
Q 1166 2931 1000 2803 
Q 834 2675 834 2503 
Q 834 2394 903 2306 
Q 972 2216 1119 2156 
Q 1203 2125 1616 2013 
Q 2213 1853 2448 1751 
Q 2684 1650 2818 1456 
Q 2953 1263 2953 975 
Q 2953 694 2789 445 
Q 2625 197 2315 61 
Q 2006 -75 1616 -75 
Q 969 -75 630 194 
Q 291 463 197 991 
z
" transform="scale(0.015625)"/>
       <path id="ArialMT-6c" d="M 409 0 
L 409 4581 
L 972 4581 
L 972 0 
L 409 0 
z
" transform="scale(0.015625)"/>
       <path id="ArialMT-61" d="M 2588 409 
Q 2275 144 1986 34 
Q 1697 -75 1366 -75 
Q 819 -75 525 192 
Q 231 459 231 875 
Q 231 1119 342 1320 
Q 453 1522 633 1644 
Q 813 1766 1038 1828 
Q 1203 1872 1538 1913 
Q 2219 1994 2541 2106 
Q 2544 2222 2544 2253 
Q 2544 2597 2384 2738 
Q 2169 2928 1744 2928 
Q 1347 2928 1158 2789 
Q 969 2650 878 2297 
L 328 2372 
Q 403 2725 575 2942 
Q 747 3159 1072 3276 
Q 1397 3394 1825 3394 
Q 2250 3394 2515 3294 
Q 2781 3194 2906 3042 
Q 3031 2891 3081 2659 
Q 3109 2516 3109 2141 
L 3109 1391 
Q 3109 606 3145 398 
Q 3181 191 3288 0 
L 2700 0 
Q 2613 175 2588 409 
z
M 2541 1666 
Q 2234 1541 1622 1453 
Q 1275 1403 1131 1340 
Q 988 1278 909 1158 
Q 831 1038 831 891 
Q 831 666 1001 516 
Q 1172 366 1500 366 
Q 1825 366 2078 508 
Q 2331 650 2450 897 
Q 2541 1088 2541 1459 
L 2541 1666 
z
" transform="scale(0.015625)"/>
       <path id="ArialMT-74" d="M 1650 503 
L 1731 6 
Q 1494 -44 1306 -44 
Q 1000 -44 831 53 
Q 663 150 594 308 
Q 525 466 525 972 
L 525 2881 
L 113 2881 
L 113 3319 
L 525 3319 
L 525 4141 
L 1084 4478 
L 1084 3319 
L 1650 3319 
L 1650 2881 
L 1084 2881 
L 1084 941 
Q 1084 700 1114 631 
Q 1144 563 1211 522 
Q 1278 481 1403 481 
Q 1497 481 1650 503 
z
" transform="scale(0.015625)"/>
      </defs>
      <use xlink:href="#ArialMT-4e"/>
      <use xlink:href="#ArialMT-75" x="72.216797"/>
      <use xlink:href="#ArialMT-6d" x="127.832031"/>
      <use xlink:href="#ArialMT-62" x="211.132812"/>
      <use xlink:href="#ArialMT-65" x="266.748047"/>
      <use xlink:href="#ArialMT-72" x="322.363281"/>
      <use xlink:href="#ArialMT-20" x="355.664062"/>
      <use xlink:href="#ArialMT-6f" x="383.447266"/>
      <use xlink:href="#ArialMT-66" x="439.0625"/>
      <use xlink:href="#ArialMT-20" x="466.845703"/>
      <use xlink:href="#ArialMT-69" x="494.628906"/>
      <use xlink:href="#ArialMT-73" x="516.845703"/>
      <use xlink:href="#ArialMT-6f" x="566.845703"/>
      <use xlink:href="#ArialMT-6c" x="622.460938"/>
      <use xlink:href="#ArialMT-61" x="644.677734"/>
      <use xlink:href="#ArialMT-74" x="700.292969"/>
      <use xlink:href="#ArialMT-65" x="728.076172"/>
      <use xlink:href="#ArialMT-73" x="783.691406"/>
     </g>
    </g>
   </g>
   <g id="matplotlib.axis_2">
    <g id="ytick_1">
     <g id="line2d_1">
      <defs>
       <path id="m072e9f0dfe" d="M 0 0 
L 6 0 
" style="stroke: #262626; stroke-width: 1.25"/>
      </defs>
      <g>
       <use xlink:href="#m072e9f0dfe" x="1296" y="97.488" style="fill: #262626; stroke: #262626; stroke-width: 1.25"/>
      </g>
     </g>
     <g id="text_9">
      <!-- Pseudocyphellaria -->
      <g style="fill: #262626" transform="translate(1305.5 101.424797) scale(0.11 -0.11)">
       <defs>
        <path id="ArialMT-50" d="M 494 0 
L 494 4581 
L 2222 4581 
Q 2678 4581 2919 4538 
Q 3256 4481 3484 4323 
Q 3713 4166 3852 3881 
Q 3991 3597 3991 3256 
Q 3991 2672 3619 2267 
Q 3247 1863 2275 1863 
L 1100 1863 
L 1100 0 
L 494 0 
z
M 1100 2403 
L 2284 2403 
Q 2872 2403 3119 2622 
Q 3366 2841 3366 3238 
Q 3366 3525 3220 3729 
Q 3075 3934 2838 4000 
Q 2684 4041 2272 4041 
L 1100 4041 
L 1100 2403 
z
" transform="scale(0.015625)"/>
        <path id="ArialMT-64" d="M 2575 0 
L 2575 419 
Q 2259 -75 1647 -75 
Q 1250 -75 917 144 
Q 584 363 401 755 
Q 219 1147 219 1656 
Q 219 2153 384 2558 
Q 550 2963 881 3178 
Q 1213 3394 1622 3394 
Q 1922 3394 2156 3267 
Q 2391 3141 2538 2938 
L 2538 4581 
L 3097 4581 
L 3097 0 
L 2575 0 
z
M 797 1656 
Q 797 1019 1065 703 
Q 1334 388 1700 388 
Q 2069 388 2326 689 
Q 2584 991 2584 1609 
Q 2584 2291 2321 2609 
Q 2059 2928 1675 2928 
Q 1300 2928 1048 2622 
Q 797 2316 797 1656 
z
" transform="scale(0.015625)"/>
        <path id="ArialMT-63" d="M 2588 1216 
L 3141 1144 
Q 3050 572 2676 248 
Q 2303 -75 1759 -75 
Q 1078 -75 664 370 
Q 250 816 250 1647 
Q 250 2184 428 2587 
Q 606 2991 970 3192 
Q 1334 3394 1763 3394 
Q 2303 3394 2647 3120 
Q 2991 2847 3088 2344 
L 2541 2259 
Q 2463 2594 2264 2762 
Q 2066 2931 1784 2931 
Q 1359 2931 1093 2626 
Q 828 2322 828 1663 
Q 828 994 1084 691 
Q 1341 388 1753 388 
Q 2084 388 2306 591 
Q 2528 794 2588 1216 
z
" transform="scale(0.015625)"/>
        <path id="ArialMT-79" d="M 397 -1278 
L 334 -750 
Q 519 -800 656 -800 
Q 844 -800 956 -737 
Q 1069 -675 1141 -563 
Q 1194 -478 1313 -144 
Q 1328 -97 1363 -6 
L 103 3319 
L 709 3319 
L 1400 1397 
Q 1534 1031 1641 628 
Q 1738 1016 1872 1384 
L 2581 3319 
L 3144 3319 
L 1881 -56 
Q 1678 -603 1566 -809 
Q 1416 -1088 1222 -1217 
Q 1028 -1347 759 -1347 
Q 597 -1347 397 -1278 
z
" transform="scale(0.015625)"/>
        <path id="ArialMT-70" d="M 422 -1272 
L 422 3319 
L 934 3319 
L 934 2888 
Q 1116 3141 1344 3267 
Q 1572 3394 1897 3394 
Q 2322 3394 2647 3175 
Q 2972 2956 3137 2557 
Q 3303 2159 3303 1684 
Q 3303 1175 3120 767 
Q 2938 359 2589 142 
Q 2241 -75 1856 -75 
Q 1575 -75 1351 44 
Q 1128 163 984 344 
L 984 -1272 
L 422 -1272 
z
M 931 1641 
Q 931 1000 1190 694 
Q 1450 388 1819 388 
Q 2194 388 2461 705 
Q 2728 1022 2728 1688 
Q 2728 2322 2467 2637 
Q 2206 2953 1844 2953 
Q 1484 2953 1207 2617 
Q 931 2281 931 1641 
z
" transform="scale(0.015625)"/>
        <path id="ArialMT-68" d="M 422 0 
L 422 4581 
L 984 4581 
L 984 2938 
Q 1378 3394 1978 3394 
Q 2347 3394 2619 3248 
Q 2891 3103 3008 2847 
Q 3125 2591 3125 2103 
L 3125 0 
L 2563 0 
L 2563 2103 
Q 2563 2525 2380 2717 
Q 2197 2909 1863 2909 
Q 1613 2909 1392 2779 
Q 1172 2650 1078 2428 
Q 984 2206 984 1816 
L 984 0 
L 422 0 
z
" transform="scale(0.015625)"/>
       </defs>
       <use xlink:href="#ArialMT-50"/>
       <use xlink:href="#ArialMT-73" x="66.699219"/>
       <use xlink:href="#ArialMT-65" x="116.699219"/>
       <use xlink:href="#ArialMT-75" x="172.314453"/>
       <use xlink:href="#ArialMT-64" x="227.929688"/>
       <use xlink:href="#ArialMT-6f" x="283.544922"/>
       <use xlink:href="#ArialMT-63" x="339.160156"/>
       <use xlink:href="#ArialMT-79" x="389.160156"/>
       <use xlink:href="#ArialMT-70" x="439.160156"/>
       <use xlink:href="#ArialMT-68" x="494.775391"/>
       <use xlink:href="#ArialMT-65" x="550.390625"/>
       <use xlink:href="#ArialMT-6c" x="606.005859"/>
       <use xlink:href="#ArialMT-6c" x="628.222656"/>
       <use xlink:href="#ArialMT-61" x="650.439453"/>
       <use xlink:href="#ArialMT-72" x="706.054688"/>
       <use xlink:href="#ArialMT-69" x="739.355469"/>
       <use xlink:href="#ArialMT-61" x="761.572266"/>
      </g>
     </g>
    </g>
    <g id="ytick_2">
     <g id="line2d_2">
      <g>
       <use xlink:href="#m072e9f0dfe" x="1296" y="119.664" style="fill: #262626; stroke: #262626; stroke-width: 1.25"/>
      </g>
     </g>
     <g id="text_10">
      <!-- Parmotrema -->
      <g style="fill: #262626" transform="translate(1305.5 123.600797) scale(0.11 -0.11)">
       <use xlink:href="#ArialMT-50"/>
       <use xlink:href="#ArialMT-61" x="66.699219"/>
       <use xlink:href="#ArialMT-72" x="122.314453"/>
       <use xlink:href="#ArialMT-6d" x="155.615234"/>
       <use xlink:href="#ArialMT-6f" x="238.916016"/>
       <use xlink:href="#ArialMT-74" x="294.53125"/>
       <use xlink:href="#ArialMT-72" x="322.314453"/>
       <use xlink:href="#ArialMT-65" x="355.615234"/>
       <use xlink:href="#ArialMT-6d" x="411.230469"/>
       <use xlink:href="#ArialMT-61" x="494.53125"/>
      </g>
     </g>
    </g>
    <g id="ytick_3">
     <g id="line2d_3">
      <g>
       <use xlink:href="#m072e9f0dfe" x="1296" y="141.84" style="fill: #262626; stroke: #262626; stroke-width: 1.25"/>
      </g>
     </g>
     <g id="text_11">
      <!-- Stereocaulon -->
      <g style="fill: #262626" transform="translate(1305.5 145.776797) scale(0.11 -0.11)">
       <defs>
        <path id="ArialMT-53" d="M 288 1472 
L 859 1522 
Q 900 1178 1048 958 
Q 1197 738 1509 602 
Q 1822 466 2213 466 
Q 2559 466 2825 569 
Q 3091 672 3220 851 
Q 3350 1031 3350 1244 
Q 3350 1459 3225 1620 
Q 3100 1781 2813 1891 
Q 2628 1963 1997 2114 
Q 1366 2266 1113 2400 
Q 784 2572 623 2826 
Q 463 3081 463 3397 
Q 463 3744 659 4045 
Q 856 4347 1234 4503 
Q 1613 4659 2075 4659 
Q 2584 4659 2973 4495 
Q 3363 4331 3572 4012 
Q 3781 3694 3797 3291 
L 3216 3247 
Q 3169 3681 2898 3903 
Q 2628 4125 2100 4125 
Q 1550 4125 1298 3923 
Q 1047 3722 1047 3438 
Q 1047 3191 1225 3031 
Q 1400 2872 2139 2705 
Q 2878 2538 3153 2413 
Q 3553 2228 3743 1945 
Q 3934 1663 3934 1294 
Q 3934 928 3725 604 
Q 3516 281 3123 101 
Q 2731 -78 2241 -78 
Q 1619 -78 1198 103 
Q 778 284 539 648 
Q 300 1013 288 1472 
z
" transform="scale(0.015625)"/>
        <path id="ArialMT-6e" d="M 422 0 
L 422 3319 
L 928 3319 
L 928 2847 
Q 1294 3394 1984 3394 
Q 2284 3394 2536 3286 
Q 2788 3178 2913 3003 
Q 3038 2828 3088 2588 
Q 3119 2431 3119 2041 
L 3119 0 
L 2556 0 
L 2556 2019 
Q 2556 2363 2490 2533 
Q 2425 2703 2258 2804 
Q 2091 2906 1866 2906 
Q 1506 2906 1245 2678 
Q 984 2450 984 1813 
L 984 0 
L 422 0 
z
" transform="scale(0.015625)"/>
       </defs>
       <use xlink:href="#ArialMT-53"/>
       <use xlink:href="#ArialMT-74" x="66.699219"/>
       <use xlink:href="#ArialMT-65" x="94.482422"/>
       <use xlink:href="#ArialMT-72" x="150.097656"/>
       <use xlink:href="#ArialMT-65" x="183.398438"/>
       <use xlink:href="#ArialMT-6f" x="239.013672"/>
       <use xlink:href="#ArialMT-63" x="294.628906"/>
       <use xlink:href="#ArialMT-61" x="344.628906"/>
       <use xlink:href="#ArialMT-75" x="400.244141"/>
       <use xlink:href="#ArialMT-6c" x="455.859375"/>
       <use xlink:href="#ArialMT-6f" x="478.076172"/>
       <use xlink:href="#ArialMT-6e" x="533.691406"/>
      </g>
     </g>
    </g>
    <g id="ytick_4">
     <g id="line2d_4">
      <g>
       <use xlink:href="#m072e9f0dfe" x="1296" y="164.016" style="fill: #262626; stroke: #262626; stroke-width: 1.25"/>
      </g>
     </g>
     <g id="text_12">
      <!-- Yarrumia -->
      <g style="fill: #262626" transform="translate(1305.5 167.952797) scale(0.11 -0.11)">
       <defs>
        <path id="ArialMT-59" d="M 1784 0 
L 1784 1941 
L 19 4581 
L 756 4581 
L 1659 3200 
Q 1909 2813 2125 2425 
Q 2331 2784 2625 3234 
L 3513 4581 
L 4219 4581 
L 2391 1941 
L 2391 0 
L 1784 0 
z
" transform="scale(0.015625)"/>
       </defs>
       <use xlink:href="#ArialMT-59"/>
       <use xlink:href="#ArialMT-61" x="59.324219"/>
       <use xlink:href="#ArialMT-72" x="114.939453"/>
       <use xlink:href="#ArialMT-72" x="148.240234"/>
       <use xlink:href="#ArialMT-75" x="181.541016"/>
       <use xlink:href="#ArialMT-6d" x="237.15625"/>
       <use xlink:href="#ArialMT-69" x="320.457031"/>
       <use xlink:href="#ArialMT-61" x="342.673828"/>
      </g>
     </g>
    </g>
    <g id="ytick_5">
     <g id="line2d_5">
      <g>
       <use xlink:href="#m072e9f0dfe" x="1296" y="186.192" style="fill: #262626; stroke: #262626; stroke-width: 1.25"/>
      </g>
     </g>
     <g id="text_13">
      <!-- Peltigera -->
      <g style="fill: #262626" transform="translate(1305.5 190.128797) scale(0.11 -0.11)">
       <defs>
        <path id="ArialMT-67" d="M 319 -275 
L 866 -356 
Q 900 -609 1056 -725 
Q 1266 -881 1628 -881 
Q 2019 -881 2231 -725 
Q 2444 -569 2519 -288 
Q 2563 -116 2559 434 
Q 2191 0 1641 0 
Q 956 0 581 494 
Q 206 988 206 1678 
Q 206 2153 378 2554 
Q 550 2956 876 3175 
Q 1203 3394 1644 3394 
Q 2231 3394 2613 2919 
L 2613 3319 
L 3131 3319 
L 3131 450 
Q 3131 -325 2973 -648 
Q 2816 -972 2473 -1159 
Q 2131 -1347 1631 -1347 
Q 1038 -1347 672 -1080 
Q 306 -813 319 -275 
z
M 784 1719 
Q 784 1066 1043 766 
Q 1303 466 1694 466 
Q 2081 466 2343 764 
Q 2606 1063 2606 1700 
Q 2606 2309 2336 2618 
Q 2066 2928 1684 2928 
Q 1309 2928 1046 2623 
Q 784 2319 784 1719 
z
" transform="scale(0.015625)"/>
       </defs>
       <use xlink:href="#ArialMT-50"/>
       <use xlink:href="#ArialMT-65" x="66.699219"/>
       <use xlink:href="#ArialMT-6c" x="122.314453"/>
       <use xlink:href="#ArialMT-74" x="144.53125"/>
       <use xlink:href="#ArialMT-69" x="172.314453"/>
       <use xlink:href="#ArialMT-67" x="194.53125"/>
       <use xlink:href="#ArialMT-65" x="250.146484"/>
       <use xlink:href="#ArialMT-72" x="305.761719"/>
       <use xlink:href="#ArialMT-61" x="339.0625"/>
      </g>
     </g>
    </g>
    <g id="ytick_6">
     <g id="line2d_6">
      <g>
       <use xlink:href="#m072e9f0dfe" x="1296" y="208.368" style="fill: #262626; stroke: #262626; stroke-width: 1.25"/>
      </g>
     </g>
     <g id="text_14">
      <!-- Usnea -->
      <g style="fill: #262626" transform="translate(1305.5 212.304797) scale(0.11 -0.11)">
       <defs>
        <path id="ArialMT-55" d="M 3500 4581 
L 4106 4581 
L 4106 1934 
Q 4106 1244 3950 837 
Q 3794 431 3386 176 
Q 2978 -78 2316 -78 
Q 1672 -78 1262 144 
Q 853 366 678 786 
Q 503 1206 503 1934 
L 503 4581 
L 1109 4581 
L 1109 1938 
Q 1109 1341 1220 1058 
Q 1331 775 1601 622 
Q 1872 469 2263 469 
Q 2931 469 3215 772 
Q 3500 1075 3500 1938 
L 3500 4581 
z
" transform="scale(0.015625)"/>
       </defs>
       <use xlink:href="#ArialMT-55"/>
       <use xlink:href="#ArialMT-73" x="72.216797"/>
       <use xlink:href="#ArialMT-6e" x="122.216797"/>
       <use xlink:href="#ArialMT-65" x="177.832031"/>
       <use xlink:href="#ArialMT-61" x="233.447266"/>
      </g>
     </g>
    </g>
    <g id="ytick_7">
     <g id="line2d_7">
      <g>
       <use xlink:href="#m072e9f0dfe" x="1296" y="230.544" style="fill: #262626; stroke: #262626; stroke-width: 1.25"/>
      </g>
     </g>
     <g id="text_15">
      <!-- Leptogium -->
      <g style="fill: #262626" transform="translate(1305.5 234.480797) scale(0.11 -0.11)">
       <defs>
        <path id="ArialMT-4c" d="M 469 0 
L 469 4581 
L 1075 4581 
L 1075 541 
L 3331 541 
L 3331 0 
L 469 0 
z
" transform="scale(0.015625)"/>
       </defs>
       <use xlink:href="#ArialMT-4c"/>
       <use xlink:href="#ArialMT-65" x="55.615234"/>
       <use xlink:href="#ArialMT-70" x="111.230469"/>
       <use xlink:href="#ArialMT-74" x="166.845703"/>
       <use xlink:href="#ArialMT-6f" x="194.628906"/>
       <use xlink:href="#ArialMT-67" x="250.244141"/>
       <use xlink:href="#ArialMT-69" x="305.859375"/>
       <use xlink:href="#ArialMT-75" x="328.076172"/>
       <use xlink:href="#ArialMT-6d" x="383.691406"/>
      </g>
     </g>
    </g>
    <g id="ytick_8">
     <g id="line2d_8">
      <g>
       <use xlink:href="#m072e9f0dfe" x="1296" y="252.72" style="fill: #262626; stroke: #262626; stroke-width: 1.25"/>
      </g>
     </g>
     <g id="text_16">
      <!-- Teloschistes -->
      <g style="fill: #262626" transform="translate(1305.5 256.656797) scale(0.11 -0.11)">
       <defs>
        <path id="ArialMT-54" d="M 1659 0 
L 1659 4041 
L 150 4041 
L 150 4581 
L 3781 4581 
L 3781 4041 
L 2266 4041 
L 2266 0 
L 1659 0 
z
" transform="scale(0.015625)"/>
       </defs>
       <use xlink:href="#ArialMT-54"/>
       <use xlink:href="#ArialMT-65" x="49.958984"/>
       <use xlink:href="#ArialMT-6c" x="105.574219"/>
       <use xlink:href="#ArialMT-6f" x="127.791016"/>
       <use xlink:href="#ArialMT-73" x="183.40625"/>
       <use xlink:href="#ArialMT-63" x="233.40625"/>
       <use xlink:href="#ArialMT-68" x="283.40625"/>
       <use xlink:href="#ArialMT-69" x="339.021484"/>
       <use xlink:href="#ArialMT-73" x="361.238281"/>
       <use xlink:href="#ArialMT-74" x="411.238281"/>
       <use xlink:href="#ArialMT-65" x="439.021484"/>
       <use xlink:href="#ArialMT-73" x="494.636719"/>
      </g>
     </g>
    </g>
    <g id="ytick_9">
     <g id="line2d_9">
      <g>
       <use xlink:href="#m072e9f0dfe" x="1296" y="274.896" style="fill: #262626; stroke: #262626; stroke-width: 1.25"/>
      </g>
     </g>
     <g id="text_17">
      <!-- Podostictina -->
      <g style="fill: #262626" transform="translate(1305.5 278.832797) scale(0.11 -0.11)">
       <use xlink:href="#ArialMT-50"/>
       <use xlink:href="#ArialMT-6f" x="66.699219"/>
       <use xlink:href="#ArialMT-64" x="122.314453"/>
       <use xlink:href="#ArialMT-6f" x="177.929688"/>
       <use xlink:href="#ArialMT-73" x="233.544922"/>
       <use xlink:href="#ArialMT-74" x="283.544922"/>
       <use xlink:href="#ArialMT-69" x="311.328125"/>
       <use xlink:href="#ArialMT-63" x="333.544922"/>
       <use xlink:href="#ArialMT-74" x="383.544922"/>
       <use xlink:href="#ArialMT-69" x="411.328125"/>
       <use xlink:href="#ArialMT-6e" x="433.544922"/>
       <use xlink:href="#ArialMT-61" x="489.160156"/>
      </g>
     </g>
    </g>
    <g id="ytick_10">
     <g id="line2d_10">
      <g>
       <use xlink:href="#m072e9f0dfe" x="1296" y="297.072" style="fill: #262626; stroke: #262626; stroke-width: 1.25"/>
      </g>
     </g>
     <g id="text_18">
      <!-- Coccotrema -->
      <g style="fill: #262626" transform="translate(1305.5 301.008797) scale(0.11 -0.11)">
       <defs>
        <path id="ArialMT-43" d="M 3763 1606 
L 4369 1453 
Q 4178 706 3683 314 
Q 3188 -78 2472 -78 
Q 1731 -78 1267 223 
Q 803 525 561 1097 
Q 319 1669 319 2325 
Q 319 3041 592 3573 
Q 866 4106 1370 4382 
Q 1875 4659 2481 4659 
Q 3169 4659 3637 4309 
Q 4106 3959 4291 3325 
L 3694 3184 
Q 3534 3684 3231 3912 
Q 2928 4141 2469 4141 
Q 1941 4141 1586 3887 
Q 1231 3634 1087 3207 
Q 944 2781 944 2328 
Q 944 1744 1114 1308 
Q 1284 872 1643 656 
Q 2003 441 2422 441 
Q 2931 441 3284 734 
Q 3638 1028 3763 1606 
z
" transform="scale(0.015625)"/>
       </defs>
       <use xlink:href="#ArialMT-43"/>
       <use xlink:href="#ArialMT-6f" x="72.216797"/>
       <use xlink:href="#ArialMT-63" x="127.832031"/>
       <use xlink:href="#ArialMT-63" x="177.832031"/>
       <use xlink:href="#ArialMT-6f" x="227.832031"/>
       <use xlink:href="#ArialMT-74" x="283.447266"/>
       <use xlink:href="#ArialMT-72" x="311.230469"/>
       <use xlink:href="#ArialMT-65" x="344.53125"/>
       <use xlink:href="#ArialMT-6d" x="400.146484"/>
       <use xlink:href="#ArialMT-61" x="483.447266"/>
      </g>
     </g>
    </g>
    <g id="ytick_11">
     <g id="line2d_11">
      <g>
       <use xlink:href="#m072e9f0dfe" x="1296" y="319.248" style="fill: #262626; stroke: #262626; stroke-width: 1.25"/>
      </g>
     </g>
     <g id="text_19">
      <!-- Sticta -->
      <g style="fill: #262626" transform="translate(1305.5 323.184797) scale(0.11 -0.11)">
       <use xlink:href="#ArialMT-53"/>
       <use xlink:href="#ArialMT-74" x="66.699219"/>
       <use xlink:href="#ArialMT-69" x="94.482422"/>
       <use xlink:href="#ArialMT-63" x="116.699219"/>
       <use xlink:href="#ArialMT-74" x="166.699219"/>
       <use xlink:href="#ArialMT-61" x="194.482422"/>
      </g>
     </g>
    </g>
    <g id="ytick_12">
     <g id="line2d_12">
      <g>
       <use xlink:href="#m072e9f0dfe" x="1296" y="341.424" style="fill: #262626; stroke: #262626; stroke-width: 1.25"/>
      </g>
     </g>
     <g id="text_20">
      <!-- Cladia -->
      <g style="fill: #262626" transform="translate(1305.5 345.360797) scale(0.11 -0.11)">
       <use xlink:href="#ArialMT-43"/>
       <use xlink:href="#ArialMT-6c" x="72.216797"/>
       <use xlink:href="#ArialMT-61" x="94.433594"/>
       <use xlink:href="#ArialMT-64" x="150.048828"/>
       <use xlink:href="#ArialMT-69" x="205.664062"/>
       <use xlink:href="#ArialMT-61" x="227.880859"/>
      </g>
     </g>
    </g>
    <g id="ytick_13">
     <g id="line2d_13">
      <g>
       <use xlink:href="#m072e9f0dfe" x="1296" y="363.6" style="fill: #262626; stroke: #262626; stroke-width: 1.25"/>
      </g>
     </g>
     <g id="text_21">
      <!-- Porina -->
      <g style="fill: #262626" transform="translate(1305.5 367.536797) scale(0.11 -0.11)">
       <use xlink:href="#ArialMT-50"/>
       <use xlink:href="#ArialMT-6f" x="66.699219"/>
       <use xlink:href="#ArialMT-72" x="122.314453"/>
       <use xlink:href="#ArialMT-69" x="155.615234"/>
       <use xlink:href="#ArialMT-6e" x="177.832031"/>
       <use xlink:href="#ArialMT-61" x="233.447266"/>
      </g>
     </g>
    </g>
    <g id="ytick_14">
     <g id="line2d_14">
      <g>
       <use xlink:href="#m072e9f0dfe" x="1296" y="385.776" style="fill: #262626; stroke: #262626; stroke-width: 1.25"/>
      </g>
     </g>
     <g id="text_22">
      <!-- Crocodia -->
      <g style="fill: #262626" transform="translate(1305.5 389.712797) scale(0.11 -0.11)">
       <use xlink:href="#ArialMT-43"/>
       <use xlink:href="#ArialMT-72" x="72.216797"/>
       <use xlink:href="#ArialMT-6f" x="105.517578"/>
       <use xlink:href="#ArialMT-63" x="161.132812"/>
       <use xlink:href="#ArialMT-6f" x="211.132812"/>
       <use xlink:href="#ArialMT-64" x="266.748047"/>
       <use xlink:href="#ArialMT-69" x="322.363281"/>
       <use xlink:href="#ArialMT-61" x="344.580078"/>
      </g>
     </g>
    </g>
    <g id="ytick_15">
     <g id="line2d_15">
      <g>
       <use xlink:href="#m072e9f0dfe" x="1296" y="407.952" style="fill: #262626; stroke: #262626; stroke-width: 1.25"/>
      </g>
     </g>
     <g id="text_23">
      <!-- Physcia -->
      <g style="fill: #262626" transform="translate(1305.5 411.888797) scale(0.11 -0.11)">
       <use xlink:href="#ArialMT-50"/>
       <use xlink:href="#ArialMT-68" x="66.699219"/>
       <use xlink:href="#ArialMT-79" x="122.314453"/>
       <use xlink:href="#ArialMT-73" x="172.314453"/>
       <use xlink:href="#ArialMT-63" x="222.314453"/>
       <use xlink:href="#ArialMT-69" x="272.314453"/>
       <use xlink:href="#ArialMT-61" x="294.53125"/>
      </g>
     </g>
    </g>
    <g id="ytick_16">
     <g id="line2d_16">
      <g>
       <use xlink:href="#m072e9f0dfe" x="1296" y="430.128" style="fill: #262626; stroke: #262626; stroke-width: 1.25"/>
      </g>
     </g>
     <g id="text_24">
      <!-- Siphula -->
      <g style="fill: #262626" transform="translate(1305.5 434.131828) scale(0.11 -0.11)">
       <use xlink:href="#ArialMT-53"/>
       <use xlink:href="#ArialMT-69" x="66.699219"/>
       <use xlink:href="#ArialMT-70" x="88.916016"/>
       <use xlink:href="#ArialMT-68" x="144.53125"/>
       <use xlink:href="#ArialMT-75" x="200.146484"/>
       <use xlink:href="#ArialMT-6c" x="255.761719"/>
       <use xlink:href="#ArialMT-61" x="277.978516"/>
      </g>
     </g>
    </g>
    <g id="ytick_17">
     <g id="line2d_17">
      <g>
       <use xlink:href="#m072e9f0dfe" x="1296" y="452.304" style="fill: #262626; stroke: #262626; stroke-width: 1.25"/>
      </g>
     </g>
     <g id="text_25">
      <!-- Bunodophoron -->
      <g style="fill: #262626" transform="translate(1305.5 456.240797) scale(0.11 -0.11)">
       <defs>
        <path id="ArialMT-42" d="M 469 0 
L 469 4581 
L 2188 4581 
Q 2713 4581 3030 4442 
Q 3347 4303 3526 4014 
Q 3706 3725 3706 3409 
Q 3706 3116 3547 2856 
Q 3388 2597 3066 2438 
Q 3481 2316 3704 2022 
Q 3928 1728 3928 1328 
Q 3928 1006 3792 729 
Q 3656 453 3456 303 
Q 3256 153 2954 76 
Q 2653 0 2216 0 
L 469 0 
z
M 1075 2656 
L 2066 2656 
Q 2469 2656 2644 2709 
Q 2875 2778 2992 2937 
Q 3109 3097 3109 3338 
Q 3109 3566 3000 3739 
Q 2891 3913 2687 3977 
Q 2484 4041 1991 4041 
L 1075 4041 
L 1075 2656 
z
M 1075 541 
L 2216 541 
Q 2509 541 2628 563 
Q 2838 600 2978 687 
Q 3119 775 3209 942 
Q 3300 1109 3300 1328 
Q 3300 1584 3169 1773 
Q 3038 1963 2805 2039 
Q 2572 2116 2134 2116 
L 1075 2116 
L 1075 541 
z
" transform="scale(0.015625)"/>
       </defs>
       <use xlink:href="#ArialMT-42"/>
       <use xlink:href="#ArialMT-75" x="66.699219"/>
       <use xlink:href="#ArialMT-6e" x="122.314453"/>
       <use xlink:href="#ArialMT-6f" x="177.929688"/>
       <use xlink:href="#ArialMT-64" x="233.544922"/>
       <use xlink:href="#ArialMT-6f" x="289.160156"/>
       <use xlink:href="#ArialMT-70" x="344.775391"/>
       <use xlink:href="#ArialMT-68" x="400.390625"/>
       <use xlink:href="#ArialMT-6f" x="456.005859"/>
       <use xlink:href="#ArialMT-72" x="511.621094"/>
       <use xlink:href="#ArialMT-6f" x="544.921875"/>
       <use xlink:href="#ArialMT-6e" x="600.537109"/>
      </g>
     </g>
    </g>
    <g id="ytick_18">
     <g id="line2d_18">
      <g>
       <use xlink:href="#m072e9f0dfe" x="1296" y="474.48" style="fill: #262626; stroke: #262626; stroke-width: 1.25"/>
      </g>
     </g>
     <g id="text_26">
      <!-- Menegazzia -->
      <g style="fill: #262626" transform="translate(1305.5 478.416797) scale(0.11 -0.11)">
       <defs>
        <path id="ArialMT-4d" d="M 475 0 
L 475 4581 
L 1388 4581 
L 2472 1338 
Q 2622 884 2691 659 
Q 2769 909 2934 1394 
L 4031 4581 
L 4847 4581 
L 4847 0 
L 4263 0 
L 4263 3834 
L 2931 0 
L 2384 0 
L 1059 3900 
L 1059 0 
L 475 0 
z
" transform="scale(0.015625)"/>
        <path id="ArialMT-7a" d="M 125 0 
L 125 456 
L 2238 2881 
Q 1878 2863 1603 2863 
L 250 2863 
L 250 3319 
L 2963 3319 
L 2963 2947 
L 1166 841 
L 819 456 
Q 1197 484 1528 484 
L 3063 484 
L 3063 0 
L 125 0 
z
" transform="scale(0.015625)"/>
       </defs>
       <use xlink:href="#ArialMT-4d"/>
       <use xlink:href="#ArialMT-65" x="83.300781"/>
       <use xlink:href="#ArialMT-6e" x="138.916016"/>
       <use xlink:href="#ArialMT-65" x="194.53125"/>
       <use xlink:href="#ArialMT-67" x="250.146484"/>
       <use xlink:href="#ArialMT-61" x="305.761719"/>
       <use xlink:href="#ArialMT-7a" x="361.376953"/>
       <use xlink:href="#ArialMT-7a" x="411.376953"/>
       <use xlink:href="#ArialMT-69" x="461.376953"/>
       <use xlink:href="#ArialMT-61" x="483.59375"/>
      </g>
     </g>
    </g>
    <g id="ytick_19">
     <g id="line2d_19">
      <g>
       <use xlink:href="#m072e9f0dfe" x="1296" y="496.656" style="fill: #262626; stroke: #262626; stroke-width: 1.25"/>
      </g>
     </g>
     <g id="text_27">
      <!-- Coenogonium -->
      <g style="fill: #262626" transform="translate(1305.5 500.659828) scale(0.11 -0.11)">
       <use xlink:href="#ArialMT-43"/>
       <use xlink:href="#ArialMT-6f" x="72.216797"/>
       <use xlink:href="#ArialMT-65" x="127.832031"/>
       <use xlink:href="#ArialMT-6e" x="183.447266"/>
       <use xlink:href="#ArialMT-6f" x="239.0625"/>
       <use xlink:href="#ArialMT-67" x="294.677734"/>
       <use xlink:href="#ArialMT-6f" x="350.292969"/>
       <use xlink:href="#ArialMT-6e" x="405.908203"/>
       <use xlink:href="#ArialMT-69" x="461.523438"/>
       <use xlink:href="#ArialMT-75" x="483.740234"/>
       <use xlink:href="#ArialMT-6d" x="539.355469"/>
      </g>
     </g>
    </g>
    <g id="ytick_20">
     <g id="line2d_20">
      <g>
       <use xlink:href="#m072e9f0dfe" x="1296" y="518.832" style="fill: #262626; stroke: #262626; stroke-width: 1.25"/>
      </g>
     </g>
     <g id="text_28">
      <!-- Xanthoparmelia -->
      <g style="fill: #262626" transform="translate(1305.5 522.768797) scale(0.11 -0.11)">
       <defs>
        <path id="ArialMT-58" d="M 28 0 
L 1800 2388 
L 238 4581 
L 959 4581 
L 1791 3406 
Q 2050 3041 2159 2844 
Q 2313 3094 2522 3366 
L 3444 4581 
L 4103 4581 
L 2494 2422 
L 4228 0 
L 3478 0 
L 2325 1634 
Q 2228 1775 2125 1941 
Q 1972 1691 1906 1597 
L 756 0 
L 28 0 
z
" transform="scale(0.015625)"/>
       </defs>
       <use xlink:href="#ArialMT-58"/>
       <use xlink:href="#ArialMT-61" x="66.699219"/>
       <use xlink:href="#ArialMT-6e" x="122.314453"/>
       <use xlink:href="#ArialMT-74" x="177.929688"/>
       <use xlink:href="#ArialMT-68" x="205.712891"/>
       <use xlink:href="#ArialMT-6f" x="261.328125"/>
       <use xlink:href="#ArialMT-70" x="316.943359"/>
       <use xlink:href="#ArialMT-61" x="372.558594"/>
       <use xlink:href="#ArialMT-72" x="428.173828"/>
       <use xlink:href="#ArialMT-6d" x="461.474609"/>
       <use xlink:href="#ArialMT-65" x="544.775391"/>
       <use xlink:href="#ArialMT-6c" x="600.390625"/>
       <use xlink:href="#ArialMT-69" x="622.607422"/>
       <use xlink:href="#ArialMT-61" x="644.824219"/>
      </g>
     </g>
    </g>
    <g id="ytick_21">
     <g id="line2d_21">
      <g>
       <use xlink:href="#m072e9f0dfe" x="1296" y="541.008" style="fill: #262626; stroke: #262626; stroke-width: 1.25"/>
      </g>
     </g>
     <g id="text_29">
      <!-- unidentified -->
      <g style="fill: #262626" transform="translate(1305.5 544.944797) scale(0.11 -0.11)">
       <use xlink:href="#ArialMT-75"/>
       <use xlink:href="#ArialMT-6e" x="55.615234"/>
       <use xlink:href="#ArialMT-69" x="111.230469"/>
       <use xlink:href="#ArialMT-64" x="133.447266"/>
       <use xlink:href="#ArialMT-65" x="189.0625"/>
       <use xlink:href="#ArialMT-6e" x="244.677734"/>
       <use xlink:href="#ArialMT-74" x="300.292969"/>
       <use xlink:href="#ArialMT-69" x="328.076172"/>
       <use xlink:href="#ArialMT-66" x="350.292969"/>
       <use xlink:href="#ArialMT-69" x="378.076172"/>
       <use xlink:href="#ArialMT-65" x="400.292969"/>
       <use xlink:href="#ArialMT-64" x="455.908203"/>
      </g>
     </g>
    </g>
    <g id="ytick_22">
     <g id="line2d_22">
      <g>
       <use xlink:href="#m072e9f0dfe" x="1296" y="563.184" style="fill: #262626; stroke: #262626; stroke-width: 1.25"/>
      </g>
     </g>
     <g id="text_30">
      <!-- Nephroma -->
      <g style="fill: #262626" transform="translate(1305.5 567.120797) scale(0.11 -0.11)">
       <use xlink:href="#ArialMT-4e"/>
       <use xlink:href="#ArialMT-65" x="72.216797"/>
       <use xlink:href="#ArialMT-70" x="127.832031"/>
       <use xlink:href="#ArialMT-68" x="183.447266"/>
       <use xlink:href="#ArialMT-72" x="239.0625"/>
       <use xlink:href="#ArialMT-6f" x="272.363281"/>
       <use xlink:href="#ArialMT-6d" x="327.978516"/>
       <use xlink:href="#ArialMT-61" x="411.279297"/>
      </g>
     </g>
    </g>
    <g id="ytick_23">
     <g id="line2d_23">
      <g>
       <use xlink:href="#m072e9f0dfe" x="1296" y="585.36" style="fill: #262626; stroke: #262626; stroke-width: 1.25"/>
      </g>
     </g>
     <g id="text_31">
      <!-- Sphaerophorus -->
      <g style="fill: #262626" transform="translate(1305.5 589.363828) scale(0.11 -0.11)">
       <use xlink:href="#ArialMT-53"/>
       <use xlink:href="#ArialMT-70" x="66.699219"/>
       <use xlink:href="#ArialMT-68" x="122.314453"/>
       <use xlink:href="#ArialMT-61" x="177.929688"/>
       <use xlink:href="#ArialMT-65" x="233.544922"/>
       <use xlink:href="#ArialMT-72" x="289.160156"/>
       <use xlink:href="#ArialMT-6f" x="322.460938"/>
       <use xlink:href="#ArialMT-70" x="378.076172"/>
       <use xlink:href="#ArialMT-68" x="433.691406"/>
       <use xlink:href="#ArialMT-6f" x="489.306641"/>
       <use xlink:href="#ArialMT-72" x="544.921875"/>
       <use xlink:href="#ArialMT-75" x="578.222656"/>
       <use xlink:href="#ArialMT-73" x="633.837891"/>
      </g>
     </g>
    </g>
    <g id="ytick_24">
     <g id="line2d_24">
      <g>
       <use xlink:href="#m072e9f0dfe" x="1296" y="607.536" style="fill: #262626; stroke: #262626; stroke-width: 1.25"/>
      </g>
     </g>
     <g id="text_32">
      <!-- Ramalina -->
      <g style="fill: #262626" transform="translate(1305.5 611.472797) scale(0.11 -0.11)">
       <defs>
        <path id="ArialMT-52" d="M 503 0 
L 503 4581 
L 2534 4581 
Q 3147 4581 3465 4457 
Q 3784 4334 3975 4021 
Q 4166 3709 4166 3331 
Q 4166 2844 3850 2509 
Q 3534 2175 2875 2084 
Q 3116 1969 3241 1856 
Q 3506 1613 3744 1247 
L 4541 0 
L 3778 0 
L 3172 953 
Q 2906 1366 2734 1584 
Q 2563 1803 2427 1890 
Q 2291 1978 2150 2013 
Q 2047 2034 1813 2034 
L 1109 2034 
L 1109 0 
L 503 0 
z
M 1109 2559 
L 2413 2559 
Q 2828 2559 3062 2645 
Q 3297 2731 3419 2920 
Q 3541 3109 3541 3331 
Q 3541 3656 3305 3865 
Q 3069 4075 2559 4075 
L 1109 4075 
L 1109 2559 
z
" transform="scale(0.015625)"/>
       </defs>
       <use xlink:href="#ArialMT-52"/>
       <use xlink:href="#ArialMT-61" x="72.216797"/>
       <use xlink:href="#ArialMT-6d" x="127.832031"/>
       <use xlink:href="#ArialMT-61" x="211.132812"/>
       <use xlink:href="#ArialMT-6c" x="266.748047"/>
       <use xlink:href="#ArialMT-69" x="288.964844"/>
       <use xlink:href="#ArialMT-6e" x="311.181641"/>
       <use xlink:href="#ArialMT-61" x="366.796875"/>
      </g>
     </g>
    </g>
    <g id="ytick_25">
     <g id="line2d_25">
      <g>
       <use xlink:href="#m072e9f0dfe" x="1296" y="629.712" style="fill: #262626; stroke: #262626; stroke-width: 1.25"/>
      </g>
     </g>
     <g id="text_33">
      <!-- Cladonia -->
      <g style="fill: #262626" transform="translate(1305.5 633.648797) scale(0.11 -0.11)">
       <use xlink:href="#ArialMT-43"/>
       <use xlink:href="#ArialMT-6c" x="72.216797"/>
       <use xlink:href="#ArialMT-61" x="94.433594"/>
       <use xlink:href="#ArialMT-64" x="150.048828"/>
       <use xlink:href="#ArialMT-6f" x="205.664062"/>
       <use xlink:href="#ArialMT-6e" x="261.279297"/>
       <use xlink:href="#ArialMT-69" x="316.894531"/>
       <use xlink:href="#ArialMT-61" x="339.111328"/>
      </g>
     </g>
    </g>
   </g>
   <g id="patch_3">
    <path d="M 1296 88.6176 
L 233.142857 88.6176 
L 233.142857 106.3584 
L 1296 106.3584 
z
" clip-path="url(#p61c5e511f0)" style="fill: #808080; stroke: #ffffff; stroke-linejoin: miter"/>
   </g>
   <g id="patch_4">
    <path d="M 1296 110.7936 
L 529.348946 110.7936 
L 529.348946 128.5344 
L 1296 128.5344 
z
" clip-path="url(#p61c5e511f0)" style="fill: #808080; stroke: #ffffff; stroke-linejoin: miter"/>
   </g>
   <g id="patch_5">
    <path d="M 1296 132.9696 
L 790.70726 132.9696 
L 790.70726 150.7104 
L 1296 150.7104 
z
" clip-path="url(#p61c5e511f0)" style="fill: #808080; stroke: #ffffff; stroke-linejoin: miter"/>
   </g>
   <g id="patch_6">
    <path d="M 1296 155.1456 
L 808.131148 155.1456 
L 808.131148 172.8864 
L 1296 172.8864 
z
" clip-path="url(#p61c5e511f0)" style="fill: #808080; stroke: #ffffff; stroke-linejoin: miter"/>
   </g>
   <g id="patch_7">
    <path d="M 1296 177.3216 
L 895.250585 177.3216 
L 895.250585 195.0624 
L 1296 195.0624 
z
" clip-path="url(#p61c5e511f0)" style="fill: #808080; stroke: #ffffff; stroke-linejoin: miter"/>
   </g>
   <g id="patch_8">
    <path d="M 1296 199.4976 
L 912.674473 199.4976 
L 912.674473 217.2384 
L 1296 217.2384 
z
" clip-path="url(#p61c5e511f0)" style="fill: #808080; stroke: #ffffff; stroke-linejoin: miter"/>
   </g>
   <g id="patch_9">
    <path d="M 1296 221.6736 
L 982.370023 221.6736 
L 982.370023 239.4144 
L 1296 239.4144 
z
" clip-path="url(#p61c5e511f0)" style="fill: #808080; stroke: #ffffff; stroke-linejoin: miter"/>
   </g>
   <g id="patch_10">
    <path d="M 1296 243.8496 
L 999.793911 243.8496 
L 999.793911 261.5904 
L 1296 261.5904 
z
" clip-path="url(#p61c5e511f0)" style="fill: #808080; stroke: #ffffff; stroke-linejoin: miter"/>
   </g>
   <g id="patch_11">
    <path d="M 1296 266.0256 
L 1034.641686 266.0256 
L 1034.641686 283.7664 
L 1296 283.7664 
z
" clip-path="url(#p61c5e511f0)" style="fill: #808080; stroke: #ffffff; stroke-linejoin: miter"/>
   </g>
   <g id="patch_12">
    <path d="M 1296 288.2016 
L 1052.065574 288.2016 
L 1052.065574 305.9424 
L 1296 305.9424 
z
" clip-path="url(#p61c5e511f0)" style="fill: #808080; stroke: #ffffff; stroke-linejoin: miter"/>
   </g>
   <g id="patch_13">
    <path d="M 1296 310.3776 
L 1052.065574 310.3776 
L 1052.065574 328.1184 
L 1296 328.1184 
z
" clip-path="url(#p61c5e511f0)" style="fill: #808080; stroke: #ffffff; stroke-linejoin: miter"/>
   </g>
   <g id="patch_14">
    <path d="M 1296 332.5536 
L 1052.065574 332.5536 
L 1052.065574 350.2944 
L 1296 350.2944 
z
" clip-path="url(#p61c5e511f0)" style="fill: #808080; stroke: #ffffff; stroke-linejoin: miter"/>
   </g>
   <g id="patch_15">
    <path d="M 1296 354.7296 
L 1121.761124 354.7296 
L 1121.761124 372.4704 
L 1296 372.4704 
z
" clip-path="url(#p61c5e511f0)" style="fill: #808080; stroke: #ffffff; stroke-linejoin: miter"/>
   </g>
   <g id="patch_16">
    <path d="M 1296 376.9056 
L 1139.185012 376.9056 
L 1139.185012 394.6464 
L 1296 394.6464 
z
" clip-path="url(#p61c5e511f0)" style="fill: #808080; stroke: #ffffff; stroke-linejoin: miter"/>
   </g>
   <g id="patch_17">
    <path d="M 1296 399.0816 
L 1139.185012 399.0816 
L 1139.185012 416.8224 
L 1296 416.8224 
z
" clip-path="url(#p61c5e511f0)" style="fill: #808080; stroke: #ffffff; stroke-linejoin: miter"/>
   </g>
   <g id="patch_18">
    <path d="M 1296 421.2576 
L 1156.608899 421.2576 
L 1156.608899 438.9984 
L 1296 438.9984 
z
" clip-path="url(#p61c5e511f0)" style="fill: #808080; stroke: #ffffff; stroke-linejoin: miter"/>
   </g>
   <g id="patch_19">
    <path d="M 1296 443.4336 
L 1174.032787 443.4336 
L 1174.032787 461.1744 
L 1296 461.1744 
z
" clip-path="url(#p61c5e511f0)" style="fill: #808080; stroke: #ffffff; stroke-linejoin: miter"/>
   </g>
   <g id="patch_20">
    <path d="M 1296 465.6096 
L 1191.456674 465.6096 
L 1191.456674 483.3504 
L 1296 483.3504 
z
" clip-path="url(#p61c5e511f0)" style="fill: #808080; stroke: #ffffff; stroke-linejoin: miter"/>
   </g>
   <g id="patch_21">
    <path d="M 1296 487.7856 
L 1191.456674 487.7856 
L 1191.456674 505.5264 
L 1296 505.5264 
z
" clip-path="url(#p61c5e511f0)" style="fill: #808080; stroke: #ffffff; stroke-linejoin: miter"/>
   </g>
   <g id="patch_22">
    <path d="M 1296 509.9616 
L 1191.456674 509.9616 
L 1191.456674 527.7024 
L 1296 527.7024 
z
" clip-path="url(#p61c5e511f0)" style="fill: #808080; stroke: #ffffff; stroke-linejoin: miter"/>
   </g>
   <g id="patch_23">
    <path d="M 1296 532.1376 
L 1191.456674 532.1376 
L 1191.456674 549.8784 
L 1296 549.8784 
z
" clip-path="url(#p61c5e511f0)" style="fill: #808080; stroke: #ffffff; stroke-linejoin: miter"/>
   </g>
   <g id="patch_24">
    <path d="M 1296 554.3136 
L 1208.880562 554.3136 
L 1208.880562 572.0544 
L 1296 572.0544 
z
" clip-path="url(#p61c5e511f0)" style="fill: #808080; stroke: #ffffff; stroke-linejoin: miter"/>
   </g>
   <g id="patch_25">
    <path d="M 1296 576.4896 
L 1226.30445 576.4896 
L 1226.30445 594.2304 
L 1296 594.2304 
z
" clip-path="url(#p61c5e511f0)" style="fill: #808080; stroke: #ffffff; stroke-linejoin: miter"/>
   </g>
   <g id="patch_26">
    <path d="M 1296 598.6656 
L 1243.728337 598.6656 
L 1243.728337 616.4064 
L 1296 616.4064 
z
" clip-path="url(#p61c5e511f0)" style="fill: #808080; stroke: #ffffff; stroke-linejoin: miter"/>
   </g>
   <g id="patch_27">
    <path d="M 1296 620.8416 
L 1261.152225 620.8416 
L 1261.152225 638.5824 
L 1296 638.5824 
z
" clip-path="url(#p61c5e511f0)" style="fill: #808080; stroke: #ffffff; stroke-linejoin: miter"/>
   </g>
   <g id="line2d_26">
    <path clip-path="url(#p61c5e511f0)" style="fill: none; stroke: #424242; stroke-width: 2.7; stroke-linecap: round"/>
   </g>
   <g id="line2d_27">
    <path clip-path="url(#p61c5e511f0)" style="fill: none; stroke: #424242; stroke-width: 2.7; stroke-linecap: round"/>
   </g>
   <g id="line2d_28">
    <path clip-path="url(#p61c5e511f0)" style="fill: none; stroke: #424242; stroke-width: 2.7; stroke-linecap: round"/>
   </g>
   <g id="line2d_29">
    <path clip-path="url(#p61c5e511f0)" style="fill: none; stroke: #424242; stroke-width: 2.7; stroke-linecap: round"/>
   </g>
   <g id="line2d_30">
    <path clip-path="url(#p61c5e511f0)" style="fill: none; stroke: #424242; stroke-width: 2.7; stroke-linecap: round"/>
   </g>
   <g id="line2d_31">
    <path clip-path="url(#p61c5e511f0)" style="fill: none; stroke: #424242; stroke-width: 2.7; stroke-linecap: round"/>
   </g>
   <g id="line2d_32">
    <path clip-path="url(#p61c5e511f0)" style="fill: none; stroke: #424242; stroke-width: 2.7; stroke-linecap: round"/>
   </g>
   <g id="line2d_33">
    <path clip-path="url(#p61c5e511f0)" style="fill: none; stroke: #424242; stroke-width: 2.7; stroke-linecap: round"/>
   </g>
   <g id="line2d_34">
    <path clip-path="url(#p61c5e511f0)" style="fill: none; stroke: #424242; stroke-width: 2.7; stroke-linecap: round"/>
   </g>
   <g id="line2d_35">
    <path clip-path="url(#p61c5e511f0)" style="fill: none; stroke: #424242; stroke-width: 2.7; stroke-linecap: round"/>
   </g>
   <g id="line2d_36">
    <path clip-path="url(#p61c5e511f0)" style="fill: none; stroke: #424242; stroke-width: 2.7; stroke-linecap: round"/>
   </g>
   <g id="line2d_37">
    <path clip-path="url(#p61c5e511f0)" style="fill: none; stroke: #424242; stroke-width: 2.7; stroke-linecap: round"/>
   </g>
   <g id="line2d_38">
    <path clip-path="url(#p61c5e511f0)" style="fill: none; stroke: #424242; stroke-width: 2.7; stroke-linecap: round"/>
   </g>
   <g id="line2d_39">
    <path clip-path="url(#p61c5e511f0)" style="fill: none; stroke: #424242; stroke-width: 2.7; stroke-linecap: round"/>
   </g>
   <g id="line2d_40">
    <path clip-path="url(#p61c5e511f0)" style="fill: none; stroke: #424242; stroke-width: 2.7; stroke-linecap: round"/>
   </g>
   <g id="line2d_41">
    <path clip-path="url(#p61c5e511f0)" style="fill: none; stroke: #424242; stroke-width: 2.7; stroke-linecap: round"/>
   </g>
   <g id="line2d_42">
    <path clip-path="url(#p61c5e511f0)" style="fill: none; stroke: #424242; stroke-width: 2.7; stroke-linecap: round"/>
   </g>
   <g id="line2d_43">
    <path clip-path="url(#p61c5e511f0)" style="fill: none; stroke: #424242; stroke-width: 2.7; stroke-linecap: round"/>
   </g>
   <g id="line2d_44">
    <path clip-path="url(#p61c5e511f0)" style="fill: none; stroke: #424242; stroke-width: 2.7; stroke-linecap: round"/>
   </g>
   <g id="line2d_45">
    <path clip-path="url(#p61c5e511f0)" style="fill: none; stroke: #424242; stroke-width: 2.7; stroke-linecap: round"/>
   </g>
   <g id="line2d_46">
    <path clip-path="url(#p61c5e511f0)" style="fill: none; stroke: #424242; stroke-width: 2.7; stroke-linecap: round"/>
   </g>
   <g id="line2d_47">
    <path clip-path="url(#p61c5e511f0)" style="fill: none; stroke: #424242; stroke-width: 2.7; stroke-linecap: round"/>
   </g>
   <g id="line2d_48">
    <path clip-path="url(#p61c5e511f0)" style="fill: none; stroke: #424242; stroke-width: 2.7; stroke-linecap: round"/>
   </g>
   <g id="line2d_49">
    <path clip-path="url(#p61c5e511f0)" style="fill: none; stroke: #424242; stroke-width: 2.7; stroke-linecap: round"/>
   </g>
   <g id="line2d_50">
    <path clip-path="url(#p61c5e511f0)" style="fill: none; stroke: #424242; stroke-width: 2.7; stroke-linecap: round"/>
   </g>
   <g id="patch_28">
    <path d="M 180 640.8 
L 1296 640.8 
" style="fill: none; stroke: #262626; stroke-width: 1.25; stroke-linejoin: miter; stroke-linecap: square"/>
   </g>
  </g>
 </g>
 <defs>
  <clipPath id="p61c5e511f0">
   <rect x="180" y="86.4" width="1116" height="554.4"/>
  </clipPath>
 </defs>
</svg>
