<?xml version="1.0" encoding="utf-8" standalone="no"?>
<!DOCTYPE svg PUBLIC "-//W3C//DTD SVG 1.1//EN"
  "http://www.w3.org/Graphics/SVG/1.1/DTD/svg11.dtd">
<svg xmlns:xlink="http://www.w3.org/1999/xlink" width="1080pt" height="720pt" viewBox="0 0 1080 720" xmlns="http://www.w3.org/2000/svg" version="1.1">
 <metadata>
  <rdf:RDF xmlns:dc="http://purl.org/dc/elements/1.1/" xmlns:cc="http://creativecommons.org/ns#" xmlns:rdf="http://www.w3.org/1999/02/22-rdf-syntax-ns#">
   <cc:Work>
    <dc:type rdf:resource="http://purl.org/dc/dcmitype/StillImage"/>
    <dc:date>2023-07-24T13:43:49.992203</dc:date>
    <dc:format>image/svg+xml</dc:format>
    <dc:creator>
     <cc:Agent>
      <dc:title>Matplotlib v3.6.3, https://matplotlib.org/</dc:title>
     </cc:Agent>
    </dc:creator>
   </cc:Work>
  </rdf:RDF>
 </metadata>
 <defs>
  <style type="text/css">*{stroke-linejoin: round; stroke-linecap: butt}</style>
 </defs>
 <g id="figure_1">
  <g id="patch_1">
   <path d="M 0 720 
L 1080 720 
L 1080 0 
L 0 0 
z
" style="fill: #ffffff"/>
  </g>
  <g id="axes_1">
   <g id="patch_2">
    <path d="M 344.205044 640.8 
L 762.794956 640.8 
L 762.794956 86.4 
L 344.205044 86.4 
z
" clip-path="url(#p735a11947e)" style="fill: #ffffff"/>
   </g>
   <g id="patch_3">
    <path d="M 344.205044 640.8 
L 762.794956 640.8 
L 762.794956 86.4 
L 344.205044 86.4 
z
" clip-path="url(#p735a11947e)" style="fill: #ffffff"/>
   </g>
   <g id="patch_4">
    <path d="M 483.676682 569.318854 
L 478.340403 572.533164 
L 478.81562 577.137975 
L 472.292607 582.390424 
L 469.176511 581.409646 
L 461.758871 585.81154 
L 459.643019 583.508304 
L 456.107929 586.388657 
L 451.690557 585.709786 
L 449.805914 581.510895 
L 441.385913 583.67752 
L 437.643456 580.599218 
L 437.108635 584.25439 
L 434.167979 579.804868 
L 438.643684 578.470555 
L 437.339852 575.838938 
L 435.597004 579.147199 
L 431.270755 572.8027 
L 421.851805 574.588816 
L 418.178324 565.707362 
L 411.364059 565.035741 
L 409.995932 568.630748 
L 406.087403 569.472515 
L 390.969385 567.420683 
L 389.354709 564.749327 
L 397.842839 556.072103 
L 387.970818 562.755287 
L 389.437743 558.565407 
L 393.680953 556.910349 
L 390.121167 556.910349 
L 391.924905 553.352289 
L 385.017391 559.40337 
L 384.123184 553.299704 
L 399.471141 547.73169 
L 392.446951 548.132426 
L 399.143267 543.27258 
L 392.599393 545.616331 
L 392.482294 542.822804 
L 399.761119 541.495922 
L 396.82004 540.681376 
L 400.472224 538.656499 
L 390.99323 542.124886 
L 393.181478 535.093097 
L 396.53943 535.870719 
L 393.703097 534.116287 
L 394.666707 531.549867 
L 400.924011 533.073858 
L 397.830914 536.053947 
L 401.540161 534.192063 
L 401.737737 539.270398 
L 404.693721 537.613175 
L 400.238881 531.600734 
L 405.411641 531.884136 
L 404.841477 529.186579 
L 400.481168 530.360953 
L 399.284635 524.767748 
L 400.808615 523.300052 
L 404.109083 526.267216 
L 400.750281 522.986957 
L 402.527617 521.190991 
L 404.738432 525.243813 
L 403.62238 519.381394 
L 408.666972 521.225349 
L 403.888085 518.674457 
L 409.227764 513.010693 
L 412.156072 518.921022 
L 410.146237 512.238804 
L 413.574878 510.322664 
L 414.736492 514.256301 
L 413.887 509.487532 
L 421.03893 502.767817 
L 425.782894 506.132376 
L 422.843947 499.455977 
L 430.713794 492.735376 
L 429.444022 490.150517 
L 438.248109 480.443656 
L 445.318711 478.439812 
L 447.853142 481.123739 
L 456.781558 473.793466 
L 462.013938 478.957772 
L 464.072311 477.649351 
L 460.763325 477.092366 
L 457.063023 473.632315 
L 466.82774 465.939775 
L 469.130953 468.608315 
L 467.988922 465.876814 
L 471.340062 464.077209 
L 472.085232 465.875638 
L 476.200269 460.549084 
L 478.293143 463.564629 
L 477.502839 458.625439 
L 482.411161 460.387666 
L 477.945259 457.697779 
L 485.175961 452.805252 
L 487.851339 455.616591 
L 485.316909 452.485555 
L 491.012993 446.103035 
L 494.396484 447.874218 
L 491.037682 445.786584 
L 494.571925 445.880209 
L 495.013058 443.620413 
L 496.757608 445.720972 
L 496.932201 443.826706 
L 501.246944 448.111255 
L 500.781106 444.702808 
L 495.955383 442.936377 
L 502.106655 439.931639 
L 504.640662 445.40311 
L 502.279962 439.788511 
L 515.653434 424.997134 
L 524.534167 394.408515 
L 531.686945 393.240996 
L 541.302628 381.104717 
L 543.280089 360.975461 
L 554.499814 351.080548 
L 553.848733 352.857975 
L 556.918424 351.47839 
L 554.978419 350.667931 
L 557.662738 348.235361 
L 566.849193 349.061255 
L 568.745342 350.330195 
L 560.664276 348.663538 
L 557.814744 353.883856 
L 562.149941 360.100504 
L 567.268618 358.348174 
L 567.481107 361.727948 
L 569.232041 361.160955 
L 567.487067 371.916364 
L 572.894024 378.764376 
L 584.057093 368.31916 
L 586.103554 370.510428 
L 590.824091 363.69799 
L 591.266934 366.130465 
L 589.06762 367.224578 
L 588.755498 370.81902 
L 594.021084 368.767258 
L 589.255405 372.131252 
L 591.648887 372.965553 
L 588.673323 376.336512 
L 590.404243 377.310255 
L 593.323606 374.819869 
L 591.522008 374.58804 
L 598.767612 372.747182 
L 591.790258 374.202558 
L 593.545882 369.553813 
L 594.406456 372.022114 
L 596.626208 370.433287 
L 596.236162 367.402919 
L 593.534385 367.935812 
L 594.570807 365.885085 
L 598.358837 368.41346 
L 598.078227 366.314391 
L 601.824519 365.916957 
L 601.428513 369.092289 
L 604.150304 366.285593 
L 601.568175 371.745582 
L 599.509809 370.525956 
L 600.636923 373.6915 
L 592.766652 376.830567 
L 604.254627 374.38708 
L 602.057007 378.330882 
L 598.777415 379.5397 
L 600.670991 377.355586 
L 598.615606 377.525896 
L 596.20763 383.08853 
L 603.139418 394.003301 
L 586.8351 417.274714 
L 587.509584 419.761445 
L 582.509692 421.398017 
L 574.383939 439.771649 
L 561.279579 446.437618 
L 557.650394 457.519563 
L 559.44178 456.818555 
L 559.209716 463.068032 
L 562.163995 464.126304 
L 557.745776 466.085695 
L 568.893944 466.614713 
L 571.163512 470.265858 
L 569.708529 474.438226 
L 566.660562 475.698743 
L 565.546639 470.475116 
L 565.591781 476.310643 
L 559.451568 473.374355 
L 545.615677 476.181505 
L 544.3625 472.2154 
L 530.301776 461.623228 
L 545.488783 476.229973 
L 534.222222 482.192378 
L 533.61459 480.21956 
L 534.08129 482.224956 
L 526.291485 487.148728 
L 520.629046 480.2024 
L 526.187162 487.22979 
L 520.781052 490.555465 
L 517.686688 499.472399 
L 515.347697 498.021854 
L 517.535952 499.715694 
L 515.861657 516.440691 
L 508.465725 514.865683 
L 515.628306 517.130687 
L 507.861512 528.760786 
L 507.023509 537.958973 
L 499.723384 547.763704 
L 503.791601 550.463277 
L 504.083708 549.913146 
L 504.723276 553.767494 
L 492.292129 557.362054 
L 483.735016 569.23602 
z
" clip-path="url(#p735a11947e)" style="fill: #808080; opacity: 0.3"/>
   </g>
   <g id="patch_5">
    <path d="M 621.607741 366.423279 
L 630.417357 347.914189 
L 628.53142 335.073075 
L 622.999278 327.932971 
L 624.88051 327.509217 
L 610.963699 323.160625 
L 603.707461 316.206518 
L 593.962327 313.067168 
L 588.462968 303.512971 
L 596.265117 295.48966 
L 606.313855 293.36358 
L 611.928188 287.072992 
L 614.463873 261.944425 
L 617.054958 261.042112 
L 618.428614 263.468094 
L 620.974965 261.145729 
L 618.916176 259.360366 
L 617.228689 260.940691 
L 620.370328 256.658166 
L 617.615739 258.150088 
L 616.625715 252.915497 
L 622.555573 250.739131 
L 621.519998 248.4876 
L 618.790129 250.708419 
L 615.021705 237.996395 
L 616.985975 234.878252 
L 614.603127 235.097596 
L 610.393538 224.675218 
L 613.756184 224.280952 
L 615.032779 230.407378 
L 614.684032 227.54685 
L 621.368854 224.674151 
L 616.149666 222.621793 
L 618.578503 220.626937 
L 617.054958 220.060697 
L 608.999021 224.324714 
L 607.136941 216.266204 
L 599.673736 203.575293 
L 601.94034 202.664668 
L 606.04559 207.566009 
L 605.09219 209.390617 
L 607.869335 210.420294 
L 607.324302 200.018715 
L 605.381741 202.202485 
L 602.579061 199.386503 
L 606.28788 198.042713 
L 606.684311 195.938342 
L 604.017449 198.368684 
L 602.975052 196.933041 
L 604.976794 196.962341 
L 606.615327 193.862487 
L 604.172436 195.823776 
L 602.592252 191.933948 
L 600.497684 192.248909 
L 603.485184 195.461697 
L 601.729984 197.149278 
L 592.917812 188.223121 
L 600.41678 199.527891 
L 596.720304 201.783468 
L 593.975957 194.481805 
L 577.699309 172.500681 
L 580.81284 167.503502 
L 578.196219 167.146693 
L 577.475746 171.715757 
L 572.001092 164.508332 
L 573.347941 162.713495 
L 572.150557 163.895476 
L 569.068521 160.464129 
L 571.836725 159.355492 
L 571.884001 154.124602 
L 557.512426 136.069853 
L 558.453889 134.221686 
L 568.779394 133.827828 
L 567.615232 137.298482 
L 564.6618 135.718094 
L 563.534686 138.243835 
L 565.943069 137.777072 
L 566.685689 141.137176 
L 567.149817 137.804459 
L 572.324711 146.92298 
L 569.894603 145.634653 
L 570.83649 147.546848 
L 575.302407 150.12482 
L 574.056477 154.254069 
L 576.417177 154.012829 
L 575.464217 149.07607 
L 578.591379 146.344319 
L 580.605465 148.62358 
L 577.812149 150.011635 
L 579.475794 153.373967 
L 582.615301 154.481286 
L 583.102 150.821592 
L 588.557079 153.727953 
L 587.801691 156.922514 
L 591.522855 153.459232 
L 594.359181 158.11764 
L 597.614084 157.862534 
L 598.731849 159.711266 
L 595.521226 158.573517 
L 596.72159 160.408383 
L 594.765838 160.947205 
L 597.346681 161.034509 
L 598.28772 165.605706 
L 601.858588 165.250215 
L 598.6386 164.266966 
L 598.683727 162.044234 
L 601.219867 163.497697 
L 604.614432 159.739656 
L 603.486455 163.25539 
L 606.067298 166.218656 
L 604.115388 166.019202 
L 610.32286 173.586072 
L 610.336914 175.660954 
L 609.788901 175.30311 
L 608.973893 178.940279 
L 611.324367 178.279364 
L 611.952029 183.097636 
L 604.544601 178.43882 
L 604.277198 182.348789 
L 609.335847 182.449896 
L 608.370104 187.31764 
L 611.857478 189.64653 
L 611.347361 192.8399 
L 612.150009 190.926607 
L 618.347301 197.625421 
L 615.997644 199.586554 
L 619.602157 200.683866 
L 615.252906 201.462641 
L 615.869056 205.438801 
L 614.672111 202.620498 
L 614.253094 208.724118 
L 618.90551 208.926207 
L 615.232045 209.565445 
L 618.112242 216.790972 
L 614.127486 215.265922 
L 613.717849 218.561748 
L 619.567241 217.268463 
L 619.428834 219.56592 
L 620.568308 217.384723 
L 622.174483 220.2631 
L 624.359319 218.431058 
L 625.45111 221.282582 
L 628.589769 220.380552 
L 631.369455 222.722555 
L 632.870004 230.0863 
L 638.265056 228.684819 
L 639.335107 231.254259 
L 634.577098 217.777985 
L 637.461561 215.192546 
L 635.274592 213.014642 
L 636.438754 209.797306 
L 632.367573 204.787829 
L 637.078307 205.642239 
L 640.264242 214.218175 
L 646.25157 213.130745 
L 641.878917 218.359439 
L 646.344835 217.895311 
L 647.274816 231.063588 
L 650.949976 239.138881 
L 649.113886 243.154129 
L 652.729033 244.725451 
L 652.285767 246.635575 
L 657.728063 247.781825 
L 656.077186 244.638366 
L 683.076632 257.382826 
L 680.810452 258.045781 
L 683.308681 259.507149 
L 683.447935 257.501941 
L 690.750162 257.204798 
L 696.610628 253.254488 
L 699.446938 246.606243 
L 703.562854 246.428968 
L 706.518842 241.645235 
L 715.796005 242.260192 
L 716.353806 244.786215 
L 722.411813 246.943352 
L 717.784117 251.326576 
L 720.390072 250.176876 
L 716.366166 258.637054 
L 715.178977 276.736758 
L 708.958722 283.150852 
L 704.807921 282.897691 
L 703.924776 294.964704 
L 707.088564 297.721834 
L 703.285224 303.194497 
L 702.563889 295.728202 
L 691.309688 294.859989 
L 680.297763 300.810803 
L 675.36687 311.06196 
L 678.215132 316.17612 
L 681.785984 316.855669 
L 675.483976 334.586266 
L 669.670378 340.340637 
L 668.622882 347.700304 
L 659.880117 356.030734 
L 650.194164 375.576653 
L 635.310354 387.764505 
L 629.915302 389.068612 
L 626.961886 379.756691 
L 619.579162 381.63295 
L 620.475075 375.051729 
L 617.324055 376.272767 
L 618.3111 379.261192 
L 612.531131 377.325564 
L 617.823099 370.541516 
L 620.846377 370.232673 
L 618.812276 368.70458 
L 621.519998 366.532166 
z
" clip-path="url(#p735a11947e)" style="fill: #808080; opacity: 0.3"/>
   </g>
   <g id="patch_6">
    <path d="M 427.877461 604.322512 
L 423.086654 607.435605 
L 419.644398 605.758121 
L 415.562142 609.130372 
L 418.108493 610.415097 
L 412.750506 611.050213 
L 415.806982 603.230239 
L 420.004634 601.402255 
L 419.679313 589.422253 
L 422.03959 586.589751 
L 427.388205 588.016572 
L 432.514976 595.167106 
L 427.853196 594.094346 
L 425.667928 598.180746 
L 428.131673 596.306475 
L 431.828995 599.136275 
L 433.585043 596.391265 
L 434.133063 603.538597 
L 427.899609 604.32345 
z
" clip-path="url(#p735a11947e)" style="fill: #808080; opacity: 0.3"/>
   </g>
   <g id="PathCollection_1">
    <path d="M 618.213459 381.568905 
C 618.872703 381.568905 619.505035 381.306984 619.971191 380.840828 
C 620.437347 380.374672 620.699268 379.74234 620.699268 379.083096 
C 620.699268 378.423852 620.437347 377.79152 619.971191 377.325364 
C 619.505035 376.859208 618.872703 376.597287 618.213459 376.597287 
C 617.554215 376.597287 616.921883 376.859208 616.455727 377.325364 
C 615.989571 377.79152 615.72765 378.423852 615.72765 379.083096 
C 615.72765 379.74234 615.989571 380.374672 616.455727 380.840828 
C 616.921883 381.306984 617.554215 381.568905 618.213459 381.568905 
z
" clip-path="url(#p735a11947e)" style="fill: #4878d0; stroke: #000000; stroke-width: 0.1"/>
    <path d="M 618.184364 382.680407 
C 619.160144 382.680407 620.096089 382.292725 620.786069 381.602745 
C 621.476049 380.912765 621.863731 379.97682 621.863731 379.00104 
C 621.863731 378.025261 621.476049 377.089316 620.786069 376.399336 
C 620.096089 375.709355 619.160144 375.321674 618.184364 375.321674 
C 617.208585 375.321674 616.27264 375.709355 615.582659 376.399336 
C 614.892679 377.089316 614.504998 378.025261 614.504998 379.00104 
C 614.504998 379.97682 614.892679 380.912765 615.582659 381.602745 
C 616.27264 382.292725 617.208585 382.680407 618.184364 382.680407 
z
" clip-path="url(#p735a11947e)" style="fill: #4878d0; stroke: #000000; stroke-width: 0.1"/>
    <path d="M 621.87803 372.096645 
C 622.785091 372.096645 623.655123 371.736266 624.296512 371.094877 
C 624.937901 370.453488 625.29828 369.583455 625.29828 368.676394 
C 625.29828 367.769333 624.937901 366.899301 624.296512 366.257912 
C 623.655123 365.616523 622.785091 365.256144 621.87803 365.256144 
C 620.970969 365.256144 620.100936 365.616523 619.459547 366.257912 
C 618.818158 366.899301 618.457779 367.769333 618.457779 368.676394 
C 618.457779 369.583455 618.818158 370.453488 619.459547 371.094877 
C 620.100936 371.736266 620.970969 372.096645 621.87803 372.096645 
z
" clip-path="url(#p735a11947e)" style="fill: #4878d0; stroke: #000000; stroke-width: 0.1"/>
    <path d="M 617.582265 376.801785 
C 618.001587 376.801785 618.403792 376.635187 618.700299 376.33868 
C 618.996805 376.042174 619.163403 375.639969 619.163403 375.220646 
C 619.163403 374.801324 618.996805 374.399119 618.700299 374.102612 
C 618.403792 373.806106 618.001587 373.639508 617.582265 373.639508 
C 617.162942 373.639508 616.760737 373.806106 616.464231 374.102612 
C 616.167724 374.399119 616.001126 374.801324 616.001126 375.220646 
C 616.001126 375.639969 616.167724 376.042174 616.464231 376.33868 
C 616.760737 376.635187 617.162942 376.801785 617.582265 376.801785 
z
" clip-path="url(#p735a11947e)" style="fill: #4878d0; stroke: #000000; stroke-width: 0.1"/>
    <path d="M 497.066294 558.434932 
C 497.973355 558.434932 498.843387 558.074553 499.484776 557.433164 
C 500.126165 556.791775 500.486545 555.921743 500.486545 555.014682 
C 500.486545 554.107621 500.126165 553.237589 499.484776 552.5962 
C 498.843387 551.954811 497.973355 551.594432 497.066294 551.594432 
C 496.159233 551.594432 495.289201 551.954811 494.647812 552.5962 
C 494.006423 553.237589 493.646044 554.107621 493.646044 555.014682 
C 493.646044 555.921743 494.006423 556.791775 494.647812 557.433164 
C 495.289201 558.074553 496.159233 558.434932 497.066294 558.434932 
z
" clip-path="url(#p735a11947e)" style="fill: #ee854a; stroke: #000000; stroke-width: 0.1"/>
    <path d="M 618.611772 378.641632 
C 619.651739 378.641632 620.649252 378.228449 621.384619 377.493082 
C 622.119987 376.757714 622.53317 375.760202 622.53317 374.720235 
C 622.53317 373.680268 622.119987 372.682756 621.384619 371.947388 
C 620.649252 371.21202 619.651739 370.798837 618.611772 370.798837 
C 617.571806 370.798837 616.574293 371.21202 615.838926 371.947388 
C 615.103558 372.682756 614.690375 373.680268 614.690375 374.720235 
C 614.690375 375.760202 615.103558 376.757714 615.838926 377.493082 
C 616.574293 378.228449 617.571806 378.641632 618.611772 378.641632 
z
" clip-path="url(#p735a11947e)" style="fill: #4878d0; stroke: #000000; stroke-width: 0.1"/>
    <path d="M 453.027231 479.291186 
C 453.778222 479.291186 454.498557 478.992814 455.029588 478.461783 
C 455.560619 477.930751 455.858991 477.210417 455.858991 476.459426 
C 455.858991 475.708434 455.560619 474.9881 455.029588 474.457068 
C 454.498557 473.926037 453.778222 473.627665 453.027231 473.627665 
C 452.276239 473.627665 451.555905 473.926037 451.024874 474.457068 
C 450.493842 474.9881 450.19547 475.708434 450.19547 476.459426 
C 450.19547 477.210417 450.493842 477.930751 451.024874 478.461783 
C 451.555905 478.992814 452.276239 479.291186 453.027231 479.291186 
z
" clip-path="url(#p735a11947e)" style="fill: #6acc64; stroke: #000000; stroke-width: 0.1"/>
    <path d="M 471.301189 470.332551 
C 472.052181 470.332551 472.772515 470.034178 473.303546 469.503147 
C 473.834578 468.972116 474.13295 468.251782 474.13295 467.50079 
C 474.13295 466.749798 473.834578 466.029464 473.303546 465.498433 
C 472.772515 464.967402 472.052181 464.669029 471.301189 464.669029 
C 470.550197 464.669029 469.829863 464.967402 469.298832 465.498433 
C 468.767801 466.029464 468.469429 466.749798 468.469429 467.50079 
C 468.469429 468.251782 468.767801 468.972116 469.298832 469.503147 
C 469.829863 470.034178 470.550197 470.332551 471.301189 470.332551 
z
" clip-path="url(#p735a11947e)" style="fill: #6acc64; stroke: #000000; stroke-width: 0.1"/>
    <path d="M 497.148449 556.491921 
C 497.567772 556.491921 497.969977 556.325322 498.266483 556.028816 
C 498.562989 555.73231 498.729588 555.330105 498.729588 554.910782 
C 498.729588 554.491459 498.562989 554.089254 498.266483 553.792748 
C 497.969977 553.496242 497.567772 553.329643 497.148449 553.329643 
C 496.729126 553.329643 496.326921 553.496242 496.030415 553.792748 
C 495.733909 554.089254 495.56731 554.491459 495.56731 554.910782 
C 495.56731 555.330105 495.733909 555.73231 496.030415 556.028816 
C 496.326921 556.325322 496.729126 556.491921 497.148449 556.491921 
z
" clip-path="url(#p735a11947e)" style="fill: #ee854a; stroke: #000000; stroke-width: 0.1"/>
    <path d="M 505.369416 531.606065 
C 506.120407 531.606065 506.840741 531.307693 507.371773 530.776661 
C 507.902804 530.24563 508.201176 529.525296 508.201176 528.774304 
C 508.201176 528.023313 507.902804 527.302979 507.371773 526.771947 
C 506.840741 526.240916 506.120407 525.942544 505.369416 525.942544 
C 504.618424 525.942544 503.89809 526.240916 503.367059 526.771947 
C 502.836027 527.302979 502.537655 528.023313 502.537655 528.774304 
C 502.537655 529.525296 502.836027 530.24563 503.367059 530.776661 
C 503.89809 531.307693 504.618424 531.606065 505.369416 531.606065 
z
" clip-path="url(#p735a11947e)" style="fill: #4878d0; stroke: #000000; stroke-width: 0.1"/>
    <path d="M 617.30167 378.246822 
C 618.208731 378.246822 619.078763 377.886443 619.720152 377.245054 
C 620.361541 376.603665 620.72192 375.733633 620.72192 374.826572 
C 620.72192 373.919511 620.361541 373.049479 619.720152 372.40809 
C 619.078763 371.766701 618.208731 371.406322 617.30167 371.406322 
C 616.394609 371.406322 615.524576 371.766701 614.883187 372.40809 
C 614.241798 373.049479 613.881419 373.919511 613.881419 374.826572 
C 613.881419 375.733633 614.241798 376.603665 614.883187 377.245054 
C 615.524576 377.886443 616.394609 378.246822 617.30167 378.246822 
z
" clip-path="url(#p735a11947e)" style="fill: #4878d0; stroke: #000000; stroke-width: 0.1"/>
    <path d="M 628.609234 371.644867 
C 629.441925 371.644867 630.240623 371.314036 630.829425 370.725234 
C 631.418226 370.136433 631.749058 369.337735 631.749058 368.505044 
C 631.749058 367.672353 631.418226 366.873655 630.829425 366.284854 
C 630.240623 365.696052 629.441925 365.365221 628.609234 365.365221 
C 627.776544 365.365221 626.977845 365.696052 626.389044 366.284854 
C 625.800243 366.873655 625.469411 367.672353 625.469411 368.505044 
C 625.469411 369.337735 625.800243 370.136433 626.389044 370.725234 
C 626.977845 371.314036 627.776544 371.644867 628.609234 371.644867 
z
" clip-path="url(#p735a11947e)" style="fill: #d65f5f; stroke: #000000; stroke-width: 0.1"/>
    <path d="M 617.285373 380.385257 
C 618.6484 380.385257 619.955785 379.843721 620.919592 378.879915 
C 621.883398 377.916109 622.424934 376.608723 622.424934 375.245696 
C 622.424934 373.882668 621.883398 372.575283 620.919592 371.611477 
C 619.955785 370.647671 618.6484 370.106134 617.285373 370.106134 
C 615.922345 370.106134 614.61496 370.647671 613.651154 371.611477 
C 612.687348 372.575283 612.145811 373.882668 612.145811 375.245696 
C 612.145811 376.608723 612.687348 377.916109 613.651154 378.879915 
C 614.61496 379.843721 615.922345 380.385257 617.285373 380.385257 
z
" clip-path="url(#p735a11947e)" style="fill: #4878d0; stroke: #000000; stroke-width: 0.1"/>
    <path d="M 420.93344 537.477561 
C 421.592684 537.477561 422.225016 537.21564 422.691172 536.749484 
C 423.157328 536.283328 423.419249 535.650996 423.419249 534.991752 
C 423.419249 534.332508 423.157328 533.700176 422.691172 533.23402 
C 422.225016 532.767864 421.592684 532.505943 420.93344 532.505943 
C 420.274196 532.505943 419.641864 532.767864 419.175708 533.23402 
C 418.709552 533.700176 418.447631 534.332508 418.447631 534.991752 
C 418.447631 535.650996 418.709552 536.283328 419.175708 536.749484 
C 419.641864 537.21564 420.274196 537.477561 420.93344 537.477561 
z
" clip-path="url(#p735a11947e)" style="fill: #ee854a; stroke: #000000; stroke-width: 0.1"/>
    <path d="M 469.598368 563.287036 
C 471.706817 563.287036 473.729193 562.44934 475.220092 560.958442 
C 476.71099 559.467543 477.548686 557.445167 477.548686 555.336718 
C 477.548686 553.228269 476.71099 551.205893 475.220092 549.714995 
C 473.729193 548.224096 471.706817 547.386401 469.598368 547.386401 
C 467.489919 547.386401 465.467543 548.224096 463.976645 549.714995 
C 462.485746 551.205893 461.648051 553.228269 461.648051 555.336718 
C 461.648051 557.445167 462.485746 559.467543 463.976645 560.958442 
C 465.467543 562.44934 467.489919 563.287036 469.598368 563.287036 
z
" clip-path="url(#p735a11947e)" style="fill: #956cb4; stroke: #000000; stroke-width: 0.1"/>
    <path d="M 501.5089 444.877669 
C 501.928223 444.877669 502.330428 444.71107 502.626934 444.414564 
C 502.92344 444.118058 503.090039 443.715853 503.090039 443.29653 
C 503.090039 442.877207 502.92344 442.475002 502.626934 442.178496 
C 502.330428 441.88199 501.928223 441.715391 501.5089 441.715391 
C 501.089577 441.715391 500.687372 441.88199 500.390866 442.178496 
C 500.09436 442.475002 499.927762 442.877207 499.927762 443.29653 
C 499.927762 443.715853 500.09436 444.118058 500.390866 444.414564 
C 500.687372 444.71107 501.089577 444.877669 501.5089 444.877669 
z
" clip-path="url(#p735a11947e)" style="fill: #6acc64; stroke: #000000; stroke-width: 0.1"/>
    <path d="M 617.826805 375.614614 
C 618.246128 375.614614 618.648333 375.448016 618.944839 375.15151 
C 619.241345 374.855003 619.407944 374.452799 619.407944 374.033476 
C 619.407944 373.614153 619.241345 373.211948 618.944839 372.915442 
C 618.648333 372.618936 618.246128 372.452337 617.826805 372.452337 
C 617.407482 372.452337 617.005277 372.618936 616.708771 372.915442 
C 616.412265 373.211948 616.245666 373.614153 616.245666 374.033476 
C 616.245666 374.452799 616.412265 374.855003 616.708771 375.15151 
C 617.005277 375.448016 617.407482 375.614614 617.826805 375.614614 
z
" clip-path="url(#p735a11947e)" style="fill: #4878d0; stroke: #000000; stroke-width: 0.1"/>
    <path d="M 550.70954 420.981199 
C 551.460532 420.981199 552.180866 420.682826 552.711897 420.151795 
C 553.242929 419.620764 553.541301 418.90043 553.541301 418.149438 
C 553.541301 417.398446 553.242929 416.678112 552.711897 416.147081 
C 552.180866 415.61605 551.460532 415.317678 550.70954 415.317678 
C 549.958548 415.317678 549.238214 415.61605 548.707183 416.147081 
C 548.176152 416.678112 547.87778 417.398446 547.87778 418.149438 
C 547.87778 418.90043 548.176152 419.620764 548.707183 420.151795 
C 549.238214 420.682826 549.958548 420.981199 550.70954 420.981199 
z
" clip-path="url(#p735a11947e)" style="fill: #8c613c; stroke: #000000; stroke-width: 0.1"/>
    <path d="M 615.236654 377.055154 
C 615.895898 377.055154 616.52823 376.793233 616.994386 376.327077 
C 617.460542 375.860921 617.722463 375.228589 617.722463 374.569345 
C 617.722463 373.910101 617.460542 373.277769 616.994386 372.811613 
C 616.52823 372.345457 615.895898 372.083536 615.236654 372.083536 
C 614.57741 372.083536 613.945078 372.345457 613.478922 372.811613 
C 613.012766 373.277769 612.750845 373.910101 612.750845 374.569345 
C 612.750845 375.228589 613.012766 375.860921 613.478922 376.327077 
C 613.945078 376.793233 614.57741 377.055154 615.236654 377.055154 
z
" clip-path="url(#p735a11947e)" style="fill: #4878d0; stroke: #000000; stroke-width: 0.1"/>
    <path d="M 555.178992 360.312138 
C 557.094519 360.312138 558.931848 359.551091 560.28633 358.196609 
C 561.640812 356.842127 562.401859 355.004798 562.401859 353.089271 
C 562.401859 351.173744 561.640812 349.336414 560.28633 347.981932 
C 558.931848 346.627451 557.094519 345.866404 555.178992 345.866404 
C 553.263465 345.866404 551.426136 346.627451 550.071654 347.981932 
C 548.717172 349.336414 547.956125 351.173744 547.956125 353.089271 
C 547.956125 355.004798 548.717172 356.842127 550.071654 358.196609 
C 551.426136 359.551091 553.263465 360.312138 555.178992 360.312138 
z
" clip-path="url(#p735a11947e)" style="fill: #6acc64; stroke: #000000; stroke-width: 0.1"/>
    <path d="M 551.266516 359.505054 
C 552.478823 359.505054 553.64164 359.023399 554.49887 358.166169 
C 555.3561 357.308939 555.837755 356.146122 555.837755 354.933815 
C 555.837755 353.721508 555.3561 352.558691 554.49887 351.701461 
C 553.64164 350.84423 552.478823 350.362576 551.266516 350.362576 
C 550.054209 350.362576 548.891392 350.84423 548.034162 351.701461 
C 547.176931 352.558691 546.695277 353.721508 546.695277 354.933815 
C 546.695277 356.146122 547.176931 357.308939 548.034162 358.166169 
C 548.891392 359.023399 550.054209 359.505054 551.266516 359.505054 
z
" clip-path="url(#p735a11947e)" style="fill: #6acc64; stroke: #000000; stroke-width: 0.1"/>
    <path d="M 552.905881 360.202741 
C 554.52889 360.202741 556.085644 359.557913 557.233284 358.410272 
C 558.380925 357.262631 559.025753 355.705878 559.025753 354.082869 
C 559.025753 352.45986 558.380925 350.903107 557.233284 349.755466 
C 556.085644 348.607826 554.52889 347.962998 552.905881 347.962998 
C 551.282872 347.962998 549.726119 348.607826 548.578479 349.755466 
C 547.430838 350.903107 546.78601 352.45986 546.78601 354.082869 
C 546.78601 355.705878 547.430838 357.262631 548.578479 358.410272 
C 549.726119 359.557913 551.282872 360.202741 552.905881 360.202741 
z
" clip-path="url(#p735a11947e)" style="fill: #6acc64; stroke: #000000; stroke-width: 0.1"/>
    <path d="M 553.095865 358.797893 
C 554.550725 358.797893 555.946193 358.219872 556.974934 357.191131 
C 558.003674 356.16239 558.581696 354.766922 558.581696 353.312063 
C 558.581696 351.857203 558.003674 350.461735 556.974934 349.432995 
C 555.946193 348.404254 554.550725 347.826232 553.095865 347.826232 
C 551.641006 347.826232 550.245538 348.404254 549.216797 349.432995 
C 548.188056 350.461735 547.610035 351.857203 547.610035 353.312063 
C 547.610035 354.766922 548.188056 356.16239 549.216797 357.191131 
C 550.245538 358.219872 551.641006 358.797893 553.095865 358.797893 
z
" clip-path="url(#p735a11947e)" style="fill: #6acc64; stroke: #000000; stroke-width: 0.1"/>
    <path d="M 552.920951 358.230818 
C 554.283978 358.230818 555.591363 357.689282 556.55517 356.725476 
C 557.518976 355.76167 558.060512 354.454284 558.060512 353.091257 
C 558.060512 351.728229 557.518976 350.420844 556.55517 349.457038 
C 555.591363 348.493232 554.283978 347.951695 552.920951 347.951695 
C 551.557923 347.951695 550.250538 348.493232 549.286732 349.457038 
C 548.322926 350.420844 547.781389 351.728229 547.781389 353.091257 
C 547.781389 354.454284 548.322926 355.76167 549.286732 356.725476 
C 550.250538 357.689282 551.557923 358.230818 552.920951 358.230818 
z
" clip-path="url(#p735a11947e)" style="fill: #6acc64; stroke: #000000; stroke-width: 0.1"/>
    <path d="M 618.4123 376.445865 
C 619.071545 376.445865 619.703877 376.183944 620.170033 375.717788 
C 620.636189 375.251632 620.898109 374.6193 620.898109 373.960056 
C 620.898109 373.300812 620.636189 372.66848 620.170033 372.202324 
C 619.703877 371.736168 619.071545 371.474247 618.4123 371.474247 
C 617.753056 371.474247 617.120724 371.736168 616.654568 372.202324 
C 616.188412 372.66848 615.926492 373.300812 615.926492 373.960056 
C 615.926492 374.6193 616.188412 375.251632 616.654568 375.717788 
C 617.120724 376.183944 617.753056 376.445865 618.4123 376.445865 
z
" clip-path="url(#p735a11947e)" style="fill: #4878d0; stroke: #000000; stroke-width: 0.1"/>
    <path d="M 546.599769 400.501252 
C 547.152233 400.501252 547.682145 400.281756 548.072796 399.891104 
C 548.463448 399.500453 548.682945 398.970541 548.682945 398.418076 
C 548.682945 397.865612 548.463448 397.3357 548.072796 396.945048 
C 547.682145 396.554397 547.152233 396.3349 546.599769 396.3349 
C 546.047304 396.3349 545.517392 396.554397 545.126741 396.945048 
C 544.736089 397.3357 544.516592 397.865612 544.516592 398.418076 
C 544.516592 398.970541 544.736089 399.500453 545.126741 399.891104 
C 545.517392 400.281756 546.047304 400.501252 546.599769 400.501252 
z
" clip-path="url(#p735a11947e)" style="fill: #6acc64; stroke: #000000; stroke-width: 0.1"/>
    <path d="M 549.044529 398.133878 
C 549.596994 398.133878 550.126905 397.914381 550.517557 397.52373 
C 550.908208 397.133078 551.127705 396.603166 551.127705 396.050702 
C 551.127705 395.498237 550.908208 394.968325 550.517557 394.577674 
C 550.126905 394.187022 549.596994 393.967526 549.044529 393.967526 
C 548.492064 393.967526 547.962153 394.187022 547.571501 394.577674 
C 547.180849 394.968325 546.961353 395.498237 546.961353 396.050702 
C 546.961353 396.603166 547.180849 397.133078 547.571501 397.52373 
C 547.962153 397.914381 548.492064 398.133878 549.044529 398.133878 
z
" clip-path="url(#p735a11947e)" style="fill: #6acc64; stroke: #000000; stroke-width: 0.1"/>
    <path d="M 497.663873 554.661849 
C 498.323117 554.661849 498.955449 554.399928 499.421605 553.933772 
C 499.887761 553.467616 500.149682 552.835284 500.149682 552.17604 
C 500.149682 551.516796 499.887761 550.884464 499.421605 550.418308 
C 498.955449 549.952152 498.323117 549.690231 497.663873 549.690231 
C 497.004629 549.690231 496.372297 549.952152 495.906141 550.418308 
C 495.439985 550.884464 495.178064 551.516796 495.178064 552.17604 
C 495.178064 552.835284 495.439985 553.467616 495.906141 553.933772 
C 496.372297 554.399928 497.004629 554.661849 497.663873 554.661849 
z
" clip-path="url(#p735a11947e)" style="fill: #dc7ec0; stroke: #000000; stroke-width: 0.1"/>
    <path d="M 617.582239 376.799983 
C 618.001562 376.799983 618.403767 376.633384 618.700273 376.336878 
C 618.99678 376.040372 619.163378 375.638167 619.163378 375.218844 
C 619.163378 374.799521 618.99678 374.397317 618.700273 374.10081 
C 618.403767 373.804304 618.001562 373.637706 617.582239 373.637706 
C 617.162917 373.637706 616.760712 373.804304 616.464205 374.10081 
C 616.167699 374.397317 616.001101 374.799521 616.001101 375.218844 
C 616.001101 375.638167 616.167699 376.040372 616.464205 376.336878 
C 616.760712 376.633384 617.162917 376.799983 617.582239 376.799983 
z
" clip-path="url(#p735a11947e)" style="fill: #4878d0; stroke: #000000; stroke-width: 0.1"/>
    <path d="M 616.469039 382.994686 
C 618.244342 382.994686 619.947172 382.289351 621.2025 381.034022 
C 622.457829 379.778694 623.163164 378.075863 623.163164 376.300561 
C 623.163164 374.525258 622.457829 372.822427 621.2025 371.567099 
C 619.947172 370.31177 618.244342 369.606435 616.469039 369.606435 
C 614.693736 369.606435 612.990906 370.31177 611.735577 371.567099 
C 610.480248 372.822427 609.774913 374.525258 609.774913 376.300561 
C 609.774913 378.075863 610.480248 379.778694 611.735577 381.034022 
C 612.990906 382.289351 614.693736 382.994686 616.469039 382.994686 
z
" clip-path="url(#p735a11947e)" style="fill: #4878d0; stroke: #000000; stroke-width: 0.1"/>
    <path d="M 554.676824 389.931509 
C 555.096147 389.931509 555.498352 389.764911 555.794858 389.468404 
C 556.091364 389.171898 556.257963 388.769693 556.257963 388.35037 
C 556.257963 387.931048 556.091364 387.528843 555.794858 387.232336 
C 555.498352 386.93583 555.096147 386.769232 554.676824 386.769232 
C 554.257501 386.769232 553.855296 386.93583 553.55879 387.232336 
C 553.262284 387.528843 553.095685 387.931048 553.095685 388.35037 
C 553.095685 388.769693 553.262284 389.171898 553.55879 389.468404 
C 553.855296 389.764911 554.257501 389.931509 554.676824 389.931509 
z
" clip-path="url(#p735a11947e)" style="fill: #4878d0; stroke: #000000; stroke-width: 0.1"/>
    <path d="M 558.679548 352.660644 
C 559.098871 352.660644 559.501076 352.494046 559.797582 352.19754 
C 560.094088 351.901033 560.260687 351.498829 560.260687 351.079506 
C 560.260687 350.660183 560.094088 350.257978 559.797582 349.961472 
C 559.501076 349.664966 559.098871 349.498367 558.679548 349.498367 
C 558.260225 349.498367 557.85802 349.664966 557.561514 349.961472 
C 557.265008 350.257978 557.098409 350.660183 557.098409 351.079506 
C 557.098409 351.498829 557.265008 351.901033 557.561514 352.19754 
C 557.85802 352.494046 558.260225 352.660644 558.679548 352.660644 
z
" clip-path="url(#p735a11947e)" style="fill: #6acc64; stroke: #000000; stroke-width: 0.1"/>
    <path d="M 616.576253 381.281145 
C 617.61622 381.281145 618.613733 380.867962 619.3491 380.132594 
C 620.084468 379.397227 620.497651 378.399714 620.497651 377.359747 
C 620.497651 376.319781 620.084468 375.322268 619.3491 374.586901 
C 618.613733 373.851533 617.61622 373.43835 616.576253 373.43835 
C 615.536287 373.43835 614.538774 373.851533 613.803407 374.586901 
C 613.068039 375.322268 612.654856 376.319781 612.654856 377.359747 
C 612.654856 378.399714 613.068039 379.397227 613.803407 380.132594 
C 614.538774 380.867962 615.536287 381.281145 616.576253 381.281145 
z
" clip-path="url(#p735a11947e)" style="fill: #4878d0; stroke: #000000; stroke-width: 0.1"/>
    <path d="M 485.798161 538.864409 
C 486.457405 538.864409 487.089737 538.602489 487.555893 538.136333 
C 488.022049 537.670177 488.283969 537.037845 488.283969 536.378601 
C 488.283969 535.719356 488.022049 535.087024 487.555893 534.620868 
C 487.089737 534.154712 486.457405 533.892792 485.798161 533.892792 
C 485.138916 533.892792 484.506584 534.154712 484.040428 534.620868 
C 483.574272 535.087024 483.312352 535.719356 483.312352 536.378601 
C 483.312352 537.037845 483.574272 537.670177 484.040428 538.136333 
C 484.506584 538.602489 485.138916 538.864409 485.798161 538.864409 
z
" clip-path="url(#p735a11947e)" style="fill: #797979; stroke: #000000; stroke-width: 0.1"/>
    <path d="M 618.225693 377.117902 
C 618.976685 377.117902 619.697019 376.819529 620.22805 376.288498 
C 620.759081 375.757467 621.057454 375.037133 621.057454 374.286141 
C 621.057454 373.535149 620.759081 372.814815 620.22805 372.283784 
C 619.697019 371.752753 618.976685 371.45438 618.225693 371.45438 
C 617.474701 371.45438 616.754367 371.752753 616.223336 372.283784 
C 615.692305 372.814815 615.393932 373.535149 615.393932 374.286141 
C 615.393932 375.037133 615.692305 375.757467 616.223336 376.288498 
C 616.754367 376.819529 617.474701 377.117902 618.225693 377.117902 
z
" clip-path="url(#p735a11947e)" style="fill: #4878d0; stroke: #000000; stroke-width: 0.1"/>
    <path d="M 618.300665 380.853246 
C 618.85313 380.853246 619.383042 380.63375 619.773693 380.243098 
C 620.164345 379.852446 620.383841 379.322535 620.383841 378.77007 
C 620.383841 378.217605 620.164345 377.687694 619.773693 377.297042 
C 619.383042 376.906391 618.85313 376.686894 618.300665 376.686894 
C 617.748201 376.686894 617.218289 376.906391 616.827637 377.297042 
C 616.436986 377.687694 616.217489 378.217605 616.217489 378.77007 
C 616.217489 379.322535 616.436986 379.852446 616.827637 380.243098 
C 617.218289 380.63375 617.748201 380.853246 618.300665 380.853246 
z
" clip-path="url(#p735a11947e)" style="fill: #4878d0; stroke: #000000; stroke-width: 0.1"/>
    <path d="M 615.939634 378.070717 
C 616.358957 378.070717 616.761162 377.904118 617.057668 377.607612 
C 617.354174 377.311106 617.520773 376.908901 617.520773 376.489578 
C 617.520773 376.070255 617.354174 375.66805 617.057668 375.371544 
C 616.761162 375.075038 616.358957 374.908439 615.939634 374.908439 
C 615.520311 374.908439 615.118106 375.075038 614.8216 375.371544 
C 614.525094 375.66805 614.358495 376.070255 614.358495 376.489578 
C 614.358495 376.908901 614.525094 377.311106 614.8216 377.607612 
C 615.118106 377.904118 615.520311 378.070717 615.939634 378.070717 
z
" clip-path="url(#p735a11947e)" style="fill: #4878d0; stroke: #000000; stroke-width: 0.1"/>
    <path d="M 497.686075 552.519269 
C 498.105398 552.519269 498.507603 552.35267 498.804109 552.056164 
C 499.100615 551.759658 499.267214 551.357453 499.267214 550.93813 
C 499.267214 550.518807 499.100615 550.116602 498.804109 549.820096 
C 498.507603 549.52359 498.105398 549.356991 497.686075 549.356991 
C 497.266752 549.356991 496.864547 549.52359 496.568041 549.820096 
C 496.271535 550.116602 496.104936 550.518807 496.104936 550.93813 
C 496.104936 551.357453 496.271535 551.759658 496.568041 552.056164 
C 496.864547 552.35267 497.266752 552.519269 497.686075 552.519269 
z
" clip-path="url(#p735a11947e)" style="fill: #d5bb67; stroke: #000000; stroke-width: 0.1"/>
    <path d="M 616.953347 383.44739 
C 618.935269 383.44739 620.836283 382.659964 622.237714 381.258534 
C 623.639144 379.857104 624.42657 377.956089 624.42657 375.974167 
C 624.42657 373.992246 623.639144 372.091231 622.237714 370.689801 
C 620.836283 369.288371 618.935269 368.500945 616.953347 368.500945 
C 614.971425 368.500945 613.070411 369.288371 611.668981 370.689801 
C 610.26755 372.091231 609.480125 373.992246 609.480125 375.974167 
C 609.480125 377.956089 610.26755 379.857104 611.668981 381.258534 
C 613.070411 382.659964 614.971425 383.44739 616.953347 383.44739 
z
" clip-path="url(#p735a11947e)" style="fill: #4878d0; stroke: #000000; stroke-width: 0.1"/>
    <path d="M 453.651114 480.07199 
C 454.310358 480.07199 454.94269 479.810069 455.408846 479.343913 
C 455.875002 478.877757 456.136923 478.245425 456.136923 477.586181 
C 456.136923 476.926937 455.875002 476.294605 455.408846 475.828449 
C 454.94269 475.362293 454.310358 475.100372 453.651114 475.100372 
C 452.99187 475.100372 452.359538 475.362293 451.893382 475.828449 
C 451.427226 476.294605 451.165305 476.926937 451.165305 477.586181 
C 451.165305 478.245425 451.427226 478.877757 451.893382 479.343913 
C 452.359538 479.810069 452.99187 480.07199 453.651114 480.07199 
z
" clip-path="url(#p735a11947e)" style="fill: #6acc64; stroke: #000000; stroke-width: 0.1"/>
    <path d="M 622.797197 381.771604 
C 624.206889 381.771604 625.559033 381.211528 626.555835 380.214726 
C 627.552637 379.217923 628.112714 377.865779 628.112714 376.456088 
C 628.112714 375.046396 627.552637 373.694252 626.555835 372.69745 
C 625.559033 371.700648 624.206889 371.140571 622.797197 371.140571 
C 621.387506 371.140571 620.035362 371.700648 619.038559 372.69745 
C 618.041757 373.694252 617.481681 375.046396 617.481681 376.456088 
C 617.481681 377.865779 618.041757 379.217923 619.038559 380.214726 
C 620.035362 381.211528 621.387506 381.771604 622.797197 381.771604 
z
" clip-path="url(#p735a11947e)" style="fill: #4878d0; stroke: #000000; stroke-width: 0.1"/>
    <path d="M 500.334002 549.703438 
C 500.886467 549.703438 501.416379 549.483941 501.80703 549.09329 
C 502.197682 548.702638 502.417178 548.172726 502.417178 547.620262 
C 502.417178 547.067797 502.197682 546.537885 501.80703 546.147234 
C 501.416379 545.756582 500.886467 545.537086 500.334002 545.537086 
C 499.781537 545.537086 499.251626 545.756582 498.860974 546.147234 
C 498.470323 546.537885 498.250826 547.067797 498.250826 547.620262 
C 498.250826 548.172726 498.470323 548.702638 498.860974 549.09329 
C 499.251626 549.483941 499.781537 549.703438 500.334002 549.703438 
z
" clip-path="url(#p735a11947e)" style="fill: #d5bb67; stroke: #000000; stroke-width: 0.1"/>
    <path d="M 616.815444 386.996334 
C 619.467475 386.996334 622.011243 385.942671 623.886512 384.067402 
C 625.761781 382.192133 626.815444 379.648365 626.815444 376.996334 
C 626.815444 374.344303 625.761781 371.800536 623.886512 369.925266 
C 622.011243 368.049997 619.467475 366.996334 616.815444 366.996334 
C 614.163413 366.996334 611.619645 368.049997 609.744376 369.925266 
C 607.869107 371.800536 606.815444 374.344303 606.815444 376.996334 
C 606.815444 379.648365 607.869107 382.192133 609.744376 384.067402 
C 611.619645 385.942671 614.163413 386.996334 616.815444 386.996334 
z
" clip-path="url(#p735a11947e)" style="fill: #4878d0; stroke: #000000; stroke-width: 0.1"/>
    <path d="M 462.126817 471.057866 
C 462.679282 471.057866 463.209194 470.838369 463.599845 470.447718 
C 463.990497 470.057066 464.209993 469.527154 464.209993 468.97469 
C 464.209993 468.422225 463.990497 467.892313 463.599845 467.501662 
C 463.209194 467.11101 462.679282 466.891513 462.126817 466.891513 
C 461.574353 466.891513 461.044441 467.11101 460.653789 467.501662 
C 460.263138 467.892313 460.043641 468.422225 460.043641 468.97469 
C 460.043641 469.527154 460.263138 470.057066 460.653789 470.447718 
C 461.044441 470.838369 461.574353 471.057866 462.126817 471.057866 
z
" clip-path="url(#p735a11947e)" style="fill: #6acc64; stroke: #000000; stroke-width: 0.1"/>
    <path d="M 558.559552 353.525833 
C 559.969244 353.525833 561.321388 352.965756 562.31819 351.968954 
C 563.314992 350.972151 563.875069 349.620007 563.875069 348.210316 
C 563.875069 346.800624 563.314992 345.448481 562.31819 344.451678 
C 561.321388 343.454876 559.969244 342.894799 558.559552 342.894799 
C 557.149861 342.894799 555.797717 343.454876 554.800914 344.451678 
C 553.804112 345.448481 553.244035 346.800624 553.244035 348.210316 
C 553.244035 349.620007 553.804112 350.972151 554.800914 351.968954 
C 555.797717 352.965756 557.149861 353.525833 558.559552 353.525833 
z
" clip-path="url(#p735a11947e)" style="fill: #6acc64; stroke: #000000; stroke-width: 0.1"/>
    <path d="M 445.083231 480.690886 
C 445.502554 480.690886 445.904759 480.524287 446.201265 480.227781 
C 446.497771 479.931275 446.66437 479.52907 446.66437 479.109747 
C 446.66437 478.690424 446.497771 478.288219 446.201265 477.991713 
C 445.904759 477.695207 445.502554 477.528608 445.083231 477.528608 
C 444.663908 477.528608 444.261703 477.695207 443.965197 477.991713 
C 443.668691 478.288219 443.502093 478.690424 443.502093 479.109747 
C 443.502093 479.52907 443.668691 479.931275 443.965197 480.227781 
C 444.261703 480.524287 444.663908 480.690886 445.083231 480.690886 
z
" clip-path="url(#p735a11947e)" style="fill: #6acc64; stroke: #000000; stroke-width: 0.1"/>
    <path d="M 618.774325 377.061512 
C 619.874741 377.061512 620.930236 376.624312 621.708348 375.8462 
C 622.48646 375.068088 622.92366 374.012593 622.92366 372.912177 
C 622.92366 371.81176 622.48646 370.756266 621.708348 369.978154 
C 620.930236 369.200042 619.874741 368.762842 618.774325 368.762842 
C 617.673908 368.762842 616.618414 369.200042 615.840302 369.978154 
C 615.06219 370.756266 614.62499 371.81176 614.62499 372.912177 
C 614.62499 374.012593 615.06219 375.068088 615.840302 375.8462 
C 616.618414 376.624312 617.673908 377.061512 618.774325 377.061512 
z
" clip-path="url(#p735a11947e)" style="fill: #4878d0; stroke: #000000; stroke-width: 0.1"/>
    <path d="M 615.797899 380.745567 
C 616.70496 380.745567 617.574993 380.385188 618.216382 379.743799 
C 618.857771 379.10241 619.21815 378.232377 619.21815 377.325316 
C 619.21815 376.418255 618.857771 375.548223 618.216382 374.906834 
C 617.574993 374.265445 616.70496 373.905066 615.797899 373.905066 
C 614.890838 373.905066 614.020806 374.265445 613.379417 374.906834 
C 612.738028 375.548223 612.377649 376.418255 612.377649 377.325316 
C 612.377649 378.232377 612.738028 379.10241 613.379417 379.743799 
C 614.020806 380.385188 614.890838 380.745567 615.797899 380.745567 
z
" clip-path="url(#p735a11947e)" style="fill: #4878d0; stroke: #000000; stroke-width: 0.1"/>
    <path d="M 617.582265 376.801785 
C 618.001587 376.801785 618.403792 376.635187 618.700299 376.33868 
C 618.996805 376.042174 619.163403 375.639969 619.163403 375.220646 
C 619.163403 374.801324 618.996805 374.399119 618.700299 374.102612 
C 618.403792 373.806106 618.001587 373.639508 617.582265 373.639508 
C 617.162942 373.639508 616.760737 373.806106 616.464231 374.102612 
C 616.167724 374.399119 616.001126 374.801324 616.001126 375.220646 
C 616.001126 375.639969 616.167724 376.042174 616.464231 376.33868 
C 616.760737 376.635187 617.162942 376.801785 617.582265 376.801785 
z
" clip-path="url(#p735a11947e)" style="fill: #4878d0; stroke: #000000; stroke-width: 0.1"/>
   </g>
   <g id="PathCollection_2"/>
   <g id="PathCollection_3"/>
   <g id="PathCollection_4"/>
   <g id="PathCollection_5"/>
   <g id="PathCollection_6"/>
   <g id="PathCollection_7"/>
   <g id="PathCollection_8"/>
   <g id="PathCollection_9"/>
   <g id="PathCollection_10"/>
   <g id="PathCollection_11"/>
   <g id="PathCollection_12"/>
   <g id="PathCollection_13"/>
   <g id="PathCollection_14"/>
   <g id="PathCollection_15"/>
   <g id="matplotlib.axis_1"/>
   <g id="matplotlib.axis_2"/>
   <g id="LineCollection_1">
    <path d="M 483.735015 569.236022 
L 483.676678 569.318853 
L 478.340406 572.533165 
L 478.815612 577.137976 
L 472.292603 582.390423 
L 469.176513 581.409647 
L 461.758874 585.81154 
L 459.643016 583.508304 
L 456.107927 586.388657 
L 451.690557 585.709784 
L 449.805914 581.510894 
L 441.385914 583.677522 
L 437.643455 580.599218 
L 437.108636 584.25439 
L 434.16798 579.804866 
L 438.643687 578.470554 
L 437.339852 575.838939 
L 435.597004 579.147198 
L 431.270758 572.8027 
L 421.851803 574.588817 
L 418.178326 565.707362 
L 411.364062 565.035742 
L 409.995929 568.630745 
L 406.087403 569.472513 
L 390.969386 567.420686 
L 389.354708 564.749327 
L 397.842838 556.072105 
L 387.97082 562.755287 
L 389.437741 558.56541 
L 393.680954 556.910348 
L 390.121169 556.910348 
L 391.924907 553.352289 
L 385.01739 559.403367 
L 384.123185 553.299706 
L 399.471142 547.731686 
L 392.446952 548.132427 
L 399.143267 543.272576 
L 392.599393 545.616331 
L 392.482294 542.822802 
L 399.761119 541.495919 
L 396.820038 540.681379 
L 400.472225 538.656499 
L 390.993231 542.124889 
L 393.181477 535.093094 
L 396.539428 535.870722 
L 393.703097 534.116286 
L 394.666708 531.549868 
L 400.924011 533.073855 
L 397.830915 536.053946 
L 401.540161 534.192063 
L 401.737737 539.270394 
L 404.693722 537.613173 
L 400.23888 531.600731 
L 405.41164 531.884136 
L 404.841478 529.186581 
L 400.481167 530.360954 
L 399.284636 524.76775 
L 400.808616 523.300048 
L 404.109082 526.267217 
L 400.75028 522.986957 
L 402.527618 521.190991 
L 404.738432 525.243812 
L 403.62238 519.381396 
L 408.666971 521.225348 
L 403.888086 518.67446 
L 409.227765 513.010692 
L 412.156071 518.92102 
L 410.14624 512.2388 
L 413.574876 510.322668 
L 414.73649 514.256299 
L 413.886996 509.487529 
L 421.038929 502.767819 
L 425.782897 506.132377 
L 422.843945 499.455982 
L 430.713796 492.735378 
L 429.444026 490.150521 
L 438.248108 480.443651 
L 445.318711 478.439809 
L 447.853142 481.123732 
L 456.781561 473.793474 
L 462.013935 478.957764 
L 464.072309 477.649345 
L 460.763326 477.092368 
L 457.063023 473.632313 
L 466.827736 465.939774 
L 469.130951 468.608314 
L 467.988925 465.876821 
L 471.340062 464.07721 
L 472.085233 465.875645 
L 476.200277 460.549086 
L 478.293141 463.564635 
L 477.502835 458.625445 
L 482.411166 460.38767 
L 477.945253 457.697785 
L 485.175961 452.80525 
L 487.851336 455.616586 
L 485.316905 452.485549 
L 491.012988 446.103042 
L 494.396487 447.874213 
L 491.037685 445.786591 
L 494.571922 445.880209 
L 495.013063 443.62041 
L 496.757613 445.720972 
L 496.932196 443.82671 
L 501.246946 448.111248 
L 500.781108 444.702813 
L 495.955384 442.936371 
L 502.106659 439.931643 
L 504.640665 445.403114 
L 502.279965 439.788518 
L 515.653432 424.997139 
L 524.534161 394.408516 
L 531.686945 393.241001 
L 541.302624 381.104713 
L 543.280094 360.975457 
L 554.499806 351.080553 
L 553.84874 352.85799 
L 556.918416 351.478387 
L 554.978418 350.667927 
L 557.662735 348.235346 
L 566.849196 349.061252 
L 568.745336 350.330197 
L 560.664281 348.663528 
L 557.81475 353.88387 
L 562.149938 360.100511 
L 567.268621 358.348183 
L 567.481101 361.727953 
L 569.232038 361.160956 
L 567.487062 371.916363 
L 572.894019 378.764377 
L 584.057098 368.319173 
L 586.103549 370.510418 
L 590.824097 363.697983 
L 591.266941 366.130462 
L 589.067624 367.224572 
L 588.755504 370.819012 
L 594.021091 368.76726 
L 589.255407 372.131255 
L 591.648894 372.965557 
L 588.673322 376.336508 
L 590.404247 377.310254 
L 593.323611 374.819864 
L 591.522002 374.588033 
L 598.767614 372.747197 
L 591.790264 374.202547 
L 593.545885 369.553801 
L 594.406451 372.02211 
L 596.626207 370.433276 
L 596.236163 367.402926 
L 593.534388 367.935809 
L 594.570814 365.885074 
L 598.358835 368.413471 
L 598.078225 366.314378 
L 601.824516 365.916945 
L 601.428511 369.092295 
L 604.150299 366.285605 
L 601.568177 371.745594 
L 599.509803 370.52596 
L 600.636927 373.691491 
L 592.76665 376.830557 
L 604.254623 374.387075 
L 602.057009 378.330884 
L 598.777407 379.5397 
L 600.670992 377.355594 
L 598.615599 377.525908 
L 596.207634 383.088538 
L 603.139422 394.003302 
L 586.835093 417.274712 
L 587.509579 419.761449 
L 582.509698 421.398018 
L 574.383934 439.771646 
L 561.279579 446.437624 
L 557.650386 457.519566 
L 559.441776 456.818549 
L 559.209709 463.068039 
L 562.16399 464.126298 
L 557.745768 466.08569 
L 568.893944 466.614713 
L 571.16352 470.265852 
L 569.708522 474.43823 
L 566.660562 475.698742 
L 565.546638 470.475117 
L 565.591774 476.31064 
L 559.45157 473.37436 
L 545.615671 476.18151 
L 544.362507 472.215406 
L 530.30178 461.623227 
L 545.488779 476.22997 
L 534.222228 482.192372 
L 533.614595 480.219567 
L 534.081284 482.224961 
L 526.291485 487.148729 
L 520.629042 480.202399 
L 526.187162 487.229783 
L 520.781056 490.555458 
L 517.686683 499.472399 
L 515.347699 498.021858 
L 517.535946 499.715689 
L 515.861654 516.440694 
L 508.465731 514.865686 
L 515.628309 517.130688 
L 507.861504 528.760787 
L 507.023507 537.958972 
L 499.723392 547.763706 
L 503.791596 550.463274 
L 504.083703 549.913148 
L 504.723272 553.767496 
L 492.292126 557.362052 
L 483.735015 569.236022 
L 483.735015 569.236022 
" clip-path="url(#p735a11947e)" style="fill: none; stroke: #000000; stroke-width: 0.2"/>
    <path d="M 621.520009 366.532162 
L 621.607726 366.423267 
L 630.417344 347.914189 
L 628.531424 335.073082 
L 622.999279 327.932983 
L 624.880515 327.509204 
L 610.963712 323.160617 
L 603.707455 316.206531 
L 593.962329 313.067163 
L 588.462971 303.512981 
L 596.265118 295.489673 
L 606.313848 293.363574 
L 611.928175 287.07298 
L 614.463884 261.944419 
L 617.054948 261.042115 
L 618.428616 263.468093 
L 620.97497 261.145722 
L 618.916171 259.360365 
L 617.228679 260.940676 
L 620.370318 256.658166 
L 617.615742 258.150093 
L 616.62573 252.915502 
L 622.555583 250.739141 
L 621.520009 248.4876 
L 618.79013 250.708425 
L 615.021697 237.99638 
L 616.985966 234.878246 
L 614.603124 235.097595 
L 610.39355 224.675232 
L 613.756185 224.280956 
L 615.032768 230.407393 
L 614.684028 227.546839 
L 621.368846 224.674165 
L 616.149672 222.621796 
L 618.578502 220.62695 
L 617.054948 220.060693 
L 608.999017 224.324702 
L 607.136942 216.266203 
L 599.673741 203.575308 
L 601.940337 202.664682 
L 606.045587 207.56601 
L 605.092195 209.390632 
L 607.869338 210.420298 
L 607.324299 200.018706 
L 605.381747 202.202474 
L 602.579054 199.386489 
L 606.287874 198.042727 
L 606.684304 195.938333 
L 604.017446 198.368699 
L 602.975059 196.93303 
L 604.9768 196.962338 
L 606.615323 193.862476 
L 604.172441 195.823787 
L 602.592254 191.933945 
L 600.497687 192.248902 
L 603.485181 195.461706 
L 601.729986 197.149282 
L 592.917813 188.223107 
L 600.416782 199.527879 
L 596.720311 201.783459 
L 593.975955 194.481795 
L 577.699303 172.500672 
L 580.812838 167.50349 
L 578.196226 167.146708 
L 577.475752 171.715749 
L 572.001092 164.50832 
L 573.347934 162.713504 
L 572.150552 163.895484 
L 569.068527 160.464128 
L 571.836728 159.35549 
L 571.883993 154.124602 
L 557.512423 136.069846 
L 558.453893 134.221686 
L 568.7794 133.827837 
L 567.615231 137.29849 
L 564.661802 135.718091 
L 563.534678 138.243846 
L 565.943069 137.777073 
L 566.685684 141.137188 
L 567.149819 137.804467 
L 572.324708 146.922968 
L 569.894601 145.634653 
L 570.836497 147.54686 
L 575.30241 150.124807 
L 574.056485 154.254059 
L 576.417185 154.012827 
L 575.464218 149.076062 
L 578.591379 146.34432 
L 580.605468 148.62357 
L 577.812144 150.011634 
L 579.47579 153.373976 
L 582.615299 154.481272 
L 583.102002 150.821592 
L 588.557075 153.727951 
L 587.801686 156.922517 
L 591.522854 153.459217 
L 594.359185 158.117651 
L 597.61409 157.862549 
L 598.731846 159.711268 
L 595.521225 158.573509 
L 596.721589 160.408373 
L 594.765836 160.947212 
L 597.34668 161.03451 
L 598.287724 165.605711 
L 601.858581 165.250218 
L 598.638593 164.266978 
L 598.683729 162.044235 
L 601.219863 163.497696 
L 604.614434 159.73966 
L 603.486459 163.2554 
L 606.067303 166.218665 
L 604.115383 166.019205 
L 610.322865 173.586066 
L 610.336917 175.660946 
L 609.788897 175.303105 
L 608.973894 178.940271 
L 611.324374 178.279371 
L 611.952021 183.097629 
L 604.544601 178.438812 
L 604.277191 182.348795 
L 609.335834 182.449906 
L 608.370093 187.317631 
L 611.857491 189.646532 
L 611.347368 192.839907 
L 612.150023 190.926592 
L 618.347286 197.625415 
L 615.997657 199.586552 
L 619.602153 200.683856 
L 615.252913 201.462629 
L 615.869062 205.438805 
L 614.672106 202.620495 
L 614.253107 208.724121 
L 618.905525 208.926205 
L 615.232048 209.565443 
L 618.112238 216.790957 
L 614.127493 215.265919 
L 613.717862 218.561732 
L 619.567237 217.268458 
L 619.428848 219.565916 
L 620.56832 217.384721 
L 622.174482 220.263104 
L 624.359321 218.431046 
L 625.451103 221.282585 
L 628.58976 220.380563 
L 631.369459 222.722564 
L 632.870019 230.086312 
L 638.265053 228.684811 
L 639.335118 231.254262 
L 634.577098 217.777976 
L 637.461547 215.192548 
L 635.274578 213.014657 
L 636.438747 209.797304 
L 632.367562 204.787838 
L 637.078316 205.642232 
L 640.264239 214.218177 
L 646.251577 213.130735 
L 641.878917 218.35945 
L 646.34483 217.895325 
L 647.274803 231.063579 
L 650.949983 239.13887 
L 649.113883 243.154128 
L 652.729024 244.725448 
L 652.285755 246.635573 
L 657.728054 247.781834 
L 656.077182 244.638351 
L 683.076623 257.382817 
L 680.810453 258.045795 
L 683.30869 259.50716 
L 683.447931 257.501946 
L 690.750175 257.204809 
L 696.610621 253.254492 
L 699.446953 246.606251 
L 703.562848 246.428977 
L 706.518833 241.645236 
L 715.795992 242.260183 
L 716.353805 244.786202 
L 722.411828 246.943346 
L 717.784107 251.326585 
L 720.390074 250.176882 
L 716.366154 258.637053 
L 715.178991 276.736742 
L 708.958734 283.150863 
L 704.807922 282.897678 
L 703.924788 294.964697 
L 707.088569 297.721827 
L 703.285219 303.194508 
L 702.563894 295.728209 
L 691.309692 294.859989 
L 680.297776 300.810808 
L 675.366877 311.061946 
L 678.215131 316.176124 
L 681.785988 316.855669 
L 675.483975 334.586263 
L 669.670368 340.340632 
L 668.622871 347.700294 
L 659.880106 356.030737 
L 650.194168 375.576651 
L 635.310346 387.764508 
L 629.915312 389.068607 
L 626.961882 379.756687 
L 619.57916 381.632949 
L 620.475067 375.051716 
L 617.324061 376.272776 
L 618.311092 379.26119 
L 612.531125 377.325556 
L 617.823112 370.541502 
L 620.846375 370.232661 
L 618.812273 368.704574 
L 621.520009 366.532162 
L 621.520009 366.532162 
" clip-path="url(#p735a11947e)" style="fill: none; stroke: #000000; stroke-width: 0.2"/>
    <path d="M 427.899607 604.32345 
L 427.877464 604.322511 
L 423.086657 607.435604 
L 419.644396 605.758121 
L 415.562139 609.130371 
L 418.108493 610.415097 
L 412.750505 611.050212 
L 415.806981 603.23024 
L 420.004632 601.402254 
L 419.679312 589.422254 
L 422.039586 586.589752 
L 427.388207 588.016571 
L 432.514979 595.167105 
L 427.853193 594.094345 
L 425.667928 598.180746 
L 428.131674 596.306476 
L 431.828997 599.136275 
L 433.585044 596.391267 
L 434.133064 603.538598 
L 427.899607 604.32345 
" clip-path="url(#p735a11947e)" style="fill: none; stroke: #000000; stroke-width: 0.2"/>
   </g>
   <g id="patch_7">
    <path d="M 344.205044 640.8 
L 344.205044 86.4 
" style="fill: none"/>
   </g>
   <g id="patch_8">
    <path d="M 762.794956 640.8 
L 762.794956 86.4 
" style="fill: none"/>
   </g>
   <g id="patch_9">
    <path d="M 344.205044 640.8 
L 762.794956 640.8 
" style="fill: none"/>
   </g>
   <g id="patch_10">
    <path d="M 344.205044 86.4 
L 762.794956 86.4 
" style="fill: none"/>
   </g>
   <g id="legend_1">
    <g id="patch_11">
     <path d="M 351.205044 329.25 
L 489.811294 329.25 
Q 491.811294 329.25 491.811294 327.25 
L 491.811294 93.4 
Q 491.811294 91.4 489.811294 91.4 
L 351.205044 91.4 
Q 349.205044 91.4 349.205044 93.4 
L 349.205044 327.25 
Q 349.205044 329.25 351.205044 329.25 
z
" style="fill: #ffffff; opacity: 0.8"/>
    </g>
    <g id="text_1">
     <!-- Macroclimate -->
     <g transform="translate(381.205044 102.998437) scale(0.1 -0.1)">
      <defs>
       <path id="DejaVuSans-4d" d="M 628 4666 
L 1569 4666 
L 2759 1491 
L 3956 4666 
L 4897 4666 
L 4897 0 
L 4281 0 
L 4281 4097 
L 3078 897 
L 2444 897 
L 1241 4097 
L 1241 0 
L 628 0 
L 628 4666 
z
" transform="scale(0.015625)"/>
       <path id="DejaVuSans-61" d="M 2194 1759 
Q 1497 1759 1228 1600 
Q 959 1441 959 1056 
Q 959 750 1161 570 
Q 1363 391 1709 391 
Q 2188 391 2477 730 
Q 2766 1069 2766 1631 
L 2766 1759 
L 2194 1759 
z
M 3341 1997 
L 3341 0 
L 2766 0 
L 2766 531 
Q 2569 213 2275 61 
Q 1981 -91 1556 -91 
Q 1019 -91 701 211 
Q 384 513 384 1019 
Q 384 1609 779 1909 
Q 1175 2209 1959 2209 
L 2766 2209 
L 2766 2266 
Q 2766 2663 2505 2880 
Q 2244 3097 1772 3097 
Q 1472 3097 1187 3025 
Q 903 2953 641 2809 
L 641 3341 
Q 956 3463 1253 3523 
Q 1550 3584 1831 3584 
Q 2591 3584 2966 3190 
Q 3341 2797 3341 1997 
z
" transform="scale(0.015625)"/>
       <path id="DejaVuSans-63" d="M 3122 3366 
L 3122 2828 
Q 2878 2963 2633 3030 
Q 2388 3097 2138 3097 
Q 1578 3097 1268 2742 
Q 959 2388 959 1747 
Q 959 1106 1268 751 
Q 1578 397 2138 397 
Q 2388 397 2633 464 
Q 2878 531 3122 666 
L 3122 134 
Q 2881 22 2623 -34 
Q 2366 -91 2075 -91 
Q 1284 -91 818 406 
Q 353 903 353 1747 
Q 353 2603 823 3093 
Q 1294 3584 2113 3584 
Q 2378 3584 2631 3529 
Q 2884 3475 3122 3366 
z
" transform="scale(0.015625)"/>
       <path id="DejaVuSans-72" d="M 2631 2963 
Q 2534 3019 2420 3045 
Q 2306 3072 2169 3072 
Q 1681 3072 1420 2755 
Q 1159 2438 1159 1844 
L 1159 0 
L 581 0 
L 581 3500 
L 1159 3500 
L 1159 2956 
Q 1341 3275 1631 3429 
Q 1922 3584 2338 3584 
Q 2397 3584 2469 3576 
Q 2541 3569 2628 3553 
L 2631 2963 
z
" transform="scale(0.015625)"/>
       <path id="DejaVuSans-6f" d="M 1959 3097 
Q 1497 3097 1228 2736 
Q 959 2375 959 1747 
Q 959 1119 1226 758 
Q 1494 397 1959 397 
Q 2419 397 2687 759 
Q 2956 1122 2956 1747 
Q 2956 2369 2687 2733 
Q 2419 3097 1959 3097 
z
M 1959 3584 
Q 2709 3584 3137 3096 
Q 3566 2609 3566 1747 
Q 3566 888 3137 398 
Q 2709 -91 1959 -91 
Q 1206 -91 779 398 
Q 353 888 353 1747 
Q 353 2609 779 3096 
Q 1206 3584 1959 3584 
z
" transform="scale(0.015625)"/>
       <path id="DejaVuSans-6c" d="M 603 4863 
L 1178 4863 
L 1178 0 
L 603 0 
L 603 4863 
z
" transform="scale(0.015625)"/>
       <path id="DejaVuSans-69" d="M 603 3500 
L 1178 3500 
L 1178 0 
L 603 0 
L 603 3500 
z
M 603 4863 
L 1178 4863 
L 1178 4134 
L 603 4134 
L 603 4863 
z
" transform="scale(0.015625)"/>
       <path id="DejaVuSans-6d" d="M 3328 2828 
Q 3544 3216 3844 3400 
Q 4144 3584 4550 3584 
Q 5097 3584 5394 3201 
Q 5691 2819 5691 2113 
L 5691 0 
L 5113 0 
L 5113 2094 
Q 5113 2597 4934 2840 
Q 4756 3084 4391 3084 
Q 3944 3084 3684 2787 
Q 3425 2491 3425 1978 
L 3425 0 
L 2847 0 
L 2847 2094 
Q 2847 2600 2669 2842 
Q 2491 3084 2119 3084 
Q 1678 3084 1418 2786 
Q 1159 2488 1159 1978 
L 1159 0 
L 581 0 
L 581 3500 
L 1159 3500 
L 1159 2956 
Q 1356 3278 1631 3431 
Q 1906 3584 2284 3584 
Q 2666 3584 2933 3390 
Q 3200 3197 3328 2828 
z
" transform="scale(0.015625)"/>
       <path id="DejaVuSans-74" d="M 1172 4494 
L 1172 3500 
L 2356 3500 
L 2356 3053 
L 1172 3053 
L 1172 1153 
Q 1172 725 1289 603 
Q 1406 481 1766 481 
L 2356 481 
L 2356 0 
L 1766 0 
Q 1100 0 847 248 
Q 594 497 594 1153 
L 594 3053 
L 172 3053 
L 172 3500 
L 594 3500 
L 594 4494 
L 1172 4494 
z
" transform="scale(0.015625)"/>
       <path id="DejaVuSans-65" d="M 3597 1894 
L 3597 1613 
L 953 1613 
Q 991 1019 1311 708 
Q 1631 397 2203 397 
Q 2534 397 2845 478 
Q 3156 559 3463 722 
L 3463 178 
Q 3153 47 2828 -22 
Q 2503 -91 2169 -91 
Q 1331 -91 842 396 
Q 353 884 353 1716 
Q 353 2575 817 3079 
Q 1281 3584 2069 3584 
Q 2775 3584 3186 3129 
Q 3597 2675 3597 1894 
z
M 3022 2063 
Q 3016 2534 2758 2815 
Q 2500 3097 2075 3097 
Q 1594 3097 1305 2825 
Q 1016 2553 972 2059 
L 3022 2063 
z
" transform="scale(0.015625)"/>
      </defs>
      <use xlink:href="#DejaVuSans-4d"/>
      <use xlink:href="#DejaVuSans-61" x="86.279297"/>
      <use xlink:href="#DejaVuSans-63" x="147.558594"/>
      <use xlink:href="#DejaVuSans-72" x="202.539062"/>
      <use xlink:href="#DejaVuSans-6f" x="241.402344"/>
      <use xlink:href="#DejaVuSans-63" x="302.583984"/>
      <use xlink:href="#DejaVuSans-6c" x="357.564453"/>
      <use xlink:href="#DejaVuSans-69" x="385.347656"/>
      <use xlink:href="#DejaVuSans-6d" x="413.130859"/>
      <use xlink:href="#DejaVuSans-61" x="510.542969"/>
      <use xlink:href="#DejaVuSans-74" x="571.822266"/>
      <use xlink:href="#DejaVuSans-65" x="611.03125"/>
     </g>
    </g>
    <g id="PathCollection_16">
     <defs>
      <path id="m16a076bd68" d="M 0 3 
C 0.795609 3 1.55874 2.683901 2.12132 2.12132 
C 2.683901 1.55874 3 0.795609 3 0 
C 3 -0.795609 2.683901 -1.55874 2.12132 -2.12132 
C 1.55874 -2.683901 0.795609 -3 0 -3 
C -0.795609 -3 -1.55874 -2.683901 -2.12132 -2.12132 
C -2.683901 -1.55874 -3 -0.795609 -3 0 
C -3 0.795609 -2.683901 1.55874 -2.12132 2.12132 
C -1.55874 2.683901 -0.795609 3 0 3 
z
" style="stroke: #4878d0"/>
     </defs>
     <g>
      <use xlink:href="#m16a076bd68" x="363.205044" y="115.051562" style="fill: #4878d0; stroke: #4878d0"/>
     </g>
    </g>
    <g id="text_2">
     <!-- Mild, sub-humid -->
     <g transform="translate(381.205044 117.676562) scale(0.1 -0.1)">
      <defs>
       <path id="DejaVuSans-64" d="M 2906 2969 
L 2906 4863 
L 3481 4863 
L 3481 0 
L 2906 0 
L 2906 525 
Q 2725 213 2448 61 
Q 2172 -91 1784 -91 
Q 1150 -91 751 415 
Q 353 922 353 1747 
Q 353 2572 751 3078 
Q 1150 3584 1784 3584 
Q 2172 3584 2448 3432 
Q 2725 3281 2906 2969 
z
M 947 1747 
Q 947 1113 1208 752 
Q 1469 391 1925 391 
Q 2381 391 2643 752 
Q 2906 1113 2906 1747 
Q 2906 2381 2643 2742 
Q 2381 3103 1925 3103 
Q 1469 3103 1208 2742 
Q 947 2381 947 1747 
z
" transform="scale(0.015625)"/>
       <path id="DejaVuSans-2c" d="M 750 794 
L 1409 794 
L 1409 256 
L 897 -744 
L 494 -744 
L 750 256 
L 750 794 
z
" transform="scale(0.015625)"/>
       <path id="DejaVuSans-20" transform="scale(0.015625)"/>
       <path id="DejaVuSans-73" d="M 2834 3397 
L 2834 2853 
Q 2591 2978 2328 3040 
Q 2066 3103 1784 3103 
Q 1356 3103 1142 2972 
Q 928 2841 928 2578 
Q 928 2378 1081 2264 
Q 1234 2150 1697 2047 
L 1894 2003 
Q 2506 1872 2764 1633 
Q 3022 1394 3022 966 
Q 3022 478 2636 193 
Q 2250 -91 1575 -91 
Q 1294 -91 989 -36 
Q 684 19 347 128 
L 347 722 
Q 666 556 975 473 
Q 1284 391 1588 391 
Q 1994 391 2212 530 
Q 2431 669 2431 922 
Q 2431 1156 2273 1281 
Q 2116 1406 1581 1522 
L 1381 1569 
Q 847 1681 609 1914 
Q 372 2147 372 2553 
Q 372 3047 722 3315 
Q 1072 3584 1716 3584 
Q 2034 3584 2315 3537 
Q 2597 3491 2834 3397 
z
" transform="scale(0.015625)"/>
       <path id="DejaVuSans-75" d="M 544 1381 
L 544 3500 
L 1119 3500 
L 1119 1403 
Q 1119 906 1312 657 
Q 1506 409 1894 409 
Q 2359 409 2629 706 
Q 2900 1003 2900 1516 
L 2900 3500 
L 3475 3500 
L 3475 0 
L 2900 0 
L 2900 538 
Q 2691 219 2414 64 
Q 2138 -91 1772 -91 
Q 1169 -91 856 284 
Q 544 659 544 1381 
z
M 1991 3584 
L 1991 3584 
z
" transform="scale(0.015625)"/>
       <path id="DejaVuSans-62" d="M 3116 1747 
Q 3116 2381 2855 2742 
Q 2594 3103 2138 3103 
Q 1681 3103 1420 2742 
Q 1159 2381 1159 1747 
Q 1159 1113 1420 752 
Q 1681 391 2138 391 
Q 2594 391 2855 752 
Q 3116 1113 3116 1747 
z
M 1159 2969 
Q 1341 3281 1617 3432 
Q 1894 3584 2278 3584 
Q 2916 3584 3314 3078 
Q 3713 2572 3713 1747 
Q 3713 922 3314 415 
Q 2916 -91 2278 -91 
Q 1894 -91 1617 61 
Q 1341 213 1159 525 
L 1159 0 
L 581 0 
L 581 4863 
L 1159 4863 
L 1159 2969 
z
" transform="scale(0.015625)"/>
       <path id="DejaVuSans-2d" d="M 313 2009 
L 1997 2009 
L 1997 1497 
L 313 1497 
L 313 2009 
z
" transform="scale(0.015625)"/>
       <path id="DejaVuSans-68" d="M 3513 2113 
L 3513 0 
L 2938 0 
L 2938 2094 
Q 2938 2591 2744 2837 
Q 2550 3084 2163 3084 
Q 1697 3084 1428 2787 
Q 1159 2491 1159 1978 
L 1159 0 
L 581 0 
L 581 4863 
L 1159 4863 
L 1159 2956 
Q 1366 3272 1645 3428 
Q 1925 3584 2291 3584 
Q 2894 3584 3203 3211 
Q 3513 2838 3513 2113 
z
" transform="scale(0.015625)"/>
      </defs>
      <use xlink:href="#DejaVuSans-4d"/>
      <use xlink:href="#DejaVuSans-69" x="86.279297"/>
      <use xlink:href="#DejaVuSans-6c" x="114.0625"/>
      <use xlink:href="#DejaVuSans-64" x="141.845703"/>
      <use xlink:href="#DejaVuSans-2c" x="205.322266"/>
      <use xlink:href="#DejaVuSans-20" x="237.109375"/>
      <use xlink:href="#DejaVuSans-73" x="268.896484"/>
      <use xlink:href="#DejaVuSans-75" x="320.996094"/>
      <use xlink:href="#DejaVuSans-62" x="384.375"/>
      <use xlink:href="#DejaVuSans-2d" x="447.851562"/>
      <use xlink:href="#DejaVuSans-68" x="483.935547"/>
      <use xlink:href="#DejaVuSans-75" x="547.314453"/>
      <use xlink:href="#DejaVuSans-6d" x="610.693359"/>
      <use xlink:href="#DejaVuSans-69" x="708.105469"/>
      <use xlink:href="#DejaVuSans-64" x="735.888672"/>
     </g>
    </g>
    <g id="PathCollection_17">
     <defs>
      <path id="m99e8e8801a" d="M 0 3 
C 0.795609 3 1.55874 2.683901 2.12132 2.12132 
C 2.683901 1.55874 3 0.795609 3 0 
C 3 -0.795609 2.683901 -1.55874 2.12132 -2.12132 
C 1.55874 -2.683901 0.795609 -3 0 -3 
C -0.795609 -3 -1.55874 -2.683901 -2.12132 -2.12132 
C -2.683901 -1.55874 -3 -0.795609 -3 0 
C -3 0.795609 -2.683901 1.55874 -2.12132 2.12132 
C -1.55874 2.683901 -0.795609 3 0 3 
z
" style="stroke: #ee854a"/>
     </defs>
     <g>
      <use xlink:href="#m99e8e8801a" x="363.205044" y="129.729687" style="fill: #ee854a; stroke: #ee854a"/>
     </g>
    </g>
    <g id="text_3">
     <!-- Cool, sub-humid -->
     <g transform="translate(381.205044 132.354687) scale(0.1 -0.1)">
      <defs>
       <path id="DejaVuSans-43" d="M 4122 4306 
L 4122 3641 
Q 3803 3938 3442 4084 
Q 3081 4231 2675 4231 
Q 1875 4231 1450 3742 
Q 1025 3253 1025 2328 
Q 1025 1406 1450 917 
Q 1875 428 2675 428 
Q 3081 428 3442 575 
Q 3803 722 4122 1019 
L 4122 359 
Q 3791 134 3420 21 
Q 3050 -91 2638 -91 
Q 1578 -91 968 557 
Q 359 1206 359 2328 
Q 359 3453 968 4101 
Q 1578 4750 2638 4750 
Q 3056 4750 3426 4639 
Q 3797 4528 4122 4306 
z
" transform="scale(0.015625)"/>
      </defs>
      <use xlink:href="#DejaVuSans-43"/>
      <use xlink:href="#DejaVuSans-6f" x="69.824219"/>
      <use xlink:href="#DejaVuSans-6f" x="131.005859"/>
      <use xlink:href="#DejaVuSans-6c" x="192.1875"/>
      <use xlink:href="#DejaVuSans-2c" x="219.970703"/>
      <use xlink:href="#DejaVuSans-20" x="251.757812"/>
      <use xlink:href="#DejaVuSans-73" x="283.544922"/>
      <use xlink:href="#DejaVuSans-75" x="335.644531"/>
      <use xlink:href="#DejaVuSans-62" x="399.023438"/>
      <use xlink:href="#DejaVuSans-2d" x="462.5"/>
      <use xlink:href="#DejaVuSans-68" x="498.583984"/>
      <use xlink:href="#DejaVuSans-75" x="561.962891"/>
      <use xlink:href="#DejaVuSans-6d" x="625.341797"/>
      <use xlink:href="#DejaVuSans-69" x="722.753906"/>
      <use xlink:href="#DejaVuSans-64" x="750.537109"/>
     </g>
    </g>
    <g id="PathCollection_18">
     <defs>
      <path id="m55f3dc0cba" d="M 0 3 
C 0.795609 3 1.55874 2.683901 2.12132 2.12132 
C 2.683901 1.55874 3 0.795609 3 0 
C 3 -0.795609 2.683901 -1.55874 2.12132 -2.12132 
C 1.55874 -2.683901 0.795609 -3 0 -3 
C -0.795609 -3 -1.55874 -2.683901 -2.12132 -2.12132 
C -2.683901 -1.55874 -3 -0.795609 -3 0 
C -3 0.795609 -2.683901 1.55874 -2.12132 2.12132 
C -1.55874 2.683901 -0.795609 3 0 3 
z
" style="stroke: #6acc64"/>
     </defs>
     <g>
      <use xlink:href="#m55f3dc0cba" x="363.205044" y="144.407812" style="fill: #6acc64; stroke: #6acc64"/>
     </g>
    </g>
    <g id="text_4">
     <!-- Mild, humid -->
     <g transform="translate(381.205044 147.032812) scale(0.1 -0.1)">
      <use xlink:href="#DejaVuSans-4d"/>
      <use xlink:href="#DejaVuSans-69" x="86.279297"/>
      <use xlink:href="#DejaVuSans-6c" x="114.0625"/>
      <use xlink:href="#DejaVuSans-64" x="141.845703"/>
      <use xlink:href="#DejaVuSans-2c" x="205.322266"/>
      <use xlink:href="#DejaVuSans-20" x="237.109375"/>
      <use xlink:href="#DejaVuSans-68" x="268.896484"/>
      <use xlink:href="#DejaVuSans-75" x="332.275391"/>
      <use xlink:href="#DejaVuSans-6d" x="395.654297"/>
      <use xlink:href="#DejaVuSans-69" x="493.066406"/>
      <use xlink:href="#DejaVuSans-64" x="520.849609"/>
     </g>
    </g>
    <g id="PathCollection_19">
     <defs>
      <path id="ma41cd1704c" d="M 0 3 
C 0.795609 3 1.55874 2.683901 2.12132 2.12132 
C 2.683901 1.55874 3 0.795609 3 0 
C 3 -0.795609 2.683901 -1.55874 2.12132 -2.12132 
C 1.55874 -2.683901 0.795609 -3 0 -3 
C -0.795609 -3 -1.55874 -2.683901 -2.12132 -2.12132 
C -2.683901 -1.55874 -3 -0.795609 -3 0 
C -3 0.795609 -2.683901 1.55874 -2.12132 2.12132 
C -1.55874 2.683901 -0.795609 3 0 3 
z
" style="stroke: #d65f5f"/>
     </defs>
     <g>
      <use xlink:href="#ma41cd1704c" x="363.205044" y="159.085937" style="fill: #d65f5f; stroke: #d65f5f"/>
     </g>
    </g>
    <g id="text_5">
     <!-- Warm, sub-humid -->
     <g transform="translate(381.205044 161.710937) scale(0.1 -0.1)">
      <defs>
       <path id="DejaVuSans-57" d="M 213 4666 
L 850 4666 
L 1831 722 
L 2809 4666 
L 3519 4666 
L 4500 722 
L 5478 4666 
L 6119 4666 
L 4947 0 
L 4153 0 
L 3169 4050 
L 2175 0 
L 1381 0 
L 213 4666 
z
" transform="scale(0.015625)"/>
      </defs>
      <use xlink:href="#DejaVuSans-57"/>
      <use xlink:href="#DejaVuSans-61" x="92.501953"/>
      <use xlink:href="#DejaVuSans-72" x="153.78125"/>
      <use xlink:href="#DejaVuSans-6d" x="193.144531"/>
      <use xlink:href="#DejaVuSans-2c" x="290.556641"/>
      <use xlink:href="#DejaVuSans-20" x="322.34375"/>
      <use xlink:href="#DejaVuSans-73" x="354.130859"/>
      <use xlink:href="#DejaVuSans-75" x="406.230469"/>
      <use xlink:href="#DejaVuSans-62" x="469.609375"/>
      <use xlink:href="#DejaVuSans-2d" x="533.085938"/>
      <use xlink:href="#DejaVuSans-68" x="569.169922"/>
      <use xlink:href="#DejaVuSans-75" x="632.548828"/>
      <use xlink:href="#DejaVuSans-6d" x="695.927734"/>
      <use xlink:href="#DejaVuSans-69" x="793.339844"/>
      <use xlink:href="#DejaVuSans-64" x="821.123047"/>
     </g>
    </g>
    <g id="PathCollection_20">
     <defs>
      <path id="mf211a9f3bb" d="M 0 3 
C 0.795609 3 1.55874 2.683901 2.12132 2.12132 
C 2.683901 1.55874 3 0.795609 3 0 
C 3 -0.795609 2.683901 -1.55874 2.12132 -2.12132 
C 1.55874 -2.683901 0.795609 -3 0 -3 
C -0.795609 -3 -1.55874 -2.683901 -2.12132 -2.12132 
C -2.683901 -1.55874 -3 -0.795609 -3 0 
C -3 0.795609 -2.683901 1.55874 -2.12132 2.12132 
C -1.55874 2.683901 -0.795609 3 0 3 
z
" style="stroke: #956cb4"/>
     </defs>
     <g>
      <use xlink:href="#mf211a9f3bb" x="363.205044" y="173.764062" style="fill: #956cb4; stroke: #956cb4"/>
     </g>
    </g>
    <g id="text_6">
     <!-- Cold, sub-humid -->
     <g transform="translate(381.205044 176.389062) scale(0.1 -0.1)">
      <use xlink:href="#DejaVuSans-43"/>
      <use xlink:href="#DejaVuSans-6f" x="69.824219"/>
      <use xlink:href="#DejaVuSans-6c" x="131.005859"/>
      <use xlink:href="#DejaVuSans-64" x="158.789062"/>
      <use xlink:href="#DejaVuSans-2c" x="222.265625"/>
      <use xlink:href="#DejaVuSans-20" x="254.052734"/>
      <use xlink:href="#DejaVuSans-73" x="285.839844"/>
      <use xlink:href="#DejaVuSans-75" x="337.939453"/>
      <use xlink:href="#DejaVuSans-62" x="401.318359"/>
      <use xlink:href="#DejaVuSans-2d" x="464.794922"/>
      <use xlink:href="#DejaVuSans-68" x="500.878906"/>
      <use xlink:href="#DejaVuSans-75" x="564.257812"/>
      <use xlink:href="#DejaVuSans-6d" x="627.636719"/>
      <use xlink:href="#DejaVuSans-69" x="725.048828"/>
      <use xlink:href="#DejaVuSans-64" x="752.832031"/>
     </g>
    </g>
    <g id="PathCollection_21">
     <defs>
      <path id="m46bd1ad473" d="M 0 3 
C 0.795609 3 1.55874 2.683901 2.12132 2.12132 
C 2.683901 1.55874 3 0.795609 3 0 
C 3 -0.795609 2.683901 -1.55874 2.12132 -2.12132 
C 1.55874 -2.683901 0.795609 -3 0 -3 
C -0.795609 -3 -1.55874 -2.683901 -2.12132 -2.12132 
C -2.683901 -1.55874 -3 -0.795609 -3 0 
C -3 0.795609 -2.683901 1.55874 -2.12132 2.12132 
C -1.55874 2.683901 -0.795609 3 0 3 
z
" style="stroke: #8c613c"/>
     </defs>
     <g>
      <use xlink:href="#m46bd1ad473" x="363.205044" y="188.442187" style="fill: #8c613c; stroke: #8c613c"/>
     </g>
    </g>
    <g id="text_7">
     <!-- Cool, humid -->
     <g transform="translate(381.205044 191.067187) scale(0.1 -0.1)">
      <use xlink:href="#DejaVuSans-43"/>
      <use xlink:href="#DejaVuSans-6f" x="69.824219"/>
      <use xlink:href="#DejaVuSans-6f" x="131.005859"/>
      <use xlink:href="#DejaVuSans-6c" x="192.1875"/>
      <use xlink:href="#DejaVuSans-2c" x="219.970703"/>
      <use xlink:href="#DejaVuSans-20" x="251.757812"/>
      <use xlink:href="#DejaVuSans-68" x="283.544922"/>
      <use xlink:href="#DejaVuSans-75" x="346.923828"/>
      <use xlink:href="#DejaVuSans-6d" x="410.302734"/>
      <use xlink:href="#DejaVuSans-69" x="507.714844"/>
      <use xlink:href="#DejaVuSans-64" x="535.498047"/>
     </g>
    </g>
    <g id="PathCollection_22">
     <defs>
      <path id="m05319b0542" d="M 0 3 
C 0.795609 3 1.55874 2.683901 2.12132 2.12132 
C 2.683901 1.55874 3 0.795609 3 0 
C 3 -0.795609 2.683901 -1.55874 2.12132 -2.12132 
C 1.55874 -2.683901 0.795609 -3 0 -3 
C -0.795609 -3 -1.55874 -2.683901 -2.12132 -2.12132 
C -2.683901 -1.55874 -3 -0.795609 -3 0 
C -3 0.795609 -2.683901 1.55874 -2.12132 2.12132 
C -1.55874 2.683901 -0.795609 3 0 3 
z
" style="stroke: #dc7ec0"/>
     </defs>
     <g>
      <use xlink:href="#m05319b0542" x="363.205044" y="203.120312" style="fill: #dc7ec0; stroke: #dc7ec0"/>
     </g>
    </g>
    <g id="text_8">
     <!-- Cool, semi-arid -->
     <g transform="translate(381.205044 205.745312) scale(0.1 -0.1)">
      <use xlink:href="#DejaVuSans-43"/>
      <use xlink:href="#DejaVuSans-6f" x="69.824219"/>
      <use xlink:href="#DejaVuSans-6f" x="131.005859"/>
      <use xlink:href="#DejaVuSans-6c" x="192.1875"/>
      <use xlink:href="#DejaVuSans-2c" x="219.970703"/>
      <use xlink:href="#DejaVuSans-20" x="251.757812"/>
      <use xlink:href="#DejaVuSans-73" x="283.544922"/>
      <use xlink:href="#DejaVuSans-65" x="335.644531"/>
      <use xlink:href="#DejaVuSans-6d" x="397.167969"/>
      <use xlink:href="#DejaVuSans-69" x="494.580078"/>
      <use xlink:href="#DejaVuSans-2d" x="522.363281"/>
      <use xlink:href="#DejaVuSans-61" x="558.447266"/>
      <use xlink:href="#DejaVuSans-72" x="619.726562"/>
      <use xlink:href="#DejaVuSans-69" x="660.839844"/>
      <use xlink:href="#DejaVuSans-64" x="688.623047"/>
     </g>
    </g>
    <g id="PathCollection_23">
     <defs>
      <path id="mfe32cfa63c" d="M 0 3 
C 0.795609 3 1.55874 2.683901 2.12132 2.12132 
C 2.683901 1.55874 3 0.795609 3 0 
C 3 -0.795609 2.683901 -1.55874 2.12132 -2.12132 
C 1.55874 -2.683901 0.795609 -3 0 -3 
C -0.795609 -3 -1.55874 -2.683901 -2.12132 -2.12132 
C -2.683901 -1.55874 -3 -0.795609 -3 0 
C -3 0.795609 -2.683901 1.55874 -2.12132 2.12132 
C -1.55874 2.683901 -0.795609 3 0 3 
z
" style="stroke: #797979"/>
     </defs>
     <g>
      <use xlink:href="#mfe32cfa63c" x="363.205044" y="217.798437" style="fill: #797979; stroke: #797979"/>
     </g>
    </g>
    <g id="text_9">
     <!-- Low alpine, semi-arid -->
     <g transform="translate(381.205044 220.423437) scale(0.1 -0.1)">
      <defs>
       <path id="DejaVuSans-4c" d="M 628 4666 
L 1259 4666 
L 1259 531 
L 3531 531 
L 3531 0 
L 628 0 
L 628 4666 
z
" transform="scale(0.015625)"/>
       <path id="DejaVuSans-77" d="M 269 3500 
L 844 3500 
L 1563 769 
L 2278 3500 
L 2956 3500 
L 3675 769 
L 4391 3500 
L 4966 3500 
L 4050 0 
L 3372 0 
L 2619 2869 
L 1863 0 
L 1184 0 
L 269 3500 
z
" transform="scale(0.015625)"/>
       <path id="DejaVuSans-70" d="M 1159 525 
L 1159 -1331 
L 581 -1331 
L 581 3500 
L 1159 3500 
L 1159 2969 
Q 1341 3281 1617 3432 
Q 1894 3584 2278 3584 
Q 2916 3584 3314 3078 
Q 3713 2572 3713 1747 
Q 3713 922 3314 415 
Q 2916 -91 2278 -91 
Q 1894 -91 1617 61 
Q 1341 213 1159 525 
z
M 3116 1747 
Q 3116 2381 2855 2742 
Q 2594 3103 2138 3103 
Q 1681 3103 1420 2742 
Q 1159 2381 1159 1747 
Q 1159 1113 1420 752 
Q 1681 391 2138 391 
Q 2594 391 2855 752 
Q 3116 1113 3116 1747 
z
" transform="scale(0.015625)"/>
       <path id="DejaVuSans-6e" d="M 3513 2113 
L 3513 0 
L 2938 0 
L 2938 2094 
Q 2938 2591 2744 2837 
Q 2550 3084 2163 3084 
Q 1697 3084 1428 2787 
Q 1159 2491 1159 1978 
L 1159 0 
L 581 0 
L 581 3500 
L 1159 3500 
L 1159 2956 
Q 1366 3272 1645 3428 
Q 1925 3584 2291 3584 
Q 2894 3584 3203 3211 
Q 3513 2838 3513 2113 
z
" transform="scale(0.015625)"/>
      </defs>
      <use xlink:href="#DejaVuSans-4c"/>
      <use xlink:href="#DejaVuSans-6f" x="53.962891"/>
      <use xlink:href="#DejaVuSans-77" x="115.144531"/>
      <use xlink:href="#DejaVuSans-20" x="196.931641"/>
      <use xlink:href="#DejaVuSans-61" x="228.71875"/>
      <use xlink:href="#DejaVuSans-6c" x="289.998047"/>
      <use xlink:href="#DejaVuSans-70" x="317.78125"/>
      <use xlink:href="#DejaVuSans-69" x="381.257812"/>
      <use xlink:href="#DejaVuSans-6e" x="409.041016"/>
      <use xlink:href="#DejaVuSans-65" x="472.419922"/>
      <use xlink:href="#DejaVuSans-2c" x="533.943359"/>
      <use xlink:href="#DejaVuSans-20" x="565.730469"/>
      <use xlink:href="#DejaVuSans-73" x="597.517578"/>
      <use xlink:href="#DejaVuSans-65" x="649.617188"/>
      <use xlink:href="#DejaVuSans-6d" x="711.140625"/>
      <use xlink:href="#DejaVuSans-69" x="808.552734"/>
      <use xlink:href="#DejaVuSans-2d" x="836.335938"/>
      <use xlink:href="#DejaVuSans-61" x="872.419922"/>
      <use xlink:href="#DejaVuSans-72" x="933.699219"/>
      <use xlink:href="#DejaVuSans-69" x="974.8125"/>
      <use xlink:href="#DejaVuSans-64" x="1002.595703"/>
     </g>
    </g>
    <g id="PathCollection_24">
     <defs>
      <path id="m66cd431287" d="M 0 3 
C 0.795609 3 1.55874 2.683901 2.12132 2.12132 
C 2.683901 1.55874 3 0.795609 3 0 
C 3 -0.795609 2.683901 -1.55874 2.12132 -2.12132 
C 1.55874 -2.683901 0.795609 -3 0 -3 
C -0.795609 -3 -1.55874 -2.683901 -2.12132 -2.12132 
C -2.683901 -1.55874 -3 -0.795609 -3 0 
C -3 0.795609 -2.683901 1.55874 -2.12132 2.12132 
C -1.55874 2.683901 -0.795609 3 0 3 
z
" style="stroke: #d5bb67"/>
     </defs>
     <g>
      <use xlink:href="#m66cd431287" x="363.205044" y="232.476562" style="fill: #d5bb67; stroke: #d5bb67"/>
     </g>
    </g>
    <g id="text_10">
     <!-- Cold, semi-arid -->
     <g transform="translate(381.205044 235.101562) scale(0.1 -0.1)">
      <use xlink:href="#DejaVuSans-43"/>
      <use xlink:href="#DejaVuSans-6f" x="69.824219"/>
      <use xlink:href="#DejaVuSans-6c" x="131.005859"/>
      <use xlink:href="#DejaVuSans-64" x="158.789062"/>
      <use xlink:href="#DejaVuSans-2c" x="222.265625"/>
      <use xlink:href="#DejaVuSans-20" x="254.052734"/>
      <use xlink:href="#DejaVuSans-73" x="285.839844"/>
      <use xlink:href="#DejaVuSans-65" x="337.939453"/>
      <use xlink:href="#DejaVuSans-6d" x="399.462891"/>
      <use xlink:href="#DejaVuSans-69" x="496.875"/>
      <use xlink:href="#DejaVuSans-2d" x="524.658203"/>
      <use xlink:href="#DejaVuSans-61" x="560.742188"/>
      <use xlink:href="#DejaVuSans-72" x="622.021484"/>
      <use xlink:href="#DejaVuSans-69" x="663.134766"/>
      <use xlink:href="#DejaVuSans-64" x="690.917969"/>
     </g>
    </g>
    <g id="text_11">
     <!-- Count -->
     <g transform="translate(381.205044 249.779687) scale(0.1 -0.1)">
      <use xlink:href="#DejaVuSans-43"/>
      <use xlink:href="#DejaVuSans-6f" x="69.824219"/>
      <use xlink:href="#DejaVuSans-75" x="131.005859"/>
      <use xlink:href="#DejaVuSans-6e" x="194.384766"/>
      <use xlink:href="#DejaVuSans-74" x="257.763672"/>
     </g>
    </g>
    <g id="PathCollection_25">
     <defs>
      <path id="m1b9a0bea5d" d="M 0 4.365387 
C 1.157714 4.365387 2.268167 3.905422 3.086795 3.086795 
C 3.905422 2.268167 4.365387 1.157714 4.365387 0 
C 4.365387 -1.157714 3.905422 -2.268167 3.086795 -3.086795 
C 2.268167 -3.905422 1.157714 -4.365387 0 -4.365387 
C -1.157714 -4.365387 -2.268167 -3.905422 -3.086795 -3.086795 
C -3.905422 -2.268167 -4.365387 -1.157714 -4.365387 0 
C -4.365387 1.157714 -3.905422 2.268167 -3.086795 3.086795 
C -2.268167 3.905422 -1.157714 4.365387 0 4.365387 
z
" style="stroke: #333333"/>
     </defs>
     <g>
      <use xlink:href="#m1b9a0bea5d" x="363.205044" y="261.832812" style="fill: #333333; stroke: #333333"/>
     </g>
    </g>
    <g id="text_12">
     <!-- 10 -->
     <g transform="translate(381.205044 264.457812) scale(0.1 -0.1)">
      <defs>
       <path id="DejaVuSans-31" d="M 794 531 
L 1825 531 
L 1825 4091 
L 703 3866 
L 703 4441 
L 1819 4666 
L 2450 4666 
L 2450 531 
L 3481 531 
L 3481 0 
L 794 0 
L 794 531 
z
" transform="scale(0.015625)"/>
       <path id="DejaVuSans-30" d="M 2034 4250 
Q 1547 4250 1301 3770 
Q 1056 3291 1056 2328 
Q 1056 1369 1301 889 
Q 1547 409 2034 409 
Q 2525 409 2770 889 
Q 3016 1369 3016 2328 
Q 3016 3291 2770 3770 
Q 2525 4250 2034 4250 
z
M 2034 4750 
Q 2819 4750 3233 4129 
Q 3647 3509 3647 2328 
Q 3647 1150 3233 529 
Q 2819 -91 2034 -91 
Q 1250 -91 836 529 
Q 422 1150 422 2328 
Q 422 3509 836 4129 
Q 1250 4750 2034 4750 
z
" transform="scale(0.015625)"/>
      </defs>
      <use xlink:href="#DejaVuSans-31"/>
      <use xlink:href="#DejaVuSans-30" x="63.623047"/>
     </g>
    </g>
    <g id="PathCollection_26">
     <defs>
      <path id="m04c5827dd6" d="M 0 6.119872 
C 1.623009 6.119872 3.179762 5.475043 4.327403 4.327403 
C 5.475043 3.179762 6.119872 1.623009 6.119872 0 
C 6.119872 -1.623009 5.475043 -3.179762 4.327403 -4.327403 
C 3.179762 -5.475043 1.623009 -6.119872 0 -6.119872 
C -1.623009 -6.119872 -3.179762 -5.475043 -4.327403 -4.327403 
C -5.475043 -3.179762 -6.119872 -1.623009 -6.119872 0 
C -6.119872 1.623009 -5.475043 3.179762 -4.327403 4.327403 
C -3.179762 5.475043 -1.623009 6.119872 0 6.119872 
z
" style="stroke: #333333"/>
     </defs>
     <g>
      <use xlink:href="#m04c5827dd6" x="363.205044" y="276.510937" style="fill: #333333; stroke: #333333"/>
     </g>
    </g>
    <g id="text_13">
     <!-- 20 -->
     <g transform="translate(381.205044 279.135937) scale(0.1 -0.1)">
      <defs>
       <path id="DejaVuSans-32" d="M 1228 531 
L 3431 531 
L 3431 0 
L 469 0 
L 469 531 
Q 828 903 1448 1529 
Q 2069 2156 2228 2338 
Q 2531 2678 2651 2914 
Q 2772 3150 2772 3378 
Q 2772 3750 2511 3984 
Q 2250 4219 1831 4219 
Q 1534 4219 1204 4116 
Q 875 4013 500 3803 
L 500 4441 
Q 881 4594 1212 4672 
Q 1544 4750 1819 4750 
Q 2544 4750 2975 4387 
Q 3406 4025 3406 3419 
Q 3406 3131 3298 2873 
Q 3191 2616 2906 2266 
Q 2828 2175 2409 1742 
Q 1991 1309 1228 531 
z
" transform="scale(0.015625)"/>
      </defs>
      <use xlink:href="#DejaVuSans-32"/>
      <use xlink:href="#DejaVuSans-30" x="63.623047"/>
     </g>
    </g>
    <g id="PathCollection_27">
     <defs>
      <path id="mc549b5311b" d="M 0 7.473223 
C 1.981922 7.473223 3.882936 6.685797 5.284366 5.284366 
C 6.685797 3.882936 7.473223 1.981922 7.473223 0 
C 7.473223 -1.981922 6.685797 -3.882936 5.284366 -5.284366 
C 3.882936 -6.685797 1.981922 -7.473223 0 -7.473223 
C -1.981922 -7.473223 -3.882936 -6.685797 -5.284366 -5.284366 
C -6.685797 -3.882936 -7.473223 -1.981922 -7.473223 0 
C -7.473223 1.981922 -6.685797 3.882936 -5.284366 5.284366 
C -3.882936 6.685797 -1.981922 7.473223 0 7.473223 
z
" style="stroke: #333333"/>
     </defs>
     <g>
      <use xlink:href="#mc549b5311b" x="363.205044" y="291.189062" style="fill: #333333; stroke: #333333"/>
     </g>
    </g>
    <g id="text_14">
     <!-- 30 -->
     <g transform="translate(381.205044 293.814062) scale(0.1 -0.1)">
      <defs>
       <path id="DejaVuSans-33" d="M 2597 2516 
Q 3050 2419 3304 2112 
Q 3559 1806 3559 1356 
Q 3559 666 3084 287 
Q 2609 -91 1734 -91 
Q 1441 -91 1130 -33 
Q 819 25 488 141 
L 488 750 
Q 750 597 1062 519 
Q 1375 441 1716 441 
Q 2309 441 2620 675 
Q 2931 909 2931 1356 
Q 2931 1769 2642 2001 
Q 2353 2234 1838 2234 
L 1294 2234 
L 1294 2753 
L 1863 2753 
Q 2328 2753 2575 2939 
Q 2822 3125 2822 3475 
Q 2822 3834 2567 4026 
Q 2313 4219 1838 4219 
Q 1578 4219 1281 4162 
Q 984 4106 628 3988 
L 628 4550 
Q 988 4650 1302 4700 
Q 1616 4750 1894 4750 
Q 2613 4750 3031 4423 
Q 3450 4097 3450 3541 
Q 3450 3153 3228 2886 
Q 3006 2619 2597 2516 
z
" transform="scale(0.015625)"/>
      </defs>
      <use xlink:href="#DejaVuSans-33"/>
      <use xlink:href="#DejaVuSans-30" x="63.623047"/>
     </g>
    </g>
    <g id="PathCollection_28">
     <defs>
      <path id="m2bfc19ab02" d="M 0 8.61657 
C 2.285141 8.61657 4.476996 7.708674 6.092835 6.092835 
C 7.708674 4.476996 8.61657 2.285141 8.61657 0 
C 8.61657 -2.285141 7.708674 -4.476996 6.092835 -6.092835 
C 4.476996 -7.708674 2.285141 -8.61657 0 -8.61657 
C -2.285141 -8.61657 -4.476996 -7.708674 -6.092835 -6.092835 
C -7.708674 -4.476996 -8.61657 -2.285141 -8.61657 0 
C -8.61657 2.285141 -7.708674 4.476996 -6.092835 6.092835 
C -4.476996 7.708674 -2.285141 8.61657 0 8.61657 
z
" style="stroke: #333333"/>
     </defs>
     <g>
      <use xlink:href="#m2bfc19ab02" x="363.205044" y="305.867187" style="fill: #333333; stroke: #333333"/>
     </g>
    </g>
    <g id="text_15">
     <!-- 40 -->
     <g transform="translate(381.205044 308.492187) scale(0.1 -0.1)">
      <defs>
       <path id="DejaVuSans-34" d="M 2419 4116 
L 825 1625 
L 2419 1625 
L 2419 4116 
z
M 2253 4666 
L 3047 4666 
L 3047 1625 
L 3713 1625 
L 3713 1100 
L 3047 1100 
L 3047 0 
L 2419 0 
L 2419 1100 
L 313 1100 
L 313 1709 
L 2253 4666 
z
" transform="scale(0.015625)"/>
      </defs>
      <use xlink:href="#DejaVuSans-34"/>
      <use xlink:href="#DejaVuSans-30" x="63.623047"/>
     </g>
    </g>
    <g id="PathCollection_29">
     <defs>
      <path id="mf2c68a4753" d="M 0 9.625046 
C 2.552592 9.625046 5.00098 8.61089 6.805935 6.805935 
C 8.61089 5.00098 9.625046 2.552592 9.625046 0 
C 9.625046 -2.552592 8.61089 -5.00098 6.805935 -6.805935 
C 5.00098 -8.61089 2.552592 -9.625046 0 -9.625046 
C -2.552592 -9.625046 -5.00098 -8.61089 -6.805935 -6.805935 
C -8.61089 -5.00098 -9.625046 -2.552592 -9.625046 0 
C -9.625046 2.552592 -8.61089 5.00098 -6.805935 6.805935 
C -5.00098 8.61089 -2.552592 9.625046 0 9.625046 
z
" style="stroke: #333333"/>
     </defs>
     <g>
      <use xlink:href="#mf2c68a4753" x="363.205044" y="320.545312" style="fill: #333333; stroke: #333333"/>
     </g>
    </g>
    <g id="text_16">
     <!-- 50 -->
     <g transform="translate(381.205044 323.170312) scale(0.1 -0.1)">
      <defs>
       <path id="DejaVuSans-35" d="M 691 4666 
L 3169 4666 
L 3169 4134 
L 1269 4134 
L 1269 2991 
Q 1406 3038 1543 3061 
Q 1681 3084 1819 3084 
Q 2600 3084 3056 2656 
Q 3513 2228 3513 1497 
Q 3513 744 3044 326 
Q 2575 -91 1722 -91 
Q 1428 -91 1123 -41 
Q 819 9 494 109 
L 494 744 
Q 775 591 1075 516 
Q 1375 441 1709 441 
Q 2250 441 2565 725 
Q 2881 1009 2881 1497 
Q 2881 1984 2565 2268 
Q 2250 2553 1709 2553 
Q 1456 2553 1204 2497 
Q 953 2441 691 2322 
L 691 4666 
z
" transform="scale(0.015625)"/>
      </defs>
      <use xlink:href="#DejaVuSans-35"/>
      <use xlink:href="#DejaVuSans-30" x="63.623047"/>
     </g>
    </g>
   </g>
  </g>
 </g>
 <defs>
  <clipPath id="p735a11947e">
   <rect x="344.205044" y="86.4" width="418.589912" height="554.4"/>
  </clipPath>
 </defs>
</svg>
